<svg width="1024" height="1024" viewBox="0 0 1024 1024" fill="none" xmlns="http://www.w3.org/2000/svg">
<path d="M477.785 90.3492C486.422 90.3742 543.527 89.5628 547.662 91.3636C550.288 96.2801 549.327 105.407 549.219 111.314C554.585 111.344 563.396 110.015 567.348 112.608C570.022 116.292 568.709 125.984 568.472 131C572.431 130.976 583.773 130.522 587.129 131.521C589.796 137.154 589.809 187.775 587.657 193.593C583.922 195.877 573.047 194.918 568.221 194.784C568.248 211.544 572.383 214.423 553.286 213.952C553.448 234.607 553.502 255.262 553.448 275.918C578.515 276.036 583.407 268.635 583.076 296.078C587.901 295.979 598.228 295.038 601.889 297.493C604.481 300.963 603.513 311.838 603.682 317.212C669.915 318.007 736.296 316.983 802.541 317.428C804.456 317.441 806.351 317.502 807.942 318.612C810.473 323.217 809.417 331.832 809.207 337.417C817.227 337.323 845.751 337.662 852.261 340.643C854.643 343.71 853.648 353.999 853.52 358.462C877.111 358.109 875.812 357.257 874.844 380.771C878.322 380.717 892.371 380.078 894.476 381.479C896.506 388.441 895.728 417.419 895.708 426.978L895.735 489.02C901.358 489.222 907.327 489.286 912.958 488.9C924.597 488.104 922.648 498.684 922.371 506.757L935.27 507.054L934.992 519.44C955.166 519.71 955.274 515.043 954.577 538.315C959.991 538.432 969.377 537.139 973.715 539.215C974.744 541.078 975.028 555.429 974.791 557.939C973.81 568.281 976.347 642.085 973.891 645.753C969.262 648.386 960.207 647.432 954.563 647.323C954.577 653.326 954.55 659.329 954.482 665.331C949.745 666.292 940.156 666.664 934.884 667.098C936.203 682.04 936.988 682.263 921.41 681.81C922.811 706.05 916.795 699.716 895.417 699.52C895.924 731.286 895.017 763.208 895.66 794.994C895.728 798.317 896.053 808.339 894.341 810.613C889.624 813.002 879.858 812.142 874.221 812.041C874.864 831.883 869.87 827.43 852.383 827.308C852.43 832.505 853.283 840.795 850.041 844.538C843.599 847.542 816.672 846.839 808.442 846.764C808.51 851.183 809.498 862.857 806.981 865.462C799.753 867.608 739.693 866.836 728.473 866.518C728.5 887.132 733.345 887.585 710.992 887.883C712.143 913.646 714.39 912.225 688.565 911.846C688.66 916.617 689.384 928.182 687.53 931.931C679.72 934.97 560.249 933.413 542.289 933.407L391.912 933.413C377.27 933.427 355.596 933.786 340.31 933.041C339.859 932.689 339.408 932.337 338.957 931.979C336.418 926.761 337.268 917.72 337.36 911.629C331.452 911.731 321.174 913.05 316.77 910.208C313.629 906.026 315.008 893.764 315.138 887.592C292.879 887.585 295.517 889.48 295.807 866.911C285.593 866.708 198.466 868.596 194.919 865.564C192.306 860.529 193.293 852.239 193.455 846.297C187.161 846.203 175.798 847.928 171.999 845.262C169.168 841.235 170.135 833.162 170.272 827.931C163.665 828.1 158.111 828.208 151.47 827.897C150.987 822.097 151.06 817.475 151.14 811.628C146.307 811.763 134.447 813.239 130.908 810.153C129.65 809.05 130.017 709.597 129.962 699.54C123.128 699.391 106.054 701.076 101.826 697.28C101.077 694.072 104.961 687.332 105.615 682.013C100.294 681.789 95.3419 682.791 90.8619 680.382C87.8518 676.924 88.9474 669.324 89.0997 664.391C82.5022 664.336 76.6532 664.37 70.0625 663.653C69.7606 658.618 70.0022 651.884 70.0394 646.721C63.9244 647.073 53.9636 648.65 49.5079 645.043C49.043 642.234 48.9131 617.527 49.1486 614.935C50.0013 605.562 47.6232 543.065 50.3748 538.834C54.1301 536.649 64.7663 537.557 70.0753 537.4C69.9589 532.503 69.2206 524.909 71.0924 520.726C74.1811 517.681 84.8769 518.787 90.0025 518.738C89.43 509.381 88.2057 511.031 94.8168 504.88C96.3381 501.01 94.9399 496.834 94.0649 492.651L101.474 488.756C110.641 489.251 120.759 489.002 130.019 488.942C129.875 469.155 129.881 449.367 130.035 429.579C130.024 421.542 128.922 391.488 131.59 385.287C134.94 383.095 146.721 383.977 151.256 384.074C150.876 367.086 155.167 371.262 170.364 371.927C170.692 366.686 169.896 361.611 171.925 357.075C175.17 353.804 183.419 354.833 188.951 354.602C186.217 330.074 198.606 337.348 218.955 337.91C218.813 334.696 218.698 331.48 218.609 328.264C218.532 325.187 218.315 320.561 220.795 318.303C222.692 316.575 399.16 317.335 415.541 317.296C416.402 295.953 411.144 295.529 435.569 295.885C435.065 268.459 441.708 275.76 466.244 275.798C465.674 258.768 464.969 230.56 465.787 214.022C449.982 215.294 453.643 208.017 453.706 194.948C448.426 195.09 437.411 196.903 434.477 191.893C433.297 183.185 432.555 137.19 436.248 131.444C440.375 130.606 449.555 131.009 454.147 131.064C454.319 125.535 453.062 117.976 455.313 113.366C458.757 110.24 469.57 111.325 474.864 111.297C475.102 103.826 473.199 95.5465 477.785 90.3492Z" fill="black"/>
<path d="M327.238 339.508C352.888 337.635 388.594 340.252 415.423 339.52C415.48 345.307 415.435 351.431 415.734 357.183C418.672 357.245 424.87 357.227 427.515 357.562C429.98 357.42 432.447 357.307 434.916 357.225C434.918 363.21 434.827 368.291 435.595 374.272C441.95 374.994 454.954 374.548 462.093 374.524L510.029 374.486L560.805 374.515C565.068 374.514 580.058 374.747 583.279 374.188C584.044 368.814 583.78 362.586 583.726 357.092C589.877 357.157 595.907 357.333 602.045 356.783L602.35 339.704C665.137 340.867 730.476 338.108 793.216 339.535L807.692 339.401L807.725 358.262C811.373 358.333 826.207 358.194 829.002 358.695C836.013 359.222 847.47 357.672 851.51 360.372C852.918 362.469 852.37 364.697 852.173 367.316C852.16 371.713 851.937 378.488 852.248 382.701C859.286 382.707 866.358 382.801 873.382 382.384C872.448 397.132 872.902 413.302 872.909 428.212L872.766 490.027C867.373 489.81 858.9 488.728 854.556 491.194C853.798 492.458 853.419 492.518 853.601 493.711C854.278 498.281 851.273 501.233 851.036 505.066C850.786 509.197 851.003 514.353 851.124 518.538C844.296 518.634 835.573 518.381 829.043 519.763C828.481 524.573 828.637 532.936 828.894 537.915C825.693 537.898 810.879 537.268 809.282 538.197L808.362 539.22C807.407 542.171 807.509 643.418 808.768 646.071C813.329 647.98 822.796 646.714 828.332 646.917C828.711 651.235 827.114 661.325 829.787 664.539C829.909 664.688 831.513 665.162 831.77 665.25C832.413 667.307 831.892 672.538 833.881 672.498C855.855 672.078 850.928 677.6 853.283 699.236C859.895 699.398 866.513 699.459 873.132 699.412C872.584 710.544 872.577 722.197 872.712 733.377C872.997 757.645 872.293 782.21 872.956 806.444C866.114 806.404 858.034 806.18 851.287 806.37C851.158 812.819 851.111 819.262 851.145 825.711C836.906 825.102 821.409 825.332 807.083 825.285L806.717 843.604C796.16 844.179 786.097 843.698 775.594 843.793L700.673 844.22L505.935 844.199L394.89 844.098C384.145 844.078 354.447 844.95 345.46 843.665L194.67 843.807L194.613 825.298C187.836 825.332 178.485 825.643 171.93 825.034C172.152 818.314 172.151 813.699 171.571 807.053C165.556 806.83 158.805 806.992 152.733 806.999L152.631 743.812C153.621 719.517 152.731 689.179 152.75 664.174L152.887 513.583C152.926 493.799 152.564 473.674 152.866 453.937C152.658 432.696 152.674 411.455 152.915 390.215C159.257 390.404 165.759 390.207 172.115 390.101C172.744 384.955 172.642 379.621 172.663 374.425C178.943 374.51 185.224 374.4 191.497 374.097C191.845 369.048 191.701 362.803 191.716 357.656C199.898 357.468 208.083 357.462 216.265 357.638L219.563 356.853C222.234 353.648 220.834 344.011 220.618 339.464C230.89 339.696 241.605 339.592 251.914 339.649C277.022 339.741 302.13 339.695 327.238 339.508Z" fill="#C8CBD0"/>
<path d="M327.238 339.508C352.888 337.635 388.594 340.252 415.424 339.52C415.48 345.307 415.435 351.431 415.734 357.183C418.672 357.245 424.87 357.227 427.515 357.562C429.98 357.42 432.448 357.307 434.916 357.225C434.918 363.21 434.827 368.291 435.595 374.272C441.95 374.994 454.954 374.548 462.093 374.524L510.029 374.486L560.805 374.515C565.068 374.514 580.058 374.747 583.279 374.188C584.044 368.814 583.78 362.586 583.726 357.092C589.877 357.157 595.907 357.333 602.045 356.783L602.35 339.704C665.137 340.867 730.476 338.108 793.216 339.535L807.692 339.401L807.725 358.262C800.045 358.159 792.364 357.945 784.683 357.623L784.723 373.387C779.309 373.662 773.889 373.766 768.468 373.701L768.461 389.28C766.269 392.833 752.693 391.582 748.193 391.509C748.213 404.299 748.024 417.799 748.403 430.533L729.725 430.814L713.849 430.793L714.072 411.951C683.213 410.804 648.598 411.899 617.333 411.661L334.222 411.139L241.249 411.106C229.002 411.113 204.371 411.906 192.928 410.686C192.578 416.868 192.281 424.622 193.329 430.749C185.684 430.806 179.249 430.932 171.602 431.463C170.538 510.518 171.965 589.909 171.257 668.992C171.093 687.386 170.62 706.064 170.768 724.404C165.052 724.397 159.237 724.322 153.531 724.383C153.485 696.244 154.522 457.499 152.866 453.937C152.658 432.696 152.674 411.455 152.915 390.215C159.257 390.404 165.759 390.207 172.115 390.101C172.744 384.955 172.642 379.621 172.663 374.425C178.943 374.51 185.224 374.4 191.497 374.097C191.846 369.048 191.701 362.803 191.716 357.656C199.898 357.468 208.083 357.462 216.265 357.638L219.563 356.853C222.234 353.648 220.834 344.011 220.618 339.464C230.89 339.696 241.605 339.592 251.914 339.649C277.022 339.741 302.131 339.695 327.238 339.508Z" fill="#FBFBFC"/>
<path d="M602.349 339.704C665.137 340.867 730.476 338.109 793.216 339.535L807.691 339.401L807.725 358.262C800.044 358.159 792.363 357.946 784.682 357.624C770.606 358.946 742.908 357.819 727.884 357.704L720.46 357.751C717.388 357.442 713.7 357.649 710.56 357.645C679.998 357.595 649.504 358.069 618.95 357.387C617.17 357.953 615.546 358.457 613.739 358.945C610.768 357.845 605.347 357.268 602.045 356.783L602.349 339.704Z" fill="#9BA6B3"/>
<path d="M793.216 339.535L807.692 339.401L807.726 358.262C800.045 358.159 792.364 357.946 784.683 357.623C770.607 358.946 742.908 357.819 727.884 357.704C727.864 351.635 727.83 346.304 727.397 340.221C741.182 340.039 754.967 340.006 768.746 340.12C775.175 340.137 787.281 340.457 793.216 339.535Z" fill="#C8CBD0"/>
<path d="M602.349 339.704C665.137 340.867 730.476 338.109 793.216 339.535C787.281 340.457 775.174 340.137 768.745 340.12C754.967 340.006 741.182 340.039 727.397 340.221L619.606 340.259C619.376 345.912 619.065 351.748 618.95 357.387C617.17 357.953 615.546 358.457 613.739 358.945C610.768 357.845 605.347 357.268 602.045 356.783L602.349 339.704Z" fill="#677785"/>
<path d="M327.238 339.508C352.888 337.635 388.594 340.252 415.423 339.52C415.48 345.307 415.435 351.431 415.734 357.183C418.672 357.245 424.87 357.227 427.515 357.562C422.02 358.35 416.48 357.759 410.855 357.675C404.994 357.329 398.791 357.476 392.894 357.511C363.873 359.294 326.372 357.503 296.021 357.776L273.956 357.564C268.771 356.806 259.659 357.142 254.144 357.181C254.186 352.251 254.51 345.917 253.656 341.212L252.153 340.189L251.914 339.649C277.022 339.741 302.13 339.695 327.238 339.508Z" fill="#B7BEC8"/>
<path d="M327.238 339.508C352.887 337.635 388.594 340.252 415.423 339.52C415.48 345.307 415.435 351.431 415.734 357.183C418.672 357.245 424.87 357.227 427.515 357.562C422.02 358.35 416.48 357.759 410.855 357.675C404.993 357.329 398.791 357.476 392.893 357.511L393.115 340.161C373.801 339.872 345.763 340.762 327.238 339.508Z" fill="#73818E"/>
<path d="M392.894 357.511C398.791 357.476 404.994 357.329 410.855 357.675C412.122 364.264 412.576 367.04 412.459 373.851C373.483 372.945 334.497 372.573 295.51 372.736C295.504 367.975 295.831 362.584 296.021 357.776C326.372 357.503 363.873 359.294 392.894 357.511Z" fill="#DADAD9"/>
<path d="M618.95 357.387C649.505 358.069 679.999 357.595 710.56 357.644C713.7 357.649 717.388 357.442 720.461 357.751C715.493 358.186 711.223 358.379 706.229 358.511C693.066 358.368 678.618 357.906 665.55 358.161L665.834 373.574C661.145 374.281 648.632 373.941 643.265 373.916L605.72 373.918C605.754 370.065 611.215 362.258 613.739 358.945C615.546 358.457 617.17 357.953 618.95 357.387Z" fill="#C8CBD0"/>
<path d="M665.55 358.161C678.618 357.905 693.066 358.368 706.228 358.511C708.719 362.578 709.558 363.351 712.881 366.679L713.781 373.073C707.846 373.154 669.143 372.897 665.834 373.574L665.55 358.161Z" fill="#DADAD9"/>
<path d="M220.618 339.464C230.891 339.696 241.605 339.592 251.914 339.648L252.154 340.189L253.657 341.212C254.51 345.917 254.186 352.251 254.145 357.181C259.659 357.142 268.771 356.806 273.956 357.564C260.028 358.186 243.068 357.474 228.754 357.541C224.63 357.644 220.375 357.826 216.265 357.637L219.563 356.853C222.234 353.648 220.834 344.011 220.618 339.464Z" fill="#DADAD9"/>
<path d="M220.618 339.464C230.891 339.696 241.605 339.592 251.914 339.648L252.154 340.189C246.803 340.394 241.873 340.406 236.516 340.364C236.457 344.809 237.464 352.642 234.701 356.05C233.79 357.175 230.276 357.361 228.754 357.541C224.63 357.644 220.375 357.826 216.265 357.637L219.563 356.853C222.234 353.648 220.834 344.011 220.618 339.464Z" fill="#C8CBD0"/>
<path d="M583.726 357.092C589.877 357.157 595.907 357.333 602.045 356.783C605.348 357.268 610.768 357.845 613.739 358.945C611.215 362.258 605.754 370.065 605.72 373.918C598.262 373.92 590.723 373.838 583.279 374.188C584.044 368.814 583.78 362.586 583.726 357.092Z" fill="#718191"/>
<path d="M427.515 357.562C429.98 357.42 432.448 357.307 434.916 357.225C434.918 363.211 434.827 368.291 435.595 374.272C430.179 373.535 418.325 373.845 412.46 373.851C412.577 367.04 412.122 364.264 410.855 357.675C416.48 357.759 422.02 358.35 427.515 357.562Z" fill="#9BA6B3"/>
<path d="M807.726 358.262C811.373 358.333 826.207 358.194 829.002 358.695C836.013 359.222 847.47 357.672 851.51 360.372C852.918 362.469 852.37 364.697 852.174 367.315C852.16 371.713 851.937 378.488 852.248 382.701C859.286 382.706 866.358 382.801 873.382 382.384C872.449 397.132 872.902 413.302 872.909 428.212L872.767 490.027C867.373 489.809 858.9 488.728 854.556 491.194C853.798 492.458 853.419 492.518 853.602 493.711C854.278 498.281 851.274 501.233 851.037 505.066C850.786 509.197 851.003 514.353 851.125 518.538C844.296 518.634 835.573 518.381 829.043 519.763C828.481 524.573 828.637 532.936 828.894 537.915C825.693 537.898 810.879 537.268 809.282 538.197L808.362 539.22C807.408 542.171 807.509 643.418 808.768 646.071C813.329 647.98 822.796 646.714 828.332 646.917C827.879 650.768 828.102 654.632 827.689 657.745C826.728 665.06 825.456 670.813 825.05 678.365L827.554 679.949L827.534 752.556C827.554 758.727 828.156 780.952 827.48 785.384L829.422 787.502C829.286 790.744 828.779 796.219 830.714 798.756C828.752 798.824 829.327 798.912 827.432 798.486C827.229 801.382 827.676 801.856 826.282 803.859C817.802 805.334 790.212 803.379 786.456 806.424C784.811 811.168 785.562 818.395 785.786 823.545C779.898 823.789 772.745 823.654 767.203 824.012C767.832 803.439 766.783 784.186 767.047 764.297C767.324 758.294 767.277 751.547 767.372 745.49C768.143 734.169 767.771 716.073 767.785 704.325L767.839 630.337L768.265 411.253C767.521 406.913 767.372 394.806 768.509 390.627L768.461 389.28L768.468 373.701C773.889 373.766 779.309 373.662 784.723 373.387L784.683 357.623C792.364 357.945 800.045 358.159 807.726 358.262Z" fill="#556573"/>
<path d="M852.248 382.701C859.286 382.706 866.358 382.801 873.382 382.384C872.448 397.132 872.902 413.302 872.908 428.212L872.766 490.027C867.373 489.809 858.9 488.728 854.555 491.194C853.797 492.458 853.418 492.518 853.601 493.711C854.278 498.281 851.273 501.233 851.036 505.066C850.786 509.197 851.002 514.353 851.124 518.538C844.296 518.634 835.573 518.381 829.042 519.763C827.77 515.909 828.047 516.61 824.495 515.381L828.311 514.247C828.054 494.752 828.738 472.979 827.932 453.757C827.953 434.806 827.242 408.83 828.399 390.301L852.444 390.13L852.248 382.701Z" fill="#242B30"/>
<path d="M807.725 358.262C811.373 358.333 826.207 358.194 829.002 358.695C836.013 359.222 847.47 357.672 851.51 360.372C852.918 362.469 852.37 364.697 852.173 367.315C852.16 371.713 851.937 378.488 852.248 382.701L852.444 390.13L828.4 390.302C822.668 390.451 813.687 390.966 808.301 390.777L785.271 390.921C779.6 390.909 774.186 390.894 768.509 390.627L768.461 389.28L768.468 373.701C773.889 373.766 779.309 373.662 784.723 373.387L784.683 357.623C792.364 357.945 800.044 358.159 807.725 358.262Z" fill="#556573"/>
<path d="M784.723 373.388C792.485 373.142 800.254 373.247 808.023 373.29C807.759 379.36 808.037 384.731 808.301 390.777L785.271 390.922C779.6 390.909 774.186 390.895 768.509 390.627L768.461 389.281L768.468 373.702C773.889 373.767 779.309 373.662 784.723 373.388Z" fill="#707E8B"/>
<path d="M807.725 358.262C811.373 358.333 826.207 358.194 829.002 358.695L829.475 373.254L808.023 373.29C800.254 373.246 792.485 373.141 784.723 373.387L784.682 357.623C792.363 357.945 800.044 358.159 807.725 358.262Z" fill="#B7BEC8"/>
<path d="M829.002 358.695C836.013 359.222 847.47 357.672 851.51 360.372C852.918 362.469 852.37 364.696 852.173 367.315C851.158 369.116 851.422 371.18 851.402 373.329L829.476 373.254L829.002 358.695Z" fill="#718191"/>
<path d="M791.423 541.704C796.16 539.056 805.14 532.286 808.362 539.22C807.408 542.171 807.509 643.419 808.768 646.071C813.329 647.98 822.797 646.714 828.332 646.917C827.879 650.768 828.102 654.632 827.689 657.745C826.728 665.061 825.456 670.813 825.05 678.365L827.554 679.949C823.771 679.976 813.518 674.447 809.668 672.457C808.017 667.957 807.57 658.293 807.678 653.36C803.909 653.313 794.732 653.793 792.147 651.729C791.667 648.433 793.46 647.689 793.311 646.87C792.479 642.444 791.288 638.316 791.322 633.714L791.423 541.704Z" fill="#38444F"/>
<path d="M827.933 453.757C828.738 472.979 828.054 494.752 828.312 514.248L824.495 515.382C828.048 516.61 827.77 515.91 829.042 519.764C828.481 524.573 828.636 532.936 828.893 537.915C825.693 537.899 810.879 537.269 809.282 538.197C807.387 534.42 807.671 523.726 809.823 519.786C812.185 518.252 815.25 518.604 818.465 518.39C822.965 515.316 822.031 514.966 827.642 512.988C827.472 495.511 826.721 470.618 827.933 453.757Z" fill="#38444F"/>
<path d="M768.508 390.627C774.186 390.895 779.6 390.909 785.271 390.922C785.264 406.634 784.215 407.835 768.265 411.254C767.52 406.913 767.372 394.806 768.508 390.627Z" fill="#9BA6B3"/>
<path d="M827.48 785.384L829.422 787.502C829.286 790.744 828.779 796.219 830.714 798.756C828.752 798.824 829.327 798.912 827.432 798.486C827.473 795.298 826.492 786.995 827.48 785.384Z" fill="#2A3844"/>
<path d="M828.332 646.917C828.711 651.235 827.114 661.325 829.787 664.54C829.909 664.689 831.513 665.162 831.77 665.25C832.413 667.308 831.892 672.539 833.882 672.498C855.855 672.078 850.929 677.601 853.284 699.236C859.895 699.398 866.514 699.459 873.132 699.412C872.584 710.544 872.577 722.198 872.713 733.377C872.997 757.645 872.293 782.211 872.956 806.444C866.115 806.404 858.034 806.181 851.287 806.37C851.159 812.819 851.111 819.262 851.145 825.711C836.907 825.102 821.409 825.332 807.083 825.285L806.717 843.604C796.16 844.179 786.097 843.699 775.594 843.793L700.673 844.22L505.935 844.2L394.89 844.098C384.146 844.078 354.447 844.951 345.46 843.665L194.671 843.807L194.613 825.298C187.837 825.332 178.485 825.643 171.931 825.034C179.003 824.188 188.921 825.616 194.688 824.31C207.171 823.045 239.981 823.891 253.616 823.891L372.251 823.884L746.772 823.877C753.804 824.08 760.144 824.263 767.203 824.013C772.745 823.654 779.898 823.789 785.786 823.546C785.563 818.396 784.812 811.168 786.456 806.424C790.212 803.379 817.802 805.335 826.282 803.859C827.676 801.856 827.229 801.382 827.432 798.486C829.327 798.912 828.752 798.824 830.715 798.757C828.779 796.219 829.287 790.744 829.422 787.503L827.48 785.384C828.157 780.952 827.554 758.728 827.534 752.556L827.554 679.949L825.05 678.365C825.456 670.813 826.729 665.061 827.69 657.745C828.102 654.632 827.879 650.768 828.332 646.917Z" fill="#556573"/>
<path d="M828.332 646.917C828.711 651.235 827.114 661.325 829.787 664.54C829.909 664.689 831.513 665.162 831.77 665.25C832.413 667.308 831.892 672.539 833.882 672.498C855.855 672.078 850.929 677.601 853.284 699.236C859.895 699.398 866.514 699.459 873.132 699.412C872.584 710.544 872.577 722.198 872.713 733.377C872.997 757.645 872.293 782.211 872.956 806.444C866.115 806.404 858.034 806.181 851.287 806.37C851.159 812.819 851.111 819.262 851.145 825.711C836.907 825.102 821.409 825.332 807.083 825.285L806.717 843.604C796.16 844.179 786.097 843.699 775.594 843.793L700.673 844.22L505.935 844.2L394.89 844.098C384.146 844.078 354.447 844.951 345.46 843.665C356.814 842.819 378.247 843.509 390.468 843.516L479.976 843.557L766.553 843.597C766.628 837.114 766.573 830.455 767.203 824.013C772.745 823.654 779.898 823.789 785.786 823.546C785.563 818.396 784.812 811.168 786.456 806.424C790.212 803.379 817.802 805.335 826.282 803.859C827.676 801.856 827.229 801.382 827.432 798.486C829.327 798.912 828.752 798.824 830.714 798.757C828.779 796.219 829.287 790.744 829.422 787.503L827.48 785.384C828.156 780.952 827.554 758.728 827.534 752.556L827.554 679.949L825.05 678.365C825.456 670.813 826.729 665.061 827.689 657.745C828.102 654.632 827.879 650.768 828.332 646.917Z" fill="#242B30"/>
<path d="M829.421 787.502C832.034 787.536 834.416 787.211 836.419 788.761C839.417 793.999 835.356 797.024 830.714 798.757C828.779 796.219 829.286 790.744 829.421 787.502Z" fill="#9BA6B3"/>
<path d="M747.042 770.997C748.017 769.305 747.719 766.266 747.766 764.067C754.094 764.534 760.685 764.351 767.047 764.297C766.783 784.186 767.832 803.439 767.202 824.012C760.144 824.262 753.803 824.08 746.772 823.877C746.738 806.248 746.826 788.619 747.042 770.997Z" fill="#677785"/>
<path d="M152.631 743.812L153.623 745.809C157.314 746.776 167.719 746.133 171.908 746.12C172.062 761.238 173.006 790.886 171.5 804.867L171.571 807.053C165.556 806.83 158.805 806.992 152.733 806.999L152.631 743.812Z" fill="#556573"/>
<path d="M171.5 804.868C178.219 804.976 188.15 805.307 194.588 804.428L194.688 824.31C188.921 825.616 179.003 824.188 171.93 825.034C172.152 818.314 172.151 813.699 171.571 807.053L171.5 804.868Z" fill="#718191"/>
<path d="M747.678 745.491H767.371C767.277 751.548 767.324 758.295 767.047 764.297C760.685 764.352 754.094 764.534 747.766 764.067C747.719 766.267 748.017 769.305 747.042 770.997C746.697 764.758 747.259 751.879 747.678 745.491Z" fill="#718191"/>
<path d="M568.635 490.922C568.033 471.095 572.113 475.609 589.614 475.562C601.951 475.381 614.288 475.341 626.624 475.443C633.514 475.46 644.132 475.215 650.892 475.808C657.693 475.862 664.353 475.941 671.154 475.715C671.418 479.716 671.749 483.505 671.56 487.516C673.82 487.78 673.245 487.826 674.889 488.739C679.626 491.373 687.071 491.743 692.43 491.942C693.053 496.366 693.154 501.279 695.3 504.96C700.267 508.854 706.824 506.881 713.72 507.641C713.693 512.787 713.917 520.779 713.572 525.687C715.69 535.048 713.517 584.786 714.174 597.665C714.228 598.748 713.45 600.257 712.922 601.218C713.416 603.058 713.335 615.179 713.565 618.853C708.645 619.151 703.725 619.408 698.805 619.632C698.365 625.506 698 630.026 698.744 635.9C694.501 635.988 691.855 636.009 687.659 636.658C687.409 639.866 687.504 648.42 686.922 650.349C683.802 650.653 683.159 648.325 681.738 648.927C676.432 651.188 655.467 656.588 650.77 652.108C642.555 651.756 591.732 653.123 587.996 651.445C586.541 653.245 571.355 652.71 568.297 652.744C567.782 642.965 563.086 641.991 555.256 637.288C552.102 635.393 551.358 635.677 547.507 635.684C547.764 630.06 546.925 624.484 547.69 619.131L547.297 613.331L546.898 618.265C545.457 619.056 531.211 618.833 528.518 618.867C528.944 612.39 529.08 607.735 528.931 601.251C528.796 601.069 528.64 600.893 528.525 600.69C526.644 597.401 526.955 533.129 528.261 527.291C531.557 524.753 542.215 525.588 547.162 525.479C547.155 520.217 546.864 511.706 547.704 506.768C547.832 502.397 547.074 495.219 549.707 491.539C551.784 488.632 563.059 489.983 565.454 491.835C567.153 491.784 567.085 491.693 568.635 490.922Z" fill="black"/>
<path d="M695.245 601.116C700.781 600.804 707.311 601.102 712.921 601.217C713.415 603.058 713.334 615.178 713.564 618.853C708.644 619.151 703.725 619.408 698.805 619.631C698.365 625.505 697.999 630.026 698.744 635.9C694.501 635.988 691.855 636.008 687.659 636.658C687.409 639.866 687.503 648.42 686.921 650.348C683.801 650.653 683.159 648.325 681.737 648.927C676.432 651.187 655.467 656.588 650.77 652.108C651.244 650.172 651.264 649.739 652.184 647.939L653.829 649.475C656.177 648.988 656.746 647.533 658.627 645.388C662.471 645.381 671.532 646.281 672.967 642.085C671.586 637.078 670.578 634.188 674.591 630.175C676.662 629.789 676.858 629.972 678.401 628.639C679.538 625.749 679.274 622.771 679.315 619.604C684.627 619.564 689.933 619.361 695.232 618.995C695.563 613.588 695.299 606.638 695.245 601.116Z" fill="#FBFBFC"/>
<path d="M547.689 619.13L548.698 619.489C549.801 621.438 549.997 622.622 552.461 623.218C556.683 624.233 563.349 623.739 567.782 623.603C567.416 628.253 567.464 637.801 567.877 642.572L568.824 642.857C576.39 645.09 583.665 643.215 587.339 646.416C588.091 648.467 587.969 649.299 587.996 651.444C586.541 653.245 571.355 652.71 568.296 652.744C567.782 642.965 563.085 641.99 555.255 637.287C552.102 635.392 551.357 635.677 547.507 635.683C547.764 630.06 546.925 624.483 547.689 619.13Z" fill="#FBFBFC"/>
<path d="M695.299 504.959C700.266 508.853 706.824 506.88 713.72 507.641C713.693 512.787 713.916 520.779 713.571 525.687C711.446 525.172 698.784 525.197 695.475 525.125C695.448 520.095 695.57 514.726 695.326 509.72C695.204 507.222 695.11 507.677 693.485 506.435L693.296 505.914L695.299 504.959Z" fill="#DADAD9"/>
<path d="M650.892 475.808C657.693 475.862 664.352 475.94 671.154 475.714C671.418 479.716 671.749 483.504 671.56 487.516L671.526 491.511C664.203 492.214 658.681 492.334 651.373 492.417C651.048 486.886 650.987 481.347 650.892 475.808Z" fill="#242B30"/>
<path d="M528.931 601.251C535.549 600.784 540.801 600.615 547.439 600.628C547.412 603.958 547.561 610.238 547.297 613.331L546.898 618.264C545.457 619.056 531.211 618.833 528.518 618.866C528.944 612.39 529.08 607.734 528.931 601.251Z" fill="#DADAD9"/>
<path d="M568.635 490.922C568.033 471.095 572.113 475.609 589.614 475.562C588.774 479.258 588.477 486.183 588.402 490.119C583.482 490.221 573.074 490.162 568.635 490.922Z" fill="#171819"/>
<path d="M547.703 506.768C547.832 502.396 547.074 495.219 549.706 491.539C551.784 488.632 563.058 489.983 565.454 491.835L566.909 505.81C560.121 505.959 554.511 506.148 547.703 506.768Z" fill="#D7DAE1"/>
<path d="M671.559 487.516C673.82 487.78 673.244 487.826 674.889 488.739C679.626 491.373 687.07 491.743 692.43 491.942C693.052 496.366 693.154 501.279 695.299 504.96L693.296 505.915C690.623 505.911 689.148 506.024 686.562 505.45C681.731 501.7 688.451 497.761 675.796 494.207C674.402 492.026 674.564 492.652 671.525 491.511L671.559 487.516Z" fill="#FBFBFC"/>
<path d="M675.796 494.207C688.451 497.761 681.731 501.7 686.563 505.45C689.148 506.024 690.623 505.91 693.296 505.915L693.486 506.436L675.579 506.554C675.742 502.551 675.735 498.239 675.796 494.207Z" fill="#9BA6B3"/>
<path d="M548.698 619.489L549.537 619.631C555.695 620.612 564.926 618.63 567.498 621.154L567.782 623.604C563.349 623.739 556.683 624.233 552.46 623.218C549.997 622.622 549.801 621.438 548.698 619.489Z" fill="#DADAD9"/>
<path d="M569.961 510.177C574.427 506.529 573.189 508.01 575.185 502.575C576.228 499.74 587.847 500.033 591.17 499.249L629.318 499.15C632.823 499.114 646.398 498.78 649.078 499.409C652.591 499.604 661.537 499.499 664.007 500.691C666.037 503.215 669.658 509.062 671.228 510.608C670.741 514.467 670.795 516.077 670.91 519.9C670.944 525.951 670.869 532.372 671.045 538.389C676.615 538.432 684.891 538.23 690.237 538.617C691.476 548.935 690.941 581.058 690.623 592.386L689.831 599.526C686.644 599.966 680.682 600.629 677.772 601.305L677.501 602.151C676.344 605.806 675.823 611.247 674.53 613.426L673.529 613.581L671.756 611.051L670.795 615.591C669.671 620.579 669.231 623.672 668.893 628.849L648.713 629.708C629.453 629.437 610.193 629.444 590.933 629.735C590.574 626.101 590.75 617.987 589.417 615.3C582.027 615.537 576.749 615.727 569.359 616.749C569.508 610.726 569.568 605.934 569.244 599.938C563.843 600.108 555.912 599.6 550.336 599.417C550.106 582.661 549.53 564.095 550.024 547.487C549.936 544.672 549.544 540.593 550.789 538.364C552.901 531.453 552.088 530.009 555.357 521.64C559.722 521.028 565.082 520.105 569.393 520.171L569.961 510.177Z" fill="#1FAADD"/>
<path d="M671.045 538.389C676.614 538.432 684.891 538.23 690.237 538.617C691.476 548.935 690.941 581.058 690.623 592.386L689.831 599.526C686.644 599.966 680.682 600.629 677.772 601.306L677.501 602.151C676.344 605.806 675.823 611.247 674.53 613.426L673.529 613.582L671.756 611.051L670.795 615.591C669.671 620.579 669.231 623.672 668.893 628.849L648.713 629.708C629.453 629.437 610.193 629.444 590.933 629.735C590.574 626.101 590.75 617.987 589.417 615.3L590.195 614.394C590.879 610.577 590.385 610.624 594.107 610.002C610.375 610.746 630.718 610.157 647.136 610.015C649.342 602.226 649.186 597.868 649.288 589.693C651.02 589.74 652.746 589.767 654.478 589.787C657.537 589.821 659.419 590.139 661.516 588.069C662.004 577.599 662.572 580.367 669.746 578.039C671.891 574.805 671.058 544.598 671.045 538.389Z" fill="#285376"/>
<path d="M649.566 615.693C656.191 615.145 664.054 615.483 670.795 615.591C669.671 620.579 669.231 623.671 668.893 628.848L648.713 629.708C648.632 623.976 648.611 621.296 649.566 615.693Z" fill="#131314"/>
<path d="M671.485 591.161C677.887 591.025 684.289 591.438 690.623 592.386L689.831 599.525C686.644 599.965 680.682 600.628 677.772 601.305L677.501 602.151C676.344 605.805 675.823 611.246 674.53 613.425L673.529 613.581L671.756 611.05C671.424 603.822 671.336 598.409 671.485 591.161Z" fill="#1D2935"/>
<path d="M569.961 510.177C574.427 506.529 573.189 508.01 575.185 502.575C576.227 499.74 587.847 500.033 591.17 499.249L629.317 499.15C632.823 499.114 646.398 498.78 649.078 499.409C649.376 506.663 649.443 512.104 649.261 519.379C645.16 519.196 634.42 517.714 632.16 520.877L632.22 519.515C616.825 519.14 604.901 519.265 589.545 520.157C589.227 527.426 589.309 532.127 589.647 539.332L588.605 539.683C581.885 539.608 576.173 539.578 569.46 538.904L569.514 538.234C569.812 532.663 569.629 526.175 569.609 520.529L569.392 520.171L569.961 510.177Z" fill="#FBFBFC"/>
<path d="M629.317 499.15C632.823 499.114 646.398 498.78 649.078 499.409C649.376 506.663 649.443 512.104 649.261 519.379C645.16 519.196 634.42 517.714 632.159 520.877L632.22 519.515C630.231 515.134 629.743 504.394 629.317 499.15Z" fill="#9AE0F3"/>
<path d="M569.961 510.177C574.427 506.528 573.189 508.01 575.185 502.575C576.227 499.739 587.847 500.032 591.17 499.249C591.075 505.029 591.183 513.881 590.344 519.363C586.378 519.441 572.539 519.384 569.609 520.529L569.392 520.171L569.961 510.177Z" fill="#285376"/>
<path d="M555.357 521.64C559.722 521.028 565.082 520.105 569.393 520.171L569.609 520.529C569.629 526.175 569.812 532.663 569.514 538.234L569.46 538.904C568.912 545.477 568.831 550.914 568.77 557.468C568.614 561.909 567.877 575.589 568.425 579.196C570.232 579.69 571.152 579.921 573.047 580.239L577.744 580.293L578.312 581.531L578.373 591.31C575.26 592.312 573.5 592.305 571.132 594.403C570.008 596.927 569.88 597.265 569.244 599.938C563.843 600.108 555.912 599.6 550.336 599.417C550.106 582.661 549.53 564.095 550.024 547.487C549.936 544.672 549.544 540.593 550.789 538.364C552.901 531.453 552.088 530.009 555.357 521.64Z" fill="#1F95CA"/>
<path d="M550.024 547.487C550.938 557.207 550.681 570.934 550.654 580.848C557.421 580.043 566.097 580.259 573.047 580.239L577.744 580.293L578.312 581.531L578.373 591.31C575.26 592.312 573.5 592.305 571.132 594.403C570.008 596.927 569.88 597.265 569.244 599.939C563.843 600.108 555.912 599.6 550.336 599.417C550.106 582.661 549.53 564.095 550.024 547.487Z" fill="#285376"/>
<path d="M555.357 521.64C559.722 521.028 565.082 520.105 569.393 520.171L569.609 520.529C569.63 526.175 569.812 532.663 569.515 538.234C563.465 538.397 556.778 538.732 550.789 538.364C552.901 531.453 552.089 530.009 555.357 521.64Z" fill="#2A3844"/>
<path d="M589.546 520.157C604.901 519.265 616.825 519.14 632.221 519.515L632.16 520.877C636.234 523.763 644.612 522.207 645.85 523.983C643.752 529.21 644.267 528.329 645.255 533.561L646.053 538.044C644.97 539.583 645.688 538.959 643.414 539.451L638.142 539.03C624.871 538.806 602.37 538.379 589.647 539.332C589.309 532.127 589.228 527.425 589.546 520.157Z" fill="#A2E3F4"/>
<path d="M638.142 539.031L635.699 537.741L635.408 536.328C637.648 533.5 641.972 533.525 645.254 533.561L646.053 538.044C644.97 539.584 645.687 538.959 643.414 539.452L638.142 539.031Z" fill="#9AE0F3"/>
<path d="M578.373 591.31C582.623 591.473 583.875 591.459 588.152 590.911L589.201 591.54C589.546 598.551 589.268 602.991 593.552 608.784C593.911 609.271 593.897 609.393 594.107 610.002C590.385 610.624 590.879 610.577 590.195 614.394L589.417 615.3C582.027 615.537 576.749 615.727 569.359 616.749C569.508 610.726 569.568 605.934 569.244 599.939C569.88 597.265 570.008 596.927 571.132 594.403C573.5 592.305 575.26 592.312 578.373 591.31Z" fill="#235E8E"/>
<path d="M649.078 499.409C652.59 499.604 661.537 499.499 664.007 500.691C666.037 503.215 669.658 509.062 671.228 510.608C670.74 514.467 670.795 516.077 670.91 519.9C665.794 519.36 654.844 519.47 649.261 519.379C649.443 512.104 649.376 506.663 649.078 499.409Z" fill="#285376"/>
<path d="M569.46 538.904C576.173 539.577 581.885 539.608 588.605 539.683C588.476 545.815 588.402 550.755 588.788 556.921C581.242 556.684 575.943 557.342 568.77 557.468C568.831 550.913 568.912 545.477 569.46 538.904Z" fill="#9AE0F3"/>
<path d="M632.16 520.877C634.42 517.714 645.16 519.195 649.261 519.379C649.396 523.693 650.141 533.38 648.861 536.944C650.438 536.951 651.142 536.768 652.705 536.489L653.436 537.343C652.245 540.154 645.843 540.192 643.414 539.451C645.688 538.959 644.97 539.583 646.053 538.044L645.254 533.561C644.266 528.329 643.752 529.21 645.85 523.982C644.612 522.207 636.234 523.763 632.16 520.877Z" fill="#61CCED"/>
<path d="M577.743 580.293C580.897 579.859 583.116 579.25 586.135 580.13L587.028 580.976C584.808 582.979 581.188 581.923 578.312 581.531L577.743 580.293Z" fill="#235E8E"/>
<path d="M671.228 510.608C671.83 514.332 671.654 516.248 671.539 519.976C676.622 520.293 681.697 520.672 686.766 521.113C689.101 528.766 688.87 531.074 690.237 538.617C684.891 538.23 676.615 538.432 671.045 538.389C670.869 532.372 670.944 525.951 670.91 519.9C670.795 516.077 670.741 514.467 671.228 510.608Z" fill="#2A3844"/>
<path d="M274.139 475.763C283.476 475.083 331.344 474.237 338.757 475.79C344.899 476.108 351.054 476.075 357.192 475.688C360.624 478.975 357.209 485.915 359.097 490.028C361.886 490.794 362.099 491.179 364.315 488.97L368.351 489.885C372.169 490.544 374.674 491.034 378.6 491.123C378.525 496.318 378.519 499.786 380.435 504.825L379.902 505.996L380.755 507.584C380.741 513.502 380.62 519.749 380.79 525.638C386.758 525.758 392.728 525.712 398.692 525.501C402.517 531.743 399.278 581.957 400.416 592.014C400.616 593.787 400.21 599.106 399.604 600.838C399.07 607.301 398.962 611.869 399.436 618.4C393.955 618.447 388.937 618.494 383.477 618.88C383.495 621.892 383.989 632.435 382.879 634.594C376.77 637.193 365.411 637.253 358.735 637.409L358.77 638.526C360.55 642.417 358.607 648.284 357.568 652.663C353.658 652.744 340.695 653.427 337.586 652.013C317.274 651.438 294.42 651.986 273.859 652.067C266.975 652.703 259.952 652.758 253.032 652.92C252.836 646.315 252.243 644.718 250.239 638.58C243.756 637.795 239.222 637.281 232.836 635.683C233.147 631.826 232.238 621.249 233.305 619.361L232.797 618.474C230.995 619.164 216.604 618.616 213.604 618.555L213.548 601.569C216.971 601.508 218.088 601.501 221.401 600.757C218.283 600.838 214.789 601.596 212.926 598.896C211.9 591.33 212.359 531.396 214.013 525.595C212.903 523.795 213.519 510.833 213.571 507.867C218.834 508.186 228.384 507.398 230.645 507.621C231.592 509.084 231.658 516.39 232.293 519.15C232.354 515.675 231.808 510.087 233.23 507.571C235.981 505.93 236.679 506.429 240.132 506.294C240.784 505.799 240.373 506.042 241.586 505.709L242.634 505.431C244.403 503.339 244.165 501.442 244.696 498.318C240.826 498.104 238.44 497.254 237.651 493.125C239.029 491.15 238.681 491.781 241.906 491.142C244.949 490.694 249.474 489.209 251.267 492.091L252.033 492.233L253.874 491.112C256.403 489.375 252.959 481.761 255.186 477.044C259 474.078 268.572 476.136 274.139 475.763Z" fill="black"/>
<path d="M399.604 600.839C399.07 607.301 398.962 611.869 399.435 618.4C393.955 618.447 388.937 618.495 383.477 618.88C383.495 621.892 383.989 632.435 382.879 634.594C376.769 637.193 365.411 637.254 358.734 637.409C359.39 631.109 359.843 625.776 360.093 619.456C380.546 619.828 381.385 622.135 380.588 601.082C386.96 601.136 393.24 601.278 399.604 600.839Z" fill="#FBFBFC"/>
<path d="M232.836 635.683C233.147 631.826 232.238 621.248 233.305 619.36C239.917 619.699 245.511 619.557 252.098 619.387C252.174 623.414 252.065 627.928 252.81 631.833C253.641 650.05 259.366 644.738 273.696 646.058L273.859 652.067C266.974 652.703 259.952 652.757 253.032 652.92C252.836 646.315 252.243 644.718 250.239 638.58C243.756 637.795 239.222 637.28 232.836 635.683Z" fill="#FBFBFC"/>
<path d="M221.401 600.757C225.217 600.73 228.924 600.622 232.728 600.947C232.535 607.186 232.349 612.208 232.796 618.474C230.994 619.165 216.604 618.616 213.604 618.556L213.547 601.569C216.971 601.509 218.088 601.502 221.401 600.757Z" fill="#FBFBFC"/>
<path d="M213.571 507.867C218.834 508.187 228.384 507.398 230.645 507.622C231.592 509.085 231.658 516.39 232.293 519.151C232.338 521.554 232.506 521.647 231.315 523.813C226.761 526.723 219.678 525.248 214.013 525.595C212.903 523.796 213.519 510.833 213.571 507.867Z" fill="#DADAD9"/>
<path d="M253.875 491.112C256.404 489.375 252.959 481.761 255.186 477.044C259 474.078 268.572 476.136 274.14 475.763L273.771 492.148C269.087 492.064 257.958 492.094 253.875 491.112Z" fill="#2A3844"/>
<path d="M338.758 475.79C344.9 476.108 351.055 476.074 357.193 475.688C357.356 478.933 356.877 488.158 357.976 490.541C358.277 491.197 359.581 491.44 360.344 491.622C355.051 491.321 344.178 492.013 337.967 491.934C338.171 486.435 338.659 481.476 338.758 475.79Z" fill="#38444F"/>
<path d="M357.193 475.688C360.624 478.975 357.209 485.915 359.098 490.028C361.886 490.794 362.099 491.178 364.315 488.97L368.351 489.885C372.169 490.544 374.675 491.034 378.6 491.123C378.525 496.318 378.519 499.786 380.435 504.825L379.902 505.996L378.224 505.912L361.026 506.072C361.093 502.279 361.503 494.902 360.344 491.622C359.581 491.44 358.277 491.197 357.976 490.541C356.877 488.158 357.356 478.933 357.193 475.688Z" fill="#DADAD9"/>
<path d="M368.351 489.885C372.169 490.544 374.675 491.035 378.6 491.123C378.525 496.319 378.519 499.786 380.435 504.825L379.902 505.996L378.224 505.912C376.553 498.648 368.708 495.336 366.871 491.027L368.351 489.885Z" fill="#FBFBFC"/>
<path d="M252.81 631.833C258.782 630.96 268.131 631.068 274.403 630.96C274.015 636.157 273.824 640.84 273.697 646.058C259.366 644.738 253.642 650.051 252.81 631.833Z" fill="#131314"/>
<path d="M358.77 638.526C360.549 642.417 358.606 648.284 357.568 652.663C353.658 652.744 340.695 653.427 337.586 652.013L338.811 647.56C344.913 640.745 354.302 650.707 358.77 638.526Z" fill="#FBFBFC"/>
<path d="M241.906 491.142C244.949 490.694 249.474 489.209 251.267 492.091L252.033 492.233C251.875 496.742 251.58 501.858 251.644 506.315C247.807 506.228 243.97 506.221 240.132 506.294C240.784 505.799 240.373 506.043 241.586 505.709L242.634 505.432C244.403 503.339 244.165 501.442 244.696 498.318C240.826 498.105 238.44 497.254 237.651 493.125C239.029 491.15 238.681 491.781 241.906 491.142Z" fill="#9BA6B3"/>
<path d="M241.906 491.142C244.949 490.694 249.474 489.209 251.267 492.091C249.359 493.175 248.924 494.053 246.777 493.001C244.952 494.853 245.39 495.28 244.696 498.318C240.826 498.105 238.44 497.254 237.651 493.125C239.029 491.15 238.681 491.781 241.906 491.142Z" fill="#DADAD9"/>
<path d="M241.906 491.142C244.949 490.694 249.474 489.209 251.267 492.091C249.359 493.175 248.924 494.053 246.777 493.001L245.769 492.68C244.378 493.166 243.737 493.323 242.316 493.679L241.635 492.936L241.906 491.142Z" fill="#FBFBFC"/>
<path d="M335.933 499.123C338.928 500.344 350.004 499.881 354.758 500.575C356.013 508.113 356.632 511.985 357.011 519.695C362.205 521.031 368.296 520.81 373.781 521.039C374.086 525.54 374.189 534.404 376.444 537.917C377.992 542.801 377.261 592.568 376.345 598.842C374.553 599.397 374.659 599.363 372.78 599.261C367.593 599.945 361.658 599.525 357.345 601.095C356.947 606.164 356.895 610.4 356.874 615.496C350.345 615.307 343.297 614.968 336.889 616.18C336.288 621.364 336.036 624.558 335.975 629.762C315.941 629.234 295.9 629.051 275.861 629.2C275.856 625.471 275.641 619.245 275.86 615.72C269.461 615.388 261.961 615.53 255.478 615.49C255.476 609.839 255.514 604.188 255.592 598.537C249.431 599.505 242.366 599.113 236.157 598.849C235.833 593.259 235.95 586.904 235.927 581.253C235.832 566.954 235.858 552.656 236.005 538.357C236.905 534.888 236.583 526.264 236.524 522.321C243.283 521.875 248.751 520.694 255.356 519.402C255.555 513.232 255.526 506.747 255.597 500.548C262.298 500.285 269.283 500.134 275.931 499.438C281.929 498.547 308.877 499.109 316.755 499.165C323.148 499.278 329.542 499.264 335.933 499.123Z" fill="#1FAADD"/>
<path d="M357.011 519.696C362.205 521.032 368.296 520.81 373.782 521.039C374.086 525.54 374.189 534.404 376.445 537.917C377.992 542.801 377.261 592.569 376.346 598.842C374.554 599.397 374.659 599.363 372.78 599.262C367.594 599.945 361.658 599.525 357.345 601.096C356.947 606.164 356.895 610.401 356.875 615.496C350.346 615.307 343.297 614.969 336.889 616.18C336.288 621.364 336.037 624.558 335.976 629.762C315.942 629.234 295.901 629.051 275.861 629.2C275.857 625.472 275.641 619.246 275.86 615.72C269.461 615.388 261.961 615.53 255.479 615.49C255.476 609.839 255.514 604.188 255.592 598.538C249.431 599.505 242.366 599.113 236.158 598.849C235.834 593.259 235.95 586.904 235.927 581.254C241.551 581.348 248.842 582.039 253.966 580.462C254.596 578.838 254.127 579.596 256.036 578.499L263.324 580.063C263.665 583.771 263.892 586.776 264.615 590.444C267.407 590.748 271.553 590.999 274.036 591.993C276.227 594.213 275.982 595.289 275.945 598.923C275.874 602.652 275.835 606.388 275.828 610.123C281.497 610.089 316.543 609.555 319.953 610.583C323.898 604.865 329.104 606.076 335.58 605.988C335.382 599.844 335.485 593.597 335.52 587.439C340.27 587.683 343.467 588.007 348.176 588.684C349.628 581.558 348.801 578.472 355.767 575.684C358.18 571.827 357.165 544.087 356.972 538.201L357.053 537.82L357.011 519.696Z" fill="#285376"/>
<path d="M253.966 580.462C258.296 582.12 257.003 595.045 255.592 598.537C249.431 599.505 242.366 599.113 236.158 598.849C235.834 593.259 235.95 586.904 235.927 581.254C241.551 581.348 248.842 582.039 253.966 580.462Z" fill="#285376"/>
<path d="M357.011 519.696C362.205 521.032 368.296 520.81 373.781 521.039C374.086 525.54 374.189 534.404 376.444 537.917C369.984 538.263 363.508 538.231 357.052 537.82L357.011 519.696Z" fill="#2A3844"/>
<path d="M357.345 601.095C357.167 597.258 355.892 591.486 359.358 589.395C362.884 590.654 358.285 596.122 359.733 599.119C362.977 597.644 368.739 598.876 372.78 599.262C367.593 599.945 361.657 599.525 357.345 601.095Z" fill="#2A3844"/>
<path d="M335.933 499.123C338.928 500.344 350.005 499.881 354.759 500.575C356.013 508.113 356.633 511.985 357.011 519.695L357.053 537.82L356.972 538.201C354.062 537.425 346.873 538.603 341.567 537.429L340.96 536.236L339.388 536.983L338.867 536.588C337.104 535.273 337.516 535.254 335.531 534.967C334.281 536.289 334.427 536.283 334.095 538.11C330.876 538.676 327.593 538.495 324.337 538.449C308.012 538.219 291.648 538.974 275.329 538.48L255.613 538.513L255.628 535.762C255.154 530.832 255.347 524.465 255.357 519.402C255.555 513.232 255.526 506.747 255.597 500.548C262.298 500.285 269.283 500.134 275.931 499.438C281.929 498.547 308.878 499.109 316.756 499.165C323.148 499.278 329.542 499.264 335.933 499.123Z" fill="#9AE0F3"/>
<path d="M275.931 499.438C281.929 498.547 308.878 499.109 316.756 499.165L318.015 518.668C305.919 518.9 286.607 518.722 275.292 520.028C275.245 523.464 275.641 536.554 275.329 538.48L255.613 538.513L255.628 535.762C255.154 530.832 255.347 524.465 255.357 519.402C255.555 513.232 255.526 506.747 255.597 500.548C262.298 500.285 269.283 500.134 275.931 499.438Z" fill="#FBFBFC"/>
<path d="M255.597 500.548C262.298 500.285 269.283 500.134 275.931 499.438C276.203 504.657 277.554 514.167 274.806 518.093C270.633 520.902 261.613 519.7 255.824 519.979C255.935 524.974 256.247 530.893 255.628 535.762C255.154 530.832 255.347 524.466 255.357 519.402C255.555 513.232 255.526 506.747 255.597 500.548Z" fill="#285376"/>
<path d="M335.933 499.123C338.928 500.343 350.004 499.881 354.758 500.575C356.013 508.113 356.632 511.985 357.011 519.695L357.052 537.82L356.972 538.201C354.062 537.424 346.872 538.603 341.567 537.428L340.96 536.236C336.638 526.775 336.561 531.909 336.543 519.393L336.193 519.296C335.823 514.175 336.008 508.18 336.039 502.977L335.933 499.123Z" fill="#2A3844"/>
<path d="M352.455 519.31C353.612 519.401 355.973 519.512 357.011 519.695L357.052 537.82L356.972 538.201C354.062 537.425 346.872 538.603 341.566 537.429L340.959 536.236C336.638 526.775 336.561 531.909 336.542 519.393C342.043 519.489 346.967 519.563 352.455 519.31Z" fill="#1F95CA"/>
<path d="M336.039 502.978C343.326 507.77 348.356 511.427 352.455 519.31C346.968 519.564 342.044 519.489 336.542 519.393L336.193 519.296C335.823 514.175 336.008 508.18 336.039 502.978Z" fill="#285376"/>
<path d="M336.192 519.297L336.542 519.393C336.56 531.909 336.638 526.776 340.959 536.237L339.387 536.983L338.867 536.588C337.103 535.274 337.515 535.254 335.53 534.968C334.28 536.289 334.427 536.283 334.094 538.11C328.473 532.362 333.551 527.345 326.423 519.887L327.091 519.236C330.158 519.392 333.162 519.693 336.192 519.297Z" fill="#61CCED"/>
<path d="M236.524 522.322C243.283 521.876 248.751 520.695 255.356 519.402C255.346 524.466 255.153 530.832 255.627 535.762L255.613 538.513C255.529 543.408 255.585 549.261 255.268 554.069C254.335 557.185 253.996 573.898 255.225 577.775L256.035 578.5C254.126 579.596 254.595 578.838 253.965 580.462C248.842 582.039 241.55 581.349 235.927 581.254C235.832 566.954 235.858 552.656 236.005 538.357C236.905 534.888 236.583 526.264 236.524 522.322Z" fill="#1F95CA"/>
<path d="M236.524 522.322C243.283 521.876 248.751 520.695 255.357 519.402C255.347 524.466 255.154 530.832 255.627 535.762L255.613 538.513L236.005 538.357C236.905 534.888 236.583 526.264 236.524 522.322Z" fill="#2A3844"/>
<path d="M255.613 538.513L275.329 538.48C273.94 542.275 274.549 551.989 274.677 556.371C270.768 556.42 257.938 557.382 255.509 555.648L255.268 554.069C255.585 549.26 255.529 543.408 255.613 538.513Z" fill="#61CCED"/>
<path d="M263.324 580.063C266.13 580.225 271.179 579.65 273.288 580.834C274.701 583.067 274 588.82 274.036 591.993C271.553 590.999 267.407 590.748 264.614 590.444C263.892 586.776 263.665 583.771 263.324 580.063Z" fill="#1F95CA"/>
<path d="M334.962 723.653C334.733 717.826 333.487 706.267 336.287 701.483C341.094 699.805 415.074 700.935 425.106 700.928L540.57 700.962C561.13 700.975 587.664 700.495 608.041 701.442C608.163 706.146 608.927 720.851 607.405 724.39C608.122 726.617 607.439 740.456 607.466 744.077C604.312 744.104 590.703 744.598 588.849 743.522L587.834 744.503C589.065 746.513 588.476 761.049 588.463 764.352C583.827 764.358 572.715 764.67 568.614 764.182C568.113 764.487 567.105 765.008 566.794 765.401C567.728 769.366 567.464 778.144 567.477 782.583C542.966 782.975 518.448 783.016 493.936 782.698L397.237 782.671L375.918 782.942C375.987 776.912 376.029 772.689 376.778 766.754C380.349 766.646 381.691 766.578 385.167 765.854C383.905 765.854 382.642 765.84 381.38 765.813C378.054 765.786 377.678 766.05 374.822 764.494C368.475 764.365 361.915 764.467 355.551 764.48C355.934 756.028 356.101 752.617 354.144 744.462C348.435 744.009 341.131 744.178 335.289 744.165C336.277 735.617 336.072 732.241 334.962 723.653Z" fill="black"/>
<path d="M411.551 765.853C438.081 765.231 466.939 765.542 493.56 765.759C493.793 771.403 493.918 777.047 493.936 782.697L397.237 782.67L375.918 782.941C375.987 776.911 376.029 772.688 376.778 766.753C380.349 766.645 381.691 766.577 385.168 765.853C393.961 765.691 402.757 765.684 411.551 765.853Z" fill="#FBFBFC"/>
<path d="M385.168 765.854C393.961 765.691 402.757 765.685 411.551 765.854C407.36 766.707 403.956 766.605 399.694 766.659C399.127 771.843 398.689 777.731 397.237 782.671L375.918 782.941C375.987 776.912 376.029 772.689 376.778 766.754C380.349 766.646 381.691 766.578 385.168 765.854Z" fill="#DADAD9"/>
<path d="M493.56 765.759L539.143 765.752C546.999 765.752 559.269 766.097 566.794 765.4C567.728 769.366 567.464 778.143 567.477 782.583C542.966 782.975 518.448 783.016 493.936 782.698C493.918 777.047 493.792 771.403 493.56 765.759Z" fill="#DADAD9"/>
<path d="M334.961 723.652C341.526 724.512 347.721 724.221 354.326 723.903C354.286 730.088 353.998 738.432 354.426 744.442C361.346 744.888 367.862 744.861 374.779 744.875C374.764 751.08 374.56 758.376 374.822 764.493C368.475 764.365 361.915 764.466 355.55 764.48C355.934 756.027 356.101 752.617 354.144 744.462C348.435 744.009 341.131 744.178 335.289 744.164C336.277 735.617 336.072 732.24 334.961 723.652Z" fill="#FBFBFC"/>
<path d="M568.878 744.848C575.199 744.868 581.533 744.997 587.834 744.503C589.065 746.513 588.477 761.049 588.463 764.352C583.828 764.358 572.716 764.67 568.615 764.182C569.075 759.506 568.845 749.89 568.878 744.848Z" fill="#FBFBFC"/>
<path d="M588.937 724.606L607.405 724.39C608.122 726.616 607.439 740.456 607.466 744.076C604.312 744.103 590.703 744.597 588.849 743.521C589.248 738.141 588.964 730.176 588.937 724.606Z" fill="#FBFBFC"/>
<path d="M393.717 722.326L567.031 722.441L567.417 723.226C567.43 729.872 567.241 737.498 567.958 744.022L377.476 743.968L377.442 722.766C380.181 722.292 389.483 722.617 393.717 722.326Z" fill="#242B30"/>
<path d="M377.442 722.766C374.133 723.294 362.099 723.551 358.844 722.285C362.061 721.027 388.874 722.028 393.717 722.326C389.483 722.617 380.181 722.292 377.442 722.766Z" fill="#131314"/>
<path d="M567.031 722.441C574.617 721.643 577.954 721.338 585.459 722.38L585.729 722.726C578.806 723.517 573.717 722.868 567.417 723.226L567.031 722.441Z" fill="#131314"/>
<path d="M445.196 645.638C455.496 644.569 466.751 642.613 476.877 645.185C478.39 647.053 478.259 648.731 478.373 651.357C478.363 656.737 478.275 662.11 478.11 667.476C475.545 670.441 460.133 670.095 456.765 668.221L456.281 665.9C456.653 662.793 456.422 655.431 456.398 651.979L455.973 652.047C452.177 653.468 447.518 652.974 443.801 651.445L445.196 645.638Z" fill="#B7BEC8"/>
<path d="M445.196 645.638C455.496 644.569 466.751 642.613 476.877 645.185C478.39 647.053 478.259 648.731 478.373 651.357C471.017 651.722 463.468 651.614 456.398 651.979L455.973 652.047C452.177 653.468 447.518 652.974 443.801 651.445L445.196 645.638Z" fill="#DADAD9"/>
<path d="M445.196 645.638C449.286 646.118 451.878 647.58 455.272 649.908L455.973 652.047C452.177 653.468 447.518 652.974 443.801 651.444L445.196 645.638Z" fill="#FBFBFC"/>
<path d="M456.281 665.899C460.567 664.37 473.812 665.182 478.11 667.476C475.545 670.44 460.133 670.095 456.765 668.221L456.281 665.899Z" fill="#9BA6B3"/>
<path d="M443.172 667.375C442.925 660.986 443.161 657.894 443.801 651.444C447.518 652.974 452.177 653.468 455.973 652.047L456.398 651.979C456.422 655.43 456.653 662.793 456.281 665.899L455.559 666.928C452.866 666.596 446.155 667.185 443.172 667.375Z" fill="#DADAD9"/>
<path d="M380.755 507.584L381.333 507.364C381.768 511.965 381.425 519.787 381.354 524.632C386.005 524.635 393.166 524.436 397.637 524.817C397.66 521.786 398.047 510.924 397.206 508.739C394.906 509.343 395.103 511.391 394.383 511.696C391.522 512.91 385.275 508.072 382.271 507.138C384.151 506.409 390.886 507.199 392.813 508.051L393.366 510.363L393.995 509.857C395.442 508.709 396.161 507.803 397.922 507.757C398.943 509.401 398.233 521.261 398.693 525.5C392.728 525.712 386.758 525.758 380.791 525.638C380.621 519.749 380.741 513.502 380.755 507.584Z" fill="#DADAD9"/>
<path d="M323.857 866.478C336.55 865.287 358.943 865.956 372.465 865.984L452.611 865.936L705.789 866.64L705.971 887.734L687.3 888.133C687.097 895.354 687.036 903.346 686.495 910.493C666.254 910.79 646.006 910.892 625.758 910.797C619.823 910.499 612.697 910.675 606.674 910.668H451.084L434.38 910.587L418.478 910.601L415.244 910.702C397.963 909.735 375.297 911.014 357.158 910.547C350.95 910.154 344.852 910.357 338.638 910.472C338.923 904.497 339.844 893.364 338.161 888.052C332.869 887.341 324.12 887.571 318.543 887.558C318.97 880.77 317.92 873.367 319.263 867.804C320.987 866.004 320.445 866.586 323.857 866.478Z" fill="#242B30"/>
<path d="M450.067 883.592L450.54 883.443C493.761 884.316 537.295 882.74 580.531 883.937C588.727 884.161 597.964 883.626 605.977 884.235C606.362 893.046 606.599 901.857 606.674 910.668H451.084C449.822 902.453 451.471 891.943 450.067 883.592Z" fill="#556573"/>
<path d="M450.294 866.606L624.465 866.802C624.33 879.281 626.414 891.666 625.622 903.488L625.758 910.797C619.823 910.499 612.697 910.675 606.674 910.668C606.599 901.857 606.362 893.046 605.977 884.235C597.964 883.626 588.727 884.161 580.531 883.937C537.295 882.74 493.762 884.316 450.541 883.443C450.189 878.307 450.325 871.844 450.294 866.606Z" fill="#38444F"/>
<path d="M605.977 884.235C612.264 884.418 618.558 884.472 624.851 884.411C624.899 889.906 624.716 898.304 625.623 903.488L625.758 910.797C619.823 910.499 612.697 910.675 606.674 910.668C606.6 901.857 606.363 893.046 605.977 884.235Z" fill="#285376"/>
<path d="M418.508 883.349L419.468 883.565L418.773 883.917C418.797 892.816 418.699 901.709 418.478 910.601L415.244 910.702C397.962 909.735 375.297 911.014 357.158 910.547C350.95 910.154 344.852 910.357 338.638 910.472C338.923 904.497 339.844 893.364 338.161 888.052L338.592 886.117C340.346 884.377 340.149 884.966 343.459 884.797C347.9 883.856 351.572 884.12 356.089 884.215C360.869 884.242 364.574 884.188 369.328 883.836C384.939 883.139 403.598 884.607 418.508 883.349Z" fill="#556573"/>
<path d="M343.459 884.797C347.9 883.856 351.572 884.12 356.089 884.215C356.835 888.566 357.734 892.741 357.071 897.154C357.01 900.456 356.874 903.982 356.952 907.264L357.158 910.546C350.95 910.154 344.852 910.357 338.638 910.472C338.923 904.496 339.844 893.364 338.161 888.052L338.592 886.116C340.346 884.377 340.149 884.966 343.459 884.797Z" fill="#38444F"/>
<path d="M343.459 884.797C347.9 883.856 351.572 884.12 356.089 884.215C356.835 888.566 357.734 892.741 357.071 897.154L351.307 890.285C351.547 893.208 352.065 895.245 350.751 897.81C345.947 892.484 344.902 890.955 338.161 888.052L338.592 886.116C340.346 884.377 340.149 884.966 343.459 884.797Z" fill="#556573"/>
<path d="M343.46 884.797C347.9 883.856 351.572 884.12 356.09 884.215C356.835 888.566 357.734 892.741 357.071 897.154L351.307 890.285C351.248 887.74 351.619 888.072 353.186 885.46C351.014 884.323 346.28 884.783 343.46 884.797Z" fill="#38444F"/>
<path d="M351.307 890.285L357.07 897.154C357.01 900.457 356.874 903.983 356.952 907.265C356.677 904.977 356.712 903.414 355.504 901.465C353.22 900.301 353.102 900.139 351.227 898.291L350.751 897.811C352.065 895.246 351.546 893.209 351.307 890.285Z" fill="#285376"/>
<path d="M418.773 883.917C418.797 892.816 418.699 901.709 418.478 910.601L415.243 910.702C415.248 905.694 414.423 887.47 416.293 884.472L418.773 883.917Z" fill="#556573"/>
<path d="M318.543 887.558C318.97 880.77 317.92 873.367 319.263 867.804C320.987 866.004 320.445 866.586 323.857 866.478C333.832 867.033 359.796 867.256 369.681 866.674L369.328 883.836C364.574 884.188 360.869 884.242 356.089 884.215C351.572 884.12 347.9 883.856 343.46 884.797C340.149 884.966 340.346 884.377 338.592 886.116L338.161 888.052C332.869 887.341 324.12 887.571 318.543 887.558Z" fill="#2A3844"/>
<path d="M421.825 883.572C431.283 883.159 440.603 883.822 450.067 883.592C451.471 891.943 449.823 902.453 451.084 910.669L434.38 910.587L418.478 910.601C418.699 901.709 418.797 892.816 418.773 883.917L419.468 883.565L421.825 883.572Z" fill="#718191"/>
<path d="M419.468 883.565L421.825 883.572C426.494 884.215 429.403 884.201 434.108 884.228C434.21 892.863 434.466 901.986 434.38 910.587L418.478 910.601C418.699 901.708 418.797 892.816 418.773 883.917L419.468 883.565Z" fill="#9BA6B3"/>
<path d="M369.681 866.674C384.472 866.606 404.153 867.337 418.384 866.667C418.449 871.743 418.734 878.402 418.507 883.349C403.598 884.607 384.939 883.139 369.328 883.836L369.681 866.674Z" fill="#38444F"/>
<path d="M418.384 866.667C429.021 866.559 439.657 866.539 450.294 866.606C450.325 871.844 450.189 878.307 450.541 883.443L450.067 883.592C440.603 883.822 431.284 883.159 421.825 883.572L419.468 883.565L418.507 883.349C418.733 878.402 418.449 871.743 418.384 866.667Z" fill="#556573"/>
<path d="M886.707 508.779C895.546 508.788 904.377 508.923 913.202 509.186L913.263 520.843C916.159 520.904 919.056 520.948 921.952 520.973L933.077 520.815C932.942 526.468 932.631 532.351 933.253 537.951L933.565 538.25C933.903 545.371 933.978 549.483 933.477 556.607L933.903 557.292C939.507 557.618 947.099 556.953 952.777 556.559C952.987 584.685 951.985 618.576 953.319 645.909C947.533 646.22 936.759 645.347 933.551 648.568C932.218 652.629 932.881 661.812 932.962 666.475C926.114 667.016 919.435 666.59 912.579 666.306L912.234 659.897L898.638 656.033L894.693 656.392C893.137 644.576 893.752 626.791 893.861 614.4C879.345 613.209 884.427 618.142 872.902 618.325C865.411 618.4 857.973 618.576 850.495 618.169L850.001 618.257C843.498 618.183 837.001 618.23 830.498 618.406C830.362 606.259 830.302 594.118 830.335 581.971L830.295 567.793L830.207 539.297C837.834 539.495 843.85 539.576 851.517 539.206C852.39 532.597 852.214 526.535 852.18 519.897C855.057 519.553 854.062 520.141 855.997 518.749C857.195 516.067 856.444 512.718 856.133 509.626C861.059 509.644 868.09 509.903 872.78 509.104C877.118 508.443 882.248 508.709 886.707 508.779Z" fill="#FEDF3E"/>
<path d="M933.476 556.607L933.903 557.292C939.506 557.618 947.099 556.953 952.777 556.559C952.987 584.685 951.985 618.576 953.318 645.909C947.532 646.22 936.759 645.347 933.551 648.568C932.218 652.629 932.881 661.812 932.962 666.475C926.114 667.016 919.434 666.59 912.579 666.306L912.234 659.897L898.638 656.033L894.693 656.392C893.136 644.576 893.752 626.791 893.86 614.4C894.185 595.269 893.481 575.914 893.793 556.715C900.255 556.634 906.962 556.452 913.404 556.618L914.751 556.743C920.767 556.376 926.804 557.103 933.476 556.607Z" fill="#841F21"/>
<path d="M913.404 556.618L914.751 556.743C914.568 560.308 914.413 563.148 913.919 566.717C912.748 572.517 913.269 592.731 913.323 599.349C913.377 603.193 913.215 616.18 914.555 618.961C914.826 622.805 914.528 626.703 916.301 629.803C918.074 630.831 918.96 630.953 920.909 631.46C915.286 636.895 913.702 632.597 910.555 641.07C907.537 640.982 903.599 640.475 901.074 641.801C898.685 644.691 900.147 649.996 898.638 656.033L894.693 656.392C893.136 644.576 893.752 626.791 893.86 614.4C894.185 595.269 893.481 575.914 893.793 556.715C900.255 556.634 906.962 556.452 913.404 556.618Z" fill="#A12324"/>
<path d="M933.477 556.607L933.903 557.292C933.707 560.664 933.828 576.07 933.301 577.734C926.039 581.138 921.708 581.037 914.007 580.915C913.777 576.584 913.919 571.143 913.919 566.717C914.413 563.148 914.569 560.309 914.751 556.743C920.767 556.376 926.804 557.103 933.477 556.607Z" fill="#F24236"/>
<path d="M913.919 566.718C913.919 571.143 913.777 576.584 914.007 580.915C921.708 581.037 926.039 581.139 933.3 577.735C932.82 583.954 932.915 593.97 933.097 600.399C928.516 600.764 916.727 602.151 913.323 599.35C913.269 592.731 912.748 572.517 913.919 566.718Z" fill="#D42624"/>
<path d="M913.323 599.35C916.727 602.151 928.516 600.764 933.097 600.399C933.097 606.354 933.03 612.309 932.881 618.271C930.045 618.332 926.059 618.278 923.386 618.819L914.555 618.961C913.215 616.18 913.377 603.193 913.323 599.35Z" fill="#C41F20"/>
<path d="M914.555 618.961L923.386 618.819C926.641 618.948 929.646 619.076 932.921 619.022C932.84 626.5 933.036 637.213 932.461 644.386L925.978 640.65C924.34 636.441 924.036 634.797 920.909 631.46C918.96 630.953 918.074 630.831 916.301 629.802C914.528 626.703 914.825 622.805 914.555 618.961Z" fill="#5E1A19"/>
<path d="M886.707 508.779C895.546 508.788 904.377 508.923 913.202 509.186L913.263 520.843C916.159 520.904 919.055 520.948 921.952 520.973L933.077 520.815C932.942 526.468 932.631 532.351 933.253 537.951L933.565 538.25C933.903 545.371 933.978 549.483 933.477 556.607C926.804 557.103 920.768 556.376 914.751 556.743L913.405 556.618C906.962 556.452 900.256 556.634 893.793 556.715C894.077 550.756 893.718 544.933 894.104 538.574C888.853 538.453 876.726 537.913 872.117 539.018C872.063 532.129 872.049 527.525 872.74 520.617L871.934 520.035C873.078 517.652 872.773 511.957 872.78 509.104C877.118 508.443 882.248 508.709 886.707 508.779Z" fill="#F24236"/>
<path d="M886.707 508.779C895.546 508.788 904.377 508.923 913.202 509.186L913.263 520.843L912.863 520.992C908.383 520.589 899.721 520.87 894.943 520.881L893.854 520.26C887.716 519.959 880.204 520.952 872.74 520.617L871.934 520.035C873.078 517.652 872.773 511.957 872.78 509.104C877.118 508.443 882.248 508.709 886.707 508.779Z" fill="#FBFBFC"/>
<path d="M886.707 508.779C895.545 508.788 904.377 508.923 913.201 509.186L913.262 520.843L912.863 520.992C908.383 520.589 899.721 520.871 894.943 520.881L893.853 520.26C893.955 519.918 894.063 519.576 894.165 519.234C894.517 510.702 893.867 509.872 886.707 508.779Z" fill="#FFEE83"/>
<path d="M872.74 520.617C880.204 520.952 887.716 519.959 893.854 520.26L894.943 520.881L895.058 521.784C896.148 530.291 893.468 532.847 899.444 537.906C897.657 538.173 895.904 538.483 894.104 538.574C888.853 538.453 876.726 537.914 872.117 539.018C872.063 532.129 872.049 527.525 872.74 520.617Z" fill="#FFEE83"/>
<path d="M933.253 537.95L933.564 538.249C933.902 545.371 933.977 549.483 933.476 556.607C926.804 557.103 920.767 556.376 914.751 556.743L913.404 556.618C913.167 550.791 912.964 544.961 912.809 539.131C917.18 539.095 919.339 539.022 923.724 538.44C927.46 538.461 929.598 538.314 933.253 537.95Z" fill="#C41F20"/>
<path d="M921.952 520.974L933.077 520.815C932.942 526.469 932.63 532.352 933.253 537.951C929.599 538.314 927.46 538.461 923.725 538.441C920.767 538.205 916.382 538.448 913.31 538.525L913.14 529.257L913.12 521.629C915.753 521.634 919.664 521.918 921.952 520.974Z" fill="#FA5C3F"/>
<path d="M913.263 520.843C916.159 520.904 919.055 520.947 921.952 520.973C919.665 521.918 915.753 521.634 913.12 521.629L913.141 529.256C912.978 532.271 912.796 535.258 912.755 538.277C907.95 538.268 904.445 538.66 899.958 536.897L899.444 537.906C893.468 532.847 896.148 530.29 895.058 521.783L894.943 520.881C899.721 520.87 908.383 520.589 912.863 520.992L913.263 520.843Z" fill="#9C4E28"/>
<path d="M894.943 520.881C899.721 520.87 908.383 520.589 912.863 520.992C895.958 524.504 907.504 528.669 899.958 536.897L899.444 537.906C893.468 532.847 896.148 530.29 895.058 521.783L894.943 520.881Z" fill="#FED123"/>
<path d="M856.133 509.626C861.059 509.644 868.09 509.903 872.78 509.104C872.774 511.957 873.078 517.652 871.934 520.034L872.74 520.617C872.049 527.525 872.063 532.129 872.117 539.018C872.32 543.896 872.929 552.119 872.367 556.71C865.133 556.527 857.899 556.473 850.665 556.546C849.663 561.442 850.028 575.298 850.089 581.077C843.004 580.786 837.678 580.881 830.667 581.145C830.606 577.64 830.667 571.048 830.295 567.793L830.207 539.296C837.834 539.495 843.85 539.576 851.517 539.206C852.39 532.597 852.214 526.534 852.18 519.897C855.057 519.553 854.062 520.141 855.997 518.749C857.195 516.067 856.444 512.718 856.133 509.626Z" fill="#FBFBFC"/>
<path d="M851.659 539.683C858.589 539.209 865.18 539.126 872.117 539.018C872.32 543.896 872.929 552.119 872.367 556.71C865.133 556.527 857.898 556.473 850.664 556.546C851.084 554.662 851.408 542.945 851.659 539.683Z" fill="#FFEE83"/>
<path d="M856.132 509.626C861.059 509.644 868.09 509.903 872.78 509.104C872.773 511.957 873.078 517.652 871.934 520.034C865.383 520.078 858.717 520.216 852.18 519.897C855.056 519.553 854.062 520.141 855.997 518.749C857.195 516.067 856.444 512.718 856.132 509.626Z" fill="#55411A"/>
<path d="M872.117 539.018C876.725 537.914 888.852 538.453 894.104 538.574C893.718 544.933 894.077 550.756 893.793 556.715C893.481 575.914 894.185 595.269 893.86 614.4C879.344 613.209 884.427 618.143 872.902 618.325C872.868 601.082 874.221 575.995 873.017 560.232C872.834 559.671 872.496 557.425 872.367 556.711C872.929 552.12 872.32 543.897 872.117 539.018Z" fill="#FDC018"/>
<path d="M872.117 539.018C876.725 537.914 888.852 538.453 894.104 538.574C893.718 544.933 894.077 550.756 893.793 556.715C889.489 556.689 876.191 555.739 873.484 557.686L873.017 560.232C872.834 559.671 872.496 557.425 872.367 556.711C872.929 552.12 872.32 543.897 872.117 539.018Z" fill="#FED123"/>
<path d="M830.336 581.971C831.249 586.444 830.884 596.42 830.931 601.482C837.475 601.373 843.796 601.204 850.347 601.529L850.496 618.17L850.002 618.258C843.498 618.183 837.001 618.231 830.498 618.407C830.363 606.259 830.302 594.119 830.336 581.971Z" fill="#FDC018"/>
<path d="M476.277 112.903C484.271 112.996 504.608 112.12 511.355 113.11L511.985 113.247C517.913 113.231 525.1 113.014 530.927 113.248C536.361 113.277 541.802 113.227 547.236 113.099C547.222 116.843 546.695 130.178 548.034 132.777C554.389 133.098 560.649 132.353 567.003 132.311C566.374 151.229 566.347 174.289 566.787 193.312C545.754 193.163 546.722 191.094 547.276 212.147C535.596 213.068 523.956 213.062 512.235 213.042C500.676 213.319 487.597 212.798 475.932 212.586C476.036 207.333 476.433 200.359 475.407 195.177C475.124 193.75 474.986 194.116 473.403 193.215C468.357 193.992 461.047 193.727 455.793 193.644L455.723 174.272L455.533 152.666C455.414 145.888 455.379 139.108 455.43 132.33L476.116 132.452C476.63 126.073 476.375 119.327 476.277 112.903Z" fill="#F24236"/>
<path d="M476.277 112.903C484.271 112.996 504.608 112.12 511.355 113.11L511.985 113.247C517.913 113.231 525.1 113.014 530.927 113.248C536.361 113.277 541.802 113.227 547.236 113.099C547.222 116.843 546.695 130.178 548.034 132.777C548.447 136.603 548.88 148.892 548.231 152.559C542.688 152.641 537.146 152.611 531.61 152.467L531.13 152.597C521.527 152.601 491.233 153.422 483.464 152.113L482.792 151.896L475.248 152.354C468.755 152.764 462.054 152.661 455.533 152.666C455.414 145.888 455.379 139.108 455.43 132.33L476.116 132.452C476.63 126.073 476.375 119.327 476.277 112.903Z" fill="#FBFBFC"/>
<path d="M530.927 113.248C536.361 113.278 541.802 113.227 547.236 113.099C547.222 116.843 546.695 130.178 548.035 132.777C548.447 136.603 548.88 148.892 548.231 152.559C542.688 152.641 537.146 152.611 531.61 152.467L531.576 137.223C531.394 135.484 531.475 134.754 530.636 133.235C527.232 131.272 516.708 132.494 511.761 132.548C512.283 126.563 512.039 119.346 511.985 113.247C517.913 113.232 525.1 113.014 530.927 113.248Z" fill="#C41F20"/>
<path d="M511.985 113.247C517.913 113.232 525.1 113.014 530.927 113.249C531.238 121.14 531.691 129.352 531.576 137.224C531.394 135.484 531.475 134.754 530.636 133.236C527.232 131.272 516.708 132.494 511.761 132.548C512.283 126.563 512.039 119.346 511.985 113.247Z" fill="#FA5C3F"/>
<path d="M511.762 132.548C516.709 132.494 527.232 131.272 530.636 133.235C531.475 134.754 531.394 135.484 531.577 137.223L531.61 152.467L531.13 152.597C521.527 152.601 491.234 153.422 483.464 152.113C486.924 152.004 490.221 151.907 493.692 151.941L512.134 152.104C511.951 147.413 511.261 136.748 511.762 132.548Z" fill="#FE7F58"/>
<path d="M511.356 113.11L511.985 113.247C512.039 119.346 512.283 126.563 511.762 132.548C511.261 136.748 511.951 147.414 512.134 152.104L493.692 151.942C492.715 148.458 492.085 144.493 491.47 140.908C492.028 138.143 492.136 137.021 492.304 134.19C495.402 131.071 506.808 132.319 511.444 132.43L511.356 113.11Z" fill="#FEB99B"/>
<path d="M476.277 133.329C482.675 132.686 486.218 131.874 492.303 134.19C492.135 137.02 492.028 138.142 491.469 140.907C492.085 144.493 492.715 148.458 493.692 151.942C490.221 151.907 486.924 152.005 483.464 152.113L482.792 151.896L475.248 152.354C475.329 145.337 475.657 140.276 476.277 133.329Z" fill="#FED2BD"/>
<path d="M482.792 151.897C483.674 149.701 488.755 145.726 491.47 140.908C492.085 144.493 492.715 148.458 493.692 151.942C490.221 151.908 486.924 152.005 483.464 152.113L482.792 151.897Z" fill="#FECDAF"/>
<path d="M548.035 132.777C554.389 133.099 560.649 132.353 567.004 132.311C566.374 151.23 566.347 174.289 566.787 193.312C545.754 193.163 546.722 191.095 547.277 212.148C535.596 213.069 523.957 213.062 512.235 213.042L511.552 195.206C514.347 195.277 518.962 195.782 521.317 194.783C525.148 193.771 527.523 194.603 530.575 192.843C532.138 189.991 531.583 190.155 531.59 186.412C530.988 177.501 531.671 162.156 531.61 152.468C537.146 152.611 542.689 152.642 548.231 152.56C548.881 148.893 548.448 136.603 548.035 132.777Z" fill="#841F21"/>
<path d="M531.61 152.468C537.146 152.611 542.688 152.642 548.231 152.56C546.41 160.405 547.73 167.127 546.187 174.827C546.085 175.318 544.015 176.812 543.453 177.169L542.316 177.881C540.766 181.473 540.279 184.189 537.491 186.282C534.953 186.55 534.155 186.55 531.59 186.412C530.987 177.501 531.671 162.156 531.61 152.468Z" fill="#A12324"/>
<path d="M455.723 174.272L464.967 174.393C468.3 174.656 471.434 174.908 474.787 174.998C474.868 181.495 475.4 186.537 475.841 192.945C490.591 194.527 496.67 194.753 511.694 194.573L521.317 194.783C518.962 195.781 514.347 195.277 511.552 195.206L512.235 213.042C500.677 213.319 487.597 212.799 475.932 212.587C476.036 207.333 476.433 200.36 475.407 195.178C475.124 193.75 474.986 194.116 473.403 193.215C468.357 193.993 461.048 193.727 455.793 193.644L455.723 174.272Z" fill="#A12324"/>
<path d="M531.13 152.598L531.61 152.468C531.671 162.156 530.988 177.501 531.59 186.412C531.583 190.155 532.138 189.991 530.575 192.843C527.523 194.603 525.148 193.771 521.317 194.783L511.694 194.573L511.383 173.771C517.934 173.675 524.478 173.625 531.028 173.623L531.13 152.598Z" fill="#C41F20"/>
<path d="M475.248 152.354C474.495 157.702 474.922 168.51 474.979 174.357C471.891 174.321 467.978 174.163 464.967 174.392L455.723 174.272L455.533 152.666C462.054 152.661 468.755 152.764 475.248 152.354Z" fill="#FE7F58"/>
<path d="M499.438 295.41C507.444 293.113 523.733 288.061 531.597 291.462C532.456 296.483 539.379 294.987 543.392 295.414C546.573 295.557 562.618 295.924 563.863 296.884C569.291 297.494 576.268 297.403 581.844 297.483C582.338 302.496 582.974 307.868 583.13 312.871C584.653 320.111 582.954 345.422 582.785 354.845C569.683 354.054 549.896 354.909 536.131 354.91L436.353 354.906C436.331 345.032 435.274 319.811 436.747 311.289L436.812 308.835L437.059 297.488C442.272 297.535 448.876 297.807 453.92 297.086C457.927 295.979 469.97 296.054 474.695 295.984L499.438 295.41Z" fill="#FEDF3E"/>
<path d="M543.393 295.414C546.573 295.557 562.619 295.924 563.864 296.884C569.291 297.494 576.268 297.403 581.845 297.483C582.339 302.496 582.975 307.868 583.13 312.871C582.731 321.149 582.907 329.751 582.934 338.06C576.986 337.961 570.442 337.991 564.547 337.681L564.365 354.38L533.702 354.259C533.695 348.165 533.35 342.596 532.978 336.532L531.834 335.922L532.213 334.028C531.326 329.401 531.57 321.237 531.57 316.266L531.773 295.707C536.036 296.248 538.892 296.059 543.183 295.904L543.393 295.414Z" fill="#DA7C2C"/>
<path d="M531.773 295.707C536.036 296.248 538.892 296.059 543.183 295.904L542.851 306.556C542.898 309.854 542.993 313.254 542.973 316.541C545.72 316.493 549.273 316.322 551.946 316.415L551.818 336.058C546.729 336.136 537.755 336.008 532.978 336.532L531.834 335.922L532.213 334.028C531.326 329.401 531.57 321.237 531.57 316.266L531.773 295.707Z" fill="#FDC018"/>
<path d="M543.392 295.414C546.573 295.557 562.619 295.924 563.864 296.884C563.999 302.016 562.679 314.965 567.18 317.079L567.044 318.298L565.752 319.095C564.419 318.241 564.859 318.654 564.046 317.243C560.832 315.913 555.526 316.305 551.946 316.416C549.273 316.322 545.72 316.493 542.973 316.541C542.993 313.254 542.898 309.854 542.851 306.556L543.183 295.904L543.392 295.414Z" fill="#EF9C1E"/>
<path d="M436.353 354.906C436.331 345.032 435.274 319.811 436.747 311.289C436.666 319.269 436.395 329.695 436.758 337.548C442.303 336.649 447.629 336.669 453.226 336.547L453.64 335.93L455.541 335.904C472.288 335.842 496.109 336.9 511.91 335.914C517.04 335.431 526.508 335.562 531.834 335.922L532.977 336.532C533.349 342.596 533.695 348.165 533.701 354.259L564.364 354.38L564.547 337.681C570.441 337.991 576.985 337.961 582.934 338.06C582.907 329.751 582.731 321.149 583.13 312.871C584.653 320.111 582.954 345.423 582.785 354.845C569.683 354.054 549.896 354.909 536.131 354.91L436.353 354.906Z" fill="#9C4E28"/>
<path d="M455.541 335.904C472.288 335.842 496.109 336.9 511.911 335.914L511.863 354.275C492.588 354.607 472.414 354.284 453.067 354.263C453.284 348.49 453.204 342.352 453.226 336.547L453.64 335.93L455.541 335.904Z" fill="#FED123"/>
<path d="M511.911 335.914C517.04 335.431 526.508 335.562 531.834 335.922L532.977 336.532C533.35 342.596 533.695 348.164 533.702 354.259L511.863 354.275L511.911 335.914Z" fill="#FAB616"/>
<path d="M436.758 337.548C442.303 336.649 447.628 336.669 453.226 336.547C453.203 342.352 453.284 348.49 453.067 354.264L436.95 354.248C436.943 348.681 436.88 343.114 436.758 337.548Z" fill="#FFEE83"/>
<path d="M453.92 297.086C457.927 295.979 469.97 296.054 474.695 295.984C474.831 302.672 474.854 309.66 475.381 316.305L470.677 316.376C471.077 322.923 471.357 328.75 471.418 335.342C466.512 335.284 460.222 334.951 455.541 335.904L453.64 335.93L453.226 336.547C447.629 336.669 442.303 336.649 436.758 337.548C436.395 329.695 436.665 319.269 436.747 311.289L436.812 308.835L437.059 297.488C442.272 297.535 448.876 297.807 453.92 297.086Z" fill="#FBFBFC"/>
<path d="M453.593 316.678L470.677 316.376C471.077 322.923 471.357 328.75 471.418 335.342C466.512 335.284 460.222 334.951 455.541 335.904L453.64 335.93C453.873 329.924 453.638 322.767 453.593 316.678Z" fill="#FFEE83"/>
<path d="M437.059 297.488C442.272 297.535 448.876 297.807 453.92 297.086C453.842 301.424 453.88 306.744 453.57 310.987C446.195 309.307 442.856 309.841 436.812 308.835L437.059 297.488Z" fill="#F6EECA"/>
<path d="M499.438 295.411L505.57 295.597C508.053 295.664 509.251 295.658 511.66 296.119C512.844 297.757 512.547 296.852 512.479 298.957C508.06 299.003 503.641 299.006 499.215 298.965C499.201 303.892 499.445 311.555 499.154 316.244C491.232 316.085 483.305 316.105 475.381 316.305C474.854 309.661 474.832 302.673 474.695 295.984L499.438 295.411Z" fill="#FFEE83"/>
<path d="M531.57 316.266C531.57 321.238 531.326 329.401 532.213 334.029L531.834 335.922C526.508 335.562 517.04 335.431 511.911 335.915C512.032 329.455 511.978 322.826 511.999 316.351C518.123 316.117 525.357 316.284 531.57 316.266Z" fill="#FED123"/>
<path d="M499.438 295.41C507.444 293.113 523.733 288.061 531.596 291.462C532.456 296.483 539.379 294.987 543.392 295.414L543.182 295.904C538.892 296.059 536.036 296.248 531.772 295.707C524.694 295.056 512.946 295.516 505.569 295.596L499.438 295.41Z" fill="#723708"/>
<path d="M112.508 509.093C118.543 508.688 124.256 509.135 129.951 508.799C130.991 521.819 130.252 546.451 130.255 560.239L130.353 657.549L120.568 657.603C117.052 657.475 112.923 657.569 109.37 657.576C109.435 654.26 109.322 651.255 109.203 647.96C103.565 647.527 96.6133 646.803 91.0607 646.836C83.7831 644.711 78.9552 645.199 71.5206 645.3C71.6512 632.158 71.2418 618.968 71.5463 605.819L71.457 600.588L71.4936 580.814C71.5944 566.88 71.6045 552.941 71.5254 539.003C78.1959 539.068 84.1749 539.15 90.8583 538.721L91.4011 537.841C92.021 531.137 90.4469 527.015 92.3702 521.514C94.3584 519.774 94.3354 520.377 97.7658 520.242L97.803 509.522C101.527 509.784 107.444 510.35 110.84 509.041L112.508 509.093Z" fill="#FEDF3E"/>
<path d="M129.951 508.799C130.99 521.819 130.251 546.451 130.254 560.239L130.353 657.549L120.568 657.603C117.052 657.475 112.922 657.569 109.37 657.576C109.434 654.26 109.321 651.255 109.202 647.96C103.565 647.527 96.6127 646.803 91.0601 646.836L91.0682 632.943L91.1149 632.469C90.9992 627.989 91.0913 623.096 91.0845 618.576C94.9852 618.813 108.13 618.86 111.376 617.568C114.776 617.574 115.523 617.683 118.837 618.468C119.471 601.285 118.333 571.942 119.846 556.711C120.357 552.867 120.188 543.401 120.222 539.132L120.675 537.463C121.718 535.818 121.103 524.219 121.028 521.409L121.285 520.832L129.535 520.653C129.563 516.435 129.635 513.005 129.951 508.799Z" fill="#EF9C1E"/>
<path d="M111.376 617.567C114.776 617.574 115.523 617.682 118.837 618.467C115.153 618.738 115.216 618.156 112.648 619.956C111.108 623.096 112.136 627.204 111.962 631.19C112.243 636.658 114.06 644.874 109.202 647.959C103.565 647.526 96.6127 646.802 91.0601 646.836L91.0682 632.943L91.1149 632.469C90.9992 627.989 91.0913 623.096 91.0845 618.576C94.9852 618.812 108.13 618.86 111.376 617.567Z" fill="#FAB616"/>
<path d="M111.376 617.567C114.776 617.574 115.523 617.682 118.837 618.467C115.153 618.738 115.216 618.156 112.648 619.956C111.108 623.096 112.136 627.204 111.962 631.19C109.618 632.53 94.8214 632.367 91.1149 632.469C90.9992 627.989 91.0913 623.096 91.0845 618.576C94.9852 618.812 108.13 618.86 111.376 617.567Z" fill="#FDC018"/>
<path d="M121.285 520.832L129.536 520.653C129.404 526.141 129.4 531.631 129.524 537.12C126.072 537.302 122.94 537.044 120.223 539.132L120.676 537.463C121.719 535.818 121.104 524.219 121.029 521.409L121.285 520.832Z" fill="#FDC018"/>
<path d="M71.4936 580.814C78.4037 580.516 83.4752 580.279 90.4252 580.726C90.4462 586.742 90.2683 595.479 90.7237 601.238C91.1155 606.151 91.1622 609.298 91.0634 614.238L91.0851 618.576C91.0918 623.096 90.9998 627.989 91.1155 632.469L91.0688 632.943L91.0607 646.836C83.7831 644.711 78.9552 645.199 71.5206 645.3C71.6512 632.158 71.2418 618.968 71.5463 605.819L71.457 600.588L71.4936 580.814Z" fill="#FA5C3F"/>
<path d="M71.5463 605.819C71.8319 608.749 72.062 611.26 72.1392 614.204L91.0634 614.237L91.0851 618.575C91.0918 623.096 90.9998 627.989 91.1155 632.469L91.0688 632.942L91.0607 646.836C83.7831 644.711 78.9552 645.198 71.5206 645.3C71.6512 632.157 71.2418 618.968 71.5463 605.819Z" fill="#A12324"/>
<path d="M71.5463 605.819C71.8319 608.749 72.062 611.26 72.1392 614.204C72.2055 620.233 72.2109 626.263 72.1561 632.293C78.3617 632.482 84.8983 632.584 91.0688 632.942L91.0607 646.836C83.7831 644.711 78.9552 645.198 71.5206 645.3C71.6512 632.157 71.2418 618.968 71.5463 605.819Z" fill="#841F21"/>
<path d="M71.4565 600.588C74.577 603.37 86.1627 601.251 90.7232 601.238C91.1151 606.151 91.1617 609.298 91.0629 614.238L72.1387 614.204C72.0615 611.26 71.8314 608.75 71.5459 605.819L71.4565 600.588Z" fill="#F24236"/>
<path d="M71.5255 539.003C78.196 539.068 84.175 539.15 90.8584 538.721C91.253 543.777 90.7813 551.598 90.5038 556.839C90.4951 563.422 90.8436 574.513 90.4253 580.726C83.4753 580.279 78.4038 580.516 71.4937 580.814C71.5945 566.88 71.6046 552.941 71.5255 539.003Z" fill="#DADAD9"/>
<path d="M112.507 509.093C118.543 508.688 124.256 509.135 129.951 508.799C129.635 513.005 129.563 516.435 129.535 520.653L121.285 520.832L121.028 521.409C117.37 521.286 114.187 521.22 110.536 520.764C110.606 525.199 110.504 532.647 110.96 536.839C108.535 538.839 92.899 539.813 91.4007 537.841C92.0206 531.137 90.4465 527.015 92.3698 521.514C94.358 519.774 94.335 520.377 97.7654 520.242L97.8026 509.522C101.527 509.784 107.443 510.35 110.84 509.041L112.507 509.093Z" fill="#FBFBFC"/>
<path d="M97.8026 509.522C101.527 509.784 107.443 510.35 110.84 509.041C110.598 512.551 110.449 516.549 109.824 519.97L97.7654 520.242L97.8026 509.522Z" fill="#3A3219"/>
<path d="M112.508 509.093C118.543 508.688 124.256 509.135 129.951 508.799C129.635 513.005 129.563 516.435 129.536 520.653L121.285 520.832L121.541 509.418C118.528 509.333 115.518 509.225 112.508 509.093Z" fill="#FFEE83"/>
<path d="M110.536 520.764C114.187 521.22 117.37 521.286 121.029 521.409C121.104 524.219 121.719 535.818 120.676 537.463L111.388 537.603L111.317 556.727C105.421 556.58 96.1361 556.178 90.5037 556.838C90.7811 551.598 91.2528 543.777 90.8583 538.721L91.401 537.841C92.8993 539.812 108.535 538.839 110.96 536.839C110.505 532.647 110.607 525.199 110.536 520.764Z" fill="#FFEE83"/>
<path d="M111.508 557.125C113.611 556.63 117.521 556.746 119.846 556.711C118.333 571.942 119.471 601.285 118.837 618.467C115.523 617.682 114.776 617.574 111.376 617.567C110.723 612.133 111.188 599.62 111.293 593.672C111.577 581.491 111.649 569.309 111.508 557.125Z" fill="#FED123"/>
<path d="M872.902 618.325C884.427 618.142 879.344 613.209 893.86 614.4C893.752 626.791 893.136 644.576 894.693 656.391L898.638 656.033L912.234 659.897L912.579 666.306L912.356 679.109C904.952 679.123 879.216 679.63 872.611 678.514C867.684 677.539 859.733 677.688 854.623 677.905C853.473 676.084 853.013 674.345 852.322 672.308C851.977 666.989 851.889 661.46 851.734 656.114L851.212 654.178C844.898 654.294 838.28 654.131 831.946 654.077C832.873 647.952 830.383 642.627 830.653 633.349L830.498 618.406C837.001 618.23 843.498 618.183 850.001 618.257L850.495 618.169C857.973 618.575 865.41 618.399 872.902 618.325Z" fill="#FAB616"/>
<path d="M894.693 656.392L898.638 656.033L912.234 659.897L912.579 666.306L912.355 679.11C904.952 679.123 879.216 679.631 872.611 678.514C867.684 677.539 859.732 677.688 854.623 677.905C853.473 676.084 853.012 674.345 852.322 672.308C851.977 666.989 851.889 661.46 851.733 656.114C856.741 658.868 860.68 657.298 863.806 658.645C865.755 658.679 868.916 658.835 870.756 658.726L870.844 658.144C874.871 655.999 887.506 658.875 894.693 656.392Z" fill="#C0662B"/>
<path d="M851.733 656.114C856.741 658.868 860.68 657.298 863.806 658.645C865.755 658.679 868.916 658.835 870.756 658.726C873.287 662.124 873.457 662.956 873.308 667.186C872.665 669.635 872.53 669.696 872.739 672.322C873.166 674.657 872.861 676.173 872.611 678.514C867.684 677.54 859.732 677.688 854.623 677.905C853.473 676.085 853.012 674.345 852.322 672.308C851.977 666.989 851.889 661.46 851.733 656.114Z" fill="#C0662B"/>
<path d="M852.322 672.308L858 672.322H872.739C873.166 674.656 872.861 676.172 872.611 678.514C867.684 677.539 859.733 677.688 854.623 677.905C853.473 676.084 853.013 674.345 852.322 672.308Z" fill="#5E1A19"/>
<path d="M852.322 672.308L858 672.322C857.641 675.8 858.257 676.524 854.623 677.905C853.473 676.084 853.013 674.345 852.322 672.308Z" fill="#723708"/>
<path d="M870.756 658.726C873.287 662.124 873.456 662.956 873.308 667.186C873.05 666.915 872.489 666.353 872.387 666.076C870.837 661.751 868.178 662.056 864.28 659.024L863.806 658.645C865.755 658.679 868.916 658.835 870.756 658.726Z" fill="#DA7C2C"/>
<path d="M830.498 618.406C837.001 618.23 843.498 618.183 850.001 618.257C850.008 622.379 849.927 629.288 850.583 633.186L852.004 634.215L851.997 635.007C853.913 639.69 854.691 642.078 857.533 646.261C854.061 646.829 853.784 646.768 850.915 648.636L851.212 654.179C844.898 654.294 838.28 654.131 831.946 654.077C832.873 647.953 830.383 642.627 830.653 633.349L830.498 618.406Z" fill="#C0662B"/>
<path d="M830.498 618.406C837.001 618.23 843.498 618.183 850.001 618.257C850.008 622.379 849.927 629.288 850.583 633.186C843.938 633.152 837.292 633.206 830.653 633.349L830.498 618.406Z" fill="#EA9025"/>
<path d="M851.997 635.007C853.912 639.69 854.691 642.079 857.533 646.261C854.061 646.83 853.784 646.769 850.915 648.636C850.975 643.094 851.199 640.495 851.997 635.007Z" fill="#EF9C1E"/>
<path d="M857.533 646.26C869.2 651.235 861.499 654.287 867.129 658.171L870.844 658.144L870.756 658.726C868.916 658.834 865.755 658.679 863.806 658.645C860.68 657.298 856.741 658.868 851.733 656.114L851.212 654.178L850.915 648.636C853.784 646.768 854.061 646.829 857.533 646.26Z" fill="#EA9025"/>
<path d="M514.543 219.111C519.991 219.262 525.445 219.272 530.9 219.14C530.981 224.72 530.934 230.964 531.211 236.485L531.069 246.435C531.624 255.767 531.543 266.44 531.509 275.861L513.927 275.78L501.793 275.806L488.229 275.842L488.176 258.233L488.221 255.019C487.222 245.676 487.632 229.079 487.633 219.163C496.224 218.89 505.874 219.102 514.543 219.111Z" fill="#FBFBFC"/>
<path d="M514.543 219.111C519.991 219.262 525.445 219.272 530.9 219.14C530.981 224.72 530.934 230.964 531.211 236.485L514.726 236.672L514.746 237.002C512.784 236.591 505.407 236.663 503.079 236.644C498.078 236.527 493.073 236.485 488.069 236.521C488.347 242.747 488.669 248.778 488.221 255.019C487.222 245.676 487.632 229.079 487.633 219.163C496.224 218.89 505.874 219.102 514.543 219.111Z" fill="#8491A1"/>
<path d="M514.543 219.111C519.991 219.263 525.445 219.272 530.9 219.14C530.981 224.72 530.934 230.964 531.211 236.485L514.726 236.672C513.894 232.967 514.421 223.315 514.543 219.111Z" fill="#38444F"/>
<path d="M514.726 236.672L531.211 236.485L531.069 246.435C531.624 255.767 531.543 266.44 531.509 275.861L513.927 275.78C513.866 269.727 513.873 263.674 513.948 257.621L514.915 257.615C515.233 251.395 515.457 243.087 514.746 237.003L514.726 236.672Z" fill="#718191"/>
<path d="M531.069 246.435C531.624 255.767 531.543 266.44 531.509 275.861L513.927 275.78C513.866 269.728 513.873 263.674 513.948 257.622L514.915 257.615C520.113 257.878 525.56 257.76 530.785 257.728C530.717 253.608 530.819 250.542 531.069 246.435Z" fill="#556573"/>
<path d="M503.025 257.65C506.896 257.532 510.077 257.435 513.948 257.622C513.873 263.674 513.866 269.728 513.927 275.78L501.793 275.806L488.229 275.843L488.176 258.233C493.204 258.205 498.038 258.303 503.025 257.65Z" fill="#C8CBD0"/>
<path d="M503.025 257.65C506.896 257.532 510.077 257.435 513.948 257.622C513.873 263.674 513.866 269.728 513.927 275.78L501.793 275.806C504.04 272.919 503.039 262.142 503.025 257.65Z" fill="#B7BEC8"/>
<path d="M503.08 236.645C505.408 236.664 512.784 236.591 514.747 237.003C515.457 243.087 515.234 251.396 514.916 257.615L513.948 257.622C510.077 257.435 506.896 257.532 503.025 257.65C503.459 250.774 503.195 243.558 503.08 236.645Z" fill="#DADAD9"/>
<path d="M120.568 657.603L130.353 657.549L130.287 679.015L109.808 679.008C109.852 675.3 110.53 664.952 108.608 662.536L108.061 662.252C108.906 655.688 114.537 659.186 120.568 657.603Z" fill="#C0662B"/>
<path d="M933.565 538.25C940.433 538.697 946.456 539.067 953.366 539.069C953.109 544.725 952.689 550.943 952.777 556.56C947.099 556.953 939.506 557.618 933.903 557.292L933.477 556.607C933.977 549.483 933.903 545.371 933.565 538.25Z" fill="#F24236"/>
<path d="M91.0603 646.836C96.6129 646.802 103.565 647.526 109.202 647.959C109.321 651.255 109.434 654.26 109.37 657.576C112.922 657.569 117.052 657.474 120.568 657.603C114.537 659.186 108.906 655.688 108.061 662.252C103.662 661.04 95.9578 661.907 91.1456 662.245C91.2735 656.818 91.3939 652.236 91.0603 646.836Z" fill="#DA7C2C"/>
</svg>
