<svg width="1024" height="1024" viewBox="0 0 1024 1024" fill="none" xmlns="http://www.w3.org/2000/svg">
<path d="M280.804 101.644L819.597 101.504C819.597 109.147 819.318 119.791 819.715 127.227L845.423 127.098C846.395 133.643 845.812 160.732 845.803 169.217L845.752 259.587L845.896 589.055C862.792 589.114 879.679 589.08 896.566 588.945L896.6 614.258L922.823 614.098L922.688 762.859L922.882 799.565C922.916 803.472 923.254 816.404 922.603 819.854C914.003 819.804 905.403 819.88 896.803 820.074L896.651 820.557L896.634 832.152C897.116 837.133 897.277 840.922 897.387 845.921C888.837 846.005 879.552 846.301 871.096 845.701L871.206 871.175C865.244 872.063 852.467 871.624 845.854 871.607C845.871 875.523 846.175 894.349 845.575 896.819C837.009 896.776 828.442 896.853 819.876 897.064L819.699 897.521C819.496 905.488 819.775 914.402 819.851 922.445L127.072 922.496C126.861 914.047 127.005 905.31 127.033 896.844C118.531 896.743 109.873 896.81 101.357 896.793L101.425 771.621C101.434 745.994 102.059 717.086 101 691.662C103.6 691.206 123.331 691.223 127 691.155L126.871 666.002C143.881 666.103 160.891 666.095 177.901 665.994C177.591 651.954 178.257 638.853 178.357 624.957L178.401 559.943L178.418 336.032C178.607 292.089 178.496 248.145 178.088 204.204C186.575 204.352 195.44 204.228 203.96 204.229L203.899 178.95C205.352 177.741 225.716 178.272 229.23 178.279C229.146 170.376 229.04 162.918 229.411 155.002L229.379 153.53C231.197 151.886 250.468 152.399 254.814 152.172C254.807 148.542 254.248 129.69 255.247 127.273L280.848 127.138C280.882 118.64 280.868 110.142 280.804 101.644Z" fill="#818080"/>
<path d="M280.847 127.138L768.072 127.145C776.74 127.072 785.416 127.081 794.092 127.173L794.101 152.897L768.631 152.866L768.318 178.63L742.932 178.629C742.805 187.181 742.611 195.738 742.797 204.288L742.712 469.062C742.72 515.293 744.014 568.892 742.416 614.673L212.522 615.358C209.821 615.341 206.045 615.603 203.774 614.343C203.76 613.853 203.612 613.32 203.798 612.863L203.73 378.092C203.726 321.483 202.637 260.472 203.959 204.229L203.898 178.95C205.351 177.741 225.716 178.272 229.23 178.28C229.145 170.376 229.04 162.918 229.411 155.002L229.379 153.53C231.197 151.886 250.468 152.399 254.814 152.172C254.807 148.542 254.248 129.691 255.247 127.273L280.847 127.138Z" fill="#C0C0BF"/>
<path d="M280.847 127.138L768.072 127.145C768.047 135.533 768.149 144.282 767.988 152.638L742.56 152.762C742.509 161.154 742.585 169.931 742.382 178.288C696.481 179.117 648.83 178.512 602.752 178.509L349.259 178.491C334.928 178.49 235.732 177.41 230.097 179.581L229.627 181.076L228.786 179.713C225.435 178.448 208.903 178.923 203.898 178.95C205.351 177.741 225.715 178.272 229.23 178.279C229.145 170.376 229.04 162.918 229.411 155.002L229.379 153.53C231.197 151.886 250.468 152.399 254.813 152.172C254.807 148.542 254.248 129.69 255.246 127.273L280.847 127.138Z" fill="#C0C0BF"/>
<path d="M280.847 127.138C280.624 135.725 280.511 144.315 280.507 152.905L255.62 152.638C255.675 144.724 255.928 135.016 255.247 127.273L280.847 127.138Z" fill="#818080"/>
<path d="M229.379 153.53C237.978 153.265 246.582 153.128 255.186 153.119C254.971 161.364 254.841 169.823 254.517 178.046L230.041 177.98C229.987 170.512 230.116 162.384 229.411 155.003L229.379 153.53Z" fill="#818080"/>
<path d="M768.072 127.145C776.74 127.072 785.416 127.081 794.092 127.173L794.101 152.897L768.631 152.866L768.318 178.63L742.932 178.629C742.805 187.181 742.611 195.738 742.797 204.288L405.14 204.299C346.918 204.303 287.783 204.809 229.638 204.158C228.526 340.373 231.4 478.369 229.427 614.301C222.894 614.36 210.895 614.808 204.821 613.996L203.798 612.863L203.73 378.092C203.726 321.483 202.637 260.472 203.959 204.229L203.898 178.95C208.903 178.923 225.436 178.448 228.786 179.713L229.627 181.076L230.098 179.581C235.732 177.41 334.928 178.49 349.259 178.491L602.752 178.51C648.83 178.512 696.481 179.117 742.382 178.288C742.585 169.931 742.509 161.155 742.56 152.762L767.988 152.638C768.149 144.282 768.047 135.533 768.072 127.145Z" fill="white"/>
<path d="M203.898 178.95C208.903 178.923 225.435 178.448 228.786 179.713L229.627 181.075C229.318 188.901 229.333 196.253 229.373 204.064C221.262 204.112 211.972 203.946 203.959 204.229L203.898 178.95Z" fill="#818080"/>
<path d="M691.696 229.707L717.251 229.548L717.039 589.038L412.105 589.122C360.5 589.114 306.126 588.251 254.675 589.427C254.83 582.102 254.778 570.465 255.463 563.436C254.964 554.934 255.153 546.464 255.226 537.947C254.836 503.892 255.112 469.279 255.13 435.183C254.58 427.066 255.388 417.817 255.865 409.609L255.481 408.793C252.768 402.839 255.046 247.706 255.252 229.861L690.892 229.674C690.816 238.148 690.833 246.624 690.943 255.097C691.036 263.187 691.07 271.277 691.045 279.367L691.146 369.025C691.155 381.368 691.721 397.085 691.315 409.026L691.899 408.957C693.226 394.995 691.687 372.615 692.009 357.768C692.922 315.559 690.952 271.646 691.696 229.707Z" fill="black"/>
<path d="M255.252 229.861L690.892 229.674C690.816 238.148 690.833 246.623 690.943 255.097C691.036 263.187 691.07 271.276 691.045 279.367L691.146 369.025C691.155 381.368 691.721 397.085 691.315 409.026C640.002 410.224 588.444 408.606 537.267 409.587C538.02 393.967 537.614 373.749 537.715 357.785L511.636 357.937C512.287 332.334 511.543 306.663 511.83 281.12C503.247 281.062 494.284 281.138 485.734 280.824C486.41 306.343 485.835 332.321 486.1 357.941C477.53 357.761 468.958 357.73 460.387 357.849C459.725 383.215 460.154 409.682 460.245 435.138L434.852 434.863L255.13 435.182C254.58 427.066 255.388 417.817 255.865 409.609L255.481 408.793C252.768 402.839 255.046 247.706 255.252 229.861Z" fill="black"/>
<path d="M255.252 229.861L690.892 229.674C690.816 238.148 690.833 246.623 690.943 255.097C683.197 255.364 674.961 255.264 667.172 255.302L409.792 255.322C358.864 255.323 306.182 254.687 255.395 255.469L255.425 358.718C255.431 374.365 255.987 393.481 255.481 408.793C252.768 402.839 255.046 247.706 255.252 229.861Z" fill="#818080"/>
<path d="M409.32 306.487L435.044 306.498C434.809 349.028 435.428 392.541 434.852 434.863L255.13 435.183C254.58 427.066 255.388 417.817 255.865 409.609C266.017 409.252 276.595 409.251 286.764 409.404C318.907 409.889 351.23 408.968 383.349 409.341C383.547 392.213 383.501 375.082 383.21 357.955L408.761 358.212C409.012 341.192 408.824 323.327 409.32 306.487Z" fill="#05FC03"/>
<path d="M667.172 255.302C674.96 255.264 683.197 255.365 690.943 255.097C691.036 263.187 691.07 271.277 691.044 279.367C682.664 280.765 675.392 281.431 666.927 281.05C665.362 271.624 666.107 264.736 667.172 255.302Z" fill="#010082"/>
<path d="M691.695 229.707L717.25 229.548L717.039 589.038L412.105 589.122C360.5 589.114 306.126 588.251 254.675 589.427C254.83 582.102 254.777 570.465 255.462 563.436L351.739 563.47C368.076 563.47 387.011 563.91 403.094 563.369L691.611 563.326C690.731 521.122 691.306 477.117 691.399 434.823C692.101 427.869 691.839 416.263 691.898 408.957C693.226 394.995 691.687 372.615 692.008 357.768C692.922 315.559 690.951 271.646 691.695 229.707Z" fill="white"/>
<path d="M485.734 280.825C494.283 281.139 503.247 281.063 511.83 281.121C511.543 306.664 512.287 332.335 511.636 357.937L486.22 357.88L486.162 460.601L460.385 460.909C460.777 483.438 461.198 515.287 460.194 537.548C451.428 537.772 443.71 538.043 434.938 537.499C434.333 505.875 433.862 466.336 434.852 434.863L460.245 435.139C460.154 409.683 459.725 383.215 460.387 357.849C468.958 357.731 477.53 357.761 486.099 357.941C485.835 332.322 486.41 306.344 485.734 280.825Z" fill="#05FC03"/>
<path d="M511.635 357.937L537.715 357.786C537.613 373.749 538.019 393.967 537.266 409.588C588.444 408.607 640.002 410.224 691.315 409.026L691.898 408.958C691.839 416.263 692.101 427.87 691.399 434.823C633.076 436.057 570.28 435.345 511.754 434.966C511.449 409.291 511.407 383.613 511.635 357.937Z" fill="#05FC03"/>
<path d="M255.225 537.948C265.298 537.14 271.596 537.397 281.671 538.532C280.401 547.996 280.859 553.796 280.346 562.718C308.843 563.978 340.037 562.287 368.775 562.921C376.854 563.107 395.798 562.312 403.094 563.369C387.011 563.911 368.076 563.471 351.739 563.471L255.462 563.437C254.963 554.935 255.153 546.464 255.225 537.948Z" fill="#010082"/>
<path d="M152.388 717.458L547.355 717.492L705.158 717.483C734.408 717.492 765.054 717.957 794.135 717.297C794.38 765.911 795.353 823.127 793.721 871.336L370.652 871.327C298.82 871.319 222.14 869.965 150.754 871.522L151.574 870.913C153.645 866.946 152.505 732.267 152.388 717.458Z" fill="#C0C0BF"/>
<path d="M486.174 743L742.67 742.78L742.602 768.407L742.712 794.456L665.574 794.321C665.701 802.516 665.388 811.811 665.286 820.074L639.461 819.939C640.256 812.953 640.213 801.713 640.366 794.38L485.811 794.439C484.62 788.375 486.115 751.982 486.174 743Z" fill="black"/>
<path d="M486.174 743L742.67 742.78L742.602 768.407L486.314 768.458C486.324 775.198 486.705 788.257 485.811 794.439C484.62 788.375 486.115 751.982 486.174 743Z" fill="#818080"/>
<path d="M640.365 794.38L665.573 794.321C665.7 802.517 665.387 811.812 665.286 820.075L639.46 819.939C640.255 812.953 640.213 801.713 640.365 794.38Z" fill="#818080"/>
<path d="M204.355 768.627C221.064 768.652 238.88 768.991 255.479 768.119L255.224 794.448C255.078 802.719 255.303 811.718 255.352 820.049L203.985 819.897L203.814 794.499C203.852 785.703 203.902 777.431 204.355 768.627Z" fill="#05FC03"/>
<path d="M203.814 794.499C220.949 794.753 238.089 794.736 255.224 794.448C255.078 802.72 255.303 811.719 255.352 820.049L203.985 819.897L203.814 794.499Z" fill="#018101"/>
<path d="M126.959 692.264C141.099 690.784 176.181 691.849 192.326 691.858L324.775 691.875H631.393C685.302 691.875 740.378 692.517 794.194 691.799L794.135 717.298C765.053 717.958 734.408 717.493 705.158 717.484L547.355 717.493L152.388 717.459C152.504 732.268 153.645 866.947 151.573 870.914L150.754 871.523C143.688 871.159 134.083 871.396 126.828 871.371C126.746 812.057 126.203 751.492 126.959 692.264Z" fill="white"/>
<path d="M127.032 896.844L656.027 896.708L769.958 896.7C776.782 896.691 815.436 896.176 819.698 897.52C819.495 905.487 819.774 914.402 819.85 922.445L127.071 922.496C126.861 914.046 127.004 905.31 127.032 896.844Z" fill="black"/>
<path d="M819.715 127.228L845.423 127.098C844.213 136.284 844.831 164.309 844.839 174.964L844.881 273.139L844.958 589.029C837.474 589.012 826.946 589.275 819.699 588.902C817.652 481.373 820.637 372.699 819.453 265.05C818.954 219.653 818.675 172.479 819.715 127.228Z" fill="black"/>
<path d="M896.693 615.18L921.901 614.909L921.859 763.89C921.867 771.874 921.334 814.441 922.603 819.854C914.003 819.804 905.403 819.88 896.803 820.074C895.923 799.86 896.05 777.38 896.456 757.09C897.378 710.176 895.044 661.951 896.693 615.18Z" fill="black"/>
<path d="M845.186 614.707L871.138 614.588C870.994 622.877 871.037 632.214 870.555 640.409L845.566 640.545L845.051 665.977L819.859 666.146L819.453 691.629C812.697 691.637 800.554 691.333 794.194 691.798C740.379 692.517 685.303 691.874 631.394 691.874H324.775L192.326 691.857C176.182 691.849 141.1 690.783 126.96 692.263C119.271 692.28 108.371 692.627 101 691.663C103.6 691.206 123.331 691.223 127 691.155L793.848 691.121C793.873 682.791 793.831 674.367 793.958 666.044L819.639 665.985C819.546 657.485 819.512 648.994 819.521 640.494L845.33 640.384C845.127 631.825 845.084 623.266 845.186 614.707Z" fill="#C0C0BF"/>
<path d="M768.123 614.487C776.799 614.369 785.475 614.377 794.151 614.529L794.202 640.579L768.419 640.401C768.055 631.944 768.165 622.996 768.123 614.487Z" fill="black"/>
<path d="M793.89 588.919C802.498 588.852 811.098 588.852 819.698 588.902C819.741 597.428 819.91 606.418 819.783 614.91C811.538 614.791 802.312 614.867 794.152 614.529C793.847 606.097 793.923 597.385 793.89 588.919Z" fill="black"/>
<path d="M845.025 845.397C852.348 845.465 864.348 844.898 871.096 845.702L871.206 871.176C865.718 870.567 851.723 870.897 845.558 870.905C844.915 862.989 845.084 853.449 845.025 845.397Z" fill="black"/>
<path d="M819.436 871.184C827.85 871.125 836.543 871.184 844.932 870.998C844.915 876.199 844.585 892.557 845.574 896.819C837.008 896.777 828.442 896.853 819.876 897.064C819.47 888.446 819.326 879.811 819.436 871.184Z" fill="black"/>
<path d="M870.782 819.82C876.321 819.753 892.38 819.144 896.65 820.556L896.633 832.152C896.337 835.983 896.464 841.176 896.439 845.117L871.188 845.151C870.749 837.015 870.859 828.024 870.782 819.82Z" fill="black"/>
<path d="M195.962 640.139L768.411 640.165L768.572 666.18L756.344 666.062L178.797 665.943L178.659 640.232L195.962 640.139Z" fill="black"/>
</svg>
