<svg width="1024" height="1024" viewBox="0 0 1024 1024" fill="none" xmlns="http://www.w3.org/2000/svg">
<path d="M96.7157 124.438L253.884 124.463L253.922 155.92L285.248 155.953C285.266 165.479 284.902 178.058 285.381 187.325L316.514 187.366C316.651 196.167 316.672 204.969 316.576 213.77L316.755 218.813L756.542 218.854C756.549 228.758 756.366 239.3 756.574 249.147L756.725 250.185L787.872 250.287C787.967 260.436 787.69 271.755 787.973 281.724L819.233 281.717L819.29 313.151L882.12 313.081L882.057 344.61C892.544 344.444 903.038 344.413 913.532 344.517L913.5 407.354C924 407.183 934.5 407.173 945 407.325V470.108L913.532 470.08L913.538 532.954L882.101 532.973L882.107 595.828H850.677L850.702 658.645C840.227 658.702 829.752 658.714 819.284 658.664L819.24 721.412C809.804 721.405 797.239 721.009 788.055 721.468L787.853 721.67C788.036 742.544 788.061 763.424 787.935 784.298L756.448 784.26C756.574 805.222 756.58 826.185 756.473 847.147C746.162 847.153 735.36 847.329 725.093 847.147C725.168 857.628 725.118 868.109 724.942 878.59L96.6679 878.577L96.6024 847.197L65.2832 847.153L65.2259 408.622L65.2247 245.986C65.2259 216.202 64.8445 185.623 65.3789 155.944L96.6345 155.953C96.6446 145.712 96.435 134.607 96.7157 124.438Z" fill="#F7C53A"/>
<path d="M96.7157 124.438L253.884 124.463L253.922 155.92L285.248 155.953C285.266 165.479 284.902 178.058 285.381 187.325L316.514 187.366C316.651 196.167 316.672 204.969 316.576 213.77L316.755 218.813L756.542 218.854C756.549 228.758 756.366 239.3 756.574 249.147L756.725 250.185L787.872 250.287C787.967 260.436 787.69 271.755 787.973 281.724L819.233 281.717L819.29 313.151L882.12 313.081L882.057 344.61C892.544 344.444 903.038 344.413 913.532 344.517L913.5 407.355C924 407.183 934.5 407.173 945 407.325V470.108L913.532 470.08C903.101 470.117 892.664 470.094 882.233 470.011C862.391 469.02 833.007 469.888 812.435 469.897L675.948 469.899L285.14 469.977C275.073 469.994 263.75 469.781 253.76 470.117L253.859 470.514C253.84 490.198 254.426 513.163 253.697 532.545L253.427 532.872C244.125 533.313 231.962 532.954 222.441 532.954L191.078 532.935L190.976 595.828L190.968 636.071C190.975 642.347 191.263 652.4 190.717 658.444L190.469 658.677L159.524 658.658L159.446 721.387C149.186 721.16 138.568 721.431 128.206 721.267L128.17 721.657C127.548 741.852 127.996 763.997 128.01 784.33C121.838 784.229 101.891 783.706 96.552 784.506L96.6024 847.197L65.2832 847.153L65.2259 408.622L65.2247 245.986C65.2259 216.202 64.8445 185.623 65.3789 155.944L96.6345 155.953C96.6446 145.712 96.435 134.607 96.7157 124.438Z" fill="#E88B34"/>
<path d="M882.057 344.61C892.544 344.443 903.038 344.413 913.532 344.517L913.5 407.354C924 407.183 934.5 407.173 945 407.325V470.108L913.532 470.08C903.101 470.117 892.664 470.093 882.233 470.011C862.391 469.02 833.007 469.888 812.435 469.896L675.948 469.899L285.14 469.976C275.073 469.993 263.75 469.78 253.76 470.117C254.705 452.026 253.908 426.077 253.894 407.403C275.335 406.662 299.81 407.185 321.509 407.187L444.792 407.195L819.215 407.201L850.677 407.259L850.758 375.78L882.114 375.785L882.057 344.61Z" fill="black"/>
<path d="M285.096 438.577H913.569L913.532 470.08C903.101 470.117 892.664 470.093 882.233 470.011C862.392 469.02 833.007 469.888 812.435 469.896L675.948 469.899L285.14 469.976C285.202 459.51 285.188 449.043 285.096 438.577Z" fill="#FCF38B"/>
<path d="M253.881 375.594C280.55 376.793 312.332 376.031 339.385 376.004L485.187 375.977L692.051 375.961C734.038 376.005 777.504 376.581 819.403 375.825C819.246 386.282 819.183 396.742 819.214 407.201L444.792 407.195L321.509 407.188C299.81 407.185 275.335 406.662 253.895 407.404C253.908 426.078 254.705 452.027 253.76 470.117L253.859 470.514C253.84 490.198 254.426 513.163 253.697 532.545L253.427 532.872C244.125 533.313 231.962 532.954 222.441 532.954L191.078 532.935L190.976 595.828L190.968 636.071C190.975 642.348 191.263 652.401 190.717 658.444L190.469 658.677L159.524 658.658L159.446 721.387C149.186 721.16 138.568 721.431 128.206 721.267L128.17 721.657C123.291 721.003 102.522 721.399 96.5313 721.387L96.5534 627.183C107.045 627.221 117.536 627.208 128.027 627.139L128.035 564.423L128.096 501.574C138.574 501.454 149.052 501.41 159.531 501.454C159.4 480.552 159.448 459.652 159.673 438.753C170.117 438.786 180.56 438.732 191.003 438.593C191.378 418.15 190.996 396.52 190.979 375.981L222.438 375.731C232.919 375.84 243.401 375.794 253.881 375.594Z" fill="#CED4D3"/>
<path d="M128.096 501.574C138.574 501.454 149.052 501.41 159.531 501.454L159.481 564.397L128.035 564.422L128.096 501.574Z" fill="black"/>
<path d="M191.003 438.592L190.941 501.473L159.531 501.454C159.4 480.552 159.448 459.651 159.673 438.753C170.117 438.786 180.56 438.732 191.003 438.592Z" fill="black"/>
<path d="M253.76 470.117L253.859 470.514C253.84 490.198 254.426 513.163 253.697 532.545L253.427 532.872C244.125 533.313 231.962 532.954 222.441 532.954L222.51 470.102L253.76 470.117Z" fill="black"/>
<path d="M128.146 658.607C138.605 658.544 149.065 658.563 159.524 658.658L159.446 721.387C149.186 721.16 138.568 721.431 128.206 721.267C127.125 704.277 128.043 676.586 128.146 658.607Z" fill="black"/>
<path d="M222.437 375.73L222.387 438.582L191.003 438.592C191.378 418.15 190.996 396.519 190.979 375.98L222.437 375.73Z" fill="black"/>
<path d="M159.598 595.84C170.001 595.941 180.56 595.84 190.976 595.828L190.968 636.071C190.975 642.347 191.263 652.4 190.717 658.443L190.469 658.676L159.524 658.657L159.598 595.84Z" fill="black"/>
<path d="M787.973 281.724L819.233 281.717L819.29 313.151L882.12 313.081L882.057 344.61L882.114 375.785L850.758 375.78L850.677 407.259L819.215 407.201C819.183 396.742 819.246 386.282 819.403 375.824C777.504 376.58 734.038 376.004 692.051 375.961L485.187 375.977L339.385 376.004C312.332 376.031 280.55 376.793 253.881 375.593C243.401 375.794 232.919 375.839 222.438 375.731C222.788 355.207 222.445 333.801 222.502 313.16L613.087 313.134L732.017 313.094L765.808 313.226C771.959 313.268 781.93 313.517 787.922 312.893L787.973 281.724Z" fill="black"/>
<path d="M253.788 344.469L882.057 344.61L882.114 375.785L850.759 375.78L850.677 407.259L819.215 407.201C819.183 396.742 819.246 386.282 819.404 375.824C777.504 376.58 734.038 376.004 692.051 375.961L485.187 375.977L339.385 376.004C312.332 376.031 280.55 376.793 253.881 375.593L253.788 344.469Z" fill="#FEFEFE"/>
<path d="M316.755 218.813L756.542 218.854C756.549 228.758 756.366 239.3 756.574 249.147L756.725 250.185L787.872 250.287C787.967 260.436 787.69 271.755 787.973 281.724L787.923 312.893C783.705 312.155 762.302 312.555 756.807 312.583C755.862 303.653 756.347 290.515 756.504 281.473C740.056 281.949 722.122 281.625 705.56 281.624L611.557 281.623L316.617 281.608C316.55 271.243 316.329 260.486 316.831 250.168C316.31 240.387 316.655 228.726 316.755 218.813Z" fill="#F7C53A"/>
<path d="M316.755 218.813L756.542 218.854C756.549 228.758 756.366 239.3 756.574 249.147C755.038 250.716 755.648 250.196 752.457 250.218L316.831 250.168C316.31 240.387 316.655 228.726 316.755 218.813Z" fill="black"/>
<path d="M756.725 250.185L787.872 250.287C787.966 260.436 787.689 271.754 787.973 281.724L756.448 281.669C756.46 271.358 756.303 260.436 756.725 250.185Z" fill="black"/>
<path d="M96.6345 155.953L96.535 564.435L128.035 564.422L128.027 627.139C117.536 627.208 107.044 627.221 96.5533 627.183L96.5313 721.387C102.522 721.399 123.291 721.003 128.17 721.657C127.548 741.851 127.996 763.997 128.01 784.33C121.838 784.229 101.891 783.706 96.552 784.506L96.6024 847.197L65.2832 847.153L65.2259 408.622L65.2247 245.986C65.2259 216.202 64.8445 185.623 65.3789 155.944L96.6345 155.953Z" fill="black"/>
<path d="M96.7157 124.438L253.884 124.463L253.922 155.92C253.895 165.475 253.534 177.516 254.023 186.871C240.257 187.971 221.417 187.376 207.216 187.365L128.01 187.377L128.096 501.574L128.035 564.423L96.535 564.435L96.6345 155.953C96.6446 145.712 96.435 134.607 96.7157 124.438Z" fill="#F7C53A"/>
<path d="M96.7157 124.438L253.884 124.463L253.922 155.92L96.6345 155.953C96.6446 145.712 96.435 134.607 96.7157 124.438Z" fill="black"/>
<path d="M253.922 155.92L285.248 155.952C285.266 165.479 284.902 178.058 285.381 187.325C274.999 187.37 264.618 187.34 254.237 187.234L254.023 186.871C253.534 177.516 253.895 165.475 253.922 155.92Z" fill="black"/>
<path d="M285.381 187.325L316.514 187.366C316.651 196.167 316.672 204.969 316.576 213.77L316.261 218.829L285.381 218.795C285.156 209.465 285.511 200.071 285.238 190.617L285.381 187.325Z" fill="black"/>
<path d="M254.237 187.234C264.618 187.34 275 187.37 285.381 187.325L285.238 190.617C284.171 193.115 284.775 214.939 284.852 218.675C274.528 218.868 264.201 218.906 253.876 218.788C253.788 213.392 253.145 191.842 254.237 187.234Z" fill="#F7C53A"/>
<path d="M285.381 218.795L316.261 218.829C315.594 227.302 316.058 241.243 316.12 250.106C305.755 250.33 295.388 250.389 285.022 250.285C285.058 239.958 284.931 229.062 285.381 218.795Z" fill="#F7C53A"/>
<path d="M127.965 847.166L725.093 847.147C725.168 857.628 725.118 868.109 724.942 878.59L96.6679 878.577L96.6025 847.197L127.965 847.166Z" fill="black"/>
<path d="M756.448 784.26C756.574 805.222 756.58 826.184 756.473 847.147C746.162 847.153 735.36 847.329 725.093 847.147C725.105 826.575 724.608 804.7 725.187 784.254L756.448 784.26Z" fill="black"/>
<path d="M756.574 721.537C764.814 721.436 780.047 721.002 787.853 721.669C788.036 742.543 788.061 763.424 787.935 784.298L756.448 784.26C756.769 763.619 756.473 742.279 756.574 721.537Z" fill="black"/>
<path d="M913.531 470.08L913.538 532.954L882.101 532.973C882.025 511.986 882.069 490.998 882.233 470.011C892.664 470.093 903.101 470.117 913.531 470.08Z" fill="black"/>
<path d="M222.441 532.954L222.455 595.904C212.349 595.614 201.166 595.834 190.976 595.828L191.078 532.935L222.441 532.954Z" fill="black"/>
<path d="M850.796 532.979L882.101 532.973L882.107 595.828H850.677L850.796 532.979Z" fill="black"/>
<path d="M159.524 658.657L190.469 658.676C191.954 664.329 190.945 712.139 190.802 721.386C180.937 721.172 168.536 721.94 159.446 721.386L159.524 658.657Z" fill="#FCF38B"/>
<path d="M222.441 532.954C231.962 532.954 244.125 533.313 253.427 532.872C254.084 537.279 253.768 549.126 253.764 553.998L253.783 595.683L222.455 595.903L222.441 532.954Z" fill="#FCF38B"/>
<path d="M190.976 595.828C201.166 595.834 212.349 595.614 222.455 595.903C222.012 616.809 221.968 637.721 222.327 658.626C213.735 658.406 198.145 659.318 190.717 658.443C191.263 652.4 190.975 642.347 190.968 636.071L190.976 595.828Z" fill="#FCF38B"/>
<path d="M819.391 595.853L850.677 595.828L850.702 658.645C840.227 658.701 829.752 658.714 819.284 658.664C819.718 638.048 819.403 616.532 819.391 595.853Z" fill="black"/>
<path d="M788.105 658.701L819.284 658.664L819.24 721.411C809.804 721.405 797.239 721.009 788.055 721.468C787.28 703.282 787.715 677.045 788.105 658.701Z" fill="black"/>
<path d="M128.17 721.657C137.92 722.167 149.585 721.871 159.485 721.859L159.395 784.178C151.766 784.141 134.303 784.846 128.01 784.33C127.996 763.997 127.548 741.851 128.17 721.657Z" fill="#FCF38B"/>
<path d="M96.552 784.506C106.696 784.965 117.925 784.745 128.16 784.739C127.864 805.544 127.799 826.355 127.965 847.166L96.6024 847.197L96.552 784.506Z" fill="#FCF38B"/>
<path d="M253.859 470.514L285.227 470.46C284.423 489.757 284.559 513.484 285.108 532.872C280.087 532.878 257.028 533.325 253.697 532.545C254.426 513.163 253.84 490.198 253.859 470.514Z" fill="#FCF38B"/>
</svg>
