<svg width="1024" height="1024" viewBox="0 0 1024 1024" fill="none" xmlns="http://www.w3.org/2000/svg">
<path d="M201.222 89.6596C254.682 88.6605 310.755 89.5203 364.395 89.5294L685.963 89.4714C685.884 97.6809 685.879 105.89 685.945 114.1L708.23 114.079C708.072 121.208 708.07 129.154 707.711 136.202C712.755 139.807 724.083 137.491 728.231 139.635L747.944 140.087C749.104 153.705 751.794 169.163 751.848 182.193L752.826 182.626C761.272 182.49 769.298 182.316 777.746 182.689L777.604 205.865L801.776 205.839L801.61 229.443L825.157 229.278L825.298 252.487C833.913 252.224 839.158 252.188 847.749 252.921L848.995 254.682L848.816 255.109L848.73 887.082C840.794 888.076 833.432 887.874 825.459 887.848C825.368 893.768 825.513 902.768 824.968 908.428L823.917 909.902C816.307 910.957 809.937 910.717 802.297 910.642C802.253 915.237 802.375 929.336 801.543 932.976C610.462 935.014 416.603 932.76 225.19 933.155C224.343 929.322 224.518 915.65 224.487 911.017C216.34 911.049 208.964 911.187 200.837 910.436L201.249 886.583C193.923 887.43 182.235 887.54 174.549 887.831L174.488 114.083L201.145 114.118C201.045 106.063 201.187 97.7389 201.222 89.6596Z" fill="#FEFEFC"/>
<path d="M685.949 114.1L708.234 114.079C708.077 121.208 708.074 129.153 707.716 136.201C712.759 139.807 724.087 137.491 728.236 139.635L747.948 140.087C749.109 153.705 751.798 169.163 751.852 182.193L752.831 182.626C761.276 182.489 769.302 182.315 777.75 182.689L777.609 205.865L801.781 205.839L801.614 229.443L825.161 229.278L825.302 252.487C833.917 252.224 839.162 252.188 847.753 252.921L849 254.682L848.82 255.109L848.734 887.082C840.798 888.076 833.437 887.874 825.463 887.848C825.373 893.768 825.517 902.768 824.972 908.428L823.921 909.902C816.311 910.956 809.941 910.717 802.302 910.642C802.258 915.237 802.379 929.336 801.547 932.976C610.466 935.014 416.607 932.76 225.195 933.155C224.348 929.322 224.522 915.65 224.491 911.017C216.345 911.049 208.968 911.187 200.841 910.436L201.253 886.583L201.358 863.798C217.387 862.945 241.316 863.627 257.783 863.61L367.647 863.525L735 863.327L735.054 842.331L755.276 842.086L754.683 816.953L778.783 817.007C777.254 761.718 778.492 699.918 778.554 644.27L778.403 319.214L664.951 319.337C664.499 310.546 664.502 307.051 665.518 298.32C658.057 298.186 650.592 298.157 643.129 298.235L643.422 275.339C644.408 238.657 642.668 200.042 643.328 163.237C643.511 153.001 642.572 124.216 644.543 115.587L644.56 114.453C655.501 114.436 675.784 114.957 685.949 114.1Z" fill="#DCDDDD"/>
<path d="M685.945 114.1L708.23 114.079C708.073 121.208 708.07 129.153 707.712 136.201C712.755 139.807 724.083 137.491 728.232 139.635L747.944 140.087C749.105 153.705 751.794 169.163 751.848 182.193L752.827 182.626C761.272 182.489 769.298 182.315 777.746 182.689L777.605 205.865L801.777 205.839L801.61 229.443L825.157 229.278L825.298 252.487C833.913 252.224 839.158 252.188 847.749 252.921L848.996 254.682L848.816 255.109L848.73 887.082C840.794 888.076 833.433 887.874 825.459 887.848C825.369 893.768 825.513 902.768 824.968 908.428C823.86 902.599 824.424 893.118 824.56 886.92L802.006 886.411L801.893 885.602L801.364 298.584C760.447 298.119 705.988 296.712 665.514 298.32C658.052 298.186 650.588 298.157 643.125 298.235L643.418 275.339C644.404 238.657 642.663 200.042 643.324 163.237C643.507 153.001 642.568 124.216 644.539 115.587L644.556 114.453C655.497 114.436 675.78 114.957 685.945 114.1Z" fill="#3B4B5F"/>
<path d="M685.948 114.1L708.233 114.079C708.076 121.208 708.073 129.153 707.715 136.201C712.758 139.807 724.086 137.491 728.235 139.635L747.947 140.087C749.108 153.705 751.797 169.163 751.851 182.193L752.83 182.626C761.275 182.489 769.301 182.315 777.749 182.689L777.608 205.865L801.78 205.839L801.613 229.443L825.16 229.278L825.301 252.487C820.818 254.088 807.309 255.198 803.407 251.824C801.847 250.476 801.592 246.069 801.191 243.818L801.185 253.175C801.76 261.178 801.836 267.373 801.769 275.388L643.421 275.339C644.407 238.657 642.667 200.042 643.327 163.237C643.51 153.001 642.571 124.216 644.542 115.587L644.559 114.453C655.5 114.436 675.783 114.957 685.948 114.1Z" fill="#DCDDDD"/>
<path d="M644.542 115.586C651.116 115.73 657.762 115.949 664.33 115.822L664.528 253.581L753.013 253.539C767.276 253.527 787.35 254.068 801.185 253.174C801.76 261.177 801.836 267.372 801.769 275.386L643.421 275.337C644.407 238.655 642.667 200.04 643.327 163.235C643.51 152.999 642.571 124.214 644.542 115.586Z" fill="#FEFEFC"/>
<path d="M777.607 205.864L801.779 205.838L801.612 229.442L825.159 229.277L825.3 252.486C820.817 254.087 807.308 255.197 803.406 251.823C801.846 250.475 801.591 246.069 801.19 243.818L801.512 230.445L777.36 230.548L777.607 205.864Z" fill="black"/>
<path d="M728.233 139.635L747.946 140.087C749.106 153.705 751.795 169.163 751.849 182.193C746.564 182.946 732.357 182.619 726.377 182.612C726.619 174.698 726.798 167.691 726.549 159.756C725.963 155.751 726.522 143.323 728.233 139.635Z" fill="black"/>
<path d="M752.828 182.624C761.274 182.487 769.3 182.313 777.748 182.687L777.606 205.863C769.399 205.959 761.196 206.219 753 206.638C752.769 198.812 752.866 190.492 752.828 182.624Z" fill="black"/>
<path d="M685.948 114.1L708.233 114.079C708.076 121.208 708.073 129.153 707.715 136.201C700.277 138.624 693.299 136.511 686.018 138.152C685.893 130.204 685.965 122.066 685.948 114.1Z" fill="black"/>
<path d="M686.019 138.154C693.3 136.513 700.278 138.625 707.715 136.203C712.759 139.809 724.087 137.492 728.235 139.636C726.525 143.325 725.965 155.752 726.552 159.758C720.309 160.441 712.968 160.538 706.615 160.78L707.028 138.344C699.699 138.635 693.326 139.109 686.019 138.154Z" fill="#3F4D61"/>
<path d="M825.411 253.083C830.527 253.225 844.96 253.026 848.815 255.107L848.728 887.08C843.434 886.021 830.9 886.523 824.898 886.607C823.556 768.544 825.084 650.25 825.104 532.166C825.121 439.291 823.143 345.909 825.411 253.083Z" fill="black"/>
<path d="M225.092 886.519L661.627 886.59C680.358 886.589 790.099 888.928 801.897 885.601L802.01 886.409L824.564 886.919C824.428 893.117 823.864 902.598 824.972 908.427L823.921 909.901C816.311 910.955 809.941 910.716 802.302 910.641C802.258 915.235 802.379 929.335 801.547 932.975C610.466 935.013 416.607 932.759 225.195 933.154C224.348 929.321 224.522 915.649 224.491 911.016C216.345 911.048 208.968 911.186 200.841 910.435L201.253 886.582L225.092 886.519Z" fill="#3F4D61"/>
<path d="M225.67 909.717L579.721 909.13C650.509 909.045 731.618 907.132 801.658 909.637C801.297 916.503 800.355 926.467 801.546 932.975C610.465 935.013 416.606 932.76 225.193 933.154C226.008 925.196 225.762 917.697 225.67 909.717Z" fill="black"/>
<path d="M201.253 886.584L225.092 886.521C224.496 895.099 224.688 901.113 225.012 909.696C219.33 909.682 205.787 909.32 200.841 910.436L201.253 886.584Z" fill="black"/>
<path d="M802.002 886.412L824.557 886.921C824.42 893.119 823.856 902.6 824.964 908.43L823.913 909.903C819.602 909.327 806.344 909.501 801.502 909.467C801.144 902.996 800.111 892.35 802.002 886.412Z" fill="black"/>
<path d="M201.222 89.6596C254.682 88.6605 310.755 89.5203 364.395 89.5294L685.963 89.4714C685.884 97.6809 685.879 105.89 685.945 114.1C675.78 114.957 655.497 114.436 644.556 114.453C634.342 114.441 624.129 114.367 613.917 114.231C583.085 115.25 549.97 114.556 518.877 114.545L312.919 114.558C277.204 114.556 236.689 113.678 201.402 114.792L201.354 863.798L201.249 886.583C193.923 887.43 182.235 887.54 174.549 887.831L174.488 114.083L201.145 114.118C201.045 106.063 201.187 97.7389 201.222 89.6596Z" fill="black"/>
<path d="M613.919 114.23C624.131 114.365 634.343 114.44 644.558 114.452L644.541 115.586C642.57 124.215 643.508 153 643.325 163.236C642.665 200.04 644.405 238.655 643.419 275.338L620.416 275.625C620.445 243.441 621.436 153.251 619.604 116.253C619.554 115.236 615.609 114.641 613.919 114.23Z" fill="#3F4D61"/>
<path d="M461.729 435.35C547.572 435.605 635.002 436.03 720.771 435.028C719.942 456.254 720.357 480.845 720.645 502.193C635.234 503.272 547.25 502.781 461.789 502.271L461.729 435.35Z" fill="#75CF25"/>
<path d="M274.988 421.435C280.834 421.964 289.145 422.028 295.122 421.875C336.301 420.827 379.581 423.803 420.544 421.467L420.666 502.369C373.152 501.484 322.417 502.22 274.817 502.371L274.988 421.435Z" fill="#FEDD02"/>
<path d="M274.808 528.697C320.117 530.939 381.11 529.127 427.319 529.137L720.883 529.181L720.778 552.372L274.991 552.417L274.808 528.697Z" fill="#0093FE"/>
<path d="M274.924 356.691L720.758 356.811L720.829 379.55L274.922 379.546L274.924 356.691Z" fill="#B4AFAC"/>
<path d="M274.826 594.986C320.169 595.861 368.577 595.057 414.135 595.068L721.015 595.133L720.843 617.562C675.715 615.53 615.513 617.298 569.584 617.289L275.047 617.303L274.826 594.986Z" fill="#B4AFAC"/>
<path d="M274.931 659.791C337.912 661.35 403.208 660.343 466.38 660.409C551.22 660.754 636.061 660.646 720.901 660.085L720.818 682.365C716.534 683.053 687.719 682.737 682.084 682.729L592.736 682.603L274.958 682.733L274.931 659.791Z" fill="#B4AFAC"/>
<path d="M274.922 292C305.572 292.841 339.632 292.127 370.597 292.136L557.169 291.957C557.238 299.991 557.42 306.726 556.467 314.75C521.931 315.585 483.981 314.919 449.192 314.876L275.008 315.099L274.922 292Z" fill="#B4AFAC"/>
<path d="M274.979 226.356C365.732 228.863 465.651 226.717 557.25 226.664L557.189 249.396L275.018 249.488L274.979 226.356Z" fill="#B4AFAC"/>
<path d="M274.919 725.193C363.432 726.536 455.44 725.264 544.216 725.241L544.132 747.519C517.08 748.833 480.959 747.859 453.379 747.857C393.879 747.572 334.379 747.703 274.884 748.252L274.919 725.193Z" fill="#B4AFAC"/>
</svg>
