<svg width="1024" height="1024" viewBox="0 0 1024 1024" fill="none" xmlns="http://www.w3.org/2000/svg">
<path d="M396.968 153L902.289 153.186L902.231 174.582C911.235 174.757 920.238 174.829 929.248 174.799C929.408 182.867 929.216 191.794 929.184 199.926C936.422 200.162 944.582 199.943 951.891 199.914L951.974 225.044L974.923 225.151L975 527.221L951.961 527.265L951.999 552.096C946.129 552.464 935.821 551.966 929.51 551.952L929.715 576.279L899.392 576.2C899.117 621.561 899.13 666.922 899.437 712.275L855.801 712.283C855.462 704.472 855.635 696.466 855.699 688.633C848.953 688.611 842.322 688.979 835.582 689.303L835.729 668.161C830.089 667.995 823.548 668.248 817.837 668.312L817.94 646.695L801.026 646.882L800.835 627.095L780.737 627.232C780.737 618.664 780.711 610.572 780.392 602.004C759.149 602.09 737.907 601.953 716.671 601.593L716.537 666.259L694.035 666.165C693.958 673.349 694.194 681.103 694.303 688.33C688.017 688.647 680.434 688.554 674.071 688.64L674.263 712.16C658.354 712.348 642.438 712.362 626.529 712.203L626.708 738.325L605.12 738.404L285.171 738.26C285.385 747.109 285.526 755.957 285.594 764.806C278.7 765.195 269.755 764.95 262.705 764.972C262.724 773.864 262.68 782.756 262.572 791.655C254.768 791.864 246.822 791.886 239.006 791.987L238.986 818.649C231.124 818.778 223.26 818.778 215.398 818.627L215.545 844.871C207.724 844.741 199.902 844.676 192.08 844.662C191.916 853.179 192.107 862.381 192.16 870.956L147.206 870.999C147.949 818.677 147.353 764.943 147.554 712.405C138.654 712.29 129.753 712.239 120.852 712.254C120.724 705.156 120.799 697.662 120.778 690.535L97.3086 690.824C97.0106 683.675 97.1647 675.353 97.1443 668.111L73.5814 668.665L73.7253 646.032C65.6689 646.234 57.2212 646.09 49.1335 646.082L49.1597 466.326L49.1527 411.683C49.1367 404.455 48.5203 385.787 49.8881 378.829C50.3414 376.521 70.3241 377.205 73.6185 377.235C73.5181 368.506 73.341 359.331 73.9017 350.654C80.3026 350.012 91.0248 350.267 97.7837 350.225C97.682 341.446 97.6609 332.666 97.7191 323.887L121.807 324.059C121.538 316.543 121.871 306.51 121.96 298.819L344.349 298.812L344.294 207.915L368.047 208.02L368.191 197.093L378.979 197.176C378.78 189.761 378.677 182.345 378.672 174.928L397.035 174.873C396.93 167.663 396.985 160.229 396.968 153Z" fill="black"/>
<path d="M123.01 325.334L645.124 325.325L645.034 351.145C653.302 350.867 662.312 351.046 670.637 351.04C670.669 357.025 670.637 363.011 670.542 368.996C670.599 371.466 670.318 374.893 671.296 376.692C677.236 378.563 690.658 375.069 692.877 378.084L692.769 379.102C693.523 400.678 692.692 427.236 692.711 449.334L692.807 576.978C692.641 601.269 691.771 638.004 692.992 661.51C685.511 661.661 678.029 661.618 670.554 661.38C670.497 669.429 670.343 677.644 670.637 685.671C657.42 685.707 638.467 686.37 625.665 685.102C624.911 691.025 625.326 704.731 625.448 711.166L283.843 711.173C283.577 719.863 283.723 728.164 283.851 736.855L261.322 736.92C260.689 745.026 260.807 755.367 261.132 763.545C253.396 763.552 245.141 763.372 237.459 763.97C237.389 772.589 237.381 781.207 237.436 789.825C231.406 789.868 219.976 789.652 214.418 790.38C214.347 799.142 214.444 808.106 214.313 816.811C208.451 816.681 196.937 816.105 191.634 816.746L190.874 816.941C184.82 816.97 177.785 816.883 171.82 817.481C171.797 774.585 172.743 728.222 171.668 685.693C155.15 685.765 138.783 685.383 122.243 685.779C122.044 679.049 122.279 671.296 122.343 664.493L98.4916 664.666C98.4308 660.285 99.6515 645.434 98.1309 642.559L74.7075 642.573C74.5527 634.589 74.4907 626.605 74.5207 618.621C73.9433 607.495 74.1831 593.465 74.1684 582.181L74.1729 519.55C74.1946 473.488 73.4714 424.355 74.5987 378.508C82.5195 378.715 90.4442 378.661 98.3624 378.347L98.6137 350.815C107.097 351.512 114.751 351.246 123.175 350.598L123.01 325.334Z" fill="#FDFBF3"/>
<path d="M624.828 675.158C625.972 677.27 625.608 682.148 625.665 685.102C624.911 691.025 625.327 704.731 625.448 711.166L283.843 711.173C283.577 719.863 283.723 728.165 283.851 736.855L261.322 736.92C260.689 745.026 260.807 755.367 261.132 763.545C253.396 763.553 245.141 763.373 237.459 763.971C237.389 772.589 237.382 781.207 237.436 789.825C231.407 789.869 219.976 789.652 214.418 790.38C214.347 799.143 214.444 808.107 214.314 816.811C208.451 816.682 196.937 816.105 191.634 816.746C190.838 809.058 191.06 798.047 191.034 790.092C194.208 790.15 196.414 789.926 199.544 789.624L202.592 789.357L214.771 789.768C214.654 783.542 213.803 770.485 214.467 765.124C216.261 762.083 215.519 743.715 215.438 738.714C224.061 737.82 230.373 737.691 238.989 737.662C238.974 728.806 239.017 719.95 239.121 711.094C246.739 710.935 254.553 710.993 262.188 710.943C262.176 702.223 262.136 693.699 262.441 684.987C265.889 685.131 271.065 685.592 274.423 685.218C296.857 682.696 319.516 683.56 342.064 683.589L536.623 683.546C566.031 683.416 595.432 683.467 624.834 683.712L624.828 675.158Z" fill="#C2BFC5"/>
<path d="M670.17 405.378C668.002 398.603 668.993 376.462 670.541 368.997C670.598 371.467 670.317 374.893 671.295 376.692C677.236 378.564 690.658 375.07 692.876 378.085L692.768 379.102C693.522 400.679 692.691 427.236 692.71 449.335L692.806 576.978C692.64 601.269 691.77 638.005 692.992 661.51C685.51 661.662 678.028 661.619 670.553 661.381C669.044 656.157 671.947 637.904 670.099 633.71C668.795 586.757 670.483 538.751 669.92 491.657C669.575 463.226 669.69 433.801 670.17 405.378Z" fill="#C2BFC5"/>
<path d="M670.17 405.378C668.002 398.603 668.993 376.462 670.541 368.997C670.598 371.467 670.317 374.893 671.295 376.692C677.236 378.564 690.658 375.07 692.876 378.085L692.768 379.102C691.866 383.973 692.205 394.116 692.205 399.633C688.368 399.581 673.508 398.887 670.886 400.401C670.381 402.657 670.31 403.064 670.17 405.378Z" fill="#D7D7D6"/>
<path d="M171.208 683.553L191.658 683.027C190.878 718.192 192.051 754.92 191.044 789.465C193.753 789.508 196.877 789.465 199.544 789.624C196.414 789.926 194.207 790.15 191.033 790.092C191.059 798.047 190.837 809.058 191.634 816.747L190.874 816.941C184.819 816.97 177.785 816.884 171.82 817.482C171.797 774.585 172.742 728.222 171.667 685.693L171.208 683.553Z" fill="#D7D7D6"/>
<path d="M98.1395 633.674C105.266 633.732 116.481 634.135 123.234 633.465L123.105 659.795C138.429 660.71 156.201 659.846 171.786 659.767C171.63 667.16 171.631 676.311 171.208 683.553L171.668 685.693C155.15 685.765 138.783 685.383 122.243 685.78C122.044 679.049 122.279 671.296 122.343 664.494L98.4918 664.666C98.4311 660.285 99.6518 645.434 98.1312 642.559C97.5115 639.835 97.1087 636.297 98.1395 633.674Z" fill="#C2BFC5"/>
<path d="M645.009 633.832L670.101 633.71C671.949 637.904 669.046 656.156 670.555 661.381C670.497 669.43 670.344 677.644 670.638 685.672C657.421 685.708 638.468 686.37 625.666 685.102C625.608 682.148 625.973 677.269 624.828 675.158L624.617 659.615C631.37 659.694 638.129 659.673 644.888 659.543C645.079 651.119 644.99 642.292 645.009 633.832Z" fill="#B9B6BD"/>
<path d="M74.5205 618.621C82.3179 618.758 90.1159 618.801 97.914 618.736C98.6915 621.619 98.2535 630.266 98.139 633.674C97.1083 636.297 97.5111 639.835 98.1307 642.559L74.7073 642.574C74.5525 634.589 74.4905 626.605 74.5205 618.621Z" fill="#D7D7D6"/>
<path d="M97.1943 604.332C101.695 604.325 107.19 604.152 111.582 604.541C112.811 613.678 113.038 623.701 113.09 632.946C115.798 632.982 120.773 632.867 123.234 633.465C116.481 634.135 105.266 633.732 98.1394 633.674C98.2539 630.266 98.6919 621.619 97.9144 618.736C97.1943 613.426 97.2365 609.7 97.1943 604.332Z" fill="#D7D7D6"/>
<path d="M202.592 789.357C200.599 774.642 194.134 759.971 214.467 765.123C213.803 770.484 214.655 783.541 214.771 789.767L202.592 789.357Z" fill="#D7D7D6"/>
<path d="M344.41 464.595C361.585 464.517 378.76 464.541 395.934 464.666C396.119 471.271 396.133 476.7 395.924 483.3C400.093 483.305 408.216 483.026 411.981 483.896C412.198 499.531 412.172 515.168 411.903 530.803L395.835 530.918L395.817 549.221L344.317 549.185C344.333 544.588 345.287 533.318 343.067 530.652L341.6 530.111C337.767 531.307 333.314 530.961 329.255 530.947C329.049 515.194 329.182 499.039 329.173 483.254L343.917 483.376C343.962 479.72 344.198 476.477 344.457 472.852C344.424 470.13 344.352 467.309 344.41 464.595Z" fill="#378DFE"/>
<path d="M394.689 486.693C396.802 482.144 406.835 484.773 411.981 483.896C412.198 499.531 412.172 515.169 411.904 530.803L395.836 530.918L395.818 549.221L344.318 549.185C344.334 544.588 345.287 533.318 343.067 530.652L341.601 530.111C342.083 529.391 341.714 529.765 342.904 529.067C343.092 528.62 343.364 527.921 343.637 527.553C345.854 524.57 389.046 525.752 395.07 525.737C395.024 513.87 395.363 498.267 394.689 486.693Z" fill="#2176F8"/>
<path d="M344.41 464.595C361.585 464.517 378.76 464.541 395.934 464.666C396.119 471.271 396.133 476.7 395.923 483.3C400.093 483.305 408.216 483.026 411.981 483.896C406.835 484.773 396.801 482.144 394.689 486.693L394.515 483.838C380.817 482.603 358.572 483.033 344.758 483.341C344.854 479.11 344.776 477.025 344.457 472.852C344.424 470.13 344.352 467.309 344.41 464.595Z" fill="#2B83FE"/>
<path d="M471.756 464.514C488.581 464.535 506.224 464.242 522.977 464.609C523.144 470.777 523.387 477.121 523.463 483.273C525.823 483.393 530.465 483.479 532.614 483.914C535.025 483.925 537.544 483.889 539.948 483.99C540.089 499.551 540.051 515.112 539.833 530.673L522.875 530.745L522.894 549.228C506.071 549.444 489.245 549.379 472.422 549.048L472.181 530.745L457.846 530.738C457.602 515.252 457.834 498.85 457.945 483.342L471.847 483.329L471.947 474.114L471.756 464.514Z" fill="#378DFE"/>
<path d="M532.613 483.914C535.024 483.926 537.543 483.889 539.947 483.99C540.088 499.551 540.05 515.113 539.832 530.673L522.874 530.745L522.893 549.228C506.07 549.444 489.244 549.379 472.421 549.048L472.18 530.745L472.552 526.847C474.28 525.348 516.767 525.867 522.765 525.751C522.644 511.821 522.427 497.96 522.849 484.032C526.864 484.272 528.546 484.316 532.613 483.914Z" fill="#2176F8"/>
<path d="M471.756 464.514C488.581 464.535 506.224 464.242 522.978 464.609C523.144 470.777 523.387 477.121 523.464 483.273C525.823 483.393 530.466 483.479 532.614 483.914C528.547 484.316 526.866 484.272 522.85 484.032C520.9 483.189 478.16 483.343 472.65 483.319C472.694 480.655 473.16 476.065 471.948 474.114L471.756 464.514Z" fill="#2B83FE"/>
<path d="M215.045 467.709L214.973 465.392C217.308 463.864 260.511 464.597 266.052 464.7L266.411 483.283L283.005 483.369C282.933 491.744 283.723 524.599 282.783 530.875L266.435 530.882L266.565 548.99C249.458 549.235 232.349 549.272 215.241 549.106C215.232 543.017 215.353 536.301 215.186 530.262C211.215 530.731 206.654 530.738 202.615 530.846C202.535 515.086 202.936 499.226 202.566 483.484L214.913 483.54C214.88 478.263 214.924 472.985 215.045 467.709Z" fill="#378DFE"/>
<path d="M265.163 490.611L266.717 488.728L266.185 486.515L266.802 485.475C270.731 484.716 277.461 485.016 281.699 485.066C281.984 495.709 281.067 522.9 282.784 530.875L266.436 530.882L266.566 548.99C249.459 549.235 232.349 549.271 215.242 549.106C215.233 543.017 215.353 536.301 215.187 530.262C215.539 528.036 215.465 527.409 216.581 525.528C232.666 525.788 248.753 525.831 264.838 525.658C265.02 513.896 264.643 502.404 265.163 490.611Z" fill="#2176F8"/>
<path d="M215.045 467.709L214.973 465.392C217.308 463.864 260.511 464.597 266.052 464.7L266.411 483.283L283.005 483.369C282.933 491.744 283.724 524.599 282.784 530.875C281.067 522.9 281.984 495.71 281.698 485.066C277.461 485.016 270.73 484.716 266.802 485.475L266.185 486.515L266.716 488.728L265.162 490.611C265.316 488.249 265.812 485.783 264.803 483.896C260.404 483.286 251.634 483.612 246.78 483.598L215.639 483.283C215.667 478.323 216.069 472.367 215.045 467.709Z" fill="#2B83FE"/>
<path d="M645.789 352.579C648.046 354.601 647.368 371.234 647.374 375.256L646.204 374.905C644.913 372.377 645.673 356.687 645.789 352.579Z" fill="#D7D7D6"/>
<path d="M397.154 175.199L728.213 175.28L845.551 175.236C863.532 175.179 884.078 175.807 901.873 174.919C901.809 183.367 901.912 191.814 902.18 200.256L904.425 200.837L928.225 200.852L927.694 225.227C935.227 226.075 943.808 225.919 951.398 225.648L951.334 420.586L951.328 483.085C951.322 496.8 951.565 511.524 950.81 525.118C943.539 525.247 935.585 525.226 928.391 525.651C928.334 533.412 928.397 541.741 928.142 549.452C910.87 548.738 892.704 549.221 875.343 549.243L875.196 685.059L857.042 685.311L857.413 661.993C850.999 661.986 843.914 662.152 837.552 661.9L837.494 643.243L821.156 643.229C821.329 637.558 821.585 631.678 821.604 626.021L803.495 625.25C803.578 617.158 803.61 609.066 803.597 600.974L781.914 600.765L781.92 574.874C760.192 575.054 738.47 575.04 716.741 574.838L716.684 548.847C715.558 492.36 716.492 432.006 716.537 375.158C709.132 374.998 701.721 375.007 694.316 375.186C694.342 366.467 694.31 358.843 693.888 350.134L673.873 349.928C673.72 341.462 673.873 332.378 673.892 323.864L646.377 323.973L646.3 298.715L476.237 298.795C445.171 298.79 412.853 299.37 381.947 298.681C378.038 298.849 372.992 298.659 368.994 298.64L368.933 216.746C375.745 216.873 382.558 216.853 389.369 216.688L389.345 200.69C392.01 200.723 394.643 201.012 397.136 200.115L397.154 175.199Z" fill="#6DB72D"/>
<path d="M927.693 225.227C935.226 226.075 943.807 225.919 951.397 225.648L951.334 420.586L951.327 483.085C951.321 496.8 951.564 511.524 950.809 525.117C943.539 525.247 935.584 525.225 928.39 525.651C928.333 533.411 928.397 541.741 928.141 549.452C910.87 548.738 892.703 549.221 875.342 549.243L875.195 685.059L857.041 685.311L857.412 661.993C850.998 661.986 843.913 662.151 837.551 661.899L837.493 643.243L821.155 643.229C821.328 637.558 821.584 631.678 821.603 626.021L803.494 625.25C803.577 617.158 803.609 609.066 803.596 600.974L781.913 600.765L781.919 574.874C760.191 575.054 738.469 575.04 716.741 574.838L716.683 548.846C738.501 549.084 760.325 549.034 782.143 548.688L782.444 559.079L800.469 559.309C800.342 564.786 800.329 569.203 800.54 574.672C803.117 574.852 806.263 574.939 808.744 575.429L808.622 585.618L817.044 585.64C816.66 590.994 816.577 596.859 816.424 602.278L835.383 602.408C836.055 612.676 836.227 620.156 836.234 630.446C842.686 630.712 849.138 630.907 855.59 631.044C855.449 602.019 855.455 572.993 855.602 543.975L875.368 543.99C875.316 536.488 875.31 528.994 875.361 521.496C885.228 521.661 895.094 521.685 904.967 521.57C904.801 513.772 904.795 505.769 904.718 497.956L927.712 497.798C927.585 407.596 926.747 315.271 927.693 225.227Z" fill="#376E0F"/>
<path d="M782.444 559.078L800.47 559.309C800.342 564.785 800.329 569.202 800.54 574.672C803.117 574.852 806.263 574.938 808.744 575.428C803.072 576.005 788.077 575.313 781.849 575.219C781.926 569.973 782.233 564.353 782.444 559.078Z" fill="#569A1D"/>
<path d="M397.154 175.199L728.213 175.28L845.551 175.236C863.532 175.179 884.078 175.807 901.873 174.919C901.809 183.367 901.912 191.814 902.18 200.256C898.235 199.991 893.624 200.437 889.673 200.16C873.751 199.041 857.937 199.423 841.983 199.406L735.918 199.572C710.328 199.368 684.731 199.411 659.14 199.699C648.506 199.723 631.881 198.73 621.842 200.054L486.912 200.073L441.844 200.077C433.237 200.058 422.425 199.697 413.972 200.282C413.218 203.867 412.64 219.263 412.47 223.963C410.886 224.78 410.902 224.665 409.129 224.731C409.054 232.508 408.88 240.283 408.607 248.054C402.59 248.159 396.571 248.16 390.553 248.058C390.562 251.183 390.672 255.051 390.435 258.1C390.335 271.43 390.327 285.034 390.055 298.342C387.712 298.39 384.171 298.339 381.947 298.681C378.038 298.849 372.992 298.659 368.994 298.64L368.933 216.746C375.745 216.873 382.558 216.853 389.369 216.688L389.345 200.69C392.01 200.723 394.643 201.012 397.136 200.115L397.154 175.199Z" fill="#B0E065"/>
<path d="M389.944 224.585C396.302 224.536 402.789 224.384 409.128 224.731C409.053 232.508 408.88 240.283 408.607 248.054C402.589 248.159 396.57 248.16 390.552 248.058C390.562 251.182 390.671 255.05 390.435 258.1C389.66 247.93 389.924 235.027 389.944 224.585Z" fill="#87CE3B"/>
<path d="M621.842 200.054C631.881 198.729 648.507 199.722 659.141 199.699C684.731 199.41 710.328 199.368 735.919 199.572L841.983 199.406C857.937 199.423 873.751 199.041 889.673 200.16C893.625 200.437 898.235 199.99 902.181 200.256L904.425 200.837C904.598 208.616 904.048 216.641 904.214 224.81C897.353 224.555 889.858 224.648 882.952 224.587C883.215 216.293 882.709 208.588 883.253 200.225L708.288 200.274L653.29 200.32C643.544 200.333 631.267 200.728 621.842 200.054Z" fill="#87CE3B"/>
<path d="M171.821 817.481C177.786 816.883 184.82 816.97 190.874 816.941C190.015 823.095 190.938 836.029 190.849 842.911L171.876 842.896L171.821 817.481Z" fill="#C2BFC5"/>
</svg>
