<svg width="1024" height="1024" viewBox="0 0 1024 1024" fill="none" xmlns="http://www.w3.org/2000/svg">
<path d="M366.289 132.017L555.475 131.974C589.158 131.948 624.261 131.437 657.87 131.992C657.728 140.022 657.512 148.164 657.465 156.184L681.711 156.101C681.684 163.423 681.528 171.181 681.677 178.46C689.034 178.461 698.404 178.238 705.605 178.611L705.504 196.277C706.328 204.76 706.058 216.348 706.051 225.07C706.072 238.332 706.011 251.594 705.855 264.854C708.875 264.852 713.395 264.71 716.279 265.011C715.827 259.605 716.164 252.412 716.266 246.86L926.515 246.701C927.055 253.739 926.859 262.889 926.9 270.085C934.885 270.183 942.877 270.179 950.862 270.075L950.835 293.137L974.96 293.172L975 517.882C966.704 518.017 959.658 517.598 951.051 518.003L951.369 845.753L926.832 845.854C926.94 853.812 926.995 860.872 926.65 868.837L902.911 868.803L902.62 892.076C879.212 892.543 853.709 891.995 830.166 892.009L663.552 891.968L121.23 892.076L121.176 868.979C113.892 868.769 105.024 869.094 97.633 869.195C97.383 861.609 97.4891 853.454 97.4634 845.827L73.1647 845.841C71.7089 737.021 74.4091 626.695 73.1391 517.868C65.4174 517.395 56.8005 517.773 49.0005 517.942C50.5131 444.568 49.368 366.927 49.1802 293.319C57.2451 293.158 65.3106 293.079 73.3768 293.082C73.2113 285.167 73.1499 278.131 73.391 270.209L97.1979 270.008C97.4783 262.564 97.3783 254.265 97.4269 246.748L225.762 246.698C253.651 246.695 282.436 246.304 310.266 246.724L310.217 262.945C312.526 263.972 315.213 263.693 317.803 263.676C318.63 253.905 318.311 240.954 318.317 230.865L318.322 178.567C325.421 178.446 335.827 178.23 342.676 178.94C341.975 171.108 342.213 163.875 342.601 156.03L365.804 156.229C366.01 148.16 366.172 140.089 366.289 132.017Z" fill="black"/>
<path d="M632.354 271.149C635.259 271.008 638.326 271.007 641.244 270.956C652.769 271.279 671.185 270.432 681.582 271.366C688.845 271.512 696.107 271.535 703.376 271.435L703.322 292.462C711.179 292.511 719.042 292.498 726.899 292.422L907.565 292.569L918.813 292.472L918.827 306.815C913.726 306.557 907.288 306.729 902.086 306.724L902.012 326.647C894.669 327.174 887.096 327.003 879.732 326.846C880.279 335.615 880.232 345.472 880.11 354.33C879.516 395.529 880.718 436.688 880.401 477.882C880.374 481.468 880.428 482.305 877.719 484.719C876.949 489.854 878.002 494.863 877.286 499.288L877.665 499.587L877.692 513.937C870.173 513.964 862.073 513.828 854.608 514.295C853.189 517.679 854.641 527.799 853.628 532.17C831.855 531.38 805.224 532.886 784.43 531.44L779.147 531.792L769.156 531.69C769.176 534.818 769.135 538.223 769.257 541.324L656.998 541.277C647.189 541.31 637.367 541.412 627.557 541.5C620.957 541.56 613.614 541.067 607.101 541.587C607.074 544.823 607.27 549.302 606.473 552.322C605.595 539.952 606.655 511.606 607.817 499.471L604.203 499.717C599.413 499.947 589.435 500.732 585.004 500.035L583.983 498.436C584.544 495.756 584.524 491.661 584.612 488.812L584.531 477.683C537.275 477.807 485.773 476.733 438.968 478.157C439.021 485.406 438.937 493.165 439.301 500.365C431.455 499.927 424.123 499.954 416.275 499.96C416.292 512.606 416.702 527.799 416.344 540.324C401.564 542.128 370.852 541.182 354.831 541.155C317.886 540.885 280.94 541.094 244.001 541.777C244.044 534.062 243.875 526.049 243.838 518.301C218.996 518.105 194.153 518.105 169.311 518.294L169.116 514.342C161.93 514.004 153.322 514.126 146.025 514.051L146.211 502.321L145.674 499.238C143.01 480.354 143.731 440.291 143.912 419.659C144.165 390.867 142.838 354.895 144.58 326.932C137.544 327.134 129.384 326.933 122.264 326.908L122.088 307.261C117.246 307.304 108.601 307.654 104.145 306.859C108.295 306.349 117.242 306.591 121.75 306.586L121.474 292.508L239.9 292.518C259.882 292.552 284.425 293.174 304.174 292.519C310.397 292.117 319.386 292.433 325.81 292.463C325.827 285.817 325.641 278.055 326.291 271.529L342.742 270.954C350.791 271.068 358.84 271.123 366.89 271.118L384.525 271.092L391.516 271.475C392.117 277.53 391.836 286.265 391.815 292.534C400.017 292.456 408.219 292.418 416.421 292.422L556.974 292.528L601.021 292.587C608.574 292.619 619.842 292.974 627.084 292.404L632.388 292.382L632.354 271.149Z" fill="#A74B1A"/>
<path d="M632.354 271.149C635.259 271.008 638.326 271.007 641.244 270.956C652.769 271.279 671.185 270.432 681.582 271.366C688.845 271.512 696.107 271.535 703.376 271.435L703.322 292.462C711.179 292.511 719.042 292.498 726.899 292.422L907.565 292.569L918.813 292.472L918.827 306.815C913.726 306.557 907.288 306.729 902.086 306.724L902.012 326.647C894.669 327.174 887.096 327.003 879.732 326.846C879.509 323.703 879.705 318.213 879.739 314.924L144.711 314.817L144.58 326.932C137.544 327.134 129.384 326.933 122.264 326.908L122.088 307.261C117.246 307.304 108.601 307.654 104.145 306.859C108.295 306.349 117.242 306.591 121.75 306.586L121.474 292.508L239.9 292.518C259.882 292.552 284.425 293.174 304.174 292.519C310.397 292.117 319.386 292.433 325.81 292.463C325.827 285.817 325.641 278.055 326.291 271.529L342.742 270.954C350.791 271.068 358.84 271.123 366.89 271.118L384.525 271.092L391.516 271.475C392.117 277.53 391.836 286.265 391.815 292.534C400.017 292.456 408.219 292.418 416.421 292.422L556.974 292.528L601.021 292.587C608.574 292.619 619.842 292.974 627.084 292.404L632.388 292.382L632.354 271.149Z" fill="#F19C61"/>
<path d="M632.354 271.149C635.259 271.008 638.326 271.007 641.244 270.956C652.77 271.279 671.185 270.432 681.582 271.366C688.845 271.512 696.107 271.535 703.376 271.435L703.322 292.462C697.12 292.856 685.946 292.469 679.299 292.437C663.666 292.325 648.027 292.306 632.388 292.382L632.354 271.149Z" fill="#FCDA30"/>
<path d="M326.291 271.529L342.742 270.954C350.791 271.068 358.84 271.122 366.89 271.118L384.525 271.091L391.516 271.474C391.051 278.169 391.289 285.689 391.347 292.458C369.616 292.31 347.883 292.303 326.152 292.439C326.25 286.596 326.7 277.088 326.291 271.529Z" fill="#FCDA30"/>
<path d="M907.565 292.569L918.813 292.472L918.827 306.815C913.726 306.557 907.288 306.729 902.086 306.723C902.025 303.145 901.377 296.364 903.518 293.713C904.241 292.818 906.14 292.817 907.565 292.569Z" fill="#FBBA8F"/>
<path d="M779.633 517.956L830.578 518.746C836.989 518.821 847.372 518.172 853.304 518.733C853.229 523.104 852.966 527.914 853.628 532.17C831.855 531.379 805.224 532.886 784.43 531.44C780.904 530.933 781.316 531.589 779.532 529.535C778.451 526.137 779.275 521.671 779.633 517.956Z" fill="#C5652D"/>
<path d="M585.423 478.379C589.895 478.45 601.751 477.918 604.122 480.933C606.933 484.505 605.014 495.012 607.818 499.47L604.203 499.716C599.414 499.947 589.436 500.732 585.004 500.035L583.984 498.436C584.545 495.756 584.524 491.66 584.612 488.812C585.517 484.944 585.389 482.299 585.423 478.379Z" fill="#9F471A"/>
<path d="M583.984 498.436C588.253 496.346 599.265 496.876 603.818 497.991L604.757 498.862L604.203 499.716C599.414 499.946 589.436 500.731 585.004 500.035L583.984 498.436Z" fill="#C5652D"/>
<path d="M146.211 502.321C146.436 500.991 146.339 499.541 147.174 499.308C152.89 497.715 164.249 497.994 170.242 497.847C170.328 501.647 171.087 511.646 169.117 514.342C161.93 514.004 153.322 514.126 146.026 514.051L146.211 502.321Z" fill="#C5652D"/>
<path d="M853.277 498.545C860.776 498.647 869.95 498.526 877.287 499.288L877.665 499.587L877.692 513.937C870.173 513.964 862.073 513.828 854.608 514.295L853.635 513.389C852.98 508.924 853.23 503.17 853.277 498.545Z" fill="#C5652D"/>
<path d="M391.895 200.366C461.141 199.535 530.58 200.583 599.846 200.158C610.763 200.091 621.876 200.178 632.793 200.486C632.773 207.401 632.84 214.317 632.996 221.231C636.38 221.206 638.495 221.003 641.798 221.867C641.332 238.226 641.15 254.592 641.245 270.956C638.326 271.007 635.259 271.008 632.354 271.149L632.388 292.382L627.085 292.404C619.843 292.974 608.574 292.619 601.021 292.587L556.975 292.528L416.421 292.422C408.219 292.418 400.017 292.455 391.815 292.534C391.836 286.265 392.117 277.53 391.516 271.475L384.525 271.091C384.345 254.65 383.794 238.102 384.227 221.675L391.848 221.428L391.895 200.366Z" fill="black"/>
<path d="M416.627 271.471L608.615 271.532C608.385 278.367 608.304 285.206 608.385 292.044C613.938 292.063 621.734 291.866 627.084 292.404C619.842 292.974 608.574 292.619 601.021 292.587L556.975 292.528L416.421 292.422C416.541 285.698 416.336 278.049 416.627 271.471Z" fill="#A74B1A"/>
<path d="M657.107 174.227L657.14 178.847C657.174 183.134 657.39 188.878 657.215 193.046L657.498 199.843L657.377 207.372C656.857 212.866 656.728 217.423 656.627 222.956C653.58 222.631 643.426 222.303 641.798 221.867C638.495 221.003 636.38 221.206 632.996 221.231C632.84 214.317 632.773 207.401 632.793 200.486C621.876 200.178 610.763 200.091 599.846 200.158C530.58 200.583 461.141 199.535 391.895 200.366L391.848 221.428L384.227 221.675C383.794 238.102 384.345 254.65 384.525 271.091L366.89 271.118C358.84 271.123 350.791 271.068 342.742 270.954L342.727 246.666L342.724 222.206C348.609 222.443 354.498 222.571 360.387 222.589C362.177 216.921 359.455 208.592 361.424 201.274C363.075 199.622 362.826 200.171 365.929 199.975L365.905 187.605C366.084 184.542 366.033 181.993 365.981 178.945L366.301 178.505C373.529 178.282 380.739 177.68 387.903 176.7C392.666 175.733 407.349 175.904 412.582 175.895L448.409 175.753L600.555 175.66C607.784 175.699 614.506 175.715 621.714 175.47C626.193 175.318 634.86 174.577 638.812 175.055L639.866 177.278C642.163 178.092 655.492 178.868 656.87 177.668L657.107 174.227Z" fill="#D99302"/>
<path d="M657.107 174.227L657.14 178.847C657.174 183.134 657.39 188.878 657.215 193.046C656.418 191.43 656.641 188.704 656.607 186.709C646.716 186.426 636.853 185.458 626.841 185.356C592.773 185.011 558.65 185.166 524.574 185.237L391.452 185.129C390.676 185.988 388.866 188.731 388.112 189.82C383.273 186.803 371.811 187.38 365.905 187.605C366.084 184.542 366.033 181.993 365.981 178.945L366.301 178.505C373.529 178.282 380.739 177.68 387.903 176.7C392.666 175.733 407.349 175.904 412.581 175.895L448.409 175.753L600.555 175.66C607.784 175.699 614.506 175.715 621.714 175.47C626.193 175.318 634.86 174.577 638.812 175.055L639.866 177.278C642.163 178.092 655.492 178.868 656.87 177.668L657.107 174.227Z" fill="#F6C503"/>
<path d="M362.8 246.788L365.277 246.797C366.76 245.284 366.55 242.601 366.787 240.129C366.759 250.459 366.793 260.789 366.891 271.118C358.841 271.122 350.791 271.068 342.742 270.953L342.727 246.666C344.668 247.799 359.715 246.874 362.8 246.788Z" fill="#F6C503"/>
<path d="M342.724 222.206C348.609 222.443 354.498 222.571 360.387 222.589C359.161 230.548 360.916 239.075 362.8 246.789C359.715 246.874 344.668 247.799 342.727 246.666L342.724 222.206Z" fill="#FCDA30"/>
<path d="M365.929 199.975L366.59 203.993C367.234 208.825 367.161 234.691 366.786 240.13C366.55 242.602 366.76 245.284 365.277 246.797L362.8 246.789C360.916 239.075 359.161 230.548 360.387 222.589C362.177 216.921 359.455 208.592 361.424 201.274C363.075 199.622 362.826 200.171 365.929 199.975Z" fill="#F6C503"/>
<path d="M365.905 187.605C371.811 187.379 383.273 186.802 388.112 189.819C384.465 192.939 384.781 194.703 384.297 199.702C377.558 199.964 371.91 199.515 366.59 203.993L365.929 199.975L365.905 187.605Z" fill="#EBAC01"/>
<path d="M98.0455 271.287C147.702 272.454 198.641 270.875 248.41 271.508C265.707 271.728 285.178 270.891 302.146 271.542C302.104 275.298 301.389 289.921 303.298 292.114L304.174 292.519C284.425 293.174 259.882 292.552 239.9 292.518L121.474 292.507L121.75 306.586C117.242 306.591 108.295 306.348 104.144 306.859C102.131 306.98 99.9526 306.819 98.3859 307.897C97.2321 320.225 97.6698 336.06 97.9137 348.583C98.746 391.382 96.9321 434.906 98.315 477.632C90.3373 477.63 82.3602 477.509 74.3859 477.272C73.4468 416.396 75.487 354.203 73.894 293.327C81.965 293.392 90.0366 293.309 98.1042 293.076L98.0455 271.287Z" fill="#A74B1A"/>
<path d="M103.641 292.489L121.474 292.507L121.75 306.586C117.242 306.591 108.295 306.348 104.145 306.859C104.148 301.808 104.233 297.515 103.641 292.489Z" fill="#FBBA8F"/>
<path d="M918.813 292.472C921.874 292.473 923.252 292.64 926.285 293.1C929.068 294.196 945.991 293.612 950.166 293.543C949.227 321.243 950.133 349.733 949.822 377.516C949.7 388.338 950.288 400.309 949.829 411.01L949.943 499.258L926.191 499.291L926.17 477.028L925.691 307.508C923.299 307.35 921.212 307.109 918.827 306.815L918.813 292.472Z" fill="#6E2811"/>
<path d="M388.367 157.317L568.635 157.235L623.16 157.262C633.753 157.287 647.122 157.704 657.343 156.727C656.965 163.138 656.931 167.801 657.107 174.227L656.87 177.668C655.492 178.868 642.163 178.092 639.866 177.278L638.813 175.055C634.861 174.577 626.193 175.318 621.714 175.47C614.506 175.715 607.784 175.699 600.555 175.66L448.41 175.753L412.582 175.895C407.349 175.904 392.666 175.733 387.903 176.7C388.28 175.376 388.19 160.751 388.367 157.317Z" fill="#FCF1A5"/>
<path d="M726.933 271.415L851.994 271.514C874.801 271.536 904.255 272.416 926.366 270.96L926.285 293.1C923.252 292.64 921.874 292.473 918.814 292.472L907.566 292.569L726.899 292.422C727.035 285.421 727.048 278.417 726.933 271.415Z" fill="#A74B1A"/>
<path d="M902.012 326.647C902.755 384.211 901.485 441.949 902.059 499.402C898.688 499.383 879.773 499.105 877.665 499.587L877.287 499.288C878.003 494.863 876.949 489.854 877.719 484.719C880.428 482.305 880.374 481.468 880.401 477.882C880.718 436.688 879.516 395.529 880.11 354.33C880.232 345.472 880.279 335.615 879.732 326.846C887.096 327.003 894.669 327.174 902.012 326.647Z" fill="#C5652D"/>
<path d="M144.58 326.932C142.838 354.894 144.165 390.867 143.912 419.659C143.731 440.29 143.01 480.354 145.674 499.237L122.318 499.315L122.264 326.908C129.385 326.933 137.545 327.133 144.58 326.932Z" fill="#C5652D"/>
<path d="M169.311 518.294C194.154 518.105 218.997 518.105 243.839 518.301C243.876 526.05 244.045 534.062 244.001 541.777C280.941 541.094 317.886 540.885 354.831 541.155C370.852 541.182 401.565 542.128 416.344 540.324L416.448 554.687L287.947 554.727C269.28 554.734 244.703 553.984 226.51 554.991C226.885 547.296 226.925 540.149 226.939 532.461C212.269 530.92 184.889 531.704 169.577 531.697C169.612 527.164 169.465 522.827 169.311 518.294Z" fill="#C5652D"/>
<path d="M769.257 541.324L778.141 541.466C778.202 544.742 778.107 550.647 778.81 553.565C778.56 554.295 778.789 553.842 777.735 554.653H661.045C653.898 554.646 609.189 555.315 606.541 553.997L606.473 552.322C607.27 549.302 607.074 544.823 607.101 541.587C613.614 541.067 620.957 541.56 627.557 541.5C637.367 541.412 647.189 541.31 656.999 541.277L769.257 541.324Z" fill="#C5652D"/>
<path d="M657.377 207.372C657.471 212.466 657.424 217.561 657.228 222.652C665.112 223.089 672.32 222.922 680.197 222.793L681.15 222.287C681.136 235.349 680.407 258.974 681.582 271.366C671.185 270.432 652.77 271.279 641.244 270.956C641.15 254.591 641.332 238.226 641.798 221.867C643.426 222.303 653.58 222.631 656.627 222.956C656.728 217.423 656.857 212.866 657.377 207.372Z" fill="#D99302"/>
<path d="M342.676 178.94C350.441 179.292 358.217 179.293 365.981 178.945C366.033 181.993 366.084 184.542 365.905 187.605L365.929 199.975C362.826 200.171 363.075 199.622 361.425 201.274C359.455 208.592 362.177 216.921 360.388 222.589C354.498 222.571 348.609 222.443 342.724 222.206L342.676 178.94Z" fill="#FCF7CC"/>
<path d="M657.499 199.843C659.019 199.932 661.322 199.974 662.741 200.264C668.625 200.806 675.192 200.658 681.15 200.663V222.287L680.198 222.793C672.321 222.922 665.112 223.089 657.229 222.652C657.424 217.561 657.472 212.466 657.377 207.371L657.499 199.843Z" fill="#FCDA30"/>
<path d="M657.499 199.843C659.019 199.932 661.322 199.974 662.741 200.264C662.478 207.08 662.39 215.944 661.383 222.53C667.308 222.431 674.415 222.099 680.198 222.793C672.321 222.922 665.112 223.089 657.229 222.652C657.424 217.561 657.472 212.466 657.377 207.371L657.499 199.843Z" fill="#EBAC01"/>
<path d="M74.3859 477.271C82.3602 477.509 90.3373 477.63 98.315 477.632L98.5711 499.753C91.6823 499.2 81.2874 499.348 74.1177 499.252L74.3859 477.271Z" fill="#6E2811"/>
<path d="M657.141 178.846C665.126 179.093 673.118 179.153 681.11 179.027L681.15 200.663C675.192 200.658 668.625 200.806 662.741 200.264C661.322 199.974 659.019 199.931 657.499 199.843L657.215 193.045C657.391 188.878 657.174 183.134 657.141 178.846Z" fill="#FCF1A5"/>
<path d="M366.452 157.242L388.366 157.317C388.189 160.751 388.28 175.376 387.903 176.7C380.738 177.68 373.528 178.282 366.3 178.505C366.557 171.93 366.414 163.915 366.452 157.242Z" fill="#FCF7CC"/>
<path d="M769.156 531.69L779.147 531.791C779.093 537.554 779.276 548.187 778.81 553.565C778.107 550.646 778.202 544.742 778.141 541.465L769.257 541.323C769.136 538.223 769.176 534.818 769.156 531.69Z" fill="#9F471A"/>
<path d="M705.504 196.277C706.328 204.76 706.058 216.349 706.051 225.071C706.071 238.333 706.01 251.594 705.855 264.855C708.875 264.852 713.394 264.71 716.279 265.011C715.576 267.624 716.286 266.7 714.583 268.218C712.212 268.421 707.855 268.842 706.085 267.423C704.963 261.523 705.206 244.878 705.281 237.911C705.429 224.509 704.896 209.54 705.504 196.277Z" fill="#514E54"/>
<path d="M310.217 262.946C312.526 263.972 315.213 263.693 317.803 263.676C317.655 267.212 317.945 267.404 315.826 269.509C310.576 270.731 310.632 266.596 310.217 262.946Z" fill="#514E54"/>
<path d="M902.573 501.247L925.731 501.46L925.893 696.494C925.778 744.979 925.137 796.262 926.332 844.585L901.951 844.544C902.005 851.955 901.924 859.893 902.147 867.263L393.274 867.148L198.522 867.034C172.957 867.135 147.398 866.817 121.827 867.534C121.984 860.129 122.333 851.948 122.181 844.605C114.178 844.45 106.171 844.531 98.1719 844.828C98.6002 836.694 98.413 828.662 98.8062 820.872L98.7968 820.237C99.0015 723.416 99.7101 625.067 98.6873 528.367C106.191 528.502 113.693 528.698 121.194 528.954C121.163 536.683 121.259 544.83 121.071 552.525C126.608 553.099 142.692 552.119 145.39 554.025C148.058 556.254 163.646 555.308 168.153 555.173L169.017 555.396C185.362 555.308 202.263 555.031 218.603 555.484C224.053 555.632 227.869 557.835 232.835 559.003C234.446 559.382 241.239 559.314 243.224 559.314C243.264 563.645 243.09 573.508 243.581 577.399C263.492 577.885 284.506 577.446 304.526 577.446L417.123 577.453C416.946 585.188 416.865 592.93 416.881 600.672C423.132 601.49 432.756 601.172 439.193 600.976C438.527 608.495 438.51 616.062 439.142 623.587L439.105 624.371C439.108 628.296 438.86 644.814 439.685 647.746C448.319 647.854 454.876 649.137 463.616 648.421L465.079 648.894C465.665 655.933 464.8 664.04 465.147 671.471C491.869 672.106 531.627 671.965 558.15 670.769L558.001 648.536C564.595 648.083 571.202 647.854 577.816 647.84C576.748 643.442 575.127 641.03 574.857 635.802C574.674 632.404 573.749 627.715 573.289 624.195C576.944 623.959 580.856 623.851 584.537 623.689C584.531 616.399 584.436 608.961 584.767 601.699C586.611 600.639 602.393 600.625 606.041 600.544C606.047 592.89 605.939 585.236 605.703 577.588L779.188 577.372C779.62 569.725 779.451 562.861 779.255 555.247L855.06 555.288L855.236 534.974C862.735 535.014 870.24 534.913 877.746 534.683C878.698 532.623 878.34 525.462 878.32 522.841L902.282 522.888C902.329 515.673 902.424 508.458 902.573 501.247Z" fill="#A74B1A"/>
<path d="M902.573 501.247L925.731 501.46L925.893 696.494C925.778 744.979 925.137 796.262 926.332 844.585L901.951 844.544C902.005 851.955 901.924 859.893 902.147 867.263L393.274 867.148L198.522 867.034C172.957 867.135 147.398 866.817 121.827 867.534C121.984 860.129 122.333 851.948 122.181 844.605C114.178 844.45 106.171 844.531 98.1719 844.828C98.6002 836.694 98.413 828.662 98.8062 820.872C114.502 820.92 129.909 820.224 145.74 820.285L145.528 843.842L696.323 843.828C756.793 844.22 817.262 844.206 877.732 843.787C877.543 836.147 877.678 827.979 877.685 820.298C885.684 820.224 894.013 820.42 902.039 820.501C901.755 731.779 901.161 640.652 902.12 552.032L885.116 552.011C881.083 552.423 879.678 551.687 877.482 555.504C872.26 556.693 860.83 556.045 854.966 555.896C854.716 563.07 854.641 570.252 854.749 577.433L779.35 577.554C779.167 585.094 779.086 592.633 779.113 600.172L671.016 600.098C650.351 600.058 627.145 599.531 606.595 600.274C606.743 608.056 606.797 615.839 606.763 623.628C599.771 623.621 592.023 623.459 585.098 623.675C585.348 617.433 585.72 607.772 584.767 601.699C586.611 600.639 602.393 600.625 606.041 600.544C606.047 592.89 605.939 585.236 605.703 577.588L779.188 577.372C779.62 569.725 779.451 562.861 779.255 555.247L855.06 555.288L855.236 534.974C862.735 535.014 870.24 534.913 877.746 534.683C878.698 532.623 878.34 525.462 878.32 522.841L902.282 522.888C902.329 515.673 902.424 508.458 902.573 501.247Z" fill="#6E2811"/>
<path d="M98.6875 528.366C106.191 528.501 113.693 528.697 121.194 528.954C121.164 536.682 121.259 544.83 121.071 552.524L120.962 689.481C120.847 732.387 120.277 777.42 121.251 820.217C114.019 820.19 105.953 820 98.797 820.237C99.0016 723.415 99.7103 625.066 98.6875 528.366Z" fill="#C5652D"/>
<path d="M243.581 577.399C263.492 577.885 284.506 577.446 304.526 577.446L417.123 577.453C416.946 585.188 416.865 592.93 416.882 600.672L416.368 600.632C399.771 599.274 367.729 600.159 350.032 600.152C314.468 599.868 278.902 599.922 243.339 600.314C243.337 592.707 243.576 585.053 243.581 577.399Z" fill="#6E2811"/>
<path d="M169.017 555.396C185.362 555.308 202.264 555.031 218.604 555.483C224.053 555.632 227.87 557.834 232.835 559.003C234.446 559.381 241.24 559.314 243.224 559.314C243.264 563.644 243.091 573.507 243.581 577.399C238.302 577.027 225.808 577.48 220.105 577.493L169.077 577.696C169.277 569.866 169.461 563.239 169.017 555.396Z" fill="#6E2811"/>
<path d="M439.685 647.745C448.32 647.853 454.877 649.137 463.616 648.421L465.079 648.894C465.665 655.933 464.801 664.04 465.147 671.471C456.688 671.505 448.229 671.491 439.77 671.424C439.508 663.986 439.427 655.116 439.685 647.745Z" fill="#9F471A"/>
<path d="M145.391 554.025C148.058 556.254 163.646 555.308 168.153 555.173L169.017 555.396C169.461 563.239 169.277 569.867 169.077 577.696C161.582 578.149 152.779 577.919 145.181 577.899C145.353 572.049 146.021 559.179 145.391 554.025Z" fill="#9F471A"/>
<path d="M416.881 600.672C423.132 601.489 432.756 601.172 439.193 600.976C438.527 608.495 438.51 616.061 439.142 623.587L439.105 624.371C436.137 623.864 420.119 623.898 416.348 623.844L416.368 600.631L416.881 600.672Z" fill="#6E2811"/>
<path d="M584.767 601.699C585.72 607.772 585.348 617.433 585.098 623.675C584.376 630.842 584.653 640.557 584.842 647.853L577.816 647.84C576.748 643.442 575.127 641.03 574.857 635.801C574.675 632.403 573.749 627.715 573.29 624.195C576.944 623.959 580.856 623.85 584.538 623.688C584.531 616.399 584.436 608.961 584.767 601.699Z" fill="#5A1E0E"/>
<path d="M440.027 500.809C471.47 500.651 502.916 500.706 534.357 500.974C546.625 500.98 571.945 500.005 583.335 501.218C583.349 507.6 583.268 513.795 583.822 520.165L583.795 533.048L583.72 533.541C583.774 537.541 583.936 541.783 583.7 545.749C583.997 563.989 583.551 582.276 583.835 600.422C575.85 600.463 567.095 600.321 559.177 600.564C557.576 609.265 559.015 621.108 556.887 630.39C556.211 633.342 556.799 640.719 556.671 644.07C556.765 646.685 557.191 646.313 555.914 647.914C548.78 648.367 539.68 647.901 532.31 647.88L488.164 647.887L468.825 647.914C469.086 639.97 468.632 631.471 469.318 623.628C469.979 617.548 469.65 607.597 469.608 601.246C460.655 601.145 448.838 600.436 439.8 600.017C440.058 592.93 439.905 585.161 439.906 578.02L439.893 533.109L439.757 517.382L440.027 500.809Z" fill="#FCDA30"/>
<path d="M469.608 601.246C486.277 600.375 504.024 601.476 520.812 600.963C533.641 600.571 546.233 601.908 559.177 600.564C557.576 609.265 559.015 621.108 556.887 630.39C556.211 633.342 556.799 640.72 556.671 644.07C556.765 646.685 557.191 646.313 555.914 647.914C548.78 648.367 539.68 647.901 532.31 647.88L488.165 647.887L468.825 647.914C469.087 639.97 468.633 631.471 469.318 623.628C469.979 617.548 469.65 607.597 469.608 601.246Z" fill="#D99302"/>
<path d="M469.608 601.246C486.277 600.375 504.024 601.476 520.812 600.963C533.641 600.571 546.233 601.908 559.177 600.564C557.576 609.265 559.015 621.108 556.887 630.39C556.211 633.342 556.799 640.72 556.67 644.07C555.657 639.659 556.015 628.471 556.062 623.493C530.161 623.763 504.024 623.236 478.242 623.621L469.317 623.628C469.979 617.548 469.65 607.597 469.608 601.246Z" fill="#A74B1A"/>
<path d="M469.318 623.628L478.242 623.621C481.658 623.999 484.266 624.276 487.742 624.344C487.935 631.687 488.397 640.692 488.165 647.887L468.825 647.914C469.087 639.969 468.633 631.471 469.318 623.628Z" fill="#EBAC01"/>
<path d="M440.027 500.809C471.47 500.651 502.916 500.706 534.357 500.974C546.625 500.98 571.945 500.005 583.335 501.218C583.349 507.6 583.268 513.795 583.822 520.165L583.795 533.048C578.133 533.008 572.249 533.217 566.574 533.345C566.061 529.765 566.392 520.942 566.439 516.963C547.125 516.132 524.541 517.017 504.997 516.787C494.761 516.659 471.681 516.206 462.151 517.179C460.42 518.787 460.794 520.199 460.276 523.117C460.002 520.766 460.609 520.165 459.83 517.152C451.138 518.611 448.657 518.28 439.757 517.382L440.027 500.809Z" fill="#FCF1A5"/>
<path d="M567.074 517.402C571.587 517.605 576.816 517.071 581.288 517.706C583.065 517.963 582.869 518.49 583.821 520.165L583.794 533.048C578.133 533.008 572.249 533.217 566.574 533.345C567.142 529.387 567.027 521.692 567.074 517.402Z" fill="#FCF7CC"/>
<path d="M462.912 577.527L462.955 585.519C495.965 587.573 527.466 585.323 559.704 585.918C559.67 590.154 559.812 596.592 559.177 600.564C546.233 601.908 533.641 600.571 520.812 600.963C504.024 601.476 486.277 600.375 469.608 601.246C460.655 601.145 448.838 600.436 439.8 600.017C440.058 592.93 439.905 585.161 439.906 578.02C447.568 577.622 455.24 577.453 462.912 577.527Z" fill="#D99302"/>
<path d="M583.7 545.749C583.997 563.989 583.552 582.277 583.835 600.422C575.85 600.463 567.095 600.321 559.177 600.564C559.812 596.592 559.67 590.154 559.704 585.918L559.968 577.69L572.756 577.73L583.221 577.737C583.072 568.84 582.781 554.275 583.7 545.749Z" fill="#C67B00"/>
<path d="M583.342 533.717L583.72 533.541C583.774 537.541 583.936 541.783 583.7 545.749C582.781 554.274 583.071 568.839 583.22 577.737L572.755 577.73C572.512 568.522 571.843 545.985 573.944 537.926C574.688 536.399 575.14 535.892 576.167 534.521C578.559 533.217 580.504 533.616 583.342 533.717Z" fill="#D99302"/>
<path d="M573.945 537.926C574.688 536.399 575.141 535.892 576.167 534.521C578.559 533.217 580.504 533.616 583.342 533.717C583.193 536.906 583.713 536.176 582.011 538.128C579.592 539.081 576.505 538.5 573.945 537.926Z" fill="#EBAC01"/>
<path d="M439.757 517.382C448.657 518.281 451.138 518.612 459.83 517.152C460.609 520.165 460.002 520.767 460.276 523.118C460.35 526.164 460.332 530.035 460.642 533.001L439.893 533.109L439.757 517.382Z" fill="#FCF7CC"/>
<path d="M487.939 531.623C503.868 531.846 519.791 531.866 535.721 531.677C535.255 544.688 534.742 564.232 535.708 576.879C520.899 577.521 502.787 577.095 487.776 577.082L487.939 531.623Z" fill="black"/>
<path d="M98.7451 500.987L121.737 501.058L121.745 522.826L145.298 523.016L145.422 535.027C152.743 535.034 160.346 534.939 167.64 535.068C167.619 539.513 167.337 551.356 168.153 555.172C163.646 555.308 148.059 556.253 145.391 554.024C142.692 552.119 126.608 553.098 121.071 552.524C121.259 544.83 121.164 536.682 121.194 528.954C113.693 528.697 106.191 528.501 98.6876 528.366C98.6302 519.239 98.6491 510.112 98.7451 500.987Z" fill="#6E2811"/>
<path d="M439.142 623.587L449.283 623.472C448.47 632.052 449.03 639.267 448.904 647.806C453.811 647.914 458.717 648.124 463.617 648.421C454.877 649.137 448.32 647.853 439.685 647.745C438.861 644.813 439.109 628.296 439.105 624.371L439.142 623.587Z" fill="#5A1E0E"/>
</svg>
