<svg width="159" height="33" viewBox="0 0 159 33" fill="none" xmlns="http://www.w3.org/2000/svg">
<path d="M144.92 17.5773C144.92 13.7879 147.883 10.8022 151.58 10.8022C154.818 10.8022 157 12.8692 157 15.9467C157 19.7361 154.06 22.7217 150.34 22.7217C147.102 22.7217 144.92 20.6548 144.92 17.5773ZM147.676 17.3706C147.676 19.1619 148.755 20.3332 150.501 20.3332C152.568 20.3332 154.244 18.473 154.244 16.1534C154.244 14.339 153.165 13.1678 151.442 13.1678C149.375 13.1678 147.676 15.028 147.676 17.3706Z" fill="white"/>
<path d="M142.688 8.80421C141.861 8.80421 141.287 8.18413 141.287 7.40328C141.287 6.39276 142.183 5.47412 143.216 5.47412C144.02 5.47412 144.617 6.07123 144.617 6.87506C144.617 7.8626 143.699 8.80421 142.688 8.80421ZM139.197 22.4461L140.989 11.1008H143.676L141.884 22.4461H139.197Z" fill="white"/>
<path d="M136.255 22.4461H133.568L136.255 5.35925H138.965L136.255 22.4461Z" fill="white"/>
<path d="M120.204 17.5773C120.204 13.7879 123.167 10.8022 126.864 10.8022C130.103 10.8022 132.284 12.8692 132.284 15.9467C132.284 19.7361 129.345 22.7217 125.624 22.7217C122.386 22.7217 120.204 20.6548 120.204 17.5773ZM122.96 17.3706C122.96 19.1619 124.039 20.3332 125.785 20.3332C127.852 20.3332 129.528 18.473 129.528 16.1534C129.528 14.339 128.449 13.1678 126.726 13.1678C124.66 13.1678 122.96 15.028 122.96 17.3706Z" fill="white"/>
<path d="M113.399 11.1008H115.006L115.236 9.67689C115.695 6.82909 117.28 5.35925 119.875 5.35925C120.335 5.35925 120.84 5.38222 121.253 5.47408L120.886 7.79367C120.564 7.79367 120.266 7.7707 119.944 7.7707C118.727 7.7707 118.107 8.34486 117.9 9.67689L117.67 11.1008H120.335L119.967 13.3515H117.326L115.879 22.4461H113.215L114.662 13.3515H113.031L113.399 11.1008Z" fill="white"/>
<path d="M102.906 22.4461H100.104V11.1008H102.7L102.929 12.5706C103.641 11.4223 105.019 10.7563 106.558 10.7563C109.406 10.7563 110.876 12.5247 110.876 15.4644V22.4461H108.074V16.1304C108.074 14.2242 107.132 13.3055 105.685 13.3055C103.963 13.3055 102.906 14.4998 102.906 16.3371V22.4461Z" fill="white"/>
<path d="M85.3535 16.5208C85.3535 13.2137 87.5123 10.7333 90.7506 10.7333C92.4501 10.7333 93.7821 11.4453 94.4481 12.6625L94.6089 11.1008H97.2037V21.872C97.2037 25.6614 94.9304 28.0269 91.2558 28.0269C87.9946 28.0269 85.7669 26.1666 85.4224 23.1351H88.2243C88.408 24.6049 89.5334 25.4776 91.2558 25.4776C93.185 25.4776 94.4252 24.2604 94.4252 22.3772V20.494C93.7132 21.5504 92.3123 22.2164 90.6817 22.2164C87.4664 22.2164 85.3535 19.805 85.3535 16.5208ZM88.1784 16.4519C88.1784 18.3581 89.3956 19.782 91.2329 19.782C93.162 19.782 94.3563 18.427 94.3563 16.4519C94.3563 14.5228 93.185 13.1907 91.2329 13.1907C89.3726 13.1907 88.1784 14.5917 88.1784 16.4519Z" fill="white"/>
<path d="M81.701 8.82714C80.7364 8.82714 79.9785 8.06926 79.9785 7.12765C79.9785 6.18603 80.7364 5.45111 81.701 5.45111C82.6196 5.45111 83.3775 6.18603 83.3775 7.12765C83.3775 8.06926 82.6196 8.82714 81.701 8.82714ZM80.3 22.4461V11.1008H83.1019V22.4461H80.3Z" fill="white"/>
<path d="M68.7969 19.0012H71.461C71.4839 19.9887 72.2188 20.6088 73.5049 20.6088C74.814 20.6088 75.526 20.0806 75.526 19.2538C75.526 18.6796 75.2274 18.2662 74.2169 18.0366L72.1729 17.5543C70.1289 17.095 69.1414 16.1304 69.1414 14.3161C69.1414 12.0883 71.0246 10.7563 73.6427 10.7563C76.192 10.7563 77.9145 12.2261 77.9374 14.4309H75.2734C75.2504 13.4663 74.6073 12.8462 73.5279 12.8462C72.4255 12.8462 71.7825 13.3515 71.7825 14.2012C71.7825 14.8443 72.2877 15.2577 73.2523 15.4873L75.2963 15.9696C77.2025 16.406 78.1671 17.2787 78.1671 19.0241C78.1671 21.3207 76.215 22.7447 73.4131 22.7447C70.5882 22.7447 68.7969 21.2289 68.7969 19.0012Z" fill="white"/>
<path d="M61.9603 22.7447C58.5843 22.7447 56.2188 20.2873 56.2188 16.7734C56.2188 13.2137 58.5383 10.7563 61.8684 10.7563C65.2674 10.7563 67.4263 13.0299 67.4263 16.5667V17.4165L58.8828 17.4395C59.0895 19.4375 60.146 20.448 62.0062 20.448C63.545 20.448 64.5555 19.8509 64.877 18.7715H67.4722C66.9899 21.2518 64.9229 22.7447 61.9603 22.7447ZM61.8914 13.0529C60.2378 13.0529 59.2273 13.9486 58.9517 15.6481H64.6474C64.6474 14.0864 63.5679 13.0529 61.8914 13.0529Z" fill="white"/>
<path d="M47.3282 22.7447C44.044 22.7447 42 20.3332 42 16.8194C42 13.2826 44.067 10.7563 47.4889 10.7563C49.0736 10.7563 50.4745 11.4223 51.1865 12.5477V5.35925H53.9654V22.4461H51.3932L51.2095 20.6777C50.5205 21.9868 49.0506 22.7447 47.3282 22.7447ZM47.9483 20.1724C49.9004 20.1724 51.1635 18.7715 51.1635 16.7275C51.1635 14.6835 49.9004 13.2596 47.9483 13.2596C45.9961 13.2596 44.8019 14.7065 44.8019 16.7275C44.8019 18.7485 45.9961 20.1724 47.9483 20.1724Z" fill="white"/>
<g filter="url(#filter0_i_490_331)">
<rect x="0.756836" y="0.322754" width="32.111" height="32.111" rx="16.0555" fill="url(#paint0_linear_490_331)"/>
<path d="M18.1501 4.33661H15.4742V13.1481L9.2435 6.91744L7.35134 8.8096L13.582 15.0403H4.77051V17.7162H13.582L7.35134 23.9469L9.2435 25.839L15.4742 19.6084V28.4199H18.1501V19.6084L24.3808 25.839L26.2729 23.9469L20.0423 17.7162H28.8538V15.0403H20.0423L26.2729 8.8096L24.3808 6.91744L18.1501 13.1481V4.33661Z" fill="white"/>
</g>
<defs>
<filter id="filter0_i_490_331" x="0.756836" y="0.322754" width="32.1113" height="32.111" filterUnits="userSpaceOnUse" color-interpolation-filters="sRGB">
<feFlood flood-opacity="0" result="BackgroundImageFix"/>
<feBlend mode="normal" in="SourceGraphic" in2="BackgroundImageFix" result="shape"/>
<feColorMatrix in="SourceAlpha" type="matrix" values="0 0 0 0 0 0 0 0 0 0 0 0 0 0 0 0 0 0 127 0" result="hardAlpha"/>
<feOffset/>
<feGaussianBlur stdDeviation="1.73573"/>
<feComposite in2="hardAlpha" operator="arithmetic" k2="-1" k3="1"/>
<feColorMatrix type="matrix" values="0 0 0 0 1 0 0 0 0 0.333333 0 0 0 0 0.243137 0 0 0 1 0"/>
<feBlend mode="normal" in2="shape" result="effect1_innerShadow_490_331"/>
</filter>
<linearGradient id="paint0_linear_490_331" x1="16.8124" y1="0.322754" x2="16.8124" y2="32.4338" gradientUnits="userSpaceOnUse">
<stop stop-color="#FFDCD7"/>
<stop offset="0.788462" stop-color="#FF553E"/>
</linearGradient>
</defs>
</svg>
