<svg width="352" height="323" viewBox="0 0 352 323" fill="none" xmlns="http://www.w3.org/2000/svg">
<mask id="mask0_761_2148" style="mask-type:alpha" maskUnits="userSpaceOnUse" x="91" y="93" width="192" height="230">
<path d="M167.028 93.8747L164.508 98.6954C163.307 100.994 162.555 103.5 162.294 106.08L161.18 117.077L98.137 179.477C91.6142 185.933 89.9077 195.817 93.8883 204.087L138.356 296.468C127.547 299.684 120.316 303.142 116.663 306.842C113.009 310.542 111.94 315.489 113.456 321.683L158.162 321.745L162.689 307.597L164.225 299.991C164.473 298.766 165.667 297.973 166.892 298.22C167.635 298.37 168.253 298.882 168.54 299.583L177.591 321.745H186.269L179.101 288.545C176.866 282.844 174.98 278.506 173.442 275.529C171.903 272.553 169.77 269.112 167.04 265.206L130.244 194.605L183.062 126.886L231.918 300.24C221.523 302.09 214.921 304.605 212.112 307.786C209.302 310.966 208.736 315.745 210.414 322.122H263.609L262.446 300.264C262.413 299.639 262.892 299.106 263.516 299.073C263.994 299.048 264.435 299.325 264.62 299.766L273.983 322.122H282.283C277.415 305.007 274.271 294.066 272.852 289.299C270.616 281.795 262.1 270.436 263.609 275.529C263.609 275.529 257.416 252.382 246.066 222.334C242.392 212.61 236.021 201.143 231.97 190.839C224.918 172.899 216.364 151.139 206.309 125.56C204.498 120.951 205.226 112.546 201.925 104.15C200.985 101.758 198.344 98.4587 194.003 94.252L167.028 93.8747Z" fill="white"/>
</mask>
<g mask="url(#mask0_761_2148)">
<path d="M167.028 93.8748L164.508 98.6954C163.307 100.994 162.555 103.5 162.294 106.081L161.18 117.077L98.137 179.477C91.6142 185.933 89.9077 195.818 93.8883 204.087L138.356 296.468C127.547 299.684 120.316 303.143 116.663 306.842C113.009 310.542 111.94 315.489 113.456 321.683L158.162 321.745L162.689 307.597L164.225 299.991C164.473 298.766 165.667 297.973 166.892 298.22C167.635 298.37 168.253 298.882 168.54 299.583L177.591 321.745H186.269L179.101 288.545C176.866 282.844 174.98 278.506 173.442 275.529C171.903 272.553 169.77 269.112 167.04 265.206L130.244 194.605L183.062 126.886L231.918 300.24C221.523 302.09 214.921 304.605 212.112 307.786C209.302 310.966 208.736 315.745 210.414 322.122H263.609L262.446 300.264C262.413 299.639 262.892 299.106 263.516 299.073C263.994 299.048 264.435 299.325 264.62 299.766L273.983 322.122H282.283C277.415 305.007 274.271 294.066 272.852 289.3C270.616 281.795 262.1 270.436 263.609 275.529C263.609 275.529 257.416 252.382 246.066 222.334C242.392 212.61 236.021 201.143 231.97 190.839C224.918 172.899 216.364 151.139 206.309 125.56C204.498 120.951 205.226 112.546 201.925 104.15C200.985 101.758 198.344 98.4588 194.003 94.252L167.028 93.8748Z" fill="#FF567B"/>
<path fill-rule="evenodd" clip-rule="evenodd" d="M126.282 275.341L175.138 263.08L197.397 324.763H108.739L126.282 275.341Z" fill="#002D6F"/>
<path fill-rule="evenodd" clip-rule="evenodd" d="M219.091 270.436L267.382 274.963L293.224 335.326H204.566L219.091 270.436Z" fill="#002D6F"/>
</g>
<mask id="mask1_761_2148" style="mask-type:alpha" maskUnits="userSpaceOnUse" x="52" y="26" width="236" height="142">
<path d="M157.029 45.9614L78.1799 26.9094L52.1484 105.004L87.2344 107.267L100.25 61.8066L161.179 70.2952L165.329 93.896H194.001L197.019 64.4475L255.119 159.519L282.282 167.819L287.186 159.519L266.059 98.9675L207.017 43.6978C195.693 46.61 187.519 47.9377 182.495 47.6807C169.919 47.0375 161.43 46.4644 157.029 45.9614Z" fill="white"/>
</mask>
<g mask="url(#mask1_761_2148)">
<path d="M157.029 45.9616L78.1799 26.9096L52.1484 105.004L87.2344 107.268L100.25 61.8069L161.179 70.2954L165.329 93.8963H194.001L197.019 64.4478L255.119 159.519L282.282 167.819L287.186 159.519L266.059 98.9678L207.017 43.698C195.693 46.6103 187.519 47.9379 182.495 47.6809C169.919 47.0378 161.43 46.4647 157.029 45.9616Z" fill="#FFE694"/>
<path d="M198.725 73.5932C198.519 73.6195 198.33 73.4732 198.303 73.2665C198.277 73.0599 198.423 72.871 198.63 72.8447L201.091 72.5314C201.298 72.5051 201.487 72.6513 201.513 72.858C201.539 73.0647 201.393 73.2536 201.186 73.2799L198.725 73.5932ZM198.773 69.6547C198.567 69.681 198.378 69.5347 198.351 69.328C198.325 69.1214 198.471 68.9325 198.678 68.9062L201.139 68.5929C201.346 68.5666 201.535 68.7128 201.561 68.9195C201.587 69.1262 201.441 69.3151 201.235 69.3414L198.773 69.6547ZM208.933 72.2361C208.726 72.2624 208.537 72.1161 208.511 71.9095C208.485 71.7028 208.631 71.5139 208.838 71.4876L211.299 71.1743C211.505 71.148 211.694 71.2942 211.721 71.5009C211.747 71.7076 211.601 71.8965 211.394 71.9228L208.933 72.2361ZM208.981 68.2976C208.774 68.3239 208.585 68.1776 208.559 67.971C208.533 67.7643 208.679 67.5754 208.886 67.5491L211.347 67.2358C211.554 67.2095 211.742 67.3557 211.769 67.5624C211.795 67.7691 211.649 67.958 211.442 67.9843L208.981 68.2976ZM203.728 73.1432C203.524 73.1851 203.324 73.0537 203.282 72.8496C203.241 72.6454 203.372 72.446 203.576 72.4041L205.985 71.9095C206.19 71.8676 206.389 71.9991 206.431 72.2032C206.473 72.4073 206.341 72.6067 206.137 72.6486L203.728 73.1432ZM203.776 69.2047C203.572 69.2466 203.372 69.1152 203.331 68.9111C203.289 68.707 203.42 68.5075 203.624 68.4656L206.033 67.971C206.238 67.9291 206.437 68.0606 206.479 68.2647C206.521 68.4688 206.389 68.6682 206.185 68.7101L203.776 69.2047ZM213.936 71.7862C213.731 71.828 213.532 71.6966 213.49 71.4925C213.448 71.2884 213.58 71.0889 213.784 71.047L216.193 70.5524C216.397 70.5105 216.597 70.642 216.638 70.8461C216.68 71.0502 216.549 71.2496 216.345 71.2916L213.936 71.7862ZM213.984 67.8476C213.779 67.8896 213.58 67.7581 213.538 67.554C213.496 67.3499 213.628 67.1504 213.832 67.1085L216.241 66.6139C216.445 66.572 216.645 66.7035 216.687 66.9076C216.728 67.1117 216.597 67.3112 216.393 67.353L213.984 67.8476ZM219.14 70.879C218.934 70.9053 218.745 70.7591 218.719 70.5524C218.692 70.3457 218.838 70.1568 219.045 70.1305L221.506 69.8172C221.713 69.7909 221.902 69.9371 221.928 70.1438C221.955 70.3505 221.808 70.5394 221.602 70.5657L219.14 70.879ZM219.188 66.9405C218.982 66.9668 218.793 66.8205 218.767 66.6139C218.74 66.4072 218.887 66.2183 219.093 66.192L221.554 65.8787C221.761 65.8524 221.95 65.9986 221.976 66.2053C222.003 66.412 221.856 66.6009 221.65 66.6272L219.188 66.9405ZM224.143 70.4291C223.939 70.471 223.74 70.3395 223.698 70.1354C223.656 69.9313 223.787 69.7318 223.991 69.6899L226.401 69.1953C226.605 69.1534 226.804 69.2849 226.846 69.489C226.888 69.6931 226.756 69.8926 226.552 69.9345L224.143 70.4291ZM224.191 66.4906C223.987 66.5325 223.788 66.401 223.746 66.1969C223.704 65.9928 223.835 65.7933 224.039 65.7514L226.449 65.2568C226.653 65.2149 226.852 65.3464 226.894 65.5505C226.936 65.7546 226.805 65.9541 226.6 65.996L224.191 66.4906ZM198.821 65.7162C198.615 65.7425 198.426 65.5962 198.399 65.3895C198.373 65.1829 198.519 64.994 198.726 64.9677L201.187 64.6544C201.394 64.6281 201.583 64.7743 201.609 64.981C201.636 65.1877 201.489 65.3766 201.283 65.4029L198.821 65.7162ZM209.029 64.3591C208.822 64.3854 208.633 64.2391 208.607 64.0325C208.581 63.8258 208.727 63.6369 208.934 63.6106L211.395 63.2973C211.602 63.271 211.79 63.4172 211.817 63.6239C211.843 63.8306 211.697 64.0195 211.49 64.0458L209.029 64.3591ZM203.824 65.2662C203.62 65.3081 203.421 65.1767 203.379 64.9726C203.337 64.7685 203.468 64.569 203.672 64.5271L206.082 64.0325C206.286 63.9906 206.485 64.1221 206.527 64.3262C206.569 64.5303 206.437 64.7297 206.233 64.7716L203.824 65.2662ZM214.032 63.9092C213.828 63.9511 213.628 63.8196 213.586 63.6155C213.544 63.4114 213.676 63.2119 213.88 63.17L216.289 62.6754C216.493 62.6335 216.693 62.765 216.735 62.9691C216.776 63.1732 216.645 63.3726 216.441 63.4145L214.032 63.9092ZM219.237 63.002C219.03 63.0283 218.841 62.882 218.815 62.6754C218.788 62.4687 218.935 62.2798 219.141 62.2535L221.603 61.9402C221.809 61.9139 221.998 62.0601 222.024 62.2668C222.051 62.4735 221.904 62.6624 221.698 62.6887L219.237 63.002ZM224.239 62.5521C224.035 62.594 223.836 62.4625 223.794 62.2584C223.752 62.0543 223.883 61.8548 224.088 61.8129L226.497 61.3183C226.701 61.2764 226.9 61.4079 226.942 61.612C226.984 61.8161 226.853 62.0156 226.648 62.0575L224.239 62.5521ZM198.869 61.7777C198.663 61.804 198.474 61.6577 198.448 61.451C198.421 61.2444 198.567 61.0555 198.774 61.0292L201.235 60.7159C201.442 60.6896 201.631 60.8358 201.657 61.0425C201.684 61.2492 201.537 61.4381 201.331 61.4644L198.869 61.7777ZM209.077 60.4206C208.87 60.4469 208.681 60.3006 208.655 60.094C208.629 59.8873 208.775 59.6984 208.982 59.6721L211.443 59.3588C211.65 59.3325 211.839 59.4787 211.865 59.6854C211.891 59.8921 211.745 60.081 211.538 60.1073L209.077 60.4206ZM203.872 61.3277C203.668 61.3696 203.469 61.2382 203.427 61.0341C203.385 60.8299 203.516 60.6305 203.72 60.5886L206.13 60.094C206.334 60.0521 206.533 60.1836 206.575 60.3877C206.617 60.5918 206.485 60.7912 206.281 60.8331L203.872 61.3277ZM214.08 59.9707C213.876 60.0125 213.676 59.8811 213.634 59.677C213.592 59.4729 213.724 59.2734 213.928 59.2315L216.337 58.7369C216.541 58.695 216.741 58.8265 216.783 59.0306C216.825 59.2347 216.693 59.4341 216.489 59.4761L214.08 59.9707ZM219.285 59.0635C219.078 59.0898 218.889 58.9436 218.863 58.7369C218.836 58.5302 218.983 58.3413 219.189 58.315L221.651 58.0017C221.857 57.9754 222.046 58.1216 222.072 58.3283C222.099 58.535 221.953 58.7239 221.746 58.7502L219.285 59.0635ZM224.287 58.6136C224.083 58.6555 223.884 58.524 223.842 58.3199C223.8 58.1158 223.931 57.9163 224.136 57.8744L226.545 57.3798C226.749 57.3379 226.948 57.4694 226.99 57.6735C227.032 57.8776 226.901 58.0771 226.697 58.119L224.287 58.6136ZM198.917 57.8392C198.711 57.8655 198.522 57.7192 198.496 57.5125C198.469 57.3059 198.616 57.117 198.822 57.0907L201.283 56.7774C201.49 56.7511 201.679 56.8973 201.705 57.104C201.732 57.3107 201.585 57.4996 201.379 57.5259L198.917 57.8392ZM209.125 56.4821C208.918 56.5084 208.73 56.3621 208.703 56.1555C208.677 55.9488 208.823 55.7599 209.03 55.7336L211.491 55.4203C211.698 55.394 211.887 55.5402 211.913 55.7469C211.939 55.9536 211.793 56.1425 211.586 56.1688L209.125 56.4821ZM203.92 57.3892C203.716 57.4311 203.517 57.2997 203.475 57.0955C203.433 56.8915 203.564 56.692 203.768 56.6501L206.178 56.1555C206.382 56.1136 206.581 56.2451 206.623 56.4492C206.665 56.6533 206.534 56.8527 206.329 56.8946L203.92 57.3892ZM214.128 56.0321C213.924 56.0741 213.724 55.9426 213.682 55.7385C213.64 55.5344 213.772 55.3349 213.976 55.293L216.385 54.7984C216.589 54.7565 216.789 54.888 216.831 55.0921C216.873 55.2962 216.741 55.4956 216.537 55.5375L214.128 56.0321ZM219.333 55.125C219.126 55.1513 218.937 55.0051 218.911 54.7984C218.884 54.5917 219.031 54.4028 219.237 54.3765L221.699 54.0632C221.905 54.0369 222.094 54.1831 222.121 54.3898C222.147 54.5965 222.001 54.7854 221.794 54.8117L219.333 55.125ZM224.335 54.6751C224.131 54.717 223.932 54.5855 223.89 54.3814C223.848 54.1773 223.98 53.9778 224.184 53.9359L226.593 53.4413C226.797 53.3994 226.996 53.5309 227.038 53.735C227.08 53.9391 226.949 54.1386 226.745 54.1805L224.335 54.6751ZM198.966 53.9007C198.759 53.927 198.57 53.7807 198.544 53.574C198.517 53.3674 198.664 53.1785 198.87 53.1522L201.332 52.8389C201.538 52.8126 201.727 52.9588 201.753 53.1655C201.78 53.3722 201.633 53.5611 201.427 53.5874L198.966 53.9007ZM209.173 52.5436C208.966 52.5699 208.778 52.4236 208.751 52.217C208.725 52.0103 208.871 51.8214 209.078 51.7951L211.539 51.4818C211.746 51.4555 211.935 51.6017 211.961 51.8084C211.987 52.0151 211.841 52.204 211.634 52.2303L209.173 52.5436ZM203.968 53.4507C203.764 53.4926 203.565 53.3612 203.523 53.1571C203.481 52.9529 203.612 52.7535 203.817 52.7116L206.226 52.217C206.43 52.1751 206.629 52.3066 206.671 52.5107C206.713 52.7148 206.582 52.9142 206.378 52.9561L203.968 53.4507ZM214.176 52.0937C213.972 52.1356 213.772 52.0041 213.73 51.8C213.689 51.5959 213.82 51.3964 214.024 51.3545L216.433 50.8599C216.637 50.818 216.837 50.9495 216.879 51.1536C216.921 51.3577 216.789 51.5571 216.585 51.599L214.176 52.0937ZM219.381 51.1865C219.174 51.2128 218.985 51.0665 218.959 50.8599C218.933 50.6532 219.079 50.4643 219.285 50.438L221.747 50.1247C221.953 50.0984 222.142 50.2446 222.169 50.4513C222.195 50.658 222.049 50.8469 221.842 50.8732L219.381 51.1865ZM224.383 50.7366C224.179 50.7785 223.98 50.647 223.938 50.4429C223.896 50.2388 224.028 50.0393 224.232 49.9974L226.641 49.5028C226.845 49.4609 227.044 49.5924 227.086 49.7965C227.128 50.0006 226.997 50.2001 226.793 50.242L224.383 50.7366ZM209.221 48.6051C209.015 48.6314 208.826 48.4851 208.799 48.2785C208.773 48.0718 208.919 47.8829 209.126 47.8566L211.587 47.5433C211.794 47.517 211.983 47.6632 212.009 47.8699C212.035 48.0766 211.889 48.2655 211.682 48.2918L209.221 48.6051ZM204.016 49.5122C203.812 49.5541 203.613 49.4227 203.571 49.2186C203.529 49.0145 203.66 48.815 203.865 48.7731L206.274 48.2785C206.478 48.2366 206.677 48.3681 206.719 48.5722C206.761 48.7763 206.63 48.9757 206.426 49.0176L204.016 49.5122ZM214.224 48.1552C214.02 48.197 213.82 48.0656 213.778 47.8615C213.737 47.6574 213.868 47.4579 214.072 47.416L216.481 46.9214C216.686 46.8795 216.885 47.011 216.927 47.2151C216.969 47.4192 216.837 47.6186 216.633 47.6606L214.224 48.1552ZM200.244 49.8055L200.149 49.057L200.244 49.8055ZM200.244 49.8055L199.014 49.9622C198.515 50.0257 198.419 49.2772 198.918 49.2137L200.149 49.057L201.38 48.9004C201.879 48.8369 201.974 49.5854 201.475 49.6489L200.244 49.8055ZM220.659 47.0913L220.564 46.3428L220.659 47.0913ZM220.564 46.3428C221.063 46.2793 221.158 47.0278 220.659 47.0913L219.429 47.248C218.93 47.3115 218.835 46.563 219.334 46.4995L220.564 46.3428L221.795 46.1862C222.294 46.1227 222.389 46.8712 221.89 46.9347L220.659 47.0913C220.16 47.1549 220.065 46.4064 220.564 46.3428ZM224.432 46.7981C224.227 46.84 224.028 46.7085 223.986 46.5044C223.944 46.3003 224.076 46.1009 224.28 46.0589L226.689 45.5643C226.893 45.5224 227.093 45.6539 227.134 45.858C227.176 46.0621 227.045 46.2616 226.841 46.3035L224.432 46.7981ZM166.333 52.3614C166.325 52.1532 166.487 51.9778 166.696 51.9696C166.904 51.9614 167.079 52.1235 167.087 52.3317L167.185 54.8109C167.193 55.0191 167.031 55.1945 166.823 55.2027C166.615 55.2109 166.439 55.0488 166.431 54.8406L166.333 52.3614ZM170.253 52.7525C170.244 52.5443 170.407 52.3689 170.615 52.3607C170.823 52.3525 170.998 52.5147 171.007 52.7229L171.104 55.202C171.112 55.4102 170.95 55.5857 170.742 55.5938C170.534 55.602 170.358 55.4399 170.35 55.2317L170.253 52.7525ZM166.796 62.6484C166.787 62.4402 166.95 62.2648 167.158 62.2566C167.366 62.2484 167.541 62.4105 167.55 62.6187L167.647 65.0979C167.655 65.3061 167.493 65.4815 167.285 65.4897C167.077 65.4979 166.901 65.3358 166.893 65.1276L166.796 62.6484ZM170.715 63.0396C170.707 62.8314 170.869 62.6559 171.077 62.6477C171.285 62.6396 171.461 62.8017 171.469 63.0099L171.566 65.4891C171.575 65.6973 171.413 65.8727 171.204 65.8809C170.996 65.8891 170.821 65.7269 170.813 65.5187L170.715 63.0396ZM166.346 57.3843C166.322 57.1773 166.47 56.9901 166.677 56.9661C166.884 56.9422 167.071 57.0905 167.095 57.2975L167.378 59.7407C167.402 59.9477 167.253 60.1349 167.046 60.1588C166.839 60.1828 166.652 60.0344 166.628 59.8274L166.346 57.3843ZM170.265 57.7754C170.241 57.5684 170.389 57.3812 170.596 57.3573C170.803 57.3333 170.99 57.4817 171.014 57.6887L171.297 60.1318C171.321 60.3388 171.173 60.526 170.966 60.55C170.759 60.5739 170.572 60.4256 170.548 60.2186L170.265 57.7754ZM166.808 67.6713C166.784 67.4643 166.932 67.2771 167.139 67.2531C167.346 67.2292 167.533 67.3776 167.557 67.5845L167.84 70.0277C167.864 70.2347 167.716 70.4219 167.509 70.4459C167.302 70.4698 167.115 70.3214 167.091 70.1145L166.808 67.6713ZM170.727 68.0624C170.703 67.8555 170.852 67.6683 171.059 67.6443C171.266 67.6203 171.453 67.7687 171.477 67.9757L171.759 70.4189C171.783 70.6258 171.635 70.8131 171.428 70.837C171.221 70.861 171.034 70.7126 171.01 70.5056L170.727 68.0624ZM167.258 72.9354C167.25 72.7272 167.412 72.5518 167.62 72.5436C167.828 72.5354 168.004 72.6976 168.012 72.9058L168.109 75.3849C168.118 75.5931 167.956 75.7686 167.747 75.7768C167.539 75.785 167.364 75.6228 167.356 75.4146L167.258 72.9354ZM171.177 73.3266C171.169 73.1184 171.331 72.943 171.539 72.9348C171.748 72.9266 171.923 73.0887 171.931 73.2969L172.029 75.7761C172.037 75.9843 171.875 76.1597 171.667 76.1679C171.458 76.1761 171.283 76.014 171.275 75.8058L171.177 73.3266ZM167.27 77.9583C167.246 77.7513 167.395 77.5641 167.602 77.5402C167.808 77.5162 167.996 77.6646 168.02 77.8716L168.302 80.3148C168.326 80.5217 168.178 80.7089 167.971 80.7329C167.764 80.7569 167.577 80.6085 167.553 80.4015L167.27 77.9583ZM171.189 78.3495C171.165 78.1425 171.314 77.9553 171.521 77.9313C171.728 77.9074 171.915 78.0557 171.939 78.2627L172.222 80.7059C172.246 80.9129 172.097 81.1001 171.89 81.124C171.683 81.148 171.496 80.9996 171.472 80.7926L171.189 78.3495ZM174.172 53.1437C174.164 52.9355 174.326 52.7601 174.534 52.7519C174.742 52.7437 174.918 52.9058 174.926 53.114L175.024 55.5932C175.032 55.8014 174.87 55.9768 174.661 55.985C174.453 55.9932 174.278 55.8311 174.27 55.6229L174.172 53.1437ZM174.634 63.4307C174.626 63.2225 174.788 63.0471 174.996 63.0389C175.205 63.0307 175.38 63.1928 175.388 63.401L175.486 65.8802C175.494 66.0884 175.332 66.2638 175.124 66.272C174.915 66.2802 174.74 66.1181 174.732 65.9099L174.634 63.4307ZM174.184 58.1666C174.16 57.9596 174.309 57.7724 174.516 57.7484C174.723 57.7245 174.91 57.8728 174.934 58.0798L175.216 60.523C175.24 60.73 175.092 60.9172 174.885 60.9411C174.678 60.9651 174.491 60.8167 174.467 60.6097L174.184 58.1666ZM174.646 68.4536C174.623 68.2466 174.771 68.0594 174.978 68.0354C175.185 68.0115 175.372 68.1599 175.396 68.3668L175.679 70.81C175.703 71.017 175.554 71.2042 175.347 71.2282C175.14 71.2521 174.953 71.1037 174.929 70.8968L174.646 68.4536ZM175.097 73.7177C175.088 73.5095 175.251 73.3341 175.459 73.3259C175.667 73.3177 175.842 73.4799 175.851 73.6881L175.948 76.1672C175.956 76.3754 175.794 76.5509 175.586 76.5591C175.378 76.5672 175.202 76.4051 175.194 76.1969L175.097 73.7177ZM175.109 78.7406C175.085 78.5336 175.233 78.3464 175.44 78.3225C175.647 78.2985 175.834 78.4469 175.858 78.6539L176.141 81.097C176.165 81.304 176.017 81.4912 175.81 81.5152C175.603 81.5391 175.415 81.3908 175.392 81.1838L175.109 78.7406ZM178.091 53.5348C178.083 53.3266 178.245 53.1512 178.453 53.143C178.662 53.1348 178.837 53.297 178.845 53.5052L178.943 55.9843C178.951 56.1925 178.789 56.368 178.581 56.3761C178.373 56.3843 178.197 56.2222 178.189 56.014L178.091 53.5348ZM178.554 63.8219C178.545 63.6137 178.708 63.4382 178.916 63.43C179.124 63.4218 179.299 63.584 179.308 63.7922L179.405 66.2714C179.413 66.4796 179.251 66.655 179.043 66.6632C178.835 66.6714 178.659 66.5092 178.651 66.301L178.554 63.8219ZM178.104 58.5577C178.08 58.3507 178.228 58.1635 178.435 58.1396C178.642 58.1156 178.829 58.264 178.853 58.471L179.136 60.9141C179.16 61.1211 179.011 61.3083 178.804 61.3323C178.597 61.3562 178.41 61.2079 178.386 61.0009L178.104 58.5577ZM178.566 68.8447C178.542 68.6378 178.69 68.4506 178.897 68.4266C179.104 68.4026 179.291 68.551 179.315 68.758L179.598 71.2012C179.622 71.4081 179.474 71.5954 179.267 71.6193C179.06 71.6433 178.872 71.4949 178.849 71.2879L178.566 68.8447ZM179.016 74.1089C179.008 73.9007 179.17 73.7253 179.378 73.7171C179.586 73.7089 179.762 73.871 179.77 74.0792L179.867 76.5584C179.876 76.7666 179.713 76.942 179.505 76.9502C179.297 76.9584 179.122 76.7963 179.113 76.5881L179.016 74.1089ZM179.028 79.1318C179.004 78.9248 179.153 78.7376 179.359 78.7136C179.566 78.6897 179.754 78.838 179.778 79.045L180.06 81.4882C180.084 81.6952 179.936 81.8824 179.729 81.9063C179.522 81.9303 179.335 81.7819 179.311 81.5749L179.028 79.1318ZM182.011 53.926C182.002 53.7178 182.165 53.5424 182.373 53.5342C182.581 53.526 182.756 53.6881 182.765 53.8963L182.862 56.3755C182.87 56.5837 182.708 56.7591 182.5 56.7673C182.292 56.7755 182.116 56.6134 182.108 56.4052L182.011 53.926ZM182.473 64.213C182.465 64.0048 182.627 63.8294 182.835 63.8212C183.043 63.813 183.219 63.9751 183.227 64.1833L183.324 66.6625C183.333 66.8707 183.171 67.0461 182.962 67.0543C182.754 67.0625 182.579 66.9004 182.571 66.6922L182.473 64.213ZM182.023 58.9488C181.999 58.7419 182.147 58.5547 182.354 58.5307C182.561 58.5068 182.748 58.6551 182.772 58.8621L183.055 61.3053C183.079 61.5123 182.931 61.6995 182.724 61.7234C182.517 61.7474 182.33 61.599 182.306 61.392L182.023 58.9488ZM182.485 69.2359C182.461 69.0289 182.61 68.8417 182.817 68.8177C183.023 68.7938 183.211 68.9422 183.235 69.1491L183.517 71.5923C183.541 71.7993 183.393 71.9865 183.186 72.0104C182.979 72.0344 182.792 71.886 182.768 71.6791L182.485 69.2359ZM182.935 74.5C182.927 74.2918 183.089 74.1164 183.297 74.1082C183.506 74.1 183.681 74.2622 183.689 74.4704L183.787 76.9495C183.795 77.1577 183.633 77.3332 183.425 77.3413C183.216 77.3495 183.041 77.1874 183.033 76.9792L182.935 74.5ZM182.947 79.5229C182.923 79.3159 183.072 79.1287 183.279 79.1048C183.486 79.0808 183.673 79.2292 183.697 79.4362L183.98 81.8793C184.004 82.0863 183.855 82.2735 183.648 82.2975C183.441 82.3214 183.254 82.1731 183.23 81.9661L182.947 79.5229ZM185.93 54.3171C185.922 54.1089 186.084 53.9335 186.292 53.9253C186.5 53.9171 186.676 54.0793 186.684 54.2875L186.782 56.7666C186.79 56.9748 186.628 57.1502 186.419 57.1584C186.211 57.1666 186.036 57.0045 186.028 56.7963L185.93 54.3171ZM186.392 64.6042C186.384 64.396 186.546 64.2205 186.754 64.2123C186.963 64.2041 187.138 64.3663 187.146 64.5745L187.244 67.0537C187.252 67.2619 187.09 67.4373 186.882 67.4455C186.673 67.4537 186.498 67.2915 186.49 67.0833L186.392 64.6042ZM185.942 59.34C185.918 59.133 186.067 58.9458 186.274 58.9219C186.481 58.8979 186.668 59.0463 186.692 59.2533L186.974 61.6964C186.998 61.9034 186.85 62.0906 186.643 62.1146C186.436 62.1385 186.249 61.9902 186.225 61.7832L185.942 59.34ZM186.404 69.627C186.38 69.42 186.529 69.2328 186.736 69.2089C186.943 69.1849 187.13 69.3333 187.154 69.5403L187.437 71.9835C187.461 72.1904 187.312 72.3777 187.105 72.4016C186.898 72.4256 186.711 72.2772 186.687 72.0702L186.404 69.627ZM186.855 74.8912C186.846 74.683 187.008 74.5076 187.217 74.4994C187.425 74.4912 187.6 74.6533 187.608 74.8615L187.706 77.3407C187.714 77.5489 187.552 77.7243 187.344 77.7325C187.136 77.7407 186.96 77.5786 186.952 77.3704L186.855 74.8912ZM186.867 79.9141C186.843 79.7071 186.991 79.5199 187.198 79.4959C187.405 79.472 187.592 79.6203 187.616 79.8273L187.899 82.2705C187.923 82.4775 187.775 82.6647 187.568 82.6886C187.361 82.7126 187.173 82.5642 187.149 82.3572L186.867 79.9141ZM190.312 64.9953C190.303 64.7871 190.466 64.6117 190.674 64.6035C190.882 64.5953 191.057 64.7574 191.066 64.9656L191.163 67.4448C191.171 67.653 191.009 67.8284 190.801 67.8366C190.593 67.8448 190.417 67.6827 190.409 67.4745L190.312 64.9953ZM189.861 59.7311C189.838 59.5242 189.986 59.337 190.193 59.313C190.4 59.2891 190.587 59.4374 190.611 59.6444L190.894 62.0876C190.918 62.2946 190.769 62.4818 190.562 62.5057C190.355 62.5297 190.168 62.3813 190.144 62.1743L189.861 59.7311ZM190.324 70.0182C190.3 69.8112 190.448 69.624 190.655 69.6C190.862 69.5761 191.049 69.7245 191.073 69.9314L191.356 72.3746C191.38 72.5816 191.232 72.7688 191.025 72.7928C190.818 72.8167 190.63 72.6683 190.607 72.4614L190.324 70.0182ZM189.898 55.9479L190.652 55.9182L189.898 55.9479ZM189.898 55.9479L189.849 54.7083C189.83 54.2056 190.583 54.176 190.603 54.6786L190.652 55.9182L190.701 57.1578C190.721 57.6604 189.967 57.6901 189.947 57.1874L189.898 55.9479ZM190.823 76.5219L191.577 76.4922L190.823 76.5219ZM191.577 76.4922C191.596 76.9949 190.842 77.0246 190.823 76.5219L190.774 75.2823C190.754 74.7797 191.508 74.75 191.528 75.2527L191.577 76.4922L191.625 77.7318C191.645 78.2345 190.891 78.2641 190.871 77.7615L190.823 76.5219C190.803 76.0193 191.557 75.9896 191.577 76.4922ZM190.786 80.3052C190.762 80.0982 190.91 79.911 191.117 79.8871C191.324 79.8631 191.512 80.0115 191.536 80.2185L191.818 82.6616C191.842 82.8686 191.694 83.0558 191.487 83.0798C191.28 83.1037 191.093 82.9554 191.069 82.7484L190.786 80.3052ZM218.881 89.3408C218.764 89.1685 218.808 88.9339 218.981 88.8166C219.153 88.6993 219.388 88.7438 219.505 88.9161L220.901 90.9668C221.019 91.139 220.974 91.3737 220.802 91.491C220.63 91.6083 220.395 91.5637 220.278 91.3915L218.881 89.3408ZM222.412 87.5956C222.295 87.4233 222.34 87.1886 222.512 87.0714C222.684 86.9541 222.919 86.9986 223.036 87.1709L224.432 89.2216C224.55 89.3938 224.505 89.6285 224.333 89.7458C224.161 89.8631 223.926 89.8185 223.809 89.6463L222.412 87.5956ZM224.725 97.8197C224.607 97.6475 224.652 97.4128 224.824 97.2955C224.996 97.1782 225.231 97.2228 225.348 97.395L226.745 99.4457C226.862 99.618 226.817 99.8526 226.645 99.9699C226.473 100.087 226.238 100.043 226.121 99.8704L224.725 97.8197ZM228.256 96.0745C228.138 95.9023 228.183 95.6676 228.355 95.5503C228.527 95.433 228.762 95.4776 228.879 95.6498L230.276 97.7005C230.393 97.8728 230.348 98.1074 230.176 98.2247C230.004 98.342 229.769 98.2974 229.652 98.1252L228.256 96.0745ZM221.553 93.5939C221.423 93.4311 221.45 93.1937 221.613 93.0637C221.776 92.9337 222.013 92.9604 222.143 93.1232L223.677 95.0453C223.807 95.2081 223.781 95.4455 223.618 95.5755C223.455 95.7055 223.218 95.6789 223.088 95.516L221.553 93.5939ZM225.084 91.8487C224.954 91.6859 224.981 91.4485 225.144 91.3185C225.307 91.1885 225.544 91.2151 225.674 91.378L227.208 93.3001C227.338 93.4629 227.312 93.7003 227.149 93.8303C226.986 93.9603 226.749 93.9337 226.619 93.7708L225.084 91.8487ZM227.397 102.073C227.267 101.91 227.293 101.673 227.456 101.543C227.619 101.413 227.856 101.439 227.986 101.602L229.521 103.524C229.651 103.687 229.624 103.924 229.461 104.054C229.298 104.184 229.061 104.158 228.931 103.995L227.397 102.073ZM230.928 100.328C230.798 100.165 230.824 99.9274 230.987 99.7974C231.15 99.6675 231.387 99.6941 231.517 99.8569L233.052 101.779C233.182 101.942 233.155 102.179 232.992 102.309C232.829 102.439 232.592 102.413 232.462 102.25L230.928 100.328ZM230.568 106.299C230.451 106.126 230.495 105.892 230.667 105.774C230.84 105.657 231.074 105.702 231.192 105.874L232.588 107.925C232.705 108.097 232.661 108.332 232.489 108.449C232.316 108.566 232.082 108.522 231.964 108.349L230.568 106.299ZM234.099 104.553C233.982 104.381 234.026 104.146 234.198 104.029C234.371 103.912 234.605 103.956 234.723 104.129L236.119 106.179C236.236 106.352 236.192 106.586 236.02 106.704C235.847 106.821 235.613 106.776 235.495 106.604L234.099 104.553ZM233.24 110.552C233.11 110.389 233.137 110.152 233.299 110.022C233.462 109.892 233.7 109.918 233.83 110.081L235.364 112.003C235.494 112.166 235.467 112.403 235.305 112.533C235.142 112.663 234.904 112.637 234.774 112.474L233.24 110.552ZM236.771 108.807C236.641 108.644 236.668 108.406 236.83 108.276C236.993 108.146 237.231 108.173 237.361 108.336L238.895 110.258C239.025 110.421 238.998 110.658 238.836 110.788C238.673 110.918 238.435 110.892 238.305 110.729L236.771 108.807ZM225.943 85.8503C225.826 85.6781 225.871 85.4434 226.043 85.3262C226.215 85.2089 226.45 85.2534 226.567 85.4256L227.963 87.4764C228.081 87.6486 228.036 87.8833 227.864 88.0006C227.692 88.1179 227.457 88.0733 227.34 87.9011L225.943 85.8503ZM231.787 94.3293C231.669 94.157 231.714 93.9224 231.886 93.8051C232.058 93.6878 232.293 93.7323 232.41 93.9046L233.807 95.9553C233.924 96.1275 233.88 96.3622 233.707 96.4795C233.535 96.5968 233.3 96.5522 233.183 96.38L231.787 94.3293ZM228.615 90.1035C228.485 89.9407 228.512 89.7033 228.675 89.5733C228.838 89.4433 229.075 89.4699 229.205 89.6328L230.74 91.5549C230.87 91.7177 230.843 91.9551 230.68 92.0851C230.517 92.2151 230.28 92.1885 230.15 92.0256L228.615 90.1035ZM234.459 98.5824C234.329 98.4196 234.355 98.1822 234.518 98.0522C234.681 97.9222 234.918 97.9489 235.048 98.1117L236.583 100.034C236.713 100.197 236.686 100.434 236.523 100.564C236.361 100.694 236.123 100.667 235.993 100.505L234.459 98.5824ZM237.63 102.808C237.513 102.636 237.557 102.401 237.729 102.284C237.902 102.167 238.136 102.211 238.254 102.383L239.65 104.434C239.767 104.606 239.723 104.841 239.551 104.958C239.378 105.076 239.144 105.031 239.026 104.859L237.63 102.808ZM240.302 107.061C240.172 106.899 240.199 106.661 240.361 106.531C240.524 106.401 240.762 106.428 240.892 106.591L242.426 108.513C242.556 108.676 242.53 108.913 242.367 109.043C242.204 109.173 241.966 109.146 241.836 108.983L240.302 107.061ZM229.474 84.1051C229.357 83.9329 229.402 83.6982 229.574 83.5809C229.746 83.4637 229.981 83.5082 230.098 83.6804L231.495 85.7312C231.612 85.9034 231.567 86.1381 231.395 86.2554C231.223 86.3726 230.988 86.3281 230.871 86.1559L229.474 84.1051ZM235.318 92.5841C235.2 92.4118 235.245 92.1771 235.417 92.0599C235.589 91.9426 235.824 91.9871 235.941 92.1593L237.338 94.2101C237.455 94.3823 237.411 94.617 237.238 94.7343C237.066 94.8516 236.831 94.807 236.714 94.6348L235.318 92.5841ZM232.146 88.3583C232.016 88.1955 232.043 87.9581 232.206 87.8281C232.369 87.6981 232.606 87.7247 232.736 87.8876L234.271 89.8097C234.401 89.9725 234.374 90.2099 234.211 90.3399C234.048 90.4699 233.811 90.4432 233.681 90.2804L232.146 88.3583ZM237.99 96.8372C237.86 96.6744 237.886 96.437 238.049 96.307C238.212 96.177 238.449 96.2036 238.579 96.3665L240.114 98.2886C240.244 98.4514 240.217 98.6888 240.054 98.8188C239.892 98.9488 239.654 98.9222 239.524 98.7593L237.99 96.8372ZM241.161 101.063C241.044 100.891 241.088 100.656 241.26 100.539C241.433 100.422 241.667 100.466 241.785 100.638L243.181 102.689C243.298 102.861 243.254 103.096 243.082 103.213C242.909 103.33 242.675 103.286 242.558 103.114L241.161 101.063ZM243.833 105.316C243.703 105.153 243.73 104.916 243.893 104.786C244.055 104.656 244.293 104.683 244.423 104.845L245.957 106.768C246.087 106.93 246.061 107.168 245.898 107.298C245.735 107.428 245.498 107.401 245.368 107.238L243.833 105.316ZM233.005 82.3599C232.888 82.1877 232.933 81.953 233.105 81.8357C233.277 81.7185 233.512 81.763 233.629 81.9352L235.026 83.986C235.143 84.1582 235.098 84.3929 234.926 84.5101C234.754 84.6274 234.519 84.5829 234.402 84.4107L233.005 82.3599ZM238.849 90.8388C238.731 90.6666 238.776 90.4319 238.948 90.3147C239.12 90.1974 239.355 90.2419 239.472 90.4141L240.869 92.4649C240.986 92.6371 240.942 92.8718 240.769 92.9891C240.597 93.1063 240.363 93.0618 240.245 92.8896L238.849 90.8388ZM235.677 86.6131C235.547 86.4503 235.574 86.2129 235.737 86.0829C235.9 85.9529 236.137 85.9795 236.267 86.1423L237.802 88.0644C237.932 88.2273 237.905 88.4647 237.742 88.5947C237.579 88.7247 237.342 88.698 237.212 88.5352L235.677 86.6131ZM241.521 95.092C241.391 94.9292 241.417 94.6918 241.58 94.5618C241.743 94.4318 241.98 94.4584 242.11 94.6213L243.645 96.5434C243.775 96.7062 243.748 96.9436 243.585 97.0736C243.423 97.2036 243.185 97.177 243.055 97.0141L241.521 95.092ZM244.692 99.3178C244.575 99.1455 244.619 98.9109 244.792 98.7936C244.964 98.6763 245.198 98.7208 245.316 98.8931L246.712 100.944C246.83 101.116 246.785 101.351 246.613 101.468C246.441 101.585 246.206 101.541 246.089 101.369L244.692 99.3178ZM247.364 103.571C247.234 103.408 247.261 103.171 247.424 103.041C247.586 102.911 247.824 102.937 247.954 103.1L249.488 105.022C249.618 105.185 249.592 105.423 249.429 105.553C249.266 105.683 249.029 105.656 248.899 105.493L247.364 103.571ZM236.536 80.6147C236.419 80.4425 236.464 80.2078 236.636 80.0905C236.808 79.9732 237.043 80.0178 237.16 80.19L238.557 82.2408C238.674 82.413 238.629 82.6477 238.457 82.7649C238.285 82.8822 238.05 82.8377 237.933 82.6655L236.536 80.6147ZM242.38 89.0936C242.263 88.9214 242.307 88.6867 242.479 88.5694C242.651 88.4522 242.886 88.4967 243.003 88.6689L244.4 90.7197C244.517 90.8919 244.473 91.1266 244.3 91.2439C244.128 91.3611 243.894 91.3166 243.776 91.1444L242.38 89.0936ZM239.209 84.8679C239.079 84.705 239.105 84.4677 239.268 84.3377C239.431 84.2077 239.668 84.2343 239.798 84.3971L241.333 86.3192C241.463 86.4821 241.436 86.7195 241.273 86.8494C241.11 86.9794 240.873 86.9528 240.743 86.79L239.209 84.8679ZM245.052 93.3468C244.922 93.184 244.948 92.9466 245.111 92.8166C245.274 92.6866 245.512 92.7132 245.642 92.8761L247.176 94.7982C247.306 94.961 247.279 95.1984 247.117 95.3284C246.954 95.4584 246.716 95.4317 246.586 95.2689L245.052 93.3468ZM248.223 97.5726C248.106 97.4003 248.15 97.1656 248.323 97.0484C248.495 96.9311 248.729 96.9756 248.847 97.1479L250.243 99.1986C250.361 99.3708 250.316 99.6055 250.144 99.7228C249.972 99.8401 249.737 99.7955 249.62 99.6233L248.223 97.5726ZM250.895 101.826C250.765 101.663 250.792 101.426 250.955 101.296C251.117 101.166 251.355 101.192 251.485 101.355L253.019 103.277C253.149 103.44 253.123 103.677 252.96 103.807C252.797 103.937 252.56 103.911 252.43 103.748L250.895 101.826ZM245.911 87.3484C245.794 87.1762 245.838 86.9415 246.01 86.8242C246.183 86.707 246.417 86.7515 246.534 86.9237L247.931 88.9745C248.048 89.1467 248.004 89.3814 247.832 89.4986C247.659 89.6159 247.425 89.5714 247.307 89.3992L245.911 87.3484ZM242.74 83.1227C242.61 82.9598 242.636 82.7225 242.799 82.5925C242.962 82.4625 243.199 82.4891 243.329 82.6519L244.864 84.574C244.994 84.7369 244.967 84.9742 244.804 85.1042C244.641 85.2342 244.404 85.2076 244.274 85.0448L242.74 83.1227ZM248.583 91.6016C248.453 91.4388 248.48 91.2014 248.642 91.0714C248.805 90.9414 249.043 90.968 249.173 91.1308L250.707 93.0529C250.837 93.2158 250.81 93.4532 250.648 93.5832C250.485 93.7132 250.247 93.6865 250.117 93.5237L248.583 91.6016ZM240.766 79.8949L241.389 79.4702L240.766 79.8949ZM240.766 79.8949L240.068 78.8695C239.784 78.4537 240.408 78.029 240.691 78.4448L241.389 79.4702L242.088 80.4955C242.371 80.9113 241.747 81.336 241.464 80.9202L240.766 79.8949ZM252.452 96.8527L253.076 96.428L252.452 96.8527ZM253.076 96.428C253.359 96.8438 252.736 97.2685 252.452 96.8527L251.754 95.8273C251.471 95.4116 252.095 94.9869 252.378 95.4026L253.076 96.428L253.774 97.4534C254.057 97.8692 253.434 98.2939 253.151 97.8781L252.452 96.8527C252.169 96.4369 252.793 96.0122 253.076 96.428ZM254.426 100.081C254.296 99.9177 254.323 99.6803 254.486 99.5503C254.649 99.4203 254.886 99.4469 255.016 99.6098L256.55 101.532C256.68 101.695 256.654 101.932 256.491 102.062C256.328 102.192 256.091 102.165 255.961 102.003L254.426 100.081ZM236.09 115.098C235.979 114.922 236.031 114.689 236.207 114.578C236.384 114.467 236.617 114.519 236.728 114.696L238.052 116.794C238.163 116.97 238.11 117.203 237.934 117.314C237.758 117.425 237.525 117.373 237.414 117.197L236.09 115.098ZM239.68 113.477C239.568 113.301 239.621 113.068 239.797 112.957C239.973 112.846 240.206 112.899 240.318 113.075L241.642 115.173C241.753 115.349 241.7 115.582 241.524 115.693C241.348 115.805 241.115 115.752 241.004 115.576L239.68 113.477ZM241.634 123.776C241.522 123.6 241.575 123.367 241.751 123.256C241.928 123.144 242.16 123.197 242.272 123.373L243.596 125.472C243.707 125.648 243.654 125.881 243.478 125.992C243.302 126.103 243.069 126.05 242.958 125.874L241.634 123.776ZM245.223 122.155C245.112 121.979 245.165 121.746 245.341 121.635C245.517 121.524 245.75 121.576 245.861 121.752L247.186 123.851C247.297 124.027 247.244 124.26 247.068 124.371C246.892 124.482 246.659 124.43 246.547 124.253L245.223 122.155ZM238.612 119.442C238.487 119.275 238.522 119.039 238.69 118.914C238.857 118.79 239.093 118.825 239.217 118.992L240.684 120.967C240.808 121.134 240.773 121.37 240.606 121.495C240.439 121.619 240.202 121.584 240.078 121.417L238.612 119.442ZM242.202 117.821C242.077 117.654 242.112 117.418 242.279 117.293C242.447 117.169 242.683 117.204 242.807 117.371L244.274 119.346C244.398 119.513 244.363 119.749 244.196 119.874C244.029 119.998 243.792 119.963 243.668 119.796L242.202 117.821ZM244.156 128.12C244.031 127.953 244.066 127.716 244.234 127.592C244.401 127.468 244.637 127.503 244.761 127.67L246.228 129.644C246.352 129.812 246.317 130.048 246.15 130.172C245.983 130.296 245.746 130.262 245.622 130.094L244.156 128.12ZM247.745 126.499C247.621 126.332 247.656 126.095 247.823 125.971C247.991 125.847 248.227 125.882 248.351 126.049L249.818 128.024C249.942 128.191 249.907 128.427 249.74 128.551C249.572 128.676 249.336 128.641 249.212 128.473L247.745 126.499ZM247.177 132.454C247.066 132.277 247.119 132.044 247.295 131.933C247.471 131.822 247.704 131.875 247.816 132.051L249.14 134.149C249.251 134.325 249.198 134.558 249.022 134.67C248.846 134.781 248.613 134.728 248.502 134.552L247.177 132.454ZM250.767 130.833C250.656 130.657 250.709 130.424 250.885 130.312C251.061 130.201 251.294 130.254 251.405 130.43L252.729 132.528C252.841 132.705 252.788 132.938 252.612 133.049C252.436 133.16 252.203 133.107 252.091 132.931L250.767 130.833ZM249.699 136.798C249.575 136.63 249.61 136.394 249.777 136.27C249.945 136.145 250.181 136.18 250.305 136.348L251.772 138.322C251.896 138.489 251.861 138.726 251.694 138.85C251.526 138.974 251.29 138.939 251.166 138.772L249.699 136.798ZM253.289 135.177C253.165 135.009 253.2 134.773 253.367 134.649C253.534 134.525 253.771 134.559 253.895 134.727L255.361 136.701C255.486 136.868 255.451 137.105 255.284 137.229C255.116 137.353 254.88 137.318 254.756 137.151L253.289 135.177ZM243.269 111.856C243.158 111.68 243.211 111.447 243.387 111.336C243.563 111.225 243.796 111.278 243.907 111.454L245.232 113.552C245.343 113.728 245.29 113.961 245.114 114.072C244.938 114.184 244.705 114.131 244.593 113.955L243.269 111.856ZM248.813 120.534C248.702 120.358 248.755 120.125 248.931 120.014C249.107 119.903 249.34 119.955 249.451 120.131L250.775 122.23C250.887 122.406 250.834 122.639 250.658 122.75C250.481 122.861 250.248 122.809 250.137 122.632L248.813 120.534ZM245.791 116.2C245.667 116.033 245.702 115.797 245.869 115.673C246.037 115.548 246.273 115.583 246.397 115.75L247.864 117.725C247.988 117.892 247.953 118.129 247.786 118.253C247.618 118.377 247.382 118.342 247.258 118.175L245.791 116.2ZM251.335 124.878C251.211 124.711 251.246 124.474 251.413 124.35C251.58 124.226 251.817 124.261 251.941 124.428L253.407 126.403C253.532 126.57 253.497 126.806 253.329 126.93C253.162 127.055 252.926 127.02 252.802 126.853L251.335 124.878ZM254.357 129.212C254.246 129.036 254.299 128.803 254.475 128.691C254.651 128.58 254.884 128.633 254.995 128.809L256.319 130.907C256.43 131.084 256.378 131.317 256.202 131.428C256.025 131.539 255.792 131.486 255.681 131.31L254.357 129.212ZM256.879 133.556C256.755 133.388 256.79 133.152 256.957 133.028C257.124 132.904 257.361 132.939 257.485 133.106L258.951 135.08C259.075 135.248 259.041 135.484 258.873 135.608C258.706 135.732 258.47 135.697 258.346 135.53L256.879 133.556ZM246.859 110.236C246.748 110.059 246.801 109.826 246.977 109.715C247.153 109.604 247.386 109.657 247.497 109.833L248.821 111.931C248.933 112.107 248.88 112.34 248.704 112.452C248.527 112.563 248.294 112.51 248.183 112.334L246.859 110.236ZM252.403 118.913C252.292 118.737 252.345 118.504 252.521 118.393C252.697 118.282 252.93 118.334 253.041 118.511L254.365 120.609C254.476 120.785 254.424 121.018 254.247 121.129C254.071 121.24 253.838 121.188 253.727 121.011L252.403 118.913ZM249.381 114.579C249.257 114.412 249.292 114.176 249.459 114.052C249.626 113.927 249.863 113.962 249.987 114.13L251.453 116.104C251.578 116.271 251.543 116.508 251.375 116.632C251.208 116.756 250.972 116.721 250.848 116.554L249.381 114.579ZM254.925 123.257C254.801 123.09 254.836 122.854 255.003 122.729C255.17 122.605 255.407 122.64 255.531 122.807L256.997 124.782C257.121 124.949 257.087 125.185 256.919 125.31C256.752 125.434 256.516 125.399 256.391 125.232L254.925 123.257ZM257.947 127.591C257.836 127.415 257.888 127.182 258.065 127.071C258.241 126.959 258.474 127.012 258.585 127.188L259.909 129.287C260.02 129.463 259.968 129.696 259.791 129.807C259.615 129.918 259.382 129.865 259.271 129.689L257.947 127.591ZM260.469 131.935C260.345 131.768 260.38 131.531 260.547 131.407C260.714 131.283 260.95 131.318 261.075 131.485L262.541 133.459C262.665 133.627 262.63 133.863 262.463 133.987C262.296 134.111 262.06 134.077 261.935 133.909L260.469 131.935ZM250.449 108.615C250.338 108.438 250.39 108.205 250.567 108.094C250.743 107.983 250.976 108.036 251.087 108.212L252.411 110.31C252.522 110.486 252.47 110.719 252.293 110.831C252.117 110.942 251.884 110.889 251.773 110.713L250.449 108.615ZM255.993 117.292C255.882 117.116 255.934 116.883 256.111 116.772C256.287 116.661 256.52 116.713 256.631 116.89L257.955 118.988C258.066 119.164 258.013 119.397 257.837 119.508C257.661 119.619 257.428 119.567 257.317 119.391L255.993 117.292ZM252.971 112.958C252.847 112.791 252.882 112.555 253.049 112.431C253.216 112.306 253.452 112.341 253.577 112.509L255.043 114.483C255.167 114.65 255.132 114.887 254.965 115.011C254.798 115.135 254.562 115.1 254.437 114.933L252.971 112.958ZM258.515 121.636C258.391 121.469 258.425 121.233 258.593 121.108C258.76 120.984 258.996 121.019 259.121 121.186L260.587 123.161C260.711 123.328 260.676 123.564 260.509 123.689C260.342 123.813 260.105 123.778 259.981 123.611L258.515 121.636ZM261.537 125.97C261.425 125.794 261.478 125.561 261.654 125.45C261.831 125.338 262.064 125.391 262.175 125.567L263.499 127.666C263.61 127.842 263.557 128.075 263.381 128.186C263.205 128.297 262.972 128.244 262.861 128.068L261.537 125.97ZM264.059 130.314C263.934 130.147 263.969 129.91 264.137 129.786C264.304 129.662 264.54 129.697 264.664 129.864L266.131 131.838C266.255 132.006 266.22 132.242 266.053 132.366C265.886 132.491 265.649 132.456 265.525 132.288L264.059 130.314ZM254.039 106.994C253.928 106.818 253.98 106.585 254.156 106.473C254.333 106.362 254.566 106.415 254.677 106.591L256.001 108.689C256.112 108.866 256.059 109.098 255.883 109.21C255.707 109.321 255.474 109.268 255.363 109.092L254.039 106.994ZM259.583 115.671C259.471 115.495 259.524 115.262 259.7 115.151C259.877 115.04 260.11 115.093 260.221 115.269L261.545 117.367C261.656 117.543 261.603 117.776 261.427 117.887C261.251 117.999 261.018 117.946 260.907 117.77L259.583 115.671ZM256.561 111.338C256.437 111.17 256.471 110.934 256.639 110.81C256.806 110.686 257.042 110.72 257.167 110.888L258.633 112.862C258.757 113.029 258.722 113.266 258.555 113.39C258.388 113.514 258.151 113.479 258.027 113.312L256.561 111.338ZM262.105 120.015C261.98 119.848 262.015 119.612 262.183 119.487C262.35 119.363 262.586 119.398 262.71 119.565L264.177 121.54C264.301 121.707 264.266 121.943 264.099 122.068C263.932 122.192 263.695 122.157 263.571 121.99L262.105 120.015ZM265.126 124.349C265.015 124.173 265.068 123.94 265.244 123.829C265.42 123.718 265.653 123.77 265.765 123.946L267.089 126.045C267.2 126.221 267.147 126.454 266.971 126.565C266.795 126.676 266.562 126.624 266.451 126.447L265.126 124.349ZM267.648 128.693C267.524 128.526 267.559 128.289 267.726 128.165C267.894 128.041 268.13 128.076 268.254 128.243L269.721 130.218C269.845 130.385 269.81 130.621 269.643 130.745C269.475 130.87 269.239 130.835 269.115 130.667L267.648 128.693ZM263.172 114.051C263.061 113.874 263.114 113.641 263.29 113.53C263.466 113.419 263.699 113.472 263.811 113.648L265.135 115.746C265.246 115.922 265.193 116.155 265.017 116.266C264.841 116.378 264.608 116.325 264.497 116.149L263.172 114.051ZM260.151 109.717C260.026 109.549 260.061 109.313 260.228 109.189C260.396 109.065 260.632 109.099 260.756 109.267L262.223 111.241C262.347 111.409 262.312 111.645 262.145 111.769C261.978 111.893 261.741 111.858 261.617 111.691L260.151 109.717ZM265.694 118.394C265.57 118.227 265.605 117.991 265.772 117.867C265.94 117.742 266.176 117.777 266.3 117.944L267.767 119.919C267.891 120.086 267.856 120.323 267.689 120.447C267.521 120.571 267.285 120.536 267.161 120.369L265.694 118.394ZM258.291 106.422L258.929 106.019L258.291 106.422ZM258.291 106.422L257.629 105.373C257.36 104.947 257.998 104.545 258.267 104.97L258.929 106.019L259.591 107.068C259.859 107.494 259.221 107.896 258.953 107.471L258.291 106.422ZM269.378 123.777L270.016 123.375L269.378 123.777ZM270.016 123.375C270.285 123.8 269.647 124.203 269.378 123.777L268.716 122.728C268.448 122.303 269.086 121.9 269.354 122.326L270.016 123.375L270.678 124.424C270.947 124.849 270.309 125.252 270.04 124.826L269.378 123.777C269.11 123.352 269.748 122.949 270.016 123.375ZM271.238 127.072C271.114 126.905 271.149 126.668 271.316 126.544C271.483 126.42 271.72 126.455 271.844 126.622L273.31 128.597C273.435 128.764 273.4 129 273.233 129.124C273.065 129.249 272.829 129.214 272.705 129.047L271.238 127.072ZM126.654 63.5912C126.452 63.5382 126.332 63.3318 126.385 63.1304C126.438 62.9289 126.645 62.8085 126.846 62.8615L129.245 63.4931C129.447 63.5461 129.567 63.7524 129.514 63.9539C129.461 64.1554 129.255 64.2758 129.053 64.2227L126.654 63.5912ZM128.174 59.9575C127.972 59.9045 127.852 59.6981 127.905 59.4966C127.958 59.2951 128.164 59.1748 128.366 59.2278L130.765 59.8594C130.967 59.9124 131.087 60.1187 131.034 60.3202C130.981 60.5217 130.775 60.6421 130.573 60.589L128.174 59.9575ZM136.627 66.1568C136.425 66.1037 136.305 65.8974 136.358 65.6959C136.411 65.4944 136.617 65.3741 136.819 65.4271L139.218 66.0586C139.42 66.1117 139.54 66.318 139.487 66.5195C139.434 66.721 139.228 66.8413 139.026 66.7883L136.627 66.1568ZM138.147 62.5231C137.945 62.47 137.825 62.2637 137.878 62.0622C137.931 61.8607 138.137 61.7403 138.339 61.7934L140.738 62.4249C140.94 62.4779 141.06 62.6843 141.007 62.8858C140.954 63.0873 140.747 63.2076 140.546 63.1546L138.147 62.5231ZM131.461 65.0481C131.256 65.0105 131.12 64.8139 131.158 64.6089C131.196 64.404 131.392 64.2684 131.597 64.306L134.016 64.7499C134.221 64.7875 134.357 64.9841 134.319 65.1891C134.282 65.394 134.085 65.5296 133.88 65.492L131.461 65.0481ZM132.981 61.4144C132.776 61.3768 132.64 61.1802 132.678 60.9752C132.715 60.7703 132.912 60.6347 133.117 60.6723L135.536 61.1162C135.741 61.1538 135.877 61.3504 135.839 61.5554C135.802 61.7603 135.605 61.8959 135.4 61.8583L132.981 61.4144ZM141.434 67.6137C141.229 67.5761 141.093 67.3794 141.131 67.1745C141.168 66.9696 141.365 66.8339 141.57 66.8715L143.989 67.3155C144.194 67.3531 144.329 67.5497 144.292 67.7546C144.254 67.9596 144.058 68.0952 143.853 68.0576L141.434 67.6137ZM142.954 63.98C142.749 63.9423 142.613 63.7457 142.651 63.5408C142.688 63.3359 142.885 63.2002 143.09 63.2378L145.509 63.6818C145.714 63.7194 145.849 63.916 145.812 64.1209C145.774 64.3259 145.578 64.4615 145.373 64.4239L142.954 63.98ZM146.599 68.7223C146.398 68.6693 146.277 68.463 146.331 68.2615C146.384 68.06 146.59 67.9396 146.791 67.9926L149.191 68.6242C149.392 68.6772 149.513 68.8835 149.46 69.085C149.407 69.2865 149.2 69.4069 148.999 69.3539L146.599 68.7223ZM148.119 65.0886C147.918 65.0356 147.797 64.8293 147.85 64.6278C147.903 64.4263 148.11 64.3059 148.311 64.3589L150.711 64.9905C150.912 65.0435 151.033 65.2498 150.98 65.4513C150.926 65.6528 150.72 65.7732 150.519 65.7202L148.119 65.0886ZM151.406 70.1792C151.201 70.1416 151.066 69.945 151.103 69.74C151.141 69.5351 151.338 69.3995 151.542 69.4371L153.962 69.881C154.167 69.9186 154.302 70.1152 154.265 70.3202C154.227 70.5251 154.03 70.6607 153.825 70.6231L151.406 70.1792ZM152.926 66.5455C152.721 66.5079 152.586 66.3113 152.623 66.1063C152.661 65.9014 152.857 65.7658 153.062 65.8034L155.482 66.2473C155.686 66.2849 155.822 66.4815 155.784 66.6865C155.747 66.8914 155.55 67.027 155.345 66.9894L152.926 66.5455ZM129.694 56.3238C129.492 56.2708 129.372 56.0644 129.425 55.8629C129.478 55.6614 129.684 55.5411 129.886 55.5941L132.285 56.2256C132.487 56.2787 132.607 56.485 132.554 56.6865C132.501 56.888 132.295 57.0084 132.093 56.9553L129.694 56.3238ZM139.667 58.8894C139.465 58.8363 139.345 58.63 139.398 58.4285C139.451 58.227 139.657 58.1066 139.859 58.1597L142.258 58.7912C142.459 58.8442 142.58 59.0506 142.527 59.2521C142.474 59.4536 142.267 59.5739 142.066 59.5209L139.667 58.8894ZM134.501 57.7807C134.296 57.7431 134.16 57.5465 134.198 57.3415C134.235 57.1366 134.432 57.0009 134.637 57.0386L137.056 57.4825C137.261 57.5201 137.397 57.7167 137.359 57.9217C137.321 58.1266 137.125 58.2622 136.92 58.2246L134.501 57.7807ZM144.474 60.3462C144.269 60.3086 144.133 60.112 144.171 59.9071C144.208 59.7021 144.405 59.5665 144.61 59.6041L147.029 60.048C147.234 60.0856 147.369 60.2823 147.332 60.4872C147.294 60.6921 147.098 60.8278 146.893 60.7902L144.474 60.3462ZM149.639 61.4549C149.438 61.4019 149.317 61.1955 149.37 60.994C149.423 60.7925 149.63 60.6722 149.831 60.7252L152.231 61.3568C152.432 61.4098 152.553 61.6161 152.499 61.8176C152.446 62.0191 152.24 62.1395 152.039 62.0865L149.639 61.4549ZM154.446 62.9118C154.241 62.8742 154.106 62.6776 154.143 62.4726C154.181 62.2677 154.377 62.1321 154.582 62.1697L157.001 62.6136C157.206 62.6512 157.342 62.8478 157.304 63.0528C157.267 63.2577 157.07 63.3933 156.865 63.3557L154.446 62.9118ZM131.214 52.6901C131.012 52.6371 130.892 52.4307 130.945 52.2292C130.998 52.0277 131.204 51.9074 131.406 51.9604L133.805 52.5919C134.007 52.645 134.127 52.8513 134.074 53.0528C134.021 53.2543 133.815 53.3747 133.613 53.3216L131.214 52.6901ZM141.187 55.2557C140.985 55.2026 140.865 54.9963 140.918 54.7948C140.971 54.5933 141.177 54.4729 141.379 54.526L143.778 55.1575C143.979 55.2105 144.1 55.4169 144.047 55.6184C143.994 55.8199 143.787 55.9402 143.586 55.8872L141.187 55.2557ZM136.021 54.147C135.816 54.1094 135.68 53.9128 135.718 53.7078C135.755 53.5029 135.952 53.3672 136.157 53.4048L138.576 53.8488C138.781 53.8864 138.917 54.083 138.879 54.2879C138.841 54.4929 138.645 54.6285 138.44 54.5909L136.021 54.147ZM145.993 56.7125C145.789 56.6749 145.653 56.4783 145.69 56.2734C145.728 56.0684 145.925 55.9328 146.13 55.9704L148.549 56.4143C148.754 56.4519 148.889 56.6486 148.852 56.8535C148.814 57.0584 148.617 57.1941 148.413 57.1565L145.993 56.7125ZM151.159 57.8212C150.958 57.7682 150.837 57.5618 150.89 57.3603C150.943 57.1588 151.15 57.0385 151.351 57.0915L153.751 57.7231C153.952 57.7761 154.072 57.9824 154.019 58.1839C153.966 58.3854 153.76 58.5058 153.559 58.4527L151.159 57.8212ZM155.966 59.2781C155.761 59.2405 155.626 59.0439 155.663 58.8389C155.701 58.634 155.897 58.4984 156.102 58.536L158.521 58.9799C158.726 59.0175 158.862 59.2141 158.824 59.4191C158.787 59.624 158.59 59.7596 158.385 59.722L155.966 59.2781ZM132.734 49.0564C132.532 49.0034 132.412 48.797 132.465 48.5955C132.518 48.394 132.724 48.2737 132.926 48.3267L135.325 48.9582C135.527 49.0113 135.647 49.2176 135.594 49.4191C135.541 49.6206 135.335 49.741 135.133 49.6879L132.734 49.0564ZM142.706 51.6219C142.505 51.5689 142.385 51.3626 142.438 51.1611C142.491 50.9596 142.697 50.8392 142.899 50.8923L145.298 51.5238C145.499 51.5768 145.62 51.7832 145.567 51.9847C145.514 52.1862 145.307 52.3065 145.106 52.2535L142.706 51.6219ZM137.541 50.5133C137.336 50.4757 137.2 50.2791 137.238 50.0741C137.275 49.8692 137.472 49.7335 137.677 49.7711L140.096 50.2151C140.301 50.2527 140.437 50.4493 140.399 50.6542C140.361 50.8592 140.165 50.9948 139.96 50.9572L137.541 50.5133ZM147.513 53.0788C147.308 53.0412 147.173 52.8446 147.21 52.6397C147.248 52.4347 147.445 52.2991 147.65 52.3367L150.069 52.7806C150.274 52.8182 150.409 53.0149 150.372 53.2198C150.334 53.4247 150.137 53.5604 149.933 53.5228L147.513 53.0788ZM152.679 54.1875C152.478 54.1345 152.357 53.9281 152.41 53.7266C152.463 53.5251 152.67 53.4048 152.871 53.4578L155.271 54.0894C155.472 54.1424 155.592 54.3487 155.539 54.5502C155.486 54.7517 155.28 54.8721 155.079 54.819L152.679 54.1875ZM157.486 55.6444C157.281 55.6068 157.146 55.4102 157.183 55.2052C157.221 55.0003 157.417 54.8646 157.622 54.9022L160.041 55.3462C160.246 55.3838 160.382 55.5804 160.344 55.7854C160.307 55.9903 160.11 56.1259 159.905 56.0883L157.486 55.6444ZM134.254 45.4227C134.052 45.3696 133.932 45.1633 133.985 44.9618C134.038 44.7603 134.244 44.64 134.446 44.693L136.845 45.3245C137.047 45.3776 137.167 45.5839 137.114 45.7854C137.061 45.9869 136.855 46.1073 136.653 46.0542L134.254 45.4227ZM144.226 47.9882C144.025 47.9352 143.905 47.7289 143.958 47.5274C144.011 47.3259 144.217 47.2055 144.418 47.2586L146.818 47.8901C147.019 47.9431 147.14 48.1495 147.087 48.351C147.034 48.5524 146.827 48.6728 146.626 48.6198L144.226 47.9882ZM139.061 46.8796C138.856 46.842 138.72 46.6453 138.758 46.4404C138.795 46.2355 138.992 46.0998 139.197 46.1374L141.616 46.5814C141.821 46.619 141.957 46.8156 141.919 47.0205C141.881 47.2255 141.685 47.3611 141.48 47.3235L139.061 46.8796ZM149.033 49.4451C148.828 49.4075 148.693 49.2109 148.73 49.006C148.768 48.801 148.965 48.6654 149.17 48.703L151.589 49.1469C151.794 49.1845 151.929 49.3812 151.892 49.5861C151.854 49.791 151.657 49.9267 151.452 49.8891L149.033 49.4451ZM154.199 50.5538C153.998 50.5008 153.877 50.2944 153.93 50.0929C153.983 49.8914 154.19 49.7711 154.391 49.8241L156.791 50.4556C156.992 50.5087 157.112 50.715 157.059 50.9165C157.006 51.118 156.8 51.2384 156.598 51.1853L154.199 50.5538ZM159.006 52.0107C158.801 51.9731 158.665 51.7765 158.703 51.5715C158.741 51.3666 158.937 51.2309 159.142 51.2685L161.561 51.7125C161.766 51.7501 161.902 51.9467 161.864 52.1516C161.827 52.3566 161.63 52.4922 161.425 52.4546L159.006 52.0107ZM145.746 44.3545C145.545 44.3015 145.425 44.0952 145.478 43.8937C145.531 43.6922 145.737 43.5718 145.938 43.6249L148.338 44.2564C148.539 44.3094 148.66 44.5158 148.607 44.7173C148.554 44.9187 148.347 45.0391 148.146 44.9861L145.746 44.3545ZM140.581 43.2459C140.376 43.2083 140.24 43.0116 140.278 42.8067C140.315 42.6018 140.512 42.4661 140.717 42.5037L143.136 42.9477C143.341 42.9853 143.477 43.1819 143.439 43.3868C143.401 43.5918 143.205 43.7274 143 43.6898L140.581 43.2459ZM150.553 45.8114C150.348 45.7738 150.213 45.5772 150.25 45.3723C150.288 45.1673 150.485 45.0317 150.69 45.0693L153.109 45.5132C153.314 45.5508 153.449 45.7474 153.412 45.9524C153.374 46.1573 153.177 46.293 152.972 46.2554L150.553 45.8114ZM136.973 42.1047L137.165 41.3751L136.973 42.1047ZM136.973 42.1047L135.774 41.789C135.287 41.6609 135.479 40.9313 135.966 41.0593L137.165 41.3751L138.365 41.6908C138.852 41.8189 138.66 42.5485 138.173 42.4205L136.973 42.1047ZM156.919 47.2359L157.111 46.5062L156.919 47.2359ZM157.111 46.5062C157.597 46.6342 157.405 47.3639 156.919 47.2359L155.719 46.9201C155.233 46.7921 155.425 46.0624 155.911 46.1904L157.111 46.5062L158.31 46.8219C158.797 46.95 158.605 47.6797 158.118 47.5516L156.919 47.2359C156.432 47.1078 156.624 46.3781 157.111 46.5062ZM160.526 48.377C160.321 48.3394 160.185 48.1428 160.223 47.9378C160.261 47.7329 160.457 47.5972 160.662 47.6348L163.081 48.0788C163.286 48.1164 163.422 48.313 163.384 48.5179C163.347 48.7229 163.15 48.8585 162.945 48.8209L160.526 48.377ZM90.0717 56.4895C89.8685 56.4436 89.741 56.2415 89.787 56.0383C89.833 55.8351 90.035 55.7076 90.2382 55.7536L92.6582 56.301C92.8614 56.347 92.9889 56.549 92.9429 56.7522C92.8969 56.9554 92.6949 57.0829 92.4917 57.0369L90.0717 56.4895ZM91.4639 52.805C91.2607 52.759 91.1332 52.557 91.1792 52.3538C91.2252 52.1506 91.4272 52.0231 91.6304 52.069L94.0504 52.6164C94.2536 52.6624 94.3811 52.8644 94.3351 53.0677C94.2891 53.2709 94.0871 53.3984 93.8839 53.3524L91.4639 52.805ZM100.128 58.7055C99.9247 58.6595 99.7972 58.4575 99.8432 58.2543C99.8891 58.051 100.091 57.9236 100.294 57.9695L102.714 58.5169C102.918 58.5629 103.045 58.7649 102.999 58.9681C102.953 59.1714 102.751 59.2988 102.548 59.2529L100.128 58.7055ZM101.52 55.0209C101.317 54.975 101.189 54.773 101.235 54.5697C101.281 54.3665 101.483 54.239 101.687 54.285L104.107 54.8324C104.31 54.8784 104.437 55.0804 104.391 55.2836C104.345 55.4868 104.143 55.6143 103.94 55.5683L101.52 55.0209ZM94.9266 57.7778C94.7205 57.7473 94.5781 57.5556 94.6085 57.3494C94.6389 57.1433 94.8307 57.0009 95.0368 57.0313L97.4699 57.3906C97.6761 57.421 97.8185 57.6128 97.788 57.8189C97.7576 58.025 97.5658 58.1674 97.3597 58.137L94.9266 57.7778ZM96.3188 54.0932C96.1127 54.0628 95.9703 53.871 96.0007 53.6649C96.0311 53.4588 96.2229 53.3163 96.429 53.3468L98.8621 53.706C99.0683 53.7364 99.2107 53.9282 99.1803 54.1343C99.1498 54.3405 98.9581 54.4829 98.7519 54.4525L96.3188 54.0932ZM104.983 59.9937C104.777 59.9633 104.634 59.7715 104.665 59.5654C104.695 59.3593 104.887 59.2168 105.093 59.2473L107.526 59.6065C107.732 59.6369 107.875 59.8287 107.844 60.0348C107.814 60.241 107.622 60.3834 107.416 60.353L104.983 59.9937ZM106.375 56.3092C106.169 56.2787 106.026 56.087 106.057 55.8809C106.087 55.6747 106.279 55.5323 106.485 55.5627L108.918 55.922C109.124 55.9524 109.267 56.1442 109.236 56.3503C109.206 56.5564 109.014 56.6989 108.808 56.6684L106.375 56.3092ZM110.184 60.9214C109.981 60.8755 109.853 60.6734 109.899 60.4702C109.945 60.267 110.147 60.1395 110.351 60.1855L112.77 60.7329C112.974 60.7789 113.101 60.9809 113.055 61.1841C113.009 61.3873 112.807 61.5148 112.604 61.4688L110.184 60.9214ZM111.576 57.2369C111.373 57.1909 111.246 56.9889 111.292 56.7857C111.337 56.5825 111.54 56.455 111.743 56.5009L114.163 57.0483C114.366 57.0943 114.493 57.2963 114.447 57.4996C114.401 57.7028 114.199 57.8303 113.996 57.7843L111.576 57.2369ZM115.039 62.2097C114.833 62.1792 114.69 61.9875 114.721 61.7813C114.751 61.5752 114.943 61.4328 115.149 61.4632L117.582 61.8225C117.788 61.8529 117.931 62.0446 117.9 62.2508C117.87 62.4569 117.678 62.5993 117.472 62.5689L115.039 62.2097ZM116.431 58.5251C116.225 58.4947 116.083 58.3029 116.113 58.0968C116.143 57.8907 116.335 57.7482 116.541 57.7787L118.974 58.1379C119.181 58.1683 119.323 58.3601 119.293 58.5662C119.262 58.7724 119.07 58.9148 118.864 58.8844L116.431 58.5251ZM92.8562 49.1204C92.6529 49.0745 92.5255 48.8724 92.5714 48.6692C92.6174 48.466 92.8194 48.3385 93.0226 48.3845L95.4426 48.9319C95.6458 48.9779 95.7733 49.1799 95.7273 49.3831C95.6814 49.5863 95.4793 49.7138 95.2761 49.6678L92.8562 49.1204ZM102.912 51.3364C102.709 51.2904 102.582 51.0884 102.628 50.8852C102.674 50.682 102.876 50.5545 103.079 50.6005L105.499 51.1479C105.702 51.1938 105.829 51.3958 105.783 51.5991C105.738 51.8023 105.535 51.9298 105.332 51.8838L102.912 51.3364ZM97.711 50.4087C97.5049 50.3783 97.3625 50.1865 97.3929 49.9804C97.4234 49.7742 97.6151 49.6318 97.8212 49.6622L100.254 50.0215C100.46 50.0519 100.603 50.2437 100.572 50.4498C100.542 50.6559 100.35 50.7984 100.144 50.7679L97.711 50.4087ZM107.767 52.6246C107.561 52.5942 107.419 52.4024 107.449 52.1963C107.48 51.9902 107.671 51.8478 107.877 51.8782L110.311 52.2374C110.517 52.2679 110.659 52.4596 110.629 52.6657C110.598 52.8719 110.406 53.0143 110.2 52.9839L107.767 52.6246ZM112.968 53.5524C112.765 53.5064 112.638 53.3044 112.684 53.1011C112.73 52.8979 112.932 52.7704 113.135 52.8164L115.555 53.3638C115.758 53.4098 115.886 53.6118 115.84 53.815C115.794 54.0182 115.592 54.1457 115.388 54.0998L112.968 53.5524ZM117.823 54.8406C117.617 54.8101 117.475 54.6184 117.505 54.4123C117.536 54.2061 117.727 54.0637 117.934 54.0941L120.367 54.4534C120.573 54.4838 120.715 54.6756 120.685 54.8817C120.654 55.0878 120.463 55.2303 120.256 55.1998L117.823 54.8406ZM94.2484 45.4359C94.0452 45.3899 93.9177 45.1879 93.9636 44.9847C94.0096 44.7815 94.2116 44.654 94.4149 44.7L96.8348 45.2474C97.038 45.2933 97.1655 45.4954 97.1195 45.6986C97.0736 45.9018 96.8716 46.0293 96.6683 45.9833L94.2484 45.4359ZM104.305 47.6519C104.101 47.6059 103.974 47.4039 104.02 47.2007C104.066 46.9974 104.268 46.8699 104.471 46.9159L106.891 47.4633C107.094 47.5093 107.222 47.7113 107.176 47.9145C107.13 48.1178 106.928 48.2452 106.724 48.1993L104.305 47.6519ZM99.1033 46.7241C98.8971 46.6937 98.7547 46.5019 98.7851 46.2958C98.8156 46.0897 99.0073 45.9473 99.2135 45.9777L101.647 46.3369C101.853 46.3674 101.995 46.5591 101.965 46.7653C101.934 46.9714 101.742 47.1138 101.536 47.0834L99.1033 46.7241ZM109.159 48.9401C108.953 48.9097 108.811 48.7179 108.841 48.5118C108.872 48.3057 109.063 48.1632 109.27 48.1937L111.703 48.5529C111.909 48.5833 112.051 48.7751 112.021 48.9812C111.99 49.1873 111.799 49.3298 111.593 49.2993L109.159 48.9401ZM114.361 49.8678C114.157 49.8218 114.03 49.6198 114.076 49.4166C114.122 49.2134 114.324 49.0859 114.527 49.1319L116.947 49.6793C117.15 49.7252 117.278 49.9273 117.232 50.1305C117.186 50.3337 116.984 50.4612 116.781 50.4152L114.361 49.8678ZM119.216 51.156C119.009 51.1256 118.867 50.9338 118.897 50.7277C118.928 50.5216 119.12 50.3792 119.326 50.4096L121.759 50.7688C121.965 50.7993 122.107 50.991 122.077 51.1972C122.047 51.4033 121.855 51.5457 121.649 51.5153L119.216 51.156ZM95.6406 41.7514C95.4374 41.7054 95.3099 41.5034 95.3559 41.3002C95.4018 41.0969 95.6038 40.9695 95.8071 41.0154L98.227 41.5628C98.4302 41.6088 98.5577 41.8108 98.5118 42.014C98.4658 42.2173 98.2638 42.3447 98.0605 42.2988L95.6406 41.7514ZM105.697 43.9673C105.494 43.9214 105.366 43.7193 105.412 43.5161C105.458 43.3129 105.66 43.1854 105.863 43.2314L108.283 43.7788C108.486 43.8248 108.614 44.0268 108.568 44.23C108.522 44.4332 108.32 44.5607 108.117 44.5147L105.697 43.9673ZM100.495 43.0396C100.289 43.0092 100.147 42.8174 100.177 42.6113C100.208 42.4052 100.4 42.2627 100.606 42.2932L103.039 42.6524C103.245 42.6828 103.387 42.8746 103.357 43.0807C103.326 43.2868 103.135 43.4293 102.929 43.3988L100.495 43.0396ZM110.552 45.2556C110.346 45.2251 110.203 45.0334 110.234 44.8272C110.264 44.6211 110.456 44.4787 110.662 44.5091L113.095 44.8684C113.301 44.8988 113.443 45.0906 113.413 45.2967C113.383 45.5028 113.191 45.6452 112.985 45.6148L110.552 45.2556ZM115.753 46.1833C115.55 46.1373 115.422 45.9353 115.468 45.7321C115.514 45.5288 115.716 45.4014 115.919 45.4473L118.339 45.9947C118.543 46.0407 118.67 46.2427 118.624 46.4459C118.578 46.6492 118.376 46.7766 118.173 46.7307L115.753 46.1833ZM120.608 47.4715C120.402 47.4411 120.259 47.2493 120.29 47.0432C120.32 46.8371 120.512 46.6946 120.718 46.7251L123.151 47.0843C123.357 47.1147 123.5 47.3065 123.469 47.5126C123.439 47.7187 123.247 47.8612 123.041 47.8307L120.608 47.4715ZM97.0328 38.0668C96.8296 38.0209 96.7021 37.8188 96.7481 37.6156C96.794 37.4124 96.9961 37.2849 97.1993 37.3309L99.6192 37.8783C99.8225 37.9243 99.9499 38.1263 99.904 38.3295C99.858 38.5327 99.656 38.6602 99.4528 38.6142L97.0328 38.0668ZM107.089 40.2828C106.886 40.2368 106.758 40.0348 106.804 39.8316C106.85 39.6284 107.052 39.5009 107.255 39.5468L109.675 40.0942C109.879 40.1402 110.006 40.3422 109.96 40.5455C109.914 40.7487 109.712 40.8762 109.509 40.8302L107.089 40.2828ZM101.888 39.3551C101.682 39.3246 101.539 39.1329 101.57 38.9268C101.6 38.7206 101.792 38.5782 101.998 38.6086L104.431 38.9679C104.637 38.9983 104.78 39.1901 104.749 39.3962C104.719 39.6023 104.527 39.7447 104.321 39.7143L101.888 39.3551ZM111.944 41.571C111.738 41.5406 111.595 41.3488 111.626 41.1427C111.656 40.9366 111.848 40.7941 112.054 40.8246L114.487 41.1838C114.693 41.2142 114.836 41.406 114.805 41.6121C114.775 41.8183 114.583 41.9607 114.377 41.9303L111.944 41.571ZM117.145 42.4987C116.942 42.4528 116.814 42.2507 116.86 42.0475C116.906 41.8443 117.108 41.7168 117.312 41.7628L119.732 42.3102C119.935 42.3562 120.062 42.5582 120.016 42.7614C119.97 42.9646 119.768 43.0921 119.565 43.0461L117.145 42.4987ZM122 43.787C121.794 43.7565 121.651 43.5648 121.682 43.3586C121.712 43.1525 121.904 43.0101 122.11 43.0405L124.543 43.3998C124.749 43.4302 124.892 43.622 124.861 43.8281C124.831 44.0342 124.639 44.1766 124.433 44.1462L122 43.787ZM108.481 36.5982C108.278 36.5523 108.15 36.3503 108.196 36.147C108.242 35.9438 108.444 35.8163 108.648 35.8623L111.068 36.4097C111.271 36.4557 111.398 36.6577 111.352 36.8609C111.306 37.0641 111.104 37.1916 110.901 37.1456L108.481 36.5982ZM103.28 35.6705C103.074 35.6401 102.931 35.4483 102.962 35.2422C102.992 35.0361 103.184 34.8937 103.39 34.9241L105.823 35.2833C106.029 35.3138 106.172 35.5055 106.141 35.7116C106.111 35.9178 105.919 36.0602 105.713 36.0298L103.28 35.6705ZM113.336 37.8865C113.13 37.856 112.988 37.6643 113.018 37.4582C113.048 37.252 113.24 37.1096 113.446 37.14L115.879 37.4993C116.086 37.5297 116.228 37.7215 116.197 37.9276C116.167 38.1337 115.975 38.2761 115.769 38.2457L113.336 37.8865ZM99.635 34.656L99.8015 33.92L99.635 34.656ZM99.635 34.656L98.425 34.3823C97.9344 34.2713 98.1009 33.5354 98.5915 33.6464L99.8015 33.92L101.011 34.1938C101.502 34.3047 101.336 35.0407 100.845 34.9297L99.635 34.656ZM119.747 39.0879L119.914 38.352L119.747 39.0879ZM119.914 38.352C120.404 38.4629 120.238 39.1989 119.747 39.0879L118.537 38.8142C118.047 38.7032 118.213 37.9673 118.704 38.0782L119.914 38.352L121.124 38.6257C121.614 38.7366 121.448 39.4726 120.957 39.3616L119.747 39.0879C119.257 38.9769 119.423 38.241 119.914 38.352ZM123.392 40.1024C123.186 40.072 123.044 39.8802 123.074 39.6741C123.105 39.468 123.296 39.3256 123.502 39.356L125.936 39.7152C126.142 39.7457 126.284 39.9374 126.254 40.1435C126.223 40.3497 126.031 40.4921 125.825 40.4617L123.392 40.1024ZM59.1828 51.1813C58.9788 51.1389 58.8478 50.9391 58.8902 50.7351C58.9326 50.5311 59.1324 50.4001 59.3364 50.4426L61.7655 50.9477C61.9695 50.9901 62.1005 51.1898 62.0581 51.3938C62.0156 51.5978 61.8159 51.7288 61.6119 51.6864L59.1828 51.1813ZM60.5105 47.473C60.3065 47.4306 60.1755 47.2308 60.2179 47.0269C60.2603 46.8229 60.4601 46.6919 60.6641 46.7343L63.0932 47.2394C63.2972 47.2818 63.4282 47.4816 63.3858 47.6855C63.3433 47.8895 63.1436 48.0205 62.9396 47.9781L60.5105 47.473ZM69.276 53.2214C69.0721 53.179 68.9411 52.9792 68.9835 52.7752C69.0259 52.5712 69.2257 52.4403 69.4297 52.4827L71.8588 52.9878C72.0628 53.0302 72.1938 53.2299 72.1514 53.4339C72.1089 53.6379 71.9092 53.7689 71.7052 53.7265L69.276 53.2214ZM70.6038 49.5131C70.3998 49.4707 70.2688 49.271 70.3112 49.067C70.3536 48.863 70.5534 48.732 70.7574 48.7744L73.1865 49.2795C73.3905 49.3219 73.5215 49.5217 73.4791 49.7257C73.4366 49.9297 73.2369 50.0606 73.0329 50.0182L70.6038 49.5131ZM64.0594 52.3846C63.8528 52.3578 63.707 52.1685 63.7338 51.9619C63.7607 51.7553 63.9499 51.6095 64.1565 51.6364L66.5955 51.9531C66.8022 51.9799 66.9479 52.1692 66.9211 52.3758C66.8943 52.5824 66.705 52.7282 66.4984 52.7013L64.0594 52.3846ZM65.3871 48.6763C65.1804 48.6495 65.0347 48.4603 65.0615 48.2536C65.0884 48.047 65.2776 47.9013 65.4842 47.9281L67.9232 48.2448C68.1299 48.2716 68.2756 48.4609 68.2488 48.6675C68.222 48.8741 68.0327 49.0199 67.8261 48.9931L65.3871 48.6763ZM74.1527 54.4247C73.946 54.3979 73.8003 54.2086 73.8271 54.002C73.854 53.7954 74.0432 53.6496 74.2498 53.6765L76.6888 53.9932C76.8955 54.02 77.0412 54.2093 77.0144 54.4159C76.9876 54.6225 76.7983 54.7683 76.5917 54.7414L74.1527 54.4247ZM75.4804 50.7165C75.2737 50.6896 75.128 50.5004 75.1548 50.2937C75.1817 50.0871 75.3709 49.9414 75.5775 49.9682L78.0165 50.2849C78.2232 50.3117 78.3689 50.501 78.3421 50.7076C78.3153 50.9142 78.126 51.06 77.9194 51.0332L75.4804 50.7165ZM79.3693 55.2615C79.1654 55.2191 79.0344 55.0193 79.0768 54.8153C79.1192 54.6114 79.319 54.4804 79.523 54.5228L81.9521 55.0279C82.1561 55.0703 82.2871 55.27 82.2447 55.474C82.2022 55.678 82.0025 55.809 81.7985 55.7666L79.3693 55.2615ZM80.697 51.5532C80.4931 51.5108 80.3621 51.3111 80.4045 51.1071C80.4469 50.9031 80.6467 50.7721 80.8507 50.8145L83.2798 51.3196C83.4838 51.362 83.6148 51.5618 83.5723 51.7658C83.5299 51.9698 83.3302 52.1008 83.1262 52.0583L80.697 51.5532ZM84.246 56.4648C84.0393 56.438 83.8936 56.2487 83.9204 56.0421C83.9473 55.8355 84.1365 55.6897 84.3431 55.7166L86.7821 56.0333C86.9888 56.0601 87.1345 56.2494 87.1077 56.456C87.0809 56.6626 86.8916 56.8084 86.685 56.7816L84.246 56.4648ZM85.5737 52.7566C85.367 52.7297 85.2213 52.5405 85.2481 52.3339C85.275 52.1272 85.4642 51.9815 85.6708 52.0083L88.1098 52.325C88.3165 52.3519 88.4622 52.5411 88.4354 52.7477C88.4086 52.9544 88.2193 53.1001 88.0127 53.0733L85.5737 52.7566ZM61.8382 43.7647C61.6342 43.7223 61.5032 43.5226 61.5456 43.3186C61.588 43.1146 61.7878 42.9836 61.9918 43.026L64.4209 43.5311C64.6249 43.5735 64.7559 43.7733 64.7135 43.9773C64.671 44.1813 64.4713 44.3123 64.2673 44.2698L61.8382 43.7647ZM71.9314 45.8049C71.7275 45.7624 71.5965 45.5627 71.6389 45.3587C71.6813 45.1547 71.8811 45.0237 72.0851 45.0661L74.5142 45.5712C74.7182 45.6136 74.8492 45.8134 74.8068 46.0174C74.7643 46.2214 74.5646 46.3524 74.3606 46.3099L71.9314 45.8049ZM66.7148 44.9681C66.5081 44.9412 66.3624 44.752 66.3892 44.5454C66.4161 44.3387 66.6053 44.193 66.8119 44.2198L69.2509 44.5365C69.4576 44.5634 69.6033 44.7526 69.5765 44.9592C69.5497 45.1659 69.3604 45.3116 69.1538 45.2848L66.7148 44.9681ZM76.8081 47.0082C76.6014 46.9813 76.4557 46.7921 76.4825 46.5855C76.5094 46.3788 76.6986 46.2331 76.9052 46.2599L79.3442 46.5766C79.5509 46.6035 79.6966 46.7927 79.6698 46.9994C79.643 47.206 79.4537 47.3517 79.2471 47.3249L76.8081 47.0082ZM82.0247 47.845C81.8207 47.8025 81.6898 47.6028 81.7322 47.3988C81.7746 47.1948 81.9744 47.0638 82.1783 47.1062L84.6075 47.6113C84.8115 47.6537 84.9425 47.8535 84.9001 48.0575C84.8576 48.2615 84.6579 48.3925 84.4539 48.3501L82.0247 47.845ZM86.9014 49.0483C86.6947 49.0215 86.549 48.8322 86.5758 48.6256C86.6027 48.419 86.7919 48.2732 86.9985 48.3L89.4375 48.6168C89.6442 48.6436 89.7899 48.8328 89.7631 49.0395C89.7363 49.2461 89.547 49.3918 89.3404 49.365L86.9014 49.0483ZM63.1659 40.0565C62.9619 40.0141 62.8309 39.8143 62.8733 39.6103C62.9157 39.4063 63.1155 39.2753 63.3195 39.3177L65.7486 39.8228C65.9526 39.8652 66.0836 40.065 66.0412 40.269C65.9987 40.473 65.799 40.604 65.595 40.5616L63.1659 40.0565ZM73.2591 42.0966C73.0552 42.0542 72.9242 41.8544 72.9666 41.6504C73.009 41.4464 73.2088 41.3154 73.4128 41.3579L75.8419 41.8629C76.0459 41.9053 76.1769 42.1051 76.1345 42.3091C76.092 42.5131 75.8923 42.6441 75.6883 42.6017L73.2591 42.0966ZM68.0425 41.2598C67.8359 41.233 67.6901 41.0437 67.7169 40.8371C67.7438 40.6305 67.933 40.4847 68.1396 40.5115L70.5786 40.8283C70.7853 40.8551 70.931 41.0443 70.9042 41.251C70.8774 41.4576 70.6881 41.6033 70.4815 41.5765L68.0425 41.2598ZM78.1358 43.2999C77.9291 43.2731 77.7834 43.0838 77.8102 42.8772C77.8371 42.6706 78.0263 42.5248 78.2329 42.5516L80.6719 42.8684C80.8786 42.8952 81.0243 43.0844 80.9975 43.2911C80.9707 43.4977 80.7814 43.6435 80.5748 43.6166L78.1358 43.2999ZM83.3524 44.1367C83.1484 44.0943 83.0175 43.8945 83.0599 43.6905C83.1023 43.4865 83.3021 43.3555 83.5061 43.398L85.9352 43.9031C86.1392 43.9455 86.2702 44.1452 86.2278 44.3492C86.1853 44.5532 85.9856 44.6842 85.7816 44.6418L83.3524 44.1367ZM88.2291 45.34C88.0224 45.3132 87.8767 45.1239 87.9035 44.9173C87.9304 44.7107 88.1196 44.5649 88.3262 44.5918L90.7652 44.9085C90.9719 44.9353 91.1176 45.1246 91.0908 45.3312C91.064 45.5378 90.8747 45.6836 90.6681 45.6567L88.2291 45.34ZM64.4936 36.3482C64.2896 36.3058 64.1586 36.106 64.201 35.902C64.2434 35.698 64.4432 35.567 64.6472 35.6095L67.0763 36.1145C67.2803 36.157 67.4113 36.3567 67.3689 36.5607C67.3264 36.7647 67.1267 36.8957 66.9227 36.8533L64.4936 36.3482ZM74.5868 38.3883C74.3829 38.3459 74.2519 38.1461 74.2943 37.9421C74.3367 37.7381 74.5365 37.6072 74.7405 37.6496L77.1696 38.1547C77.3736 38.1971 77.5046 38.3968 77.4622 38.6008C77.4197 38.8048 77.22 38.9358 77.016 38.8934L74.5868 38.3883ZM69.3702 37.5515C69.1636 37.5247 69.0178 37.3354 69.0446 37.1288C69.0715 36.9222 69.2607 36.7764 69.4673 36.8033L71.9063 37.12C72.113 37.1468 72.2587 37.3361 72.2319 37.5427C72.2051 37.7493 72.0158 37.8951 71.8092 37.8682L69.3702 37.5515ZM79.4635 39.5916C79.2568 39.5648 79.1111 39.3755 79.1379 39.1689C79.1648 38.9623 79.354 38.8165 79.5606 38.8434L81.9996 39.1601C82.2063 39.1869 82.352 39.3762 82.3252 39.5828C82.2984 39.7894 82.1091 39.9352 81.9025 39.9083L79.4635 39.5916ZM84.6801 40.4284C84.4761 40.386 84.3452 40.1862 84.3876 39.9823C84.43 39.7783 84.6297 39.6473 84.8337 39.6897L87.2629 40.1948C87.4669 40.2372 87.5979 40.437 87.5555 40.6409C87.513 40.8449 87.3133 40.9759 87.1093 40.9335L84.6801 40.4284ZM89.5568 41.6317C89.3501 41.6049 89.2044 41.4157 89.2312 41.209C89.2581 41.0024 89.4473 40.8567 89.6539 40.8835L92.0929 41.2002C92.2996 41.227 92.4453 41.4163 92.4185 41.6229C92.3917 41.8295 92.2024 41.9753 91.9958 41.9485L89.5568 41.6317ZM65.8213 32.6399C65.6173 32.5975 65.4863 32.3977 65.5287 32.1937C65.5711 31.9897 65.7709 31.8588 65.9749 31.9012L68.404 32.4063C68.608 32.4487 68.739 32.6485 68.6966 32.8525C68.6541 33.0564 68.4544 33.1874 68.2504 33.145L65.8213 32.6399ZM75.9145 34.68C75.7106 34.6376 75.5796 34.4379 75.622 34.2339C75.6644 34.0299 75.8642 33.8989 76.0682 33.9413L78.4973 34.4464C78.7013 34.4888 78.8323 34.6886 78.7899 34.8926C78.7474 35.0966 78.5477 35.2275 78.3437 35.1851L75.9145 34.68ZM70.6979 33.8432C70.4912 33.8164 70.3455 33.6272 70.3723 33.4205C70.3992 33.2139 70.5884 33.0681 70.795 33.095L73.234 33.4117C73.4407 33.4385 73.5864 33.6278 73.5596 33.8344C73.5328 34.041 73.3435 34.1868 73.1369 34.16L70.6979 33.8432ZM80.7912 35.8834C80.5845 35.8565 80.4388 35.6673 80.4656 35.4606C80.4925 35.254 80.6817 35.1083 80.8883 35.1351L83.3273 35.4518C83.534 35.4786 83.6797 35.6679 83.6529 35.8745C83.6261 36.0811 83.4368 36.2269 83.2302 36.2001L80.7912 35.8834ZM86.0078 36.7201C85.8038 36.6777 85.6729 36.478 85.7153 36.274C85.7577 36.07 85.9575 35.939 86.1614 35.9814L88.5906 36.4865C88.7946 36.5289 88.9256 36.7287 88.8832 36.9327C88.8407 37.1367 88.641 37.2677 88.437 37.2252L86.0078 36.7201ZM90.8845 37.9235C90.6778 37.8966 90.5321 37.7074 90.5589 37.5007C90.5858 37.2941 90.775 37.1484 90.9816 37.1752L93.4206 37.4919C93.6273 37.5188 93.773 37.708 93.7462 37.9146C93.7193 38.1213 93.5301 38.267 93.3235 38.2402L90.8845 37.9235ZM77.2422 30.9718C77.0382 30.9293 76.9073 30.7296 76.9497 30.5256C76.9921 30.3216 77.1919 30.1906 77.3959 30.233L79.825 30.7381C80.029 30.7805 80.16 30.9803 80.1176 31.1843C80.0751 31.3883 79.8754 31.5193 79.6714 31.4769L77.2422 30.9718ZM72.0256 30.135C71.8189 30.1081 71.6732 29.9189 71.7 29.7122C71.7269 29.5056 71.9161 29.3599 72.1227 29.3867L74.5617 29.7034C74.7684 29.7303 74.9141 29.9195 74.8873 30.1261C74.8605 30.3328 74.6712 30.4785 74.4646 30.4517L72.0256 30.135ZM82.1189 32.1751C81.9122 32.1482 81.7665 31.959 81.7933 31.7524C81.8202 31.5457 82.0094 31.4 82.216 31.4268L84.655 31.7435C84.8617 31.7704 85.0074 31.9596 84.9806 32.1662C84.9538 32.3729 84.7645 32.5186 84.5579 32.4918L82.1189 32.1751ZM68.3635 29.1842L68.5171 28.4455L68.3635 29.1842ZM68.3635 29.1842L67.149 28.9316C66.6565 28.8292 66.8101 28.0905 67.3026 28.1929L68.5171 28.4455L69.7317 28.698C70.2242 28.8004 70.0706 29.5391 69.5781 29.4367L68.3635 29.1842ZM88.5501 33.2644L88.7037 32.5257L88.5501 33.2644ZM88.7037 32.5257C89.1962 32.6281 89.0426 33.3668 88.5501 33.2644L87.3355 33.0119C86.8431 32.9095 86.9967 32.1707 87.4891 32.2731L88.7037 32.5257L89.9183 32.7782C90.4108 32.8806 90.2572 33.6194 89.7647 33.517L88.5501 33.2644C88.0576 33.162 88.2112 32.4233 88.7037 32.5257ZM92.2122 34.2152C92.0055 34.1884 91.8598 33.9991 91.8866 33.7925C91.9134 33.5859 92.1027 33.4401 92.3093 33.4669L94.7483 33.7837C94.955 33.8105 95.1007 33.9997 95.0739 34.2064C95.0471 34.413 94.8578 34.5587 94.6512 34.5319L92.2122 34.2152ZM86.0532 94.1213C86.0036 94.3237 85.7994 94.4477 85.597 94.3981C85.3947 94.3486 85.2707 94.1444 85.3202 93.942L85.9098 91.532C85.9593 91.3296 86.1635 91.2057 86.3659 91.2552C86.5683 91.3047 86.6922 91.5089 86.6427 91.7113L86.0532 94.1213ZM82.3935 92.665C82.344 92.8674 82.1398 92.9913 81.9374 92.9418C81.735 92.8923 81.611 92.6881 81.6606 92.4857L82.2501 90.0757C82.2996 89.8733 82.5038 89.7494 82.7062 89.7989C82.9086 89.8484 83.0325 90.0526 82.983 90.255L82.3935 92.665ZM88.4443 84.1054C88.3948 84.3078 88.1906 84.4317 87.9882 84.3822C87.7858 84.3327 87.6618 84.1285 87.7113 83.9261L88.3009 81.5161C88.3504 81.3137 88.5546 81.1897 88.757 81.2392C88.9594 81.2888 89.0833 81.493 89.0338 81.6954L88.4443 84.1054ZM84.7846 82.6491C84.7351 82.8515 84.5309 82.9754 84.3285 82.9259C84.1261 82.8764 84.0022 82.6722 84.0517 82.4698L84.6412 80.0598C84.6907 79.8574 84.8949 79.7334 85.0973 79.7829C85.2997 79.8324 85.4237 80.0367 85.3742 80.239L84.7846 82.6491ZM87.4259 89.2897C87.3919 89.4952 87.1977 89.6343 86.9921 89.6003C86.7866 89.5662 86.6475 89.372 86.6815 89.1665L87.0832 86.74C87.1172 86.5344 87.3114 86.3954 87.517 86.4294C87.7225 86.4634 87.8616 86.6576 87.8276 86.8632L87.4259 89.2897ZM83.7662 87.8334C83.7322 88.0389 83.538 88.178 83.3324 88.144C83.1269 88.1099 82.9878 87.9157 83.0218 87.7101L83.4235 85.2837C83.4575 85.0781 83.6517 84.9391 83.8573 84.9731C84.0629 85.0071 84.2019 85.2013 84.1679 85.4069L83.7662 87.8334ZM89.817 79.2737C89.783 79.4793 89.5888 79.6184 89.3832 79.5843C89.1777 79.5503 89.0386 79.3561 89.0726 79.1505L89.4743 76.724C89.5083 76.5185 89.7025 76.3794 89.9081 76.4135C90.1137 76.4475 90.2527 76.6417 90.2187 76.8473L89.817 79.2737ZM86.1574 77.8174C86.1233 78.023 85.9291 78.1621 85.7236 78.128C85.518 78.094 85.3789 77.8998 85.413 77.6942L85.8146 75.2677C85.8486 75.0622 86.0429 74.9231 86.2484 74.9571C86.454 74.9912 86.593 75.1854 86.559 75.391L86.1574 77.8174ZM90.8354 74.0894C90.7859 74.2918 90.5817 74.4158 90.3793 74.3663C90.1769 74.3167 90.053 74.1125 90.1025 73.9101L90.692 71.5001C90.7415 71.2977 90.9457 71.1738 91.1481 71.2233C91.3505 71.2728 91.4745 71.477 91.425 71.6794L90.8354 74.0894ZM87.1757 72.6331C87.1262 72.8355 86.922 72.9595 86.7196 72.91C86.5172 72.8604 86.3933 72.6562 86.4428 72.4538L87.0323 70.0438C87.0819 69.8414 87.2861 69.7175 87.4885 69.767C87.6908 69.8165 87.8148 70.0207 87.7653 70.2231L87.1757 72.6331ZM92.2082 69.2578C92.1741 69.4633 91.9799 69.6024 91.7744 69.5684C91.5688 69.5343 91.4297 69.3401 91.4638 69.1346L91.8654 66.7081C91.8994 66.5025 92.0937 66.3635 92.2992 66.3975C92.5048 66.4315 92.6438 66.6257 92.6098 66.8313L92.2082 69.2578ZM88.5485 67.8015C88.5145 68.007 88.3202 68.1461 88.1147 68.1121C87.9091 68.078 87.7701 67.8838 87.8041 67.6783L88.2057 65.2518C88.2397 65.0462 88.434 64.9072 88.6395 64.9412C88.8451 64.9752 88.9842 65.1694 88.9501 65.375L88.5485 67.8015ZM78.7338 91.2087C78.6843 91.4111 78.4801 91.535 78.2777 91.4855C78.0753 91.436 77.9514 91.2318 78.0009 91.0294L78.5904 88.6194C78.6399 88.417 78.8441 88.2931 79.0465 88.3426C79.2489 88.3921 79.3729 88.5963 79.3234 88.7987L78.7338 91.2087ZM81.1249 81.1928C81.0754 81.3952 80.8712 81.5191 80.6688 81.4696C80.4664 81.4201 80.3425 81.2159 80.392 81.0135L80.9816 78.6035C81.0311 78.4011 81.2353 78.2771 81.4377 78.3266C81.64 78.3761 81.764 78.5804 81.7145 78.7827L81.1249 81.1928ZM80.1066 86.3771C80.0725 86.5826 79.8783 86.7217 79.6728 86.6877C79.4672 86.6536 79.3281 86.4594 79.3622 86.2539L79.7638 83.8274C79.7978 83.6218 79.9921 83.4828 80.1976 83.5168C80.4032 83.5508 80.5422 83.745 80.5082 83.9506L80.1066 86.3771ZM82.4977 76.3611C82.4637 76.5667 82.2694 76.7057 82.0639 76.6717C81.8583 76.6377 81.7193 76.4435 81.7533 76.2379L82.1549 73.8114C82.189 73.6059 82.3832 73.4668 82.5887 73.5008C82.7943 73.5349 82.9334 73.7291 82.8993 73.9346L82.4977 76.3611ZM83.516 71.1768C83.4665 71.3792 83.2623 71.5032 83.0599 71.4536C82.8575 71.4041 82.7336 71.1999 82.7831 70.9975L83.3727 68.5875C83.4222 68.3851 83.6264 68.2612 83.8288 68.3107C84.0312 68.3602 84.1551 68.5644 84.1056 68.7668L83.516 71.1768ZM84.8888 66.3452C84.8548 66.5507 84.6606 66.6898 84.455 66.6558C84.2494 66.6217 84.1104 66.4275 84.1444 66.222L84.546 63.7955C84.5801 63.5899 84.7743 63.4509 84.9799 63.4849C85.1854 63.5189 85.3245 63.7131 85.2905 63.9187L84.8888 66.3452ZM75.0741 89.7524C75.0246 89.9548 74.8204 90.0787 74.618 90.0292C74.4156 89.9797 74.2917 89.7755 74.3412 89.5731L74.9308 87.1631C74.9803 86.9607 75.1845 86.8368 75.3869 86.8863C75.5893 86.9358 75.7132 87.14 75.6637 87.3424L75.0741 89.7524ZM77.4652 79.7365C77.4157 79.9389 77.2115 80.0628 77.0091 80.0133C76.8067 79.9638 76.6828 79.7596 76.7323 79.5572L77.3219 77.1471C77.3714 76.9448 77.5756 76.8208 77.778 76.8703C77.9804 76.9198 78.1043 77.124 78.0548 77.3264L77.4652 79.7365ZM76.4469 84.9208C76.4129 85.1263 76.2186 85.2654 76.0131 85.2313C75.8075 85.1973 75.6685 85.0031 75.7025 84.7975L76.1041 82.3711C76.1382 82.1655 76.3324 82.0264 76.5379 82.0605C76.7435 82.0945 76.8826 82.2887 76.8485 82.4943L76.4469 84.9208ZM78.838 74.9048C78.804 75.1104 78.6098 75.2494 78.4042 75.2154C78.1986 75.1814 78.0596 74.9872 78.0936 74.7816L78.4952 72.3551C78.5293 72.1496 78.7235 72.0105 78.9291 72.0445C79.1346 72.0786 79.2737 72.2728 79.2397 72.4783L78.838 74.9048ZM79.8564 69.7205C79.8068 69.9229 79.6026 70.0468 79.4002 69.9973C79.1979 69.9478 79.0739 69.7436 79.1234 69.5412L79.713 67.1312C79.7625 66.9288 79.9667 66.8049 80.1691 66.8544C80.3715 66.9039 80.4954 67.1081 80.4459 67.3105L79.8564 69.7205ZM81.2291 64.8889C81.1951 65.0944 81.0009 65.2335 80.7953 65.1995C80.5898 65.1654 80.4507 64.9712 80.4847 64.7656L80.8864 62.3392C80.9204 62.1336 81.1146 61.9946 81.3202 62.0286C81.5257 62.0626 81.6648 62.2568 81.6308 62.4624L81.2291 64.8889ZM71.4144 88.2961C71.3649 88.4985 71.1607 88.6224 70.9583 88.5729C70.7559 88.5234 70.632 88.3192 70.6815 88.1168L71.2711 85.7068C71.3206 85.5044 71.5248 85.3805 71.7272 85.43C71.9296 85.4795 72.0535 85.6837 72.004 85.8861L71.4144 88.2961ZM73.8056 78.2802C73.756 78.4826 73.5518 78.6065 73.3494 78.557C73.1471 78.5075 73.0231 78.3033 73.0726 78.1009L73.6622 75.6908C73.7117 75.4884 73.9159 75.3645 74.1183 75.414C74.3207 75.4635 74.4446 75.6677 74.3951 75.8701L73.8056 78.2802ZM72.7872 83.4644C72.7532 83.67 72.559 83.8091 72.3534 83.775C72.1478 83.741 72.0088 83.5468 72.0428 83.3412L72.4444 80.9148C72.4785 80.7092 72.6727 80.5701 72.8783 80.6042C73.0838 80.6382 73.2229 80.8324 73.1889 81.038L72.7872 83.4644ZM75.1783 73.4485C75.1443 73.6541 74.9501 73.7931 74.7445 73.7591C74.539 73.7251 74.3999 73.5308 74.4339 73.3253L74.8356 70.8988C74.8696 70.6932 75.0638 70.5542 75.2694 70.5882C75.4749 70.6222 75.614 70.8165 75.58 71.022L75.1783 73.4485ZM76.1967 68.2642C76.1472 68.4666 75.943 68.5905 75.7406 68.541C75.5382 68.4915 75.4142 68.2873 75.4637 68.0849L76.0533 65.6749C76.1028 65.4725 76.307 65.3486 76.5094 65.3981C76.7118 65.4476 76.8357 65.6518 76.7862 65.8542L76.1967 68.2642ZM77.5694 63.4326C77.5354 63.6381 77.3412 63.7772 77.1356 63.7431C76.9301 63.7091 76.791 63.5149 76.825 63.3093L77.2267 60.8829C77.2607 60.6773 77.4549 60.5382 77.6605 60.5723C77.8661 60.6063 78.0051 60.8005 77.9711 61.0061L77.5694 63.4326ZM67.7548 86.8398C67.7052 87.0422 67.501 87.1661 67.2986 87.1166C67.0963 87.0671 66.9723 86.8629 67.0218 86.6605L67.6114 84.2505C67.6609 84.0481 67.8651 83.9242 68.0675 83.9737C68.2699 84.0232 68.3938 84.2274 68.3443 84.4298L67.7548 86.8398ZM70.1459 76.8238C70.0964 77.0262 69.8922 77.1502 69.6898 77.1007C69.4874 77.0512 69.3634 76.847 69.413 76.6446L70.0025 74.2345C70.052 74.0321 70.2562 73.9082 70.4586 73.9577C70.661 74.0072 70.7849 74.2114 70.7354 74.4138L70.1459 76.8238ZM69.1275 82.0081C69.0935 82.2137 68.8993 82.3528 68.6937 82.3187C68.4882 82.2847 68.3491 82.0905 68.3831 81.8849L68.7848 79.4585C68.8188 79.2529 69.013 79.1138 69.2186 79.1479C69.4241 79.1819 69.5632 79.3761 69.5292 79.5817L69.1275 82.0081ZM71.5187 71.9922C71.4846 72.1978 71.2904 72.3368 71.0848 72.3028C70.8793 72.2688 70.7402 72.0745 70.7742 71.869L71.1759 69.4425C71.2099 69.2369 71.4041 69.0979 71.6097 69.1319C71.8153 69.1659 71.9543 69.3602 71.9203 69.5657L71.5187 71.9922ZM72.537 66.8079C72.4875 67.0103 72.2833 67.1342 72.0809 67.0847C71.8785 67.0352 71.7546 66.831 71.8041 66.6286L72.3936 64.2186C72.4431 64.0162 72.6473 63.8923 72.8497 63.9418C73.0521 63.9913 73.1761 64.1955 73.1266 64.3979L72.537 66.8079ZM73.9098 61.9762C73.8757 62.1818 73.6815 62.3209 73.476 62.2868C73.2704 62.2528 73.1313 62.0586 73.1654 61.853L73.567 59.4265C73.601 59.221 73.7953 59.0819 74.0008 59.116C74.2064 59.15 74.3454 59.3442 74.3114 59.5498L73.9098 61.9762ZM66.4862 75.3675C66.4367 75.5699 66.2325 75.6939 66.0301 75.6444C65.8277 75.5948 65.7038 75.3906 65.7533 75.1882L66.3428 72.7782C66.3923 72.5758 66.5965 72.4519 66.7989 72.5014C67.0013 72.5509 67.1253 72.7551 67.0758 72.9575L66.4862 75.3675ZM65.4679 80.5518C65.4338 80.7574 65.2396 80.8964 65.034 80.8624C64.8285 80.8284 64.6894 80.6342 64.7234 80.4286L65.1251 78.0021C65.1591 77.7966 65.3533 77.6575 65.5589 77.6915C65.7645 77.7256 65.9035 77.9198 65.8695 78.1254L65.4679 80.5518ZM67.859 70.5359C67.8249 70.7414 67.6307 70.8805 67.4252 70.8465C67.2196 70.8125 67.0805 70.6182 67.1146 70.4127L67.5162 67.9862C67.5502 67.7806 67.7445 67.6416 67.95 67.6756C68.1556 67.7096 68.2946 67.9039 68.2606 68.1094L67.859 70.5359ZM64.3899 84.1785L63.6569 83.9992L64.3899 84.1785ZM64.3899 84.1785L64.0951 85.3835C63.9755 85.8721 63.2426 85.6928 63.3622 85.2042L63.6569 83.9992L63.9517 82.7942C64.0712 82.3056 64.8042 82.4848 64.6846 82.9735L64.3899 84.1785ZM69.1721 64.1466L68.4392 63.9673L69.1721 64.1466ZM68.4392 63.9673C68.5587 63.4787 69.2916 63.658 69.1721 64.1466L68.8773 65.3516C68.7578 65.8402 68.0249 65.6609 68.1444 65.1723L68.4392 63.9673L68.7339 62.7623C68.8535 62.2737 69.5864 62.4529 69.4669 62.9416L69.1721 64.1466C69.0526 64.6352 68.3196 64.4559 68.4392 63.9673ZM70.2501 60.5199C70.2161 60.7255 70.0218 60.8646 69.8163 60.8305C69.6107 60.7965 69.4717 60.6023 69.5057 60.3967L69.9073 57.9703C69.9414 57.7647 70.1356 57.6256 70.3411 57.6597C70.5467 57.6937 70.6858 57.8879 70.6517 58.0935L70.2501 60.5199Z" fill="#002D6F"/>
</g>
<path d="M171.887 97.7774C143.68 92.7846 132.579 77.3598 136.753 53.5972C140.909 29.9367 156.578 19.3553 184.785 24.3481C212.89 29.323 224.092 44.7657 219.954 68.3243C215.798 91.9849 199.993 102.752 171.887 97.7774ZM174.576 82.4651C190.771 85.3316 199.571 78.5479 201.927 65.133C204.266 51.8205 198.289 42.5268 182.095 39.6604C165.901 36.7939 157.136 43.3728 154.78 56.7877C152.406 70.305 158.382 79.5987 174.576 82.4651Z" fill="#56AAFF"/>
<path d="M171.887 97.7774C143.68 92.7846 132.579 77.3598 136.753 53.5972C140.909 29.9367 156.578 19.3553 184.785 24.3481C212.89 29.323 224.092 44.7657 219.954 68.3243C215.798 91.9849 199.993 102.752 171.887 97.7774ZM174.576 82.4651C190.771 85.3316 199.571 78.5479 201.927 65.133C204.266 51.8205 198.289 42.5268 182.095 39.6604C165.901 36.7939 157.136 43.3728 154.78 56.7877C152.406 70.305 158.382 79.5987 174.576 82.4651Z" fill="#56AAFF"/>
<path d="M145.086 34.1857C150.076 36.4968 157.642 39.6937 163.669 42.0385C158.96 44.9665 156.071 50.0256 154.864 56.8681C152.486 70.3559 158.493 79.6329 174.759 82.5011C191.025 85.3692 199.861 78.604 202.221 65.2183C204.073 54.7192 200.708 46.723 191.184 42.4159L204.573 31.0013C218.271 38.651 223.325 51.4166 220.328 68.4115C216.165 92.0205 200.296 102.758 172.065 97.78C143.733 92.7842 132.577 77.3864 136.757 53.6757C138.176 45.6296 140.939 39.1 145.086 34.1857Z" fill="#56AAFF"/>
<path fill-rule="evenodd" clip-rule="evenodd" d="M183.035 10.184C182.083 9.37558 181.413 8.22873 181.226 6.89517C180.82 4.00653 182.832 1.33572 185.721 0.929745C188.61 0.523773 191.28 2.53637 191.686 5.42502C192.092 8.31366 190.08 10.9845 187.191 11.3904C186.878 11.4345 186.567 11.4501 186.262 11.4392C192.221 14.1524 194.549 17.8631 193.247 22.5713C191.612 28.4818 191.612 32.9461 193.247 35.9643L161.934 29.928C163.765 27.4572 164.896 25.5708 165.329 24.269C167.47 17.8257 167.492 13.5168 167.781 13.5168C168.159 13.5168 172.56 12.1964 180.986 9.55551C181.699 9.75668 182.382 9.96616 183.035 10.184Z" fill="#002D6F"/>
<path d="M191.545 22.383C191.57 16.3466 187.37 10.9145 181.233 9.60991L179.387 9.21772C172.356 7.72317 165.445 12.2116 163.95 19.2429L163.126 23.1177C162.087 28.009 165.209 32.8171 170.1 33.8568L174.751 34.8453L172.093 47.3939C173.495 48.9541 175.642 49.9857 178.534 50.4887C181.426 50.9917 183.866 50.6804 185.852 49.5548L190.475 27.5102C190.81 26.7316 191.075 25.9086 191.258 25.0474C191.446 24.1618 191.539 23.2781 191.545 22.4069L191.55 22.3823L191.545 22.383Z" fill="#FF9C99"/>
<mask id="mask2_761_2148" style="mask-type:alpha" maskUnits="userSpaceOnUse" x="162" y="8" width="30" height="43">
<path d="M191.545 22.3827C191.57 16.3464 187.37 10.9143 181.233 9.60967L179.387 9.21748C172.356 7.72293 165.445 12.2114 163.95 19.2427L163.126 23.1174C162.087 28.0088 165.209 32.8168 170.1 33.8565L174.751 34.8451L172.093 47.3937C173.495 48.9538 175.642 49.9855 178.534 50.4885C181.426 50.9915 183.866 50.6802 185.852 49.5546L190.475 27.5099C190.81 26.7314 191.075 25.9083 191.258 25.0471C191.446 24.1615 191.539 23.2778 191.545 22.4066L191.55 22.382L191.545 22.3827Z" fill="#FF9C99"/>
</mask>
<g mask="url(#mask2_761_2148)">
<path fill-rule="evenodd" clip-rule="evenodd" d="M174.385 34.8319L181.553 34.6433L173.63 37.0955L174.385 34.8319ZM164.441 16.9354C165.934 13.2906 167.647 10.7562 169.582 9.33203C171.516 7.90789 175.121 6.52689 180.396 5.18905L195.937 15.7391L190.419 30.682L189.098 35.2092L187.521 27.7953L179.923 20.2262L174.405 19.0532L174.863 16.8961L171.186 18.369L164.441 16.9354Z" fill="#002D6F"/>
</g>
<path d="M125.307 137.567L119.188 158.907L99.4777 153.256L94.8882 169.261L69.5471 161.995L74.1365 145.989L4.58909 126.047L10.7084 104.706L97.7281 63.7156L123.069 70.9821L105.597 131.915L125.307 137.567ZM38.2721 112.602L80.3399 124.665L90.6348 88.7622L38.2721 112.602Z" fill="#56AAFF"/>
<mask id="mask3_761_2148" style="mask-type:alpha" maskUnits="userSpaceOnUse" x="4" y="63" width="122" height="107">
<path d="M125.307 137.567L119.188 158.907L99.4777 153.256L94.8882 169.261L69.5471 161.995L74.1365 145.989L4.58909 126.047L10.7084 104.706L97.7281 63.7156L123.069 70.9821L105.597 131.915L125.307 137.567ZM38.2721 112.602L80.3399 124.665L90.6348 88.7622L38.2721 112.602Z" fill="#56AAFF"/>
</mask>
<g mask="url(#mask3_761_2148)">
<path fill-rule="evenodd" clip-rule="evenodd" d="M57.808 120.661L60.8261 150.654L53.8467 168.574L66.1079 175.554L86.1031 192.908L90.4417 189.324C93.5463 186.037 95.3069 183.333 95.7234 181.213C96.14 179.092 102.868 179.092 115.907 181.213L90.4417 111.607L57.808 120.661Z" fill="#002D6F"/>
</g>
<path d="M331.412 124L343.177 142.827L325.788 153.693L334.611 167.813L312.255 181.783L303.431 167.663L242.075 206.002L230.311 187.175L258.076 95.079L280.433 81.109L314.024 134.866L331.412 124ZM254.622 171.975L291.735 148.784L271.943 117.11L254.622 171.975Z" fill="#56AAFF"/>
<mask id="mask4_761_2148" style="mask-type:alpha" maskUnits="userSpaceOnUse" x="230" y="81" width="114" height="126">
<path d="M331.412 124L343.177 142.827L325.788 153.692L334.611 167.813L312.255 181.783L303.431 167.662L242.075 206.002L230.311 187.175L258.076 95.0786L280.433 81.1087L314.024 134.865L331.412 124ZM254.622 171.975L291.735 148.784L271.943 117.109L254.622 171.975Z" fill="#56AAFF"/>
</mask>
<g mask="url(#mask4_761_2148)">
<path fill-rule="evenodd" clip-rule="evenodd" d="M241.538 162.16C241.035 162.16 237.954 172.912 232.295 194.417L242.293 209.507L276.813 194.605L271.342 159.519C251.976 161.28 242.041 162.16 241.538 162.16Z" fill="#002D6F"/>
</g>
<path fill-rule="evenodd" clip-rule="evenodd" d="M171.177 18.4214L162.312 16.5351C166.713 9.49274 172.686 7.10338 180.232 9.36699C186.609 11.28 181.588 11.092 172.875 14.0828C171.811 14.4482 171.245 15.8944 171.177 18.4214Z" fill="#002D6F"/>
<path d="M165.464 21.39C165.5 21.5738 165.518 21.7832 165.518 22.0053C165.518 22.7341 165.321 23.3258 164.952 23.3258C164.583 23.3258 164.386 22.7341 164.386 22.0053C164.386 21.6532 164.432 21.3331 164.521 21.0963C163.617 20.8846 162.837 20.9009 162.135 21.1399C161.937 21.207 161.723 21.1016 161.656 20.9043C161.589 20.7071 161.694 20.4927 161.892 20.4256C162.956 20.0631 164.14 20.1279 165.526 20.6036C166.194 20.8327 166.964 21.4064 167.856 22.3227C168.001 22.472 167.998 22.7109 167.849 22.8562C167.699 23.0016 167.46 22.9984 167.315 22.8491C166.589 22.1029 165.967 21.617 165.464 21.39ZM175.993 23.8829C176.052 24.0985 176.082 24.3619 176.082 24.6462C176.082 25.375 175.884 25.9666 175.516 25.9666C175.147 25.9666 174.95 25.375 174.95 24.6462C174.95 24.2574 175.006 23.9077 175.114 23.6659C174.355 23.5335 173.686 23.5729 173.075 23.7807C172.878 23.8479 172.664 23.7424 172.597 23.5452C172.53 23.348 172.635 23.1336 172.832 23.0665C173.897 22.704 175.081 22.7687 176.467 23.2445C177.134 23.4735 177.904 24.0473 178.796 24.9636C178.942 25.1129 178.939 25.3518 178.789 25.4971C178.64 25.6424 178.401 25.6392 178.256 25.4899C177.439 24.6508 176.755 24.1409 176.222 23.9581C176.145 23.9316 176.069 23.9066 175.993 23.8829ZM171.121 22.7698L168.954 26.2691L170.308 26.5399C170.512 26.5807 170.645 26.7795 170.604 26.9838C170.563 27.1881 170.364 27.3206 170.16 27.2797L168.274 26.9025C168.016 26.8509 167.888 26.5577 168.027 26.334L170.479 22.3726C170.589 22.1955 170.821 22.1408 170.998 22.2504C171.176 22.3601 171.23 22.5926 171.121 22.7698ZM167.818 29.3603C167.611 29.3804 167.426 29.2285 167.406 29.0211C167.386 28.8137 167.538 28.6293 167.745 28.6093L173.593 28.0434C173.8 28.0233 173.985 28.1751 174.005 28.3825C174.025 28.5899 173.873 28.7743 173.666 28.7944L167.818 29.3603Z" fill="#002D6F"/>
<path fill-rule="evenodd" clip-rule="evenodd" d="M183.895 25.1204C185.832 23.1835 187.694 23.0345 189.482 24.6734C192.164 27.1318 189.128 31.7276 185.929 31.6592C183.796 31.6136 183.118 29.434 183.895 25.1204Z" fill="#FF9C99"/>
<path fill-rule="evenodd" clip-rule="evenodd" d="M65.7101 120.491L62.5769 128.101C61.9754 129.562 60.6251 130.578 59.0548 130.753C58.8483 130.776 58.6394 130.763 58.4374 130.715C57.4695 130.483 56.8723 129.511 57.1034 128.544L62.5445 105.759L63.3878 105.394C67.5848 103.579 72.2572 103.175 76.7035 104.242C85.9125 106.452 91.1276 109.033 92.3487 111.984C93.7782 115.438 96.6181 124.027 100.868 137.749C101.258 139.007 100.554 140.342 99.2964 140.732C99.2756 140.738 99.2548 140.745 99.2339 140.75C97.8995 141.124 96.5008 140.416 96.0118 139.12L89.6179 122.168C89.1464 120.918 87.7519 120.286 86.5011 120.755C85.2195 121.236 84.5167 122.615 84.8811 123.934L88.8362 138.255C89.2866 139.886 88.3297 141.573 86.6989 142.023C86.6335 142.041 86.5675 142.057 86.5011 142.071C84.6978 142.442 82.9162 141.349 82.4303 139.573L78.5087 125.239C78.1547 123.945 76.819 123.183 75.5252 123.537C75.4735 123.551 75.4223 123.567 75.3717 123.585C73.9724 124.069 73.1557 125.523 73.4697 126.97L76.655 141.65C76.8972 142.766 76.1888 143.867 75.0727 144.109C74.8612 144.155 74.6438 144.167 74.4285 144.146C72.7305 143.976 71.3211 142.76 70.9042 141.105L65.7101 120.491ZM259.539 153.952C262.718 153.251 266.04 154.111 268.479 156.266L272.801 160.085L268.651 170.083L259.585 192.86C258.986 194.365 257.31 195.133 255.78 194.605C255.746 194.594 255.713 194.582 255.679 194.569C254.246 194.012 253.535 192.399 254.092 190.965L259.819 176.216C259.852 176.133 259.878 176.046 259.898 175.959C260.123 174.97 259.504 173.986 258.515 173.761C258.505 173.759 258.496 173.757 258.487 173.755C257.353 173.514 256.238 174.237 255.997 175.371L252.73 190.709C252.722 190.749 252.712 190.789 252.702 190.829C252.303 192.376 250.725 193.307 249.177 192.908C247.53 192.482 246.49 190.857 246.796 189.183L249.631 173.67C249.825 172.606 249.163 171.575 248.115 171.309C248.027 171.287 247.938 171.272 247.848 171.265C246.954 171.192 246.17 171.857 246.097 172.751L244.842 188.089C244.84 188.118 244.837 188.148 244.834 188.178C244.631 190.055 242.944 191.413 241.066 191.21C239.124 191 237.711 189.27 237.893 187.325C239.15 173.911 240.473 165.523 241.865 162.16C243.173 158.999 249.064 156.263 259.539 153.952Z" fill="#FF9C99"/>
<path fill-rule="evenodd" clip-rule="evenodd" d="M167.027 265.155L126.282 291.941L96.8555 209.508L167.027 265.155ZM270.21 282.698L209.847 279.113L198.152 179.703L230.597 187.249L270.21 282.698Z" fill="#FF567B"/>
<path d="M189.316 99.6813C189.234 99.4895 189.324 99.268 189.515 99.1866C189.707 99.1052 189.929 99.1947 190.01 99.3865C193.373 107.309 197.906 111.229 203.622 111.229C203.83 111.229 203.999 111.398 203.999 111.606C203.999 111.815 203.83 111.984 203.622 111.984C197.558 111.984 192.785 107.856 189.316 99.6813ZM183.223 126.357C183.411 126.446 183.491 126.672 183.401 126.86C183.311 127.048 183.086 127.127 182.898 127.038L174.598 123.076C174.41 122.987 174.33 122.761 174.42 122.573C174.51 122.385 174.735 122.306 174.923 122.395L183.223 126.357ZM159.676 63.9477C159.64 63.7425 159.776 63.5468 159.982 63.5106C160.187 63.4744 160.383 63.6113 160.419 63.8165L161.551 70.2301C161.587 70.4353 161.45 70.631 161.245 70.6672C161.039 70.7034 160.844 70.5664 160.808 70.3612L159.676 63.9477Z" fill="#002D6F"/>
<path d="M82.5189 131.413C84.7067 131.413 86.4802 129.64 86.4802 127.452C86.4802 125.264 84.7067 123.491 82.5189 123.491C80.3312 123.491 78.5576 125.264 78.5576 127.452C78.5576 129.64 80.3312 131.413 82.5189 131.413Z" fill="#FFE694"/>
<path fill-rule="evenodd" clip-rule="evenodd" d="M38.7128 191.653L43.723 194.572L47.9987 191.399L46.9927 196.476L50.2623 197.872L47.4957 199.776L48.6275 204.6L44.3518 201.807L41.2079 204.98L40.5791 200.538C37.9801 199.353 36.6807 198.761 36.6807 198.761C36.6807 198.761 37.9801 197.999 40.5791 196.476L38.7128 191.653ZM283.131 210.635L290.61 207.648L290.794 200.255L295.49 205.698L299.814 203.313L299.532 207.969L305.779 210.855L299.067 213.147L299.851 219.301L294.451 216.19C290.933 218.022 289.173 218.937 289.173 218.937C289.173 218.937 289.451 216.864 290.006 212.717L283.131 210.635ZM160.455 195.171L167.97 199.51L174.383 194.794L172.874 202.34L177.779 204.415L173.629 207.244L175.327 214.412L168.913 210.262L164.197 214.978L163.254 208.376C159.356 206.615 157.406 205.735 157.406 205.735C157.406 205.735 159.356 204.603 163.254 202.34L160.455 195.171ZM130.823 103.379L135.972 106.38L140.366 103.118L139.332 108.336L142.693 109.771L139.849 111.728L141.013 116.686L136.618 113.816L133.387 117.077L132.741 112.511C130.07 111.293 128.734 110.685 128.734 110.685C128.734 110.685 130.07 109.902 132.741 108.336L130.823 103.379Z" fill="#56AAFF"/>
</svg>
