<svg  viewBox="0 0 25 25" fill="none" xmlns="http://www.w3.org/2000/svg">
<path d="M10.5 7.5249L9.98415 8.91895C9.30774 10.7469 8.96953 11.6609 8.30278 12.3277C7.63603 12.9944 6.72204 13.3326 4.89405 14.0091L3.5 14.5249L4.89405 15.0407C6.72204 15.7172 7.63603 16.0554 8.30278 16.7221C8.96953 17.3889 9.30774 18.3029 9.98415 20.1308L10.5 21.5249L11.0158 20.1308C11.6923 18.3029 12.0305 17.3889 12.6972 16.7221C13.364 16.0554 14.278 15.7172 16.1059 15.0407L17.5 14.5249L16.1059 14.0091C14.278 13.3326 13.364 12.9944 12.6972 12.3277C12.0305 11.6609 11.6923 10.7469 11.0158 8.91895L10.5 7.5249Z" stroke="currentColor" stroke-width="1.5" stroke-linejoin="round"/>
<path d="M18.5 3.5249L18.2789 4.12235C17.989 4.90577 17.8441 5.29749 17.5583 5.58323C17.2726 5.86898 16.8809 6.01393 16.0975 6.30382L15.5 6.5249L16.0975 6.74598C16.8809 7.03587 17.2726 7.18082 17.5583 7.46657C17.8441 7.75231 17.989 8.14403 18.2789 8.92745L18.5 9.5249L18.7211 8.92745C19.011 8.14403 19.1559 7.75231 19.4417 7.46656C19.7274 7.18082 20.1191 7.03587 20.9025 6.74598L21.5 6.5249L20.9025 6.30382C20.1191 6.01393 19.7274 5.86898 19.4417 5.58323C19.1559 5.29749 19.011 4.90577 18.7211 4.12235L18.5 3.5249Z" stroke="currentColor" stroke-width="1.5" stroke-linejoin="round"/>
</svg>
