<svg xmlns="http://www.w3.org/2000/svg" width="124" height="38" viewBox="0 0 124 38" fill="none">
  <g clip-path="url(#clip0_1507_6344)">
    <path fill-rule="evenodd" clip-rule="evenodd" d="M76.7152 29.788C69.5328 35.0758 59.1224 37.897 50.1592 37.897C37.5914 37.897 26.2771 33.2541 17.7175 25.532C17.045 24.9248 17.6475 24.0972 18.4545 24.5701C27.6921 29.9385 39.114 33.1681 50.9124 33.1681C58.8695 33.1681 67.6229 31.5237 75.6714 28.1114C76.8873 27.5955 77.9042 28.9067 76.7152 29.788Z" fill="#43433C"/>
    <path fill-rule="evenodd" clip-rule="evenodd" d="M79.7011 26.3757C78.7865 25.2042 73.6324 25.8222 71.319 26.0962C70.6142 26.1822 70.5066 25.5696 71.1414 25.1289C75.2464 22.2433 81.9822 23.0762 82.7677 24.0435C83.5532 25.0161 82.5633 31.7601 78.7058 34.979C78.114 35.4734 77.5491 35.2101 77.8127 34.5545C78.6789 32.3942 80.6211 27.5525 79.7011 26.3757Z" fill="#43433C"/>
    <path fill-rule="evenodd" clip-rule="evenodd" d="M71.4804 4.7571V1.95201C71.4804 1.52748 71.8032 1.24268 72.1905 1.24268H84.7637C85.1672 1.24268 85.49 1.53286 85.49 1.95201V4.35407C85.4847 4.7571 85.1457 5.28373 84.5431 6.11665L78.0279 15.4078C80.4489 15.3487 83.0045 15.7088 85.1995 16.9447C85.6945 17.2242 85.829 17.6326 85.8666 18.0356V21.0288C85.8666 21.4372 85.4147 21.9154 84.9413 21.6683C81.073 19.6424 75.9351 19.422 71.6579 21.6897C71.2221 21.9262 70.7648 21.4533 70.7648 21.0449V18.2022C70.7648 17.7454 70.7702 16.9662 71.2275 16.273L78.7757 5.46106H72.2067C71.8032 5.46106 71.4804 5.17625 71.4804 4.7571Z" fill="#43433C"/>
    <path fill-rule="evenodd" clip-rule="evenodd" d="M25.6154 22.2594H21.7902C21.4243 22.2325 21.1338 21.9584 21.1069 21.6091V2.00037C21.1069 1.60809 21.4351 1.29641 21.844 1.29641H25.4109C25.7822 1.31252 26.0781 1.59734 26.105 1.952V4.51528H26.1749C27.1057 2.03798 28.8542 0.882629 31.2106 0.882629C33.6048 0.882629 35.1004 2.03798 36.1764 4.51528C37.1018 2.03798 39.2054 0.882629 41.4596 0.882629C43.0629 0.882629 44.8168 1.5436 45.8874 3.02675C47.0979 4.67649 46.8505 7.07317 46.8505 9.17431L46.8451 21.55C46.8451 21.9423 46.5169 22.2594 46.108 22.2594H42.2882C41.9062 22.2325 41.5995 21.9262 41.5995 21.55V11.1572C41.5995 10.3297 41.6748 8.26615 41.4919 7.48158C41.2068 6.16502 40.3514 5.79422 39.2431 5.79422C38.3177 5.79422 37.3493 6.4122 36.9565 7.40097C36.5638 8.38974 36.6015 10.0448 36.6015 11.1572V21.55C36.6015 21.9423 36.2733 22.2594 35.8644 22.2594H32.0445C31.6572 22.2325 31.3559 21.9262 31.3559 21.55L31.3505 11.1572C31.3505 8.97011 31.711 5.75124 28.9941 5.75124C26.2448 5.75124 26.3524 8.88949 26.3524 11.1572V21.55C26.3524 21.9423 26.0243 22.2594 25.6154 22.2594Z" fill="#43433C"/>
    <path fill-rule="evenodd" clip-rule="evenodd" d="M96.3147 0.882629C101.991 0.882629 105.063 5.75124 105.063 11.9418C105.063 17.9227 101.668 22.6678 96.3147 22.6678C90.741 22.6678 87.7066 17.7992 87.7066 11.7322C87.7066 5.62764 90.7786 0.882629 96.3147 0.882629ZM96.347 4.88607C93.5278 4.88607 93.3503 8.72291 93.3503 11.1142C93.3503 13.5109 93.3126 18.6267 96.3147 18.6267C99.2791 18.6267 99.419 14.4997 99.419 11.9848C99.419 10.3297 99.3491 8.35213 98.8487 6.78299C98.4183 5.41807 97.5629 4.88607 96.347 4.88607Z" fill="#43433C"/>
    <path fill-rule="evenodd" clip-rule="evenodd" d="M112.423 22.2594H108.614C108.232 22.2325 107.925 21.9262 107.925 21.55L107.919 1.93588C107.952 1.57584 108.269 1.29641 108.657 1.29641H112.202C112.536 1.31252 112.81 1.53823 112.885 1.84453V4.84307H112.955C114.026 2.16158 115.527 0.882629 118.168 0.882629C119.885 0.882629 121.558 1.50061 122.634 3.19334C123.635 4.76247 123.635 7.40097 123.635 9.2979V21.6414C123.592 21.9853 123.274 22.2594 122.898 22.2594H119.062C118.712 22.2325 118.421 21.9745 118.384 21.6414V10.9906C118.384 8.84651 118.631 5.70824 115.99 5.70824C115.059 5.70824 114.203 6.3316 113.778 7.27738C113.24 8.47572 113.17 9.66869 113.17 10.9906V21.55C113.165 21.9423 112.831 22.2594 112.423 22.2594Z" fill="#43433C"/>
    <path fill-rule="evenodd" clip-rule="evenodd" d="M61.4573 12.893C61.4573 14.3815 61.495 15.6228 60.7418 16.9448C60.1338 18.0195 59.1654 18.6805 58.0948 18.6805C56.626 18.6805 55.7652 17.5627 55.7652 15.913C55.7652 12.6565 58.6866 12.0654 61.4573 12.0654V12.893ZM65.3148 22.2057C65.062 22.4313 64.6961 22.4475 64.411 22.297C63.1413 21.2438 62.9099 20.7547 62.2159 19.7499C60.1177 21.8886 58.6274 22.5281 55.9105 22.5281C52.6878 22.5281 50.1861 20.5452 50.1861 16.574C50.1861 13.4733 51.8647 11.3615 54.2642 10.3297C56.3409 9.41615 59.2407 9.25495 61.4573 9.00238V8.508C61.4573 7.59983 61.5273 6.52508 60.9893 5.74052C60.5266 5.03656 59.6335 4.74638 58.8426 4.74638C57.3846 4.74638 56.088 5.49333 55.7706 7.04096C55.706 7.38489 55.4532 7.72343 55.1035 7.73955L51.3966 7.34189C51.0846 7.27204 50.7349 7.01947 50.8263 6.54121C51.6764 2.04877 55.7437 0.69458 59.3806 0.69458C61.2421 0.69458 63.6739 1.18896 65.1427 2.59688C67.0042 4.3326 66.8266 6.64868 66.8266 9.16897V15.1231C66.8266 16.9125 67.5691 17.6971 68.2685 18.6644C68.5106 19.0083 68.5644 19.4221 68.2523 19.68C67.4722 20.3302 66.0842 21.5393 65.3202 22.2164L65.3148 22.2057Z" fill="#43433C"/>
    <path fill-rule="evenodd" clip-rule="evenodd" d="M11.3098 12.893C11.3098 14.3815 11.3475 15.6228 10.5943 16.9448C9.98631 18.0195 9.02328 18.6805 7.94727 18.6805C6.47852 18.6805 5.62309 17.5627 5.62309 15.913C5.62309 12.6565 8.54446 12.0654 11.3098 12.0654V12.893ZM15.1673 22.2057C14.9144 22.4313 14.5486 22.4475 14.2635 22.297C12.9938 21.2438 12.7678 20.7547 12.0684 19.7499C9.97017 21.8886 8.48528 22.5281 5.76297 22.5281C2.54569 22.5281 0.0385895 20.5452 0.0385895 16.574C0.0385895 13.4733 1.72255 11.3615 4.11667 10.3297C6.19337 9.41615 9.09322 9.25495 11.3098 9.00238V8.508C11.3098 7.59983 11.3797 6.52508 10.8471 5.74052C10.3791 5.03656 9.48597 4.74638 8.70048 4.74638C7.24249 4.74638 5.94051 5.49333 5.62309 7.04096C5.55853 7.38489 5.30566 7.72343 4.96134 7.73955L1.2491 7.34189C0.937058 7.27204 0.592734 7.01947 0.678815 6.54121C1.53424 2.04877 5.59619 0.69458 9.23311 0.69458C11.0946 0.69458 13.5264 1.18896 14.9951 2.59688C16.8566 4.3326 16.6791 6.64868 16.6791 9.16897V15.1231C16.6791 16.9125 17.4216 17.6971 18.121 18.6644C18.3684 19.0083 18.4222 19.4221 18.1102 19.68C17.3301 20.3302 15.942 21.5393 15.1781 22.2164L15.1673 22.2057Z" fill="#43433C"/>
  </g>
  <defs>
    <clipPath id="clip0_1507_6344">
      <rect width="123.596" height="37.2024" fill="white" transform="translate(0.0385895 0.69458)"/>
    </clipPath>
  </defs>
</svg>