<svg width="85" height="86" viewBox="0 0 85 86" fill="none" xmlns="http://www.w3.org/2000/svg">
<rect y="10.6571" width="75.245" height="75.245" rx="21.4986" transform="rotate(-7.69992 0 10.6571)" fill="#FCE5BC"/>
<g clip-path="url(#clip0_1485_1257)">
<path d="M43.0783 31.286L46.0376 35.6605C46.4429 36.2704 47.3731 36.7821 48.1028 36.8056L52.4127 36.9417C55.1692 37.0303 56.0699 38.916 54.3907 41.1234L51.5609 44.87C51.0816 45.5044 50.9237 46.6245 51.1998 47.374L52.6909 51.3366C53.8683 54.4735 52.3333 55.9562 49.2641 54.6484L44.995 52.8248C44.224 52.495 43.0481 52.6539 42.3791 53.1784L38.7476 56.0703C36.149 58.1444 34.2604 57.111 34.5644 53.7874L34.9495 49.5711C35.0168 48.7752 34.5671 47.7373 33.9365 47.2529L30.2134 44.3923C28.0215 42.7083 28.3759 40.6528 31.0099 39.8355L35.1289 38.5597C35.8129 38.3451 36.5738 37.6047 36.8027 36.9092L38.4939 31.9058C39.4183 29.1901 41.4792 28.9114 43.0783 31.286Z" fill="#F4D458" stroke="black" stroke-width="2" stroke-linecap="round" stroke-linejoin="round"/>
</g>
<defs>
<clipPath id="clip0_1485_1257">
<rect width="32" height="32" fill="white" transform="translate(24.3246 29.1876) rotate(-7.7)"/>
</clipPath>
</defs>
</svg>
