<svg width="24" height="24" viewBox="0 0 24 24" fill="none" xmlns="http://www.w3.org/2000/svg">
<path d="M6.91711 14.8543L9.91011 10.9653L13.3241 13.6453L16.2531 9.86523" stroke="currentColor" stroke-width="1.5" stroke-linecap="round" stroke-linejoin="round"/>
<path fill-rule="evenodd" clip-rule="evenodd" d="M19.6671 2.34961C20.7291 2.34961 21.5891 3.20961 21.5891 4.27161C21.5891 5.33261 20.7291 6.19361 19.6671 6.19361C18.6051 6.19361 17.7451 5.33261 17.7451 4.27161C17.7451 3.20961 18.6051 2.34961 19.6671 2.34961Z" stroke="currentColor" stroke-width="1.5" stroke-linecap="round" stroke-linejoin="round"/>
<path d="M20.7555 9.26873C20.8885 10.1638 20.9495 11.1718 20.9495 12.3028C20.9495 19.2408 18.6375 21.5528 11.6995 21.5528C4.76246 21.5528 2.44946 19.2408 2.44946 12.3028C2.44946 5.36574 4.76246 3.05273 11.6995 3.05273C12.8095 3.05273 13.8005 3.11173 14.6825 3.23973" stroke="currentColor" stroke-width="1.5" stroke-linecap="round" stroke-linejoin="round"/>
</svg>
