<svg width="168" height="168" viewBox="0 0 168 168" fill="none" xmlns="http://www.w3.org/2000/svg">
<rect width="168" height="194.097" transform="translate(0 -8.90063)" fill="#F0F1F4"/>
<path d="M116.022 55.9727H71.2051V130.499H116.022V55.9727Z" fill="black" stroke="black" stroke-width="1.63623" stroke-miterlimit="0" stroke-linecap="square"/>
<path d="M71.2051 130.499L104.22 112.354L104.418 97.1295L116.022 106.59L116.275 130.749L71.4677 141.854L71.2051 130.499Z" fill="#FDC5AA" stroke="black" stroke-width="1.63623" stroke-miterlimit="0" stroke-linecap="square"/>
<path d="M44.5034 34.1339L94.8943 38.5517L99.6911 67.8888H109.834V88.2618L100.836 94.7521L100.309 107.751L59.2282 128.927L44.6409 128.655V45.6831L44.5034 34.1339Z" fill="#FDC5AA" stroke="black" stroke-width="1.63623" stroke-miterlimit="0" stroke-linecap="square"/>
<path d="M44.6411 33.9338L112.662 34.1259L123.033 47.1076L122.873 89.0767L116.022 106.59L104.418 97.1295L110.785 92.0647L109.835 67.8888L99.6913 68.0474L96.3623 73.8572L89.8258 75.2004L87.4759 68.817L78.376 67.0088L73.1264 56.8237L69.1599 59.8009L64.8093 62.7781L44.6411 33.9338Z" fill="#FF553E" stroke="black" stroke-width="1.63623" stroke-miterlimit="0" stroke-linecap="square"/>
<path d="M98.2856 86.1534L98.365 87.7795L105.488 82.9874L105.76 74.2658L102.024 77.5255L102.065 83.7703L98.2856 86.1534Z" fill="black"/>
<path fill-rule="evenodd" clip-rule="evenodd" d="M75.8823 55.191L73.126 56.8237L75.0813 60.6173L77.7588 59.046L91.5155 57.7014L105.656 54.4361L108.415 46.2475L103.125 52.1036L91.0584 54.4063L75.8823 55.191Z" fill="black" stroke="black" stroke-width="1.63623" stroke-miterlimit="0" stroke-linecap="square"/>
</svg>
