<svg width="126" height="122" viewBox="0 0 126 122" fill="none" xmlns="http://www.w3.org/2000/svg">
<path d="M9.81055 67.2434C9.81055 74.2184 11.1844 81.1252 13.8536 87.5694C16.5229 94.0135 20.4353 99.8688 25.3674 104.801C30.2995 109.733 36.1548 113.645 42.599 116.315C49.0431 118.984 55.9499 120.358 62.925 120.358C69.9001 120.358 76.8069 118.984 83.251 116.315C89.6952 113.645 95.5505 109.733 100.483 104.801C105.415 99.8688 109.327 94.0135 111.996 87.5694C114.666 81.1252 116.039 74.2184 116.039 67.2434C116.039 60.2683 114.666 53.3615 111.996 46.9173C109.327 40.4732 105.415 34.6179 100.483 29.6858C95.5505 24.7536 89.6952 20.8413 83.251 18.172C76.8069 15.5028 69.9001 14.1289 62.925 14.1289C55.9499 14.1289 49.0431 15.5028 42.599 18.172C36.1548 20.8413 30.2995 24.7536 25.3674 29.6858C20.4353 34.6179 16.5229 40.4732 13.8536 46.9173C11.1844 53.3615 9.81055 60.2683 9.81055 67.2434Z" fill="#FFDA8F"/>
<path d="M62.925 14.1572C52.4187 14.1572 42.1484 17.2731 33.4132 23.1107C24.6779 28.9483 17.8701 37.2453 13.8509 46.9524C9.83161 56.6596 8.78149 67.3406 10.8333 77.6446C12.8851 87.9486 17.9467 97.4126 25.3778 104.84C32.8089 112.267 42.2758 117.323 52.5809 119.369C62.886 121.415 73.5665 120.359 83.2714 116.335C92.9763 112.31 101.27 105.498 107.102 96.7591C112.935 88.0206 116.045 77.7486 116.039 67.2423C116.039 60.2686 114.665 53.3632 111.996 46.9208C109.326 40.4783 105.413 34.6249 100.481 29.6951C95.5483 24.7653 89.6928 20.8557 83.2488 18.1897C76.8048 15.5236 69.8987 14.1534 62.925 14.1572ZM62.925 112.4C53.3375 112.4 43.9653 109.557 35.9935 104.23C28.0218 98.9038 21.8086 91.3329 18.1396 82.4752C14.4706 73.6175 13.5106 63.8707 15.3811 54.4674C17.2515 45.0641 21.8683 36.4266 28.6477 29.6472C35.4271 22.8678 44.0646 18.251 53.4679 16.3806C62.8712 14.5101 72.618 15.4701 81.4757 19.1391C90.3335 22.8081 97.9043 29.0213 103.231 36.993C108.557 44.9648 111.4 54.337 111.4 63.9245C111.4 76.781 106.293 89.1109 97.2023 98.2018C88.1114 107.293 75.7815 112.4 62.925 112.4Z" fill="#FFBE3D"/>
<path d="M9.81055 67.2434C9.81055 74.2184 11.1844 81.1252 13.8536 87.5694C16.5229 94.0135 20.4353 99.8688 25.3674 104.801C30.2995 109.733 36.1548 113.645 42.599 116.315C49.0431 118.984 55.9499 120.358 62.925 120.358C69.9001 120.358 76.8069 118.984 83.251 116.315C89.6952 113.645 95.5505 109.733 100.483 104.801C105.415 99.8688 109.327 94.0135 111.996 87.5694C114.666 81.1252 116.039 74.2184 116.039 67.2434C116.039 60.2683 114.666 53.3615 111.996 46.9173C109.327 40.4732 105.415 34.6179 100.483 29.6858C95.5505 24.7536 89.6952 20.8413 83.251 18.172C76.8069 15.5028 69.9001 14.1289 62.925 14.1289C55.9499 14.1289 49.0431 15.5028 42.599 18.172C36.1548 20.8413 30.2995 24.7536 25.3674 29.6858C20.4353 34.6179 16.5229 40.4732 13.8536 46.9173C11.1844 53.3615 9.81055 60.2683 9.81055 67.2434V67.2434Z" stroke="#45413C" stroke-width="2.93612" stroke-linecap="round" stroke-linejoin="round"/>
<path d="M101.417 92.3164C101.417 94.5185 98.4804 96.3095 94.7809 96.3095C91.0814 96.3095 88.1453 94.5185 88.1453 92.3164C88.1453 90.1143 91.0814 88.3232 94.7809 88.3232C98.4804 88.3232 101.417 90.1143 101.417 92.3164Z" fill="#FFE9BD"/>
<path d="M24.4309 92.3164C24.4309 93.3754 25.13 94.3911 26.3744 95.1399C27.6189 95.8888 29.3067 96.3095 31.0665 96.3095C32.8264 96.3095 34.5142 95.8888 35.7586 95.1399C37.0031 94.3911 37.7022 93.3754 37.7022 92.3164C37.7022 91.2573 37.0031 90.2417 35.7586 89.4928C34.5142 88.7439 32.8264 88.3232 31.0665 88.3232C29.3067 88.3232 27.6189 88.7439 26.3744 89.4928C25.13 90.2417 24.4309 91.2573 24.4309 92.3164Z" fill="#FFE9BD"/>
<path d="M39.9348 75.4316C39.9348 76.7321 39.4182 77.9793 38.4987 78.8988C37.5791 79.8184 36.3319 80.335 35.0315 80.335C33.7311 80.335 32.4839 79.8184 31.5643 78.8988C30.6448 77.9793 30.1282 76.7321 30.1282 75.4316" stroke="#45413C" stroke-width="2.93612" stroke-linecap="round" stroke-linejoin="round"/>
<path d="M85.9146 75.4316C85.9146 76.7321 86.4311 77.9793 87.3507 78.8988C88.2702 79.8184 89.5174 80.335 90.8179 80.335C92.1183 80.335 93.3655 79.8184 94.2851 78.8988C95.2046 77.9793 95.7212 76.7321 95.7212 75.4316" stroke="#45413C" stroke-width="2.93612" stroke-linecap="round" stroke-linejoin="round"/>
<path d="M57.1985 105.384H68.6494" stroke="#45413C" stroke-width="2.93612" stroke-linecap="round" stroke-linejoin="round"/>
<path d="M8.01855 56.9055C8.01855 42.3436 13.8032 28.3782 24.1 18.0814C34.3968 7.78467 48.3622 2 62.924 2C77.4859 2 91.4513 7.78467 101.748 18.0814C112.045 28.3782 117.83 42.3436 117.83 56.9055H8.01855Z" fill="#FFE500"/>
<path d="M62.924 14.3317C75.3436 14.3371 87.3952 18.5485 97.115 26.2796C106.835 34.0106 113.65 44.8056 116.45 56.9055H117.83C117.83 42.3436 112.045 28.3782 101.748 18.0814C91.4513 7.78467 77.4859 2 62.924 2C48.3622 2 34.3968 7.78467 24.1 18.0814C13.8032 28.3782 8.01855 42.3436 8.01855 56.9055H9.39853C12.1982 44.8056 19.0133 34.0106 28.7331 26.2796C38.4529 18.5485 50.5045 14.3371 62.924 14.3317Z" fill="#FFF48C"/>
<path d="M8.01855 56.9055C8.01855 42.3436 13.8032 28.3782 24.1 18.0814C34.3968 7.78467 48.3622 2 62.924 2C77.4859 2 91.4513 7.78467 101.748 18.0814C112.045 28.3782 117.83 42.3436 117.83 56.9055H8.01855Z" stroke="#45413C" stroke-width="2.93612" stroke-linecap="round" stroke-linejoin="round"/>
<path d="M2.00005 53.383C1.99877 52.6562 2.15909 51.9382 2.4694 51.281C2.77971 50.6237 3.23225 50.0437 3.79427 49.5828C4.35629 49.122 5.01373 48.7918 5.71902 48.6163C6.42431 48.4407 7.15981 48.4242 7.87229 48.5678C25.9838 52.3197 44.4286 54.2282 62.9246 54.2639C81.3971 54.1643 99.8122 52.1968 117.889 48.3916C118.601 48.248 119.337 48.2646 120.042 48.4401C120.747 48.6157 121.405 48.9458 121.967 49.4067C122.529 49.8675 122.981 50.4476 123.292 51.1048C123.602 51.762 123.762 52.48 123.761 53.2069V57.2881C123.766 58.4633 123.366 59.6044 122.628 60.519C121.89 61.4335 120.859 62.0657 119.709 62.3088C101.033 66.2684 82.0142 68.3925 62.9246 68.6509C43.8074 68.4175 24.759 66.3131 6.0519 62.3675C4.90207 62.1244 3.87124 61.4923 3.13315 60.5777C2.39507 59.6631 1.99489 58.522 2.00005 57.3468V53.383Z" fill="#FFE500"/>
<path d="M117.89 48.4503C99.8109 52.2358 81.3958 54.1836 62.9253 54.2639C44.4528 54.1643 26.0377 52.1968 7.96112 48.3916C7.24864 48.248 6.51314 48.2646 5.80785 48.4401C5.10256 48.6157 4.44511 48.9458 3.88309 49.4067C3.32107 49.8675 2.86854 50.4476 2.55823 51.1048C2.24792 51.762 2.0876 52.48 2.08887 53.2069V57.2881C2.10744 57.7274 2.18648 58.1622 2.32376 58.58C2.66151 57.3548 3.46443 56.31 4.56138 55.6683C5.65832 55.0266 6.96254 54.8387 8.19601 55.1447C26.1958 58.9342 44.5314 60.9016 62.9253 61.0169C81.3978 60.9173 99.8129 58.9499 117.89 55.1447C119.123 54.8387 120.427 55.0266 121.524 55.6683C122.621 56.31 123.424 57.3548 123.762 58.58C123.899 58.1622 123.978 57.7274 123.997 57.2881V53.383C124.025 52.6216 123.875 51.8641 123.559 51.1707C123.243 50.4773 122.77 49.867 122.178 49.3882C121.585 48.9095 120.889 48.5755 120.144 48.4127C119.4 48.2499 118.628 48.2628 117.89 48.4503Z" fill="#FFF48C"/>
<path d="M2.00005 53.383C1.99877 52.6562 2.15909 51.9382 2.4694 51.281C2.77971 50.6237 3.23225 50.0437 3.79427 49.5828C4.35629 49.122 5.01373 48.7918 5.71902 48.6163C6.42431 48.4407 7.15981 48.4242 7.87229 48.5678C25.9838 52.3197 44.4286 54.2282 62.9246 54.2639C81.3971 54.1643 99.8122 52.1968 117.889 48.3916C118.601 48.248 119.337 48.2646 120.042 48.4401C120.747 48.6157 121.405 48.9458 121.967 49.4067C122.529 49.8675 122.981 50.4476 123.292 51.1048C123.602 51.762 123.762 52.48 123.761 53.2069V57.2881C123.766 58.4633 123.366 59.6044 122.628 60.519C121.89 61.4335 120.859 62.0657 119.709 62.3088C101.033 66.2684 82.0142 68.3925 62.9246 68.6509C43.8074 68.4175 24.759 66.3131 6.0519 62.3675C4.90207 62.1244 3.87124 61.4923 3.13315 60.5777C2.39507 59.6631 1.99489 58.522 2.00005 57.3468V53.383Z" stroke="#45413C" stroke-width="2.93612" stroke-linecap="round" stroke-linejoin="round"/>
<path d="M75.2848 24.7863H69.1484V18.6204C69.1406 17.7534 68.7907 16.9245 68.1749 16.3141C67.559 15.7037 66.727 15.3613 65.8599 15.3613H59.9876C59.1206 15.3613 58.2885 15.7037 57.6727 16.3141C57.0568 16.9245 56.7069 17.7534 56.6992 18.6204V24.7863H50.5627C50.1336 24.7824 49.7081 24.864 49.3109 25.0264C48.9137 25.1888 48.5529 25.4287 48.2494 25.7321C47.946 26.0355 47.7061 26.3964 47.5437 26.7936C47.3813 27.1907 47.2997 27.6163 47.3036 28.0454V33.9176C47.3036 34.782 47.647 35.6109 48.2582 36.2221C48.8694 36.8333 49.6983 37.1767 50.5627 37.1767H56.6992V43.3132C56.6953 43.7475 56.7775 44.1783 56.941 44.5807C57.1046 44.983 57.3462 45.349 57.6519 45.6575C57.9577 45.966 58.3215 46.2108 58.7224 46.3779C59.1233 46.545 59.5533 46.631 59.9876 46.631H65.8599C66.2917 46.631 66.7194 46.546 67.1183 46.3807C67.5173 46.2154 67.8798 45.9732 68.1852 45.6679C68.4905 45.3625 68.7328 45 68.898 44.601C69.0633 44.202 69.1484 43.7744 69.1484 43.3426V37.2061H75.2848C76.1492 37.2061 76.9782 36.8627 77.5894 36.2515C78.2006 35.6403 78.5439 34.8113 78.5439 33.947V28.0747C78.5518 27.6432 78.4731 27.2145 78.3125 26.8139C78.1518 26.4133 77.9125 26.0489 77.6087 25.7424C77.3049 25.4358 76.9427 25.1933 76.5436 25.029C76.1444 24.8648 75.7164 24.7823 75.2848 24.7863Z" fill="#6DD627" stroke="#45413C" stroke-width="2.93612" stroke-linecap="round" stroke-linejoin="round"/>
</svg>
