<svg xmlns="http://www.w3.org/2000/svg" width="24" height="24" viewBox="0 0 24 24">
  <path
    fill="#FF553E"
    stroke="currentColor"
    strokeLinejoin="round"
    strokeWidth="1.5"
    d="M12 5.813c-2.562 0-5.241 0-7.477.42a2.58 2.58 0 0 0-2.04 1.994C2.1 9.977 2.1 11.586 2.1 14.062c0 2.477 0 4.087.383 5.836a2.58 2.58 0 0 0 2.04 1.994c2.236.42 4.915.42 7.477.42 2.562 0 5.241 0 7.477-.42a2.58 2.58 0 0 0 2.04-1.994c.383-1.75.383-3.359.383-5.835 0-2.477 0-4.087-.383-5.836a2.58 2.58 0 0 0-2.04-1.994c-2.236-.42-4.915-.42-7.477-.42Z"
  />
  <path
    stroke="currentColor"
    strokeLinejoin="round"
    strokeWidth="1.5"
    d="M7.875 5.813v-.825a3.3 3.3 0 0 1 3.3-3.3h1.65a3.3 3.3 0 0 1 3.3 3.3v.825"
  />
</svg>
