<svg width="38" height="24" viewBox="0 0 38 24" fill="none" xmlns="http://www.w3.org/2000/svg">
<g clip-path="url(#clip0_1573_2622)">
<path d="M15.4335 10.4742C15.4335 10.4742 18.9343 10.2143 18.9343 6.10907C18.9343 2.00356 16.0702 0 12.4422 0H0.503906V22.9421H12.4422C12.4422 22.9421 19.7302 23.1723 19.7302 16.1707C19.7302 16.1707 20.0479 10.4742 15.4335 10.4742ZM11.5829 4.07771H12.4422C12.4422 4.07771 14.065 4.07771 14.065 6.46473C14.065 8.85147 13.1106 9.19752 12.0281 9.19752H5.76409V4.07771H11.5829ZM12.1049 18.8646H5.76409V12.7336H12.4422C12.4422 12.7336 14.8609 12.7019 14.8609 15.8843C14.8609 18.5678 13.0544 18.8443 12.1049 18.8646ZM29.4498 5.83716C20.627 5.83716 20.6349 14.6522 20.6349 14.6522C20.6349 14.6522 20.0295 23.422 29.4498 23.422C29.4498 23.422 37.3 23.8705 37.3 17.3214H33.2628C33.2628 17.3214 33.3975 19.7877 29.5845 19.7877C29.5845 19.7877 25.5466 20.0583 25.5466 15.7962H37.4347C37.4347 15.7962 38.7355 5.83716 29.4498 5.83716ZM25.5022 12.7336C25.5022 12.7336 25.9952 9.19744 29.5395 9.19744C33.0831 9.19744 33.0387 12.7336 33.0387 12.7336H25.5022ZM33.9792 4.17674H24.5138V1.35159H33.9792V4.17674Z" fill="currentColor"/>
</g>
<defs>
<clipPath id="clip0_1573_2622">
<rect width="37" height="23.4284" fill="white" transform="translate(0.5)"/>
</clipPath>
</defs>
</svg>
