<svg xmlns="http://www.w3.org/2000/svg" width="180" height="180" viewBox="0 0 180 180" fill="none">
<path fill-rule="evenodd" clip-rule="evenodd" d="M169.801 90.3139L155.287 53.625C152.883 47.6904 148.827 42.9127 143.824 39.6525L142.336 35.9715C138.34 26.0856 127.883 20.6318 117.487 23.0056C107.616 25.2592 100.569 34.2437 100.704 44.37L100.795 50.5299C98.3608 54.977 97.0086 60.0703 97.0837 65.3738L97.6546 106.209H82.375L82.9459 65.3738C83.021 60.0703 81.669 54.977 79.2349 50.5299L79.3252 44.37C79.4604 34.2588 72.4141 25.2743 62.5431 23.0056C52.1465 20.6168 41.6896 26.0706 37.6932 35.9715L36.2059 39.6525C31.2028 42.9276 27.1312 47.7054 24.7424 53.6549L10.2892 90.2086C4.56504 97.2099 1.12451 106.134 1.12451 115.855C1.12451 138.211 19.3187 156.405 41.6746 156.405C60.8756 156.405 76.9813 142.988 81.158 125.05H98.8414C103.018 142.988 119.139 156.405 138.325 156.405C160.681 156.405 178.875 138.211 178.875 115.855C178.875 106.179 175.465 97.2851 169.786 90.2988L169.801 90.3139ZM151.351 55.2024L162.469 83.2824C155.723 78.2645 147.369 75.3046 138.34 75.3046C122.264 75.3046 108.337 84.7098 101.786 98.3066L101.336 65.3137C101.17 53.1592 109.644 42.3567 121.498 39.6374C128.364 38.0599 135.245 39.3519 140.834 42.7624C140.984 42.8826 141.15 42.9879 141.33 43.0628C145.717 45.8724 149.263 50.0342 151.351 55.2024ZM104.941 44.31C104.821 36.1818 110.5 28.9553 118.433 27.1373C126.486 25.2894 134.569 29.3009 138.025 36.7077C132.616 34.6644 126.576 34.1235 120.551 35.5057C114.377 36.918 108.998 40.2233 104.956 44.7006V44.31H104.941ZM61.5817 27.1373C69.5145 28.9553 75.1784 36.1818 75.0733 44.31V44.7006C71.0168 40.2233 65.6382 36.918 59.4784 35.5057C53.4385 34.1235 47.4139 34.6494 42.0051 36.7077C45.4606 29.3009 53.5287 25.3044 61.5967 27.1373H61.5817ZM28.6486 55.2175C30.7371 50.049 34.3128 45.8874 38.6998 43.0628C38.8652 42.9879 39.0304 42.8976 39.1656 42.7775C44.7697 39.337 51.6506 38.0599 58.5167 39.6374C70.3708 42.3567 78.8594 53.1441 78.6792 65.3137L78.2283 98.3066C71.6779 84.7098 57.7506 75.3046 41.6746 75.3046C32.6602 75.3046 24.3219 78.2645 17.591 83.2525L28.6486 55.2175ZM41.6746 152.183C21.6475 152.183 5.36132 135.897 5.36132 115.87C5.36132 95.8426 21.6475 79.5564 41.6746 79.5564C61.7018 79.5564 77.988 95.8426 77.988 115.87C77.988 135.897 61.7018 152.183 41.6746 152.183ZM81.9093 120.828C82.1046 119.205 82.2247 117.553 82.2247 115.87V115.84L82.2999 110.461H97.6996L97.7747 115.84V115.87C97.7747 117.553 97.8951 119.205 98.0904 120.828H81.9093ZM138.325 152.183C118.298 152.183 102.012 135.897 102.012 115.87C102.012 95.8426 118.298 79.5564 138.325 79.5564C158.352 79.5564 174.638 95.8426 174.638 115.87C174.638 135.897 158.352 152.183 138.325 152.183ZM41.677 87.7687C26.1871 87.7687 13.5968 100.374 13.5968 115.849C13.5968 131.324 26.202 143.929 41.677 143.929C57.1519 143.929 69.757 131.324 69.757 115.849C69.757 100.374 57.1519 87.7687 41.677 87.7687ZM41.677 139.692C28.5307 139.692 17.8336 128.995 17.8336 115.849C17.8336 102.703 28.5307 92.0057 41.677 92.0057C54.8231 92.0057 65.5203 102.703 65.5203 115.849C65.5203 128.995 54.8231 139.692 41.677 139.692ZM110.258 115.849C110.258 100.374 122.848 87.7687 138.338 87.7687C153.813 87.7687 166.418 100.374 166.418 115.849C166.418 131.324 153.813 143.929 138.338 143.929C122.863 143.929 110.258 131.324 110.258 115.849ZM114.495 115.849C114.495 128.995 125.192 139.692 138.338 139.692C151.484 139.692 162.181 128.995 162.181 115.849C162.181 102.703 151.484 92.0057 138.338 92.0057C125.192 92.0057 114.495 102.703 114.495 115.849Z" fill="#595959"/>
</svg>