<svg width="16" height="16" viewBox="0 0 16 16" fill="none" xmlns="http://www.w3.org/2000/svg">
<path d="M3.37405 14.0297L3.66794 13.6252L3.37405 14.0297ZM2.63661 13.2923L3.04112 12.9984L2.63661 13.2923ZM13.3634 13.2923L12.9589 12.9984L13.3634 13.2923ZM12.626 14.0297L12.9198 14.4342L12.626 14.0297ZM12.626 3.30295L12.9198 2.89844L12.626 3.30295ZM13.3634 4.04039L12.9589 4.33428L13.3634 4.04039ZM3.37405 3.30295L3.66794 3.70746V3.70746L3.37405 3.30295ZM2.63661 4.04039L3.04112 4.33428L2.63661 4.04039ZM12.8119 10.7074L12.7337 10.2135L12.8119 10.7074ZM10.041 13.4782L9.5472 13.4V13.4L10.041 13.4782ZM6 8.83301C5.72386 8.83301 5.5 9.05686 5.5 9.33301C5.5 9.60915 5.72386 9.83301 6 9.83301V8.83301ZM10 9.83301C10.2761 9.83301 10.5 9.60915 10.5 9.33301C10.5 9.05686 10.2761 8.83301 10 8.83301V9.83301ZM9.5 3.33301C9.5 3.60915 9.72386 3.83301 10 3.83301C10.2761 3.83301 10.5 3.60915 10.5 3.33301H9.5ZM10.5 1.33301C10.5 1.05687 10.2761 0.833008 10 0.833008C9.72386 0.833008 9.5 1.05687 9.5 1.33301H10.5ZM5.5 3.33301C5.5 3.60915 5.72386 3.83301 6 3.83301C6.27614 3.83301 6.5 3.60915 6.5 3.33301H5.5ZM6.5 1.33301C6.5 1.05687 6.27614 0.833008 6 0.833008C5.72386 0.833008 5.5 1.05687 5.5 1.33301H6.5ZM13.9807 10.6663L14.4804 10.6835L13.9807 10.6663ZM2.01929 6.66634L1.51958 6.64922L2.01929 6.66634ZM13.9807 6.66634L14.4804 6.64922L13.9807 6.66634ZM8 14.6663V14.1663C6.73895 14.1663 5.83333 14.1657 5.13203 14.0897C4.44009 14.0147 4.00661 13.8713 3.66794 13.6252L3.37405 14.0297L3.08016 14.4342C3.61771 14.8248 4.24729 14.9997 5.02432 15.0839C5.79198 15.167 6.76123 15.1663 8 15.1663V14.6663ZM2 8.66634H1.5C1.5 9.90511 1.49931 10.8744 1.58249 11.642C1.66667 12.419 1.84155 13.0486 2.2321 13.5862L2.63661 13.2923L3.04112 12.9984C2.79506 12.6597 2.65163 12.2263 2.57667 11.5343C2.50069 10.833 2.5 9.92739 2.5 8.66634H2ZM3.37405 14.0297L3.66794 13.6252C3.42741 13.4505 3.21588 13.2389 3.04112 12.9984L2.63661 13.2923L2.2321 13.5862C2.46854 13.9116 2.75473 14.1978 3.08016 14.4342L3.37405 14.0297ZM13.3634 13.2923L12.9589 12.9984C12.7841 13.2389 12.5726 13.4505 12.3321 13.6252L12.626 14.0297L12.9198 14.4342C13.2453 14.1978 13.5315 13.9116 13.7679 13.5862L13.3634 13.2923ZM12.626 3.30295L12.3321 3.70746C12.5726 3.88222 12.7841 4.09375 12.9589 4.33428L13.3634 4.04039L13.7679 3.7465C13.5315 3.42107 13.2453 3.13488 12.9198 2.89844L12.626 3.30295ZM3.37405 3.30295L3.08016 2.89844C2.75473 3.13488 2.46854 3.42107 2.2321 3.7465L2.63661 4.04039L3.04112 4.33428C3.21588 4.09375 3.42741 3.88222 3.66794 3.70746L3.37405 3.30295ZM12.8119 10.7074L12.7337 10.2135C11.0934 10.4733 9.80699 11.7598 9.5472 13.4L10.041 13.4782L10.5349 13.5564C10.7269 12.3441 11.6777 11.3932 12.8901 11.2012L12.8119 10.7074ZM6 9.33301V9.83301H10V9.33301V8.83301H6V9.33301ZM13.9807 10.6663L13.9807 10.1663C13.3925 10.1663 13.0386 10.1652 12.7337 10.2135L12.8119 10.7074L12.8901 11.2012C13.098 11.1683 13.3559 11.1663 13.9807 11.1663L13.9807 10.6663ZM14 8.66634H13.5C13.5 9.44839 13.4999 10.0967 13.481 10.6492L13.9807 10.6663L14.4804 10.6835C14.5001 10.1102 14.5 9.44286 14.5 8.66634H14ZM13.9807 10.6663L13.481 10.6492C13.4386 11.8858 13.3006 12.528 12.9589 12.9984L13.3634 13.2923L13.7679 13.5862C14.3025 12.8504 14.4376 11.9324 14.4804 10.6835L13.9807 10.6663ZM10 14.6471L10.5 14.6471C10.5 14.0222 10.502 13.7644 10.5349 13.5564L10.041 13.4782L9.5472 13.4C9.4989 13.7049 9.5 14.0589 9.5 14.647L10 14.6471ZM8 14.6663V15.1663C8.77652 15.1663 9.44384 15.1664 10.0171 15.1468L10 14.6471L9.98288 14.1473C9.43037 14.1663 8.78205 14.1663 8 14.1663V14.6663ZM10 14.6471L10.0171 15.1468C11.2661 15.104 12.1841 14.9688 12.9198 14.4342L12.626 14.0297L12.3321 13.6252C11.8617 13.967 11.2195 14.105 9.98288 14.1473L10 14.6471ZM2 8.66634H2.5C2.5 7.88429 2.50006 7.23597 2.51899 6.68346L2.01929 6.66634L1.51958 6.64922C1.49994 7.2225 1.5 7.88982 1.5 8.66634H2ZM2.01929 6.66634L2.51899 6.68346C2.56136 5.44684 2.69938 4.80465 3.04112 4.33428L2.63661 4.04039L2.2321 3.7465C1.69753 4.48227 1.56237 5.40026 1.51958 6.64922L2.01929 6.66634ZM2.01929 6.66634V7.16634H13.9807V6.66634V6.16634H2.01929V6.66634ZM14 8.66634H14.5C14.5 7.88982 14.5001 7.2225 14.4804 6.64922L13.9807 6.66634L13.481 6.68346C13.4999 7.23597 13.5 7.88429 13.5 8.66634H14ZM13.9807 6.66634L14.4804 6.64922C14.4376 5.40026 14.3025 4.48227 13.7679 3.7465L13.3634 4.04039L12.9589 4.33428C13.3006 4.80465 13.4386 5.44684 13.481 6.68346L13.9807 6.66634ZM10 3.33301H10.5V2.68563H10H9.5V3.33301H10ZM10 2.68563H10.5V1.33301H10H9.5V2.68563H10ZM8 2.66634V3.16634C8.78205 3.16634 9.43037 3.1664 9.98288 3.18533L10 2.68563L10.0171 2.18592C9.44384 2.16628 8.77652 2.16634 8 2.16634V2.66634ZM10 2.68563L9.98288 3.18533C11.2195 3.2277 11.8617 3.36572 12.3321 3.70746L12.626 3.30295L12.9198 2.89844C12.1841 2.36387 11.2661 2.22871 10.0171 2.18592L10 2.68563ZM6 3.33301H6.5V2.68563H6H5.5V3.33301H6ZM6 2.68563H6.5V1.33301H6H5.5V2.68563H6ZM8 2.66634V2.16634C7.22348 2.16634 6.55616 2.16628 5.98288 2.18592L6 2.68563L6.01712 3.18533C6.56963 3.1664 7.21795 3.16634 8 3.16634V2.66634ZM6 2.68563L5.98288 2.18592C4.73392 2.22871 3.81593 2.36387 3.08016 2.89844L3.37405 3.30295L3.66794 3.70746C4.13831 3.36572 4.7805 3.2277 6.01712 3.18533L6 2.68563Z" fill="currentColor"/>
</svg>
