<svg width="236" height="236" viewBox="0 0 236 236" fill="none" xmlns="http://www.w3.org/2000/svg">
<path d="M118 236C183.17 236 236 183.17 236 118C236 52.8304 183.17 0 118 0C52.8304 0 0 52.8304 0 118C0 183.17 52.8304 236 118 236Z" fill="#C3C3BB"/>
<path d="M188.8 236H47.2V83.3867C53.874 83.3792 60.2726 80.7247 64.9919 76.0054C69.7112 71.2861 72.3658 64.8875 72.3733 58.2134H163.627C163.62 61.5196 164.268 64.7943 165.535 67.8481C166.802 70.902 168.662 73.6743 171.007 76.0046C173.337 78.3506 176.11 80.2111 179.164 81.4782C182.218 82.7454 185.493 83.394 188.8 83.3867V236Z" fill="white"/>
<path d="M131.35 140.52L118 127.17L104.65 140.52L100.2 136.07L113.55 122.72L100.2 109.37L104.65 104.92L118 118.27L131.35 104.92L135.8 109.37L122.45 122.72L135.8 136.07L131.35 140.52Z" fill="white"/>
<path d="M138.62 99H97.7134C95.1066 99 92.9934 101.113 92.9934 103.72C92.9934 106.327 95.1066 108.44 97.7134 108.44H138.62C141.227 108.44 143.34 106.327 143.34 103.72C143.34 101.113 141.227 99 138.62 99Z" fill="#C3C3BB"/>
<path d="M152.78 118.44H83.5534C80.9466 118.44 78.8334 120.553 78.8334 123.16C78.8334 125.767 80.9466 127.88 83.5534 127.88H152.78C155.387 127.88 157.5 125.767 157.5 123.16C157.5 120.553 155.387 118.44 152.78 118.44Z" fill="#C3C3BB"/>
<path d="M152.78 137.88H83.5534C80.9466 137.88 78.8334 139.993 78.8334 142.6C78.8334 145.207 80.9466 147.32 83.5534 147.32H152.78C155.387 147.32 157.5 145.207 157.5 142.6C157.5 139.993 155.387 137.88 152.78 137.88Z" fill="#C3C3BB"/>
<path d="M152.78 157.32H83.5534C80.9466 157.32 78.8334 159.433 78.8334 162.04C78.8334 164.647 80.9466 166.76 83.5534 166.76H152.78C155.387 166.76 157.5 164.647 157.5 162.04C157.5 159.433 155.387 157.32 152.78 157.32Z" fill="#C3C3BB"/>
<path d="M152.78 176.76H83.5534C80.9466 176.76 78.8334 178.873 78.8334 181.48C78.8334 184.087 80.9466 186.2 83.5534 186.2H152.78C155.387 186.2 157.5 184.087 157.5 181.48C157.5 178.873 155.387 176.76 152.78 176.76Z" fill="#C3C3BB"/>
<path d="M152.78 196.2H83.5534C80.9466 196.2 78.8334 198.313 78.8334 200.92C78.8334 203.527 80.9466 205.64 83.5534 205.64H152.78C155.387 205.64 157.5 203.527 157.5 200.92C157.5 198.313 155.387 196.2 152.78 196.2Z" fill="#C3C3BB"/>
</svg>
