<svg width="82" height="82" viewBox="0 0 82 82" fill="none" xmlns="http://www.w3.org/2000/svg">
<rect x="6.15652" y="0.32489" width="75.245" height="75.245" rx="21.4986" transform="rotate(4.69318 6.15652 0.32489)" fill="#FBD7FF"/>
<path d="M42.9392 28.3843L42.8847 29.0488C42.5764 32.8074 42.4222 34.6867 43.4941 35.9501C44.5659 37.2136 46.4452 37.3677 50.2038 37.6761L50.8682 37.7306M51.352 39.9869L50.9876 44.4294C50.5764 49.4409 50.3709 51.9467 48.6862 53.3758C47.0017 54.805 44.4959 54.5994 39.4845 54.1882C34.473 53.7771 31.9673 53.5715 30.5381 51.8869C29.109 50.2024 29.3145 47.6966 29.7257 42.6851L30.2211 36.6465C30.5748 32.3343 30.7517 30.1782 32.049 28.8144C32.3111 28.5389 32.6019 28.2922 32.9164 28.0785C34.4734 27.0209 36.6295 27.1978 40.9417 27.5515C41.8793 27.6285 42.348 27.6669 42.765 27.8536C42.8517 27.8925 42.9361 27.9359 43.0182 27.9838C43.4129 28.2139 43.7171 28.5726 44.3257 29.2899L50.1035 36.1005C50.8087 36.9317 51.1612 37.3473 51.3235 37.8523C51.4857 38.3573 51.4412 38.9005 51.352 39.9869Z" fill="#DE94E6"/>
<path d="M42.9392 28.3843L42.8847 29.0488C42.5764 32.8074 42.4222 34.6867 43.4941 35.9501C44.5659 37.2136 46.4452 37.3677 50.2038 37.6761L50.8682 37.7306M51.352 39.9869L50.9876 44.4294C50.5764 49.4409 50.3709 51.9467 48.6862 53.3758C47.0017 54.805 44.4959 54.5994 39.4845 54.1882C34.473 53.7771 31.9673 53.5715 30.5381 51.8869C29.109 50.2024 29.3145 47.6966 29.7257 42.6851L30.2211 36.6465C30.5748 32.3343 30.7517 30.1782 32.049 28.8144C32.3111 28.5389 32.6019 28.2922 32.9164 28.0785C34.4734 27.0209 36.6295 27.1978 40.9417 27.5515C41.8793 27.6285 42.348 27.6669 42.765 27.8536C42.8517 27.8925 42.9361 27.9359 43.0182 27.9838C43.4129 28.2139 43.7171 28.5726 44.3257 29.2899L50.1035 36.1005C50.8087 36.9317 51.1612 37.3473 51.3235 37.8523C51.4857 38.3573 51.4412 38.9005 51.352 39.9869Z" stroke="black" stroke-width="2" stroke-linecap="round" stroke-linejoin="round"/>
</svg>
