<svg xmlns="http://www.w3.org/2000/svg" width="20" height="21" viewBox="0 0 20 21" fill="none">
<path d="M6.66669 5.84534H13.3334" stroke="#595959" stroke-width="1.25" stroke-linecap="round" stroke-linejoin="round"/>
<path d="M6.66669 9.17859H10" stroke="#595959" stroke-width="1.25" stroke-linecap="round" stroke-linejoin="round"/>
<path d="M10.8333 17.9286V17.5119C10.8333 15.1549 10.8333 13.9764 11.5656 13.2442C12.2978 12.5119 13.4763 12.5119 15.8333 12.5119H16.25M16.6666 11.1312V8.34526C16.6666 5.20256 16.6666 3.63121 15.6903 2.6549C14.7141 1.67859 13.1426 1.67859 9.99998 1.67859C6.85729 1.67859 5.28594 1.67859 4.30962 2.6549C3.33331 3.63121 3.33331 5.20256 3.33331 8.34526V12.1321C3.33331 14.8363 3.33331 16.1883 4.0717 17.1042C4.22088 17.2892 4.3894 17.4577 4.57442 17.6068C5.49024 18.3453 6.84233 18.3453 9.54648 18.3453C10.1345 18.3453 10.4284 18.3453 10.6976 18.2503C10.7536 18.2305 10.8085 18.2078 10.8621 18.1822C11.1196 18.0589 11.3275 17.8511 11.7432 17.4353L15.6903 13.4883C16.1721 13.0065 16.4129 12.7657 16.5398 12.4593C16.6666 12.1531 16.6666 11.8124 16.6666 11.1312Z" stroke="#404040" stroke-width="1.25" stroke-linecap="round" stroke-linejoin="round"/>
</svg>