<svg width="31" height="30" viewBox="0 0 31 30" fill="none" xmlns="http://www.w3.org/2000/svg">
<path fill-rule="evenodd" clip-rule="evenodd" d="M20.3684 12.9941C20.6025 11.7812 20.7252 10.5285 20.7252 9.24728V0.455322H1.07252V28.8999C5.83156 28.8999 10.1955 27.2083 13.5959 24.3936C16.9883 26.6536 22.428 28.8019 29 27.607C27.1899 26.8312 20.208 22.1766 20.4666 12.8675C20.4352 12.9107 20.4025 12.9529 20.3684 12.9941Z" fill="#278EFF"/>
<path d="M20.3684 12.9941L20.679 13.2507L19.9728 12.9177L20.3684 12.9941ZM20.7252 0.455322V0.0523967H21.1281V0.455322H20.7252ZM1.07252 0.455322H0.669596V0.0523967H1.07252V0.455322ZM1.07252 28.8999V29.3028H0.669596V28.8999H1.07252ZM13.5959 24.3936L13.339 24.0832L13.5699 23.8921L13.8193 24.0583L13.5959 24.3936ZM29 27.607L29.1587 27.2366L30.3891 27.7639L29.0721 28.0034L29 27.607ZM20.4666 12.8675L20.1408 12.6305L20.9055 11.579L20.8694 12.8787L20.4666 12.8675ZM21.1281 9.24728C21.1281 10.5543 21.003 11.8325 20.764 13.0705L19.9728 12.9177C20.2021 11.7298 20.3222 10.5028 20.3222 9.24728H21.1281ZM21.1281 0.455322V9.24728H20.3222V0.455322H21.1281ZM1.07252 0.0523967H20.7252V0.858248H1.07252V0.0523967ZM0.669596 28.8999V0.455322H1.47545V28.8999H0.669596ZM13.8528 24.704C10.3829 27.5763 5.92878 29.3028 1.07252 29.3028V28.497C5.73435 28.497 10.0082 26.8403 13.339 24.0832L13.8528 24.704ZM29.0721 28.0034C22.3717 29.2216 16.8273 27.0305 13.3725 24.7289L13.8193 24.0583C17.1493 26.2767 22.4842 28.3821 28.9279 27.2105L29.0721 28.0034ZM20.8694 12.8787C20.7432 17.422 22.3816 20.8223 24.2722 23.1855C26.1707 25.5587 28.3154 26.8752 29.1587 27.2366L28.8413 27.9773C27.8745 27.563 25.6232 26.1643 23.6429 23.689C21.6547 21.2037 19.9315 17.6221 20.0639 12.8563L20.8694 12.8787ZM20.0578 12.7374C20.0867 12.7025 20.1143 12.6669 20.1408 12.6305L20.7925 13.1045C20.7561 13.1545 20.7183 13.2032 20.679 13.2507L20.0578 12.7374Z" fill="#278EFF"/>
</svg>
