<svg width="31" height="30" viewBox="0 0 31 30" fill="none" xmlns="http://www.w3.org/2000/svg">
<path fill-rule="evenodd" clip-rule="evenodd" d="M10.6316 13.1047C10.3975 11.8918 10.2748 10.6391 10.2748 9.35787V0.565918H29.9275V29.0105C25.1684 29.0105 20.8045 27.3189 17.4041 24.5042C14.0117 26.7642 8.57204 28.9125 2 27.7176C3.81011 26.9418 10.792 22.2872 10.5334 12.9781C10.5648 13.0213 10.5975 13.0635 10.6316 13.1047Z" fill="currentColor"/>
<path d="M10.6316 13.1047L10.321 13.3613L11.0272 13.0283L10.6316 13.1047ZM10.2748 0.565918V0.162992H9.87192V0.565918H10.2748ZM29.9275 0.565918H30.3304V0.162992H29.9275V0.565918ZM29.9275 29.0105V29.4134H30.3304V29.0105H29.9275ZM17.4041 24.5042L17.661 24.1938L17.4301 24.0027L17.1807 24.1689L17.4041 24.5042ZM2 27.7176L1.84128 27.3472L0.610887 27.8745L1.92792 28.114L2 27.7176ZM10.5334 12.9781L10.8592 12.7411L10.0945 11.6896L10.1306 12.9893L10.5334 12.9781ZM9.87192 9.35787C9.87192 10.6649 9.99701 11.9431 10.236 13.181L11.0272 13.0283C10.7979 11.8404 10.6778 10.6134 10.6778 9.35787H9.87192ZM9.87192 0.565918V9.35787H10.6778V0.565918H9.87192ZM29.9275 0.162992H10.2748V0.968843H29.9275V0.162992ZM30.3304 29.0105V0.565918H29.5246V29.0105H30.3304ZM17.1472 24.8146C20.6171 27.6869 25.0712 29.4134 29.9275 29.4134V28.6076C25.2657 28.6076 20.9918 26.9509 17.661 24.1938L17.1472 24.8146ZM1.92792 28.114C8.6283 29.3322 14.1727 27.1411 17.6275 24.8395L17.1807 24.1689C13.8507 26.3873 8.51578 28.4927 2.07208 27.3211L1.92792 28.114ZM10.1306 12.9893C10.2568 17.5326 8.61843 20.9329 6.72782 23.2961C4.8293 25.6693 2.68461 26.9858 1.84128 27.3472L2.15872 28.0879C3.1255 27.6736 5.3768 26.2749 7.35708 23.7996C9.34528 21.3143 11.0685 17.7327 10.9361 12.9669L10.1306 12.9893ZM10.9422 12.848C10.9133 12.8131 10.8857 12.7775 10.8592 12.7411L10.2075 13.2151C10.2439 13.2651 10.2817 13.3138 10.321 13.3613L10.9422 12.848Z" fill="currentColor"/>
</svg>
