<svg xmlns="http://www.w3.org/2000/svg" width="131" height="42" viewBox="0 0 87 47" fill="none">
  <g clip-path="url(#clip0_1482_1327)">
    <path d="M28.58 30.8867H24.8148V45.784H28.58V30.8867Z" fill="#474747"/>
    <path d="M58.9807 35.1332C58.8413 35.0636 57.5862 34.3675 55.7733 34.3675C53.3329 34.3675 51.6594 36.0382 51.6594 38.3354C51.6594 40.5631 53.2631 42.3034 55.7733 42.3034C57.5165 42.3034 58.7715 41.6073 58.9807 41.5377V45.5753C58.4926 45.6449 57.2376 46.0626 55.5641 46.0626C51.3108 46.0626 47.6153 43.1388 47.6153 38.3354C47.6153 33.8802 50.9622 30.6083 55.5641 30.6083C57.3073 30.6083 58.6321 31.026 58.9807 31.1652V35.1332Z" fill="#474747"/>
    <path d="M19.5852 35.1332C19.4458 35.0636 18.1907 34.3674 16.4475 34.3674C14.0071 34.3674 12.3337 36.0382 12.3337 38.3354C12.3337 40.563 13.9374 42.3034 16.4475 42.3034C18.1907 42.3034 19.4458 41.6072 19.5852 41.5376V45.5752C19.0971 45.7145 17.8421 46.1321 16.1686 46.1321C11.9153 46.1321 8.2198 43.2084 8.2198 38.405C8.2198 33.9498 11.5667 30.6779 16.1686 30.6779C17.9118 30.6779 19.2366 31.0956 19.5852 31.2348V35.1332Z" fill="#474747"/>
    <path d="M78.7134 38.3354C78.7134 42.5819 75.4362 46.0626 70.8343 46.0626C66.2323 46.0626 62.9552 42.5819 62.9552 38.3354C62.9552 34.089 66.2323 30.6083 70.8343 30.6083C75.4362 30.6083 78.7134 34.089 78.7134 38.3354ZM70.8343 34.4371C68.603 34.4371 66.9296 36.1774 66.9296 38.3354C66.9296 40.4935 68.603 42.2338 70.8343 42.2338C73.0655 42.2338 74.7389 40.4935 74.7389 38.3354C74.7389 36.1774 73.0655 34.4371 70.8343 34.4371Z" fill="#474747"/>
    <path d="M42.8739 34.2979C42.8042 34.2979 41.2005 33.8106 39.9454 33.8106C38.4114 33.8106 37.6444 34.2979 37.6444 35.0636C37.6444 35.9686 38.76 36.3167 39.3876 36.4559L40.4335 36.8039C42.8739 37.5697 43.9895 39.2404 43.9895 41.0504C43.9895 44.8095 40.7124 46.0626 37.7839 46.0626C35.7618 46.0626 33.8792 45.7145 33.7397 45.6449V42.2338C34.0884 42.3034 35.6223 42.7907 37.2958 42.7907C39.1784 42.7907 40.0151 42.2338 40.0151 41.3984C40.0151 40.6327 39.2481 40.215 38.3417 39.9366C38.1325 39.8669 37.7839 39.7277 37.505 39.6581C35.4132 38.962 33.67 37.7785 33.67 35.2724C33.67 32.4879 35.7618 30.6083 39.2481 30.6083C41.061 30.6083 42.8042 31.026 42.9436 31.0956V34.2979H42.8739Z" fill="#474747"/>
    <path d="M4.24542 14.8756C4.24542 13.8314 3.40871 12.996 2.36281 12.996C1.31691 12.996 0.480194 13.8314 0.480194 14.8756V18.774C0.480194 19.8182 1.31691 20.6535 2.36281 20.6535C3.40871 20.6535 4.24542 19.8182 4.24542 18.774V14.8756Z" fill="#474747"/>
    <path d="M14.4952 9.72423C14.4952 8.68003 13.6585 7.84467 12.6126 7.84467C11.5667 7.84467 10.73 8.68003 10.73 9.72423V18.774C10.73 19.8182 11.5667 20.6536 12.6126 20.6536C13.6585 20.6536 14.4952 19.8182 14.4952 18.774V9.72423Z" fill="#474747"/>
    <path d="M24.8147 2.69323C24.8147 1.64902 23.978 0.81366 22.9321 0.81366C21.8862 0.81366 21.0495 1.64902 21.0495 2.69323V22.5331C21.0495 23.5773 21.8862 24.4127 22.9321 24.4127C23.978 24.4127 24.8147 23.5773 24.8147 22.5331V2.69323Z" fill="#474747"/>
    <path d="M35.0645 9.72423C35.0645 8.68003 34.2278 7.84467 33.1819 7.84467C32.136 7.84467 31.2993 8.68003 31.2993 9.72423V18.774C31.2993 19.8182 32.136 20.6536 33.1819 20.6536C34.2278 20.6536 35.0645 19.8182 35.0645 18.774V9.72423Z" fill="#474747"/>
    <path d="M45.3143 14.8756C45.3143 13.8314 44.4776 12.996 43.4317 12.996C42.3858 12.996 41.5491 13.8314 41.5491 14.8756V18.774C41.5491 19.8182 42.3858 20.6535 43.4317 20.6535C44.4776 20.6535 45.3143 19.8182 45.3143 18.774V14.8756Z" fill="#474747"/>
    <path d="M55.6338 9.72423C55.6338 8.68003 54.7971 7.84467 53.7512 7.84467C52.7053 7.84467 51.8686 8.68003 51.8686 9.72423V18.774C51.8686 19.8182 52.7053 20.6536 53.7512 20.6536C54.7971 20.6536 55.6338 19.8182 55.6338 18.774V9.72423Z" fill="#474747"/>
    <path d="M65.8836 2.69323C65.8836 1.64902 65.0469 0.81366 64.001 0.81366C62.9551 0.81366 62.1184 1.64902 62.1184 2.69323V22.5331C62.1184 23.5773 62.9551 24.4127 64.001 24.4127C65.0469 24.4127 65.8836 23.5773 65.8836 22.5331V2.69323Z" fill="#474747"/>
    <path d="M76.2031 9.72423C76.2031 8.68003 75.3664 7.84467 74.3205 7.84467C73.2746 7.84467 72.4379 8.68003 72.4379 9.72423V18.774C72.4379 19.8182 73.2746 20.6536 74.3205 20.6536C75.3664 20.6536 76.2031 19.8182 76.2031 18.774V9.72423Z" fill="#474747"/>
    <path d="M86.4529 14.8756C86.4529 13.8314 85.6162 12.996 84.5703 12.996C83.5244 12.996 82.6877 13.8314 82.6877 14.8756V18.774C82.6877 19.8182 83.5244 20.6535 84.5703 20.6535C85.6162 20.6535 86.4529 19.8182 86.4529 18.774V14.8756Z" fill="#474747"/>
  </g>
  <defs>
    <clipPath id="clip0_1482_1327">
      <rect width="85.9728" height="45.2488" fill="white" transform="translate(0.480194 0.81366)"/>
    </clipPath>
  </defs>
</svg>