<svg width="16" height="17" viewBox="0 0 16 17" fill="none" xmlns="http://www.w3.org/2000/svg">
<path d="M2.33331 6.74529C2.33331 4.42961 2.33331 3.27178 3.01673 2.55239C3.70015 1.83301 4.80009 1.83301 6.99998 1.83301H8.99998C11.1998 1.83301 12.2998 1.83301 12.9832 2.55239C13.6666 3.27178 13.6666 4.42961 13.6666 6.74529V10.2541C13.6666 12.5697 13.6666 13.7275 12.9832 14.4469C12.2998 15.1663 11.1998 15.1663 8.99998 15.1663H6.99998C4.80009 15.1663 3.70015 15.1663 3.01673 14.4469C2.33331 13.7275 2.33331 12.5697 2.33331 10.2541V6.74529Z" stroke="currentColor" stroke-linecap="round" stroke-linejoin="round"/>
<path d="M5.33331 1.83301L5.38811 2.16181C5.52114 2.95997 5.58765 3.35905 5.8674 3.59603C6.14715 3.83301 6.55173 3.83301 7.36091 3.83301H8.63905C9.44825 3.83301 9.85285 3.83301 10.1326 3.59603C10.4123 3.35905 10.4788 2.95997 10.6118 2.16181L10.6666 1.83301" stroke="currentColor" stroke-linecap="round" stroke-linejoin="round"/>
<path d="M5.33331 11.1663H7.99998M5.33331 7.83301H10.6666" stroke="currentColor" stroke-linecap="round"/>
</svg>
