<svg width="14" height="15" viewBox="0 0 14 15" fill="none" xmlns="http://www.w3.org/2000/svg">
<path d="M11.6667 5.75H6.41667C5.77233 5.75 5.25 6.27233 5.25 6.91667V12.1667C5.25 12.811 5.77233 13.3333 6.41667 13.3333H11.6667C12.311 13.3333 12.8333 12.811 12.8333 12.1667V6.91667C12.8333 6.27233 12.311 5.75 11.6667 5.75Z" stroke="currentColor" stroke-width="1.16667" stroke-linecap="round" stroke-linejoin="round"/>
<path d="M2.91797 9.2513H2.33464C2.02522 9.2513 1.72847 9.12839 1.50968 8.90959C1.29089 8.6908 1.16797 8.39406 1.16797 8.08464V2.83464C1.16797 2.52522 1.29089 2.22847 1.50968 2.00968C1.72847 1.79089 2.02522 1.66797 2.33464 1.66797H7.58464C7.89406 1.66797 8.1908 1.79089 8.40959 2.00968C8.62839 2.22847 8.7513 2.52522 8.7513 2.83464V3.41797" stroke="currentColor" stroke-width="1.16667" stroke-linecap="round" stroke-linejoin="round"/>
</svg>
