<svg xmlns="http://www.w3.org/2000/svg" width="20" height="21" viewBox="0 0 20 21" fill="none">
<path d="M4.16694 5.84534L3.15126 6.52245C2.42317 7.00785 2.05912 7.25055 1.86183 7.62068C1.66454 7.99081 1.66601 8.42584 1.66892 9.29584C1.67245 10.3433 1.68218 11.4105 1.70914 12.4904C1.77309 15.0526 1.80507 16.3337 2.74707 17.2757C3.68907 18.2178 4.98746 18.2502 7.58421 18.3151C9.19973 18.3554 10.8009 18.3554 12.4163 18.3151C15.0131 18.2502 16.3115 18.2178 17.2535 17.2757C18.1955 16.3337 18.2275 15.0526 18.2914 12.4904C18.3184 11.4105 18.3281 10.3433 18.3316 9.29584C18.3346 8.42584 18.336 7.9908 18.1387 7.62068C17.9414 7.25055 17.5774 7.00785 16.8492 6.52245L15.8336 5.84534" stroke="#595959" stroke-width="1.25" stroke-linejoin="round"/>
<path d="M1.66669 8.34534L7.42754 11.8018C8.68085 12.5538 9.30752 12.9298 10 12.9298C10.6925 12.9298 11.3192 12.5538 12.5725 11.8018L18.3334 8.34534" stroke="#595959" stroke-width="1.25" stroke-linejoin="round"/>
<path d="M4.16663 10.0119V5.01192C4.16663 3.44057 4.16663 2.6549 4.65478 2.16675C5.14294 1.67859 5.92862 1.67859 7.49996 1.67859H12.5C14.0713 1.67859 14.857 1.67859 15.3451 2.16675C15.8333 2.6549 15.8333 3.44057 15.8333 5.01192V10.0119" stroke="black" stroke-width="1.25"/>
<path d="M8.33331 8.3453H11.6666M8.33331 5.01196H11.6666" stroke="black" stroke-width="1.25" stroke-linecap="round" stroke-linejoin="round"/>
</svg>