<svg width="32" height="32" viewBox="0 0 32 32" fill="none" xmlns="http://www.w3.org/2000/svg">
<path d="M19.0717 25.9646L16.6792 27.538L17.4692 28.73L19.8617 27.1565L19.0717 25.9646Z" fill="#F7FEFF"/>
<path d="M19.4901 23.9819L18.2965 24.7707L19.0855 25.9646L20.2791 25.1758L19.4901 23.9819Z" fill="#F7FEFF"/>
<path d="M17.0963 25.5475L16.3073 24.3536L15.1136 25.1423L16.6917 27.5301L19.0789 25.9527L18.2899 24.7587L17.0963 25.5475Z" fill="#231E2B"/>
<path d="M19.907 21.9993L18.7134 22.788L19.5024 23.9819L20.696 23.1932L19.907 21.9993Z" fill="#F7FEFF"/>
<path d="M18.7066 22.7821L17.513 23.5708L18.302 24.7647L19.4956 23.976L18.7066 22.7821Z" fill="#231E2B"/>
<path d="M17.5077 23.5648L16.314 24.3536L17.103 25.5475L18.2967 24.7587L17.5077 23.5648Z" fill="#F5F38E"/>
<path d="M15.1054 25.1304L13.9133 25.9196L15.4865 28.3129L16.6787 27.5238L15.1054 25.1304Z" fill="#F7FEFF"/>
<path d="M20.3239 20.0166L19.1303 20.8054L19.9193 21.9993L21.1129 21.2105L20.3239 20.0166Z" fill="#F7FEFF"/>
<path d="M19.1236 20.7994L17.9299 21.5881L18.7189 22.782L19.9126 21.9933L19.1236 20.7994Z" fill="#231E2B"/>
<path d="M15.9407 21.1652L14.7485 21.9543L16.3218 24.3477L17.5139 23.5585L15.9407 21.1652Z" fill="#231E2B"/>
<path d="M14.7403 21.9479L13.5481 22.7371L15.1214 25.1304L16.3136 24.3413L14.7403 21.9479Z" fill="#F7FEFF"/>
<path d="M20.7408 18.034L19.5472 18.8227L20.3362 20.0166L21.5298 19.2279L20.7408 18.034Z" fill="#F7FEFF"/>
<path d="M19.5405 18.8168L18.3468 19.6055L19.1358 20.7994L20.3295 20.0107L19.5405 18.8168Z" fill="#231E2B"/>
<path d="M18.3415 19.5996L17.1479 20.3883L17.9369 21.5822L19.1305 20.7935L18.3415 19.5996Z" fill="#CF8934"/>
<path d="M17.1396 20.3824L15.9475 21.1715L17.5207 23.5649L18.7129 22.7757L17.1396 20.3824Z" fill="#F5F38E"/>
<path d="M21.1578 16.0514L19.9641 16.8401L20.7532 18.034L21.9468 17.2453L21.1578 16.0514Z" fill="#F7FEFF"/>
<path d="M19.9588 16.8341L18.7652 17.6229L19.5542 18.8168L20.7478 18.028L19.9588 16.8341Z" fill="#231E2B"/>
<path d="M18.7584 17.6169L17.5648 18.4057L18.3538 19.5996L19.5474 18.8108L18.7584 17.6169Z" fill="#CF8934"/>
<path d="M14.3676 18.7655L10.7822 21.1285L11.5721 22.321L13.9624 20.7457L14.7522 21.9382L15.9473 21.1505L14.3676 18.7655Z" fill="#F7FEFF"/>
<path d="M21.5747 14.0687L20.381 14.8575L21.1701 16.0514L22.3637 15.2626L21.5747 14.0687Z" fill="#F7FEFF"/>
<path d="M20.3757 14.8515L19.1821 15.6403L19.9711 16.8342L21.1647 16.0454L20.3757 14.8515Z" fill="#231E2B"/>
<path d="M19.1753 15.6343L17.9817 16.423L18.7707 17.6169L19.9643 16.8282L19.1753 15.6343Z" fill="#CF8934"/>
<path d="M16.7745 17.1999L15.5823 17.989L17.1556 20.3824L18.3478 19.5932L16.7745 17.1999Z" fill="#F5F38E"/>
<path d="M21.9916 12.0861L20.798 12.8748L21.587 14.0687L22.7806 13.28L21.9916 12.0861Z" fill="#F7FEFF"/>
<path d="M20.7926 12.8689L19.599 13.6576L20.388 14.8515L21.5816 14.0628L20.7926 12.8689Z" fill="#231E2B"/>
<path d="M19.5922 13.6517L18.3986 14.4404L19.1876 15.6343L20.3812 14.8456L19.5922 13.6517Z" fill="#CF8934"/>
<path d="M14.3825 18.7595L15.9606 21.1474L17.1542 20.3586L15.5762 17.9708L16.7698 17.1821L15.9808 15.9882L11.2063 19.1431L9.62826 16.7553L8.43463 17.544L10.8017 21.1257L14.3825 18.7595Z" fill="#231E2B"/>
<path d="M20.0091 11.669L18.8155 12.4577L19.6045 13.6517L20.7982 12.8629L20.0091 11.669Z" fill="#CF8934"/>
<path d="M8.4266 17.5143L7.23425 18.3028L9.59013 21.8966L10.7825 21.1081L8.4266 17.5143Z" fill="#F7FEFF"/>
<path d="M20.8417 7.70373L19.6494 8.49226L22.0052 12.0861L23.1976 11.2975L20.8417 7.70373Z" fill="#F7FEFF"/>
<path d="M19.2255 10.4692L16.8331 12.0426L17.6231 13.2346L20.0156 11.6611L19.2255 10.4692Z" fill="#F5F38E"/>
<path d="M10.8258 15.9487L9.63361 16.7379L11.2069 19.1312L12.399 18.3421L10.8258 15.9487Z" fill="#F5F38E"/>
<path d="M17.2434 10.0581L16.4544 8.86416L15.2608 9.65289L16.0498 10.8468L14.8562 11.6355L15.6452 12.8294L19.2261 10.4632L20.8041 12.851L21.9977 12.0623L19.6307 8.4806L17.2434 10.0581Z" fill="#231E2B"/>
<path d="M14.8439 11.6177L13.6503 12.4064L14.4393 13.6003L15.6329 12.8116L14.8439 11.6177Z" fill="#CF8934"/>
<path d="M10.4606 12.7662L9.26846 13.5554L10.8417 15.9487L12.0339 15.1596L10.4606 12.7662Z" fill="#F5F38E"/>
<path d="M9.26025 13.549L8.06808 14.3382L9.64135 16.7315L10.8335 15.9424L9.26025 13.549Z" fill="#231E2B"/>
<path d="M8.06128 14.3318L6.86911 15.121L8.44237 17.5143L9.63454 16.7252L8.06128 14.3318Z" fill="#F7FEFF"/>
<path d="M15.2608 9.63507L14.0672 10.4238L14.8562 11.6177L16.0498 10.829L15.2608 9.63507Z" fill="#CF8934"/>
<path d="M17.6671 8.0695L16.4735 8.85823L17.2625 10.0521L19.6498 8.47467L18.0717 6.08686L16.8781 6.87559L17.6671 8.0695Z" fill="#F7FEFF"/>
<path d="M16.8781 6.86964L15.6845 7.65837L16.4735 8.85228L17.6671 8.06355L16.8781 6.86964Z" fill="#231E2B"/>
<path d="M15.6791 7.65242L14.4855 8.44115L15.2745 9.63505L16.4681 8.84632L15.6791 7.65242Z" fill="#CF8934"/>
<path d="M11.6647 11.9993L10.4719 12.7885L12.0481 15.1786L10.8553 15.9678L12.4315 18.3579L16.0098 15.9905L17.586 18.3807L18.7788 17.5915L17.9907 16.3964L19.1835 15.6073L18.3954 14.4122L19.5882 13.6231L18.8001 12.428L17.6073 13.2171L16.8192 12.0221L14.4336 13.6004L13.6456 12.4053L14.8383 11.6161L14.0502 10.421L15.243 9.6319L14.4549 8.43682L15.6477 7.64767L14.8596 6.45259L10.0885 9.60918L11.6647 11.9993Z" fill="#E2B436"/>
<path d="M10.0955 9.58374L8.90332 10.3729L10.4766 12.7662L11.6687 11.9771L10.0955 9.58374Z" fill="#F5F38E"/>
<path d="M8.89511 10.3665L7.70294 11.1557L9.2762 13.549L10.4684 12.7599L8.89511 10.3665Z" fill="#231E2B"/>
<path d="M7.69473 11.1493L6.50256 11.9384L8.07583 14.3318L9.26799 13.5427L7.69473 11.1493Z" fill="#F7FEFF"/>
<path d="M17.7104 2.90437L16.5183 3.69351L18.0915 6.08686L19.2837 5.29772L17.7104 2.90437Z" fill="#F7FEFF"/>
<path d="M16.096 5.6698L14.9024 6.45853L15.6914 7.65243L16.885 6.8637L16.096 5.6698Z" fill="#CF8934"/>
<path d="M8.11984 9.18224L8.90919 10.3743L16.097 5.66422L16.8864 6.85628L18.0843 6.07127L16.5056 3.68714L8.11984 9.18224Z" fill="#231E2B"/>
<path d="M8.11309 9.1667L6.91946 9.95543L7.70847 11.1493L8.9021 10.3606L8.11309 9.1667Z" fill="#F7FEFF"/>
<path d="M15.7306 2.48729L7.3364 7.97282L8.1239 9.16668L16.5181 3.68115L15.7306 2.48729Z" fill="#F7FEFF"/>
</svg>
