<svg width="32" height="32" viewBox="0 0 32 32" fill="none" xmlns="http://www.w3.org/2000/svg">
<g clip-path="url(#clip0_1198_1194)">
<g clip-path="url(#clip1_1198_1194)">
<path d="M5.10628 10.366L6.75909 9.84005L7.28506 11.4929L5.63225 12.0188L5.10628 10.366Z" fill="black"/>
<path d="M5.63225 12.0188L7.28506 11.4929L7.81102 13.1457L6.15822 13.6716L5.63225 12.0188Z" fill="black"/>
<path d="M6.15822 13.6716L7.81102 13.1457L8.33699 14.7985L6.68418 15.3244L6.15822 13.6716Z" fill="black"/>
<path d="M6.68418 15.3244L8.33699 14.7985L8.86296 16.4513L7.21015 16.9772L6.68418 15.3244Z" fill="black"/>
<path d="M7.21015 16.9772L8.86296 16.4513L9.38892 18.1041L7.73612 18.63L7.21015 16.9772Z" fill="black"/>
<path d="M7.73612 18.63L9.38892 18.1041L9.91489 19.7569L8.26208 20.2829L7.73612 18.63Z" fill="black"/>
<path d="M8.26208 20.2829L9.91489 19.7569L10.4409 21.4097L8.78805 21.9357L8.26208 20.2829Z" fill="black"/>
<path d="M8.78805 21.9357L10.4409 21.4097L10.9668 23.0625L9.31402 23.5885L8.78805 21.9357Z" fill="black"/>
<path d="M9.31402 23.5885L10.9668 23.0625L11.4928 24.7153L9.83999 25.2413L9.31402 23.5885Z" fill="black"/>
<path d="M9.83999 25.2413L11.4928 24.7153L12.0188 26.3681L10.366 26.8941L9.83999 25.2413Z" fill="black"/>
<path d="M10.366 26.8941L12.0188 26.3681L12.5447 28.0209L10.8919 28.5469L10.366 26.8941Z" fill="black"/>
<path d="M10.8919 28.5469L12.5447 28.0209L13.0707 29.6737L11.4179 30.1997L10.8919 28.5469Z" fill="black"/>
<path d="M13.0707 29.6737L14.7235 29.1478L15.2495 30.8006L13.5967 31.3265L13.0707 29.6737Z" fill="black"/>
<path d="M14.7235 29.1478L16.3763 28.6218L16.9023 30.2746L15.2495 30.8006L14.7235 29.1478Z" fill="black"/>
<path d="M16.3763 28.6218L18.0291 28.0958L18.5551 29.7486L16.9023 30.2746L16.3763 28.6218Z" fill="black"/>
<path d="M18.0291 28.0958L19.6819 27.5699L20.2079 29.2227L18.5551 29.7486L18.0291 28.0958Z" fill="black"/>
<path d="M19.6819 27.5699L21.3347 27.0439L21.8607 28.6967L20.2079 29.2227L19.6819 27.5699Z" fill="black"/>
<path d="M21.3347 27.0439L22.9875 26.5179L23.5135 28.1707L21.8607 28.6967L21.3347 27.0439Z" fill="black"/>
<path d="M22.9875 26.5179L24.6403 25.992L25.1663 27.6448L23.5135 28.1707L22.9875 26.5179Z" fill="black"/>
<path d="M24.1144 24.3392L25.7672 23.8132L26.2931 25.466L24.6403 25.992L24.1144 24.3392Z" fill="black"/>
<path d="M25.2412 22.1604L26.894 21.6344L27.42 23.2872L25.7672 23.8132L25.2412 22.1604Z" fill="black"/>
<path d="M24.7152 20.5076L26.3681 19.9816L26.894 21.6344L25.2412 22.1604L24.7152 20.5076Z" fill="black"/>
<path d="M24.1893 18.8548L25.8421 18.3288L26.3681 19.9816L24.7152 20.5076L24.1893 18.8548Z" fill="black"/>
<path d="M23.6633 17.202L25.3161 16.676L25.8421 18.3288L24.1893 18.8548L23.6633 17.202Z" fill="black"/>
<path d="M23.1373 15.5492L24.7902 15.0232L25.3161 16.676L23.6633 17.202L23.1373 15.5492Z" fill="black"/>
<path d="M22.6114 13.8963L24.2642 13.3704L24.7902 15.0232L23.1373 15.5492L22.6114 13.8963Z" fill="black"/>
<path d="M22.0854 12.2435L23.7382 11.7176L24.2642 13.3704L22.6114 13.8963L22.0854 12.2435Z" fill="black"/>
<path d="M21.5594 10.5907L23.2123 10.0648L23.7382 11.7176L22.0854 12.2435L21.5594 10.5907Z" fill="black"/>
<path d="M21.0335 8.93792L22.6863 8.41196L23.2123 10.0648L21.5594 10.5907L21.0335 8.93792Z" fill="black"/>
<path d="M20.5075 7.28512L22.1603 6.75915L22.6863 8.41196L21.0335 8.93792L20.5075 7.28512Z" fill="black"/>
<path d="M19.9815 5.63231L21.6344 5.10634L22.1603 6.75915L20.5075 7.28512L19.9815 5.63231Z" fill="black"/>
<path d="M19.4556 3.9795L21.1084 3.45354L21.6344 5.10634L19.9815 5.63231L19.4556 3.9795Z" fill="black"/>
<path d="M18.9296 2.3267L20.5824 1.80073L21.1084 3.45354L19.4556 3.9795L18.9296 2.3267Z" fill="black"/>
<path d="M16.7508 1.19986L18.4036 0.67389L18.9296 2.3267L17.2768 2.85266L16.7508 1.19986Z" fill="black"/>
<path d="M15.098 1.72582L16.7508 1.19986L17.2768 2.85266L15.624 3.37863L15.098 1.72582Z" fill="black"/>
<path d="M13.4452 2.25179L15.098 1.72582L15.624 3.37863L13.9712 3.9046L13.4452 2.25179Z" fill="black"/>
<path d="M11.7924 2.77776L13.4452 2.25179L13.9712 3.9046L12.3184 4.43056L11.7924 2.77776Z" fill="black"/>
<path d="M10.1396 3.30372L11.7924 2.77776L12.3184 4.43056L10.6656 4.95653L10.1396 3.30372Z" fill="black"/>
<path d="M8.4868 3.82969L10.1396 3.30372L10.6656 4.95653L9.01277 5.4825L8.4868 3.82969Z" fill="black"/>
<path d="M6.834 4.35566L8.4868 3.82969L9.01277 5.4825L7.35996 6.00847L6.834 4.35566Z" fill="black"/>
<path d="M5.18119 4.88163L6.834 4.35566L7.35996 6.00847L5.70716 6.53443L5.18119 4.88163Z" fill="black"/>
<path d="M4.05435 7.0604L5.70716 6.53443L6.23312 8.18724L4.58032 8.71321L4.05435 7.0604Z" fill="black"/>
<path d="M4.58032 8.71321L6.23312 8.18724L6.75909 9.84005L5.10628 10.366L4.58032 8.71321Z" fill="black"/>
<path d="M5.70716 6.53443L7.35996 6.00847L7.88593 7.66127L6.23312 8.18724L5.70716 6.53443Z" fill="#D6D6D6"/>
<path d="M7.35996 6.00847L9.01277 5.4825L9.53874 7.13531L7.88593 7.66127L7.35996 6.00847Z" fill="#D6D6D6"/>
<path d="M9.01277 5.4825L10.6656 4.95653L11.1915 6.60934L9.53874 7.13531L9.01277 5.4825Z" fill="#D6D6D6"/>
<path d="M10.6656 4.95653L12.3184 4.43056L12.8443 6.08337L11.1915 6.60934L10.6656 4.95653Z" fill="#D6D6D6"/>
<path d="M12.3184 4.43056L13.9712 3.9046L14.4972 5.5574L12.8443 6.08337L12.3184 4.43056Z" fill="#D6D6D6"/>
<path d="M13.9712 3.9046L15.624 3.37863L16.15 5.03144L14.4972 5.5574L13.9712 3.9046Z" fill="#D6D6D6"/>
<path d="M15.624 3.37863L17.2768 2.85266L17.8028 4.50547L16.15 5.03144L15.624 3.37863Z" fill="#D6D6D6"/>
<path d="M17.2768 2.85266L18.9296 2.3267L19.4556 3.9795L17.8028 4.50547L17.2768 2.85266Z" fill="#D6D6D6"/>
<path d="M8.4119 9.31408L10.0647 8.78811L10.5907 10.4409L8.93786 10.9669L8.4119 9.31408Z" fill="black"/>
<path d="M8.93786 10.9669L10.5907 10.4409L11.1166 12.0937L9.46383 12.6197L8.93786 10.9669Z" fill="black"/>
<path d="M9.46383 12.6197L11.1166 12.0937L11.6426 13.7465L9.9898 14.2725L9.46383 12.6197Z" fill="black"/>
<path d="M9.9898 14.2725L11.6426 13.7465L12.1686 15.3993L10.5158 15.9253L9.9898 14.2725Z" fill="black"/>
<path d="M10.0647 8.78811L11.7175 8.26215L12.2435 9.91495L10.5907 10.4409L10.0647 8.78811Z" fill="#01FF00"/>
<path d="M11.7175 8.26215L13.3703 7.73618L13.8963 9.38899L12.2435 9.91495L11.7175 8.26215Z" fill="#01FF00"/>
<path d="M13.3703 7.73618L15.0231 7.21021L15.5491 8.86302L13.8963 9.38899L13.3703 7.73618Z" fill="#01FF00"/>
<path d="M15.0231 7.21021L16.6759 6.68424L17.2019 8.33705L15.5491 8.86302L15.0231 7.21021Z" fill="#01FF00"/>
<path d="M16.6759 6.68424L18.3287 6.15828L18.8547 7.81108L17.2019 8.33705L16.6759 6.68424Z" fill="black"/>
<path d="M17.2019 8.33705L18.8547 7.81108L19.3807 9.46389L17.7279 9.98986L17.2019 8.33705Z" fill="black"/>
<path d="M17.7279 9.98986L19.3807 9.46389L19.9066 11.1167L18.2538 11.6427L17.7279 9.98986Z" fill="black"/>
<path d="M18.2538 11.6427L19.9066 11.1167L20.4326 12.7695L18.7798 13.2955L18.2538 11.6427Z" fill="black"/>
<path d="M10.5158 15.9253L12.1686 15.3993L12.6945 17.0521L11.0417 17.5781L10.5158 15.9253Z" fill="black"/>
<path d="M12.1686 15.3993L13.8214 14.8734L14.3473 16.5262L12.6945 17.0521L12.1686 15.3993Z" fill="black"/>
<path d="M13.8214 14.8734L15.4742 14.3474L16.0002 16.0002L14.3473 16.5262L13.8214 14.8734Z" fill="black"/>
<path d="M15.4742 14.3474L17.127 13.8214L17.653 15.4742L16.0002 16.0002L15.4742 14.3474Z" fill="black"/>
<path d="M17.127 13.8214L18.7798 13.2955L19.3058 14.9483L17.653 15.4742L17.127 13.8214Z" fill="black"/>
<path d="M18.7798 13.2955L20.4326 12.7695L20.9586 14.4223L19.3058 14.9483L18.7798 13.2955Z" fill="black"/>
<path d="M13.2205 18.705L14.8733 18.179L15.3993 19.8318L13.7465 20.3578L13.2205 18.705Z" fill="black"/>
<path d="M13.7465 20.3578L15.3993 19.8318L15.9252 21.4846L14.2724 22.0106L13.7465 20.3578Z" fill="#D6D6D6"/>
<path d="M12.0937 20.8837L13.7465 20.3578L14.2724 22.0106L12.6196 22.5365L12.0937 20.8837Z" fill="black"/>
<path d="M14.2724 22.0106L15.9252 21.4846L16.4512 23.1374L14.7984 23.6634L14.2724 22.0106Z" fill="black"/>
<path d="M15.3993 19.8318L17.0521 19.3058L17.5781 20.9586L15.9252 21.4846L15.3993 19.8318Z" fill="black"/>
<path d="M16.9772 24.7902L18.63 24.2642L19.156 25.9171L17.5031 26.443L16.9772 24.7902Z" fill="#D6D6D6"/>
<path d="M18.104 22.6114L19.7568 22.0855L20.2828 23.7383L18.63 24.2642L18.104 22.6114Z" fill="#D6D6D6"/>
<path d="M20.2828 23.7383L21.9356 23.2123L22.4616 24.8651L20.8088 25.3911L20.2828 23.7383Z" fill="black"/>
<path d="M21.4096 21.5595L23.0624 21.0335L23.5884 22.6863L21.9356 23.2123L21.4096 21.5595Z" fill="black"/>
<path d="M18.7049 18.7799L20.3577 18.2539L20.8837 19.9067L19.2309 20.4327L18.7049 18.7799Z" fill="black"/>
<path d="M20.3577 18.2539L22.0105 17.7279L22.5365 19.3807L20.8837 19.9067L20.3577 18.2539Z" fill="#D6D6D6"/>
<path d="M6.23312 8.18724L7.88593 7.66127L8.4119 9.31408L6.75909 9.84005L6.23312 8.18724Z" fill="#D6D6D6"/>
<path d="M6.75909 9.84005L8.4119 9.31408L8.93786 10.9669L7.28506 11.4929L6.75909 9.84005Z" fill="#D6D6D6"/>
<path d="M7.28506 11.4929L8.93786 10.9669L9.46383 12.6197L7.81102 13.1457L7.28506 11.4929Z" fill="#D6D6D6"/>
<path d="M7.81102 13.1457L9.46383 12.6197L9.9898 14.2725L8.33699 14.7985L7.81102 13.1457Z" fill="#D6D6D6"/>
<path d="M8.33699 14.7985L9.9898 14.2725L10.5158 15.9253L8.86296 16.4513L8.33699 14.7985Z" fill="#D6D6D6"/>
<path d="M8.86296 16.4513L10.5158 15.9253L11.0417 17.5781L9.38892 18.1041L8.86296 16.4513Z" fill="#D6D6D6"/>
<path d="M9.38892 18.1041L11.0417 17.5781L11.5677 19.2309L9.91489 19.7569L9.38892 18.1041Z" fill="#D6D6D6"/>
<path d="M9.91489 19.7569L11.5677 19.2309L12.0937 20.8837L10.4409 21.4097L9.91489 19.7569Z" fill="#D6D6D6"/>
<path d="M10.4409 21.4097L12.0937 20.8837L12.6196 22.5365L10.9668 23.0625L10.4409 21.4097Z" fill="#D6D6D6"/>
<path d="M10.9668 23.0625L12.6196 22.5365L13.1456 24.1893L11.4928 24.7153L10.9668 23.0625Z" fill="#D6D6D6"/>
<path d="M11.4928 24.7153L13.1456 24.1893L13.6716 25.8421L12.0188 26.3681L11.4928 24.7153Z" fill="#D6D6D6"/>
<path d="M12.0188 26.3681L13.6716 25.8421L14.1975 27.495L12.5447 28.0209L12.0188 26.3681Z" fill="#D6D6D6"/>
<path d="M12.5447 28.0209L14.1975 27.495L14.7235 29.1478L13.0707 29.6737L12.5447 28.0209Z" fill="#D6D6D6"/>
<path d="M7.88593 7.66127L9.53874 7.13531L10.0647 8.78811L8.4119 9.31408L7.88593 7.66127Z" fill="black"/>
<path d="M9.53874 7.13531L11.1915 6.60934L11.7175 8.26215L10.0647 8.78811L9.53874 7.13531Z" fill="black"/>
<path d="M11.1915 6.60934L12.8443 6.08337L13.3703 7.73618L11.7175 8.26215L11.1915 6.60934Z" fill="black"/>
<path d="M12.8443 6.08337L14.4972 5.5574L15.0231 7.21021L13.3703 7.73618L12.8443 6.08337Z" fill="black"/>
<path d="M14.4972 5.5574L16.15 5.03144L16.6759 6.68424L15.0231 7.21021L14.4972 5.5574Z" fill="black"/>
<path d="M16.15 5.03144L17.8028 4.50547L18.3287 6.15828L16.6759 6.68424L16.15 5.03144Z" fill="black"/>
<path d="M17.8028 4.50547L19.4556 3.9795L19.9815 5.63231L18.3287 6.15828L17.8028 4.50547Z" fill="#D6D6D6"/>
<path d="M18.3287 6.15828L19.9815 5.63231L20.5075 7.28512L18.8547 7.81108L18.3287 6.15828Z" fill="#D6D6D6"/>
<path d="M18.8547 7.81108L20.5075 7.28512L21.0335 8.93792L19.3807 9.46389L18.8547 7.81108Z" fill="#D6D6D6"/>
<path d="M19.3807 9.46389L21.0335 8.93792L21.5594 10.5907L19.9066 11.1167L19.3807 9.46389Z" fill="#D6D6D6"/>
<path d="M19.9066 11.1167L21.5594 10.5907L22.0854 12.2435L20.4326 12.7695L19.9066 11.1167Z" fill="#D6D6D6"/>
<path d="M20.4326 12.7695L22.0854 12.2435L22.6114 13.8963L20.9586 14.4223L20.4326 12.7695Z" fill="#D6D6D6"/>
<path d="M20.9586 14.4223L22.6114 13.8963L23.1373 15.5492L21.4845 16.0751L20.9586 14.4223Z" fill="#D6D6D6"/>
<path d="M21.4845 16.0751L23.1373 15.5492L23.6633 17.202L22.0105 17.7279L21.4845 16.0751Z" fill="#D6D6D6"/>
<path d="M22.0105 17.7279L23.6633 17.202L24.1893 18.8548L22.5365 19.3807L22.0105 17.7279Z" fill="#D6D6D6"/>
<path d="M22.5365 19.3807L24.1893 18.8548L24.7152 20.5076L23.0624 21.0335L22.5365 19.3807Z" fill="#D6D6D6"/>
<path d="M23.0624 21.0335L24.7152 20.5076L25.2412 22.1604L23.5884 22.6863L23.0624 21.0335Z" fill="black"/>
<path d="M23.5884 22.6863L25.2412 22.1604L25.7672 23.8132L24.1144 24.3392L23.5884 22.6863Z" fill="#D6D6D6"/>
<path d="M21.9356 23.2123L23.5884 22.6863L24.1144 24.3392L22.4616 24.8651L21.9356 23.2123Z" fill="#D6D6D6"/>
<path d="M21.9356 23.2123L23.5884 22.6863L24.1144 24.3392L22.4616 24.8651L21.9356 23.2123Z" fill="black"/>
<path d="M22.4616 24.8651L24.1144 24.3392L24.6403 25.992L22.9875 26.5179L22.4616 24.8651Z" fill="#D6D6D6"/>
<path d="M20.8088 25.3911L22.4616 24.8651L22.9875 26.5179L21.3347 27.0439L20.8088 25.3911Z" fill="black"/>
<path d="M19.156 25.9171L20.8088 25.3911L21.3347 27.0439L19.6819 27.5699L19.156 25.9171Z" fill="#D6D6D6"/>
<path d="M17.5031 26.443L19.156 25.9171L19.6819 27.5699L18.0291 28.0958L17.5031 26.443Z" fill="#D6D6D6"/>
<path d="M15.8503 26.969L17.5031 26.443L18.0291 28.0958L16.3763 28.6218L15.8503 26.969Z" fill="#D6D6D6"/>
<path d="M14.1975 27.495L15.8503 26.969L16.3763 28.6218L14.7235 29.1478L14.1975 27.495Z" fill="#D6D6D6"/>
<path d="M13.6716 25.8421L15.3244 25.3162L15.8503 26.969L14.1975 27.495L13.6716 25.8421Z" fill="#D6D6D6"/>
<path d="M13.1456 24.1893L14.7984 23.6634L15.3244 25.3162L13.6716 25.8421L13.1456 24.1893Z" fill="#D6D6D6"/>
<path d="M12.6196 22.5365L14.2724 22.0106L14.7984 23.6634L13.1456 24.1893L12.6196 22.5365Z" fill="#D6D6D6"/>
<path d="M14.7984 23.6634L16.4512 23.1374L16.9772 24.7902L15.3244 25.3162L14.7984 23.6634Z" fill="#D6D6D6"/>
<path d="M15.3244 25.3162L16.9772 24.7902L17.5031 26.443L15.8503 26.969L15.3244 25.3162Z" fill="#D6D6D6"/>
<path d="M11.5677 19.2309L13.2205 18.705L13.7465 20.3578L12.0937 20.8837L11.5677 19.2309Z" fill="#D6D6D6"/>
<path d="M11.0417 17.5781L12.6945 17.0521L13.2205 18.705L11.5677 19.2309L11.0417 17.5781Z" fill="#D6D6D6"/>
<path d="M12.6945 17.0521L14.3473 16.5262L14.8733 18.179L13.2205 18.705L12.6945 17.0521Z" fill="#D6D6D6"/>
<path d="M14.3473 16.5262L16.0002 16.0002L16.5261 17.653L14.8733 18.179L14.3473 16.5262Z" fill="#D6D6D6"/>
<path d="M16.0002 16.0002L17.653 15.4742L18.1789 17.1271L16.5261 17.653L16.0002 16.0002Z" fill="#D6D6D6"/>
<path d="M17.653 15.4742L19.3058 14.9483L19.8317 16.6011L18.1789 17.1271L17.653 15.4742Z" fill="#D6D6D6"/>
<path d="M19.3058 14.9483L20.9586 14.4223L21.4845 16.0751L19.8317 16.6011L19.3058 14.9483Z" fill="#D6D6D6"/>
<path d="M19.8317 16.6011L21.4845 16.0751L22.0105 17.7279L20.3577 18.2539L19.8317 16.6011Z" fill="black"/>
<path d="M18.1789 17.1271L19.8317 16.6011L20.3577 18.2539L18.7049 18.7799L18.1789 17.1271Z" fill="#D6D6D6"/>
<path d="M16.5261 17.653L18.1789 17.1271L18.7049 18.7799L17.0521 19.3058L16.5261 17.653Z" fill="#D6D6D6"/>
<path d="M14.8733 18.179L16.5261 17.653L17.0521 19.3058L15.3993 19.8318L14.8733 18.179Z" fill="#D6D6D6"/>
<path d="M17.0521 19.3058L18.7049 18.7799L19.2309 20.4327L17.5781 20.9586L17.0521 19.3058Z" fill="#D6D6D6"/>
<path d="M17.5781 20.9586L19.2309 20.4327L19.7568 22.0855L18.104 22.6114L17.5781 20.9586Z" fill="#D6D6D6"/>
<path d="M15.9252 21.4846L17.5781 20.9586L18.104 22.6114L16.4512 23.1374L15.9252 21.4846Z" fill="#D6D6D6"/>
<path d="M16.4512 23.1374L18.104 22.6114L18.63 24.2642L16.9772 24.7902L16.4512 23.1374Z" fill="#D6D6D6"/>
<path d="M18.63 24.2642L20.2828 23.7383L20.8088 25.3911L19.156 25.9171L18.63 24.2642Z" fill="#D6D6D6"/>
<path d="M19.7568 22.0855L21.4096 21.5595L21.9356 23.2123L20.2828 23.7383L19.7568 22.0855Z" fill="black"/>
<path d="M19.2309 20.4327L20.8837 19.9067L21.4096 21.5595L19.7568 22.0855L19.2309 20.4327Z" fill="#D6D6D6"/>
<path d="M20.8837 19.9067L22.5365 19.3807L23.0624 21.0335L21.4096 21.5595L20.8837 19.9067Z" fill="#D6D6D6"/>
<path d="M10.5907 10.4409L12.2435 9.91495L12.7694 11.5678L11.1166 12.0937L10.5907 10.4409Z" fill="#01FF00"/>
<path d="M11.1166 12.0937L12.7694 11.5678L13.2954 13.2206L11.6426 13.7465L11.1166 12.0937Z" fill="#01FF00"/>
<path d="M11.6426 13.7465L13.2954 13.2206L13.8214 14.8734L12.1686 15.3993L11.6426 13.7465Z" fill="#01FF00"/>
<path d="M13.2954 13.2206L14.9482 12.6946L15.4742 14.3474L13.8214 14.8734L13.2954 13.2206Z" fill="#01FF00"/>
<path d="M19.7568 22.0855L21.4096 21.5595L21.9356 23.2123L20.2828 23.7383L19.7568 22.0855Z" fill="#D6D6D6"/>
<path d="M14.9482 12.6946L16.601 12.1686L17.127 13.8214L15.4742 14.3474L14.9482 12.6946Z" fill="#01FF00"/>
<path d="M16.601 12.1686L18.2538 11.6427L18.7798 13.2955L17.127 13.8214L16.601 12.1686Z" fill="#01FF00"/>
<path d="M16.0751 10.5158L17.7279 9.98986L18.2538 11.6427L16.601 12.1686L16.0751 10.5158Z" fill="#01FF00"/>
<path d="M15.5491 8.86302L17.2019 8.33705L17.7279 9.98986L16.0751 10.5158L15.5491 8.86302Z" fill="#01FF00"/>
<path d="M13.8963 9.38899L15.5491 8.86302L16.0751 10.5158L14.4223 11.0418L13.8963 9.38899Z" fill="#01FF00"/>
<path d="M12.2435 9.91495L13.8963 9.38899L14.4223 11.0418L12.7694 11.5678L12.2435 9.91495Z" fill="#01FF00"/>
<path d="M14.4223 11.0418L16.0751 10.5158L16.601 12.1686L14.9482 12.6946L14.4223 11.0418Z" fill="#01FF00"/>
<path d="M12.7694 11.5678L14.4223 11.0418L14.9482 12.6946L13.2954 13.2206L12.7694 11.5678Z" fill="#01FF00"/>
<path d="M10.0647 8.78811L11.7175 8.26215L12.2435 9.91495L10.5907 10.4409L10.0647 8.78811Z" fill="white"/>
<path d="M10.5907 10.4409L12.2435 9.91495L12.7694 11.5678L11.1166 12.0937L10.5907 10.4409Z" fill="white"/>
<path d="M11.7175 8.26215L13.3703 7.73618L13.8963 9.38899L12.2435 9.91495L11.7175 8.26215Z" fill="white"/>
</g>
</g>
<defs>
<clipPath id="clip0_1198_1194">
<rect width="32" height="32" fill="white"/>
</clipPath>
<clipPath id="clip1_1198_1194">
<rect width="27.7516" height="27.7516" fill="white" transform="translate(-1.43005 6.98535) rotate(-17.6525)"/>
</clipPath>
</defs>
</svg>
