<svg width="32" height="32" viewBox="0 0 32 32" fill="none" xmlns="http://www.w3.org/2000/svg">
<rect width="1.62332" height="1.61294" transform="matrix(0.194976 -0.980808 0.981638 0.190751 24.8298 29.6124)" fill="#6B6B6B"/>
<rect width="1.62332" height="1.61294" transform="matrix(0.194976 -0.980808 0.981638 0.190751 25.0753 27.9567)" fill="#181818"/>
<rect width="1.62332" height="1.61294" transform="matrix(0.194976 -0.980808 0.981638 0.190751 26.7298 28.2021)" fill="#181818"/>
<rect width="1.62332" height="1.61294" transform="matrix(0.194976 -0.980808 0.981638 0.190751 26.4843 29.8577)" fill="#181818"/>
<rect width="1.62332" height="1.61294" transform="matrix(0.194976 -0.980808 0.981638 0.190751 26.239 31.5117)" fill="#181818"/>
<rect width="1.62332" height="1.61294" transform="matrix(0.194976 -0.980808 0.981638 0.190751 24.5845 31.2663)" fill="#444444"/>
<rect width="1.62332" height="1.61294" transform="matrix(0.194976 -0.980808 0.981638 0.190751 23.4209 27.7113)" fill="#684E1E"/>
<rect width="1.62332" height="1.61294" transform="matrix(0.194976 -0.980808 0.981638 0.190751 22.0117 25.8119)" fill="#896727"/>
<rect width="1.62332" height="1.61294" transform="matrix(0.194976 -0.980808 0.981638 0.190751 22.257 24.1579)" fill="#281E0B"/>
<rect width="1.62332" height="1.61294" transform="matrix(0.194976 -0.980808 0.981638 0.190751 20.3572 25.5666)" fill="#493615"/>
<rect width="1.62332" height="1.61294" transform="matrix(0.194976 -0.980808 0.981638 0.190751 18.9481 23.6672)" fill="#444444"/>
<rect width="1.62332" height="1.61294" transform="matrix(0.194976 -0.980808 0.981638 0.190751 19.1934 22.0132)" fill="#6B6B6B"/>
<rect width="1.62332" height="1.61294" transform="matrix(0.194976 -0.980808 0.981638 0.190751 19.4389 20.3575)" fill="#444444"/>
<rect width="1.62332" height="1.61294" transform="matrix(0.194976 -0.980808 0.981638 0.190751 21.0934 20.6029)" fill="#444444"/>
<rect width="1.62332" height="1.61294" transform="matrix(0.194976 -0.980808 0.981638 0.190751 21.3387 18.9489)" fill="#444444"/>
<rect width="1.62332" height="1.61294" transform="matrix(0.194976 -0.980808 0.981638 0.190751 22.9932 19.1943)" fill="#181818"/>
<rect width="1.62332" height="1.61294" transform="matrix(0.194976 -0.980808 0.981638 0.190751 23.4838 15.8863)" fill="#181818"/>
<rect width="1.62332" height="1.61294" transform="matrix(0.194976 -0.980808 0.981638 0.190751 25.1382 16.1317)" fill="#181818"/>
<rect width="1.62332" height="1.61294" transform="matrix(0.194976 -0.980808 0.981638 0.190751 24.8929 17.7857)" fill="#181818"/>
<rect width="1.62332" height="1.61294" transform="matrix(0.194976 -0.980808 0.981638 0.190751 23.2385 17.5403)" fill="#444444"/>
<rect width="1.62332" height="1.61294" transform="matrix(0.194976 -0.980808 0.981638 0.190751 21.584 17.2949)" fill="#181818"/>
<rect width="1.62332" height="1.61294" transform="matrix(0.194976 -0.980808 0.981638 0.190751 19.6842 18.7035)" fill="#181818"/>
<rect width="1.62332" height="1.61294" transform="matrix(0.194976 -0.980808 0.981638 0.190751 18.2751 16.8042)" fill="#181818"/>
<rect width="1.62332" height="1.61294" transform="matrix(0.194976 -0.980808 0.981638 0.190751 16.866 14.9048)" fill="#181818"/>
<rect width="1.62332" height="1.61294" transform="matrix(0.194976 -0.980808 0.981638 0.190751 15.457 13.0038)" fill="#181818"/>
<rect width="1.62332" height="1.61294" transform="matrix(0.194976 -0.980808 0.981638 0.190751 14.0479 11.1044)" fill="#181818"/>
<rect width="1.62332" height="1.61294" transform="matrix(0.194976 -0.980808 0.981638 0.190751 12.6387 9.20502)" fill="#181818"/>
<rect width="1.62332" height="1.61294" transform="matrix(0.194976 -0.980808 0.981638 0.190751 11.2298 7.30397)" fill="#181818"/>
<rect width="1.62332" height="1.61294" transform="matrix(0.194976 -0.980808 0.981638 0.190751 9.82068 5.4046)" fill="#181818"/>
<rect width="1.62332" height="1.61294" transform="matrix(0.194976 -0.980808 0.981638 0.190751 8.41153 3.50523)" fill="#181818"/>
<rect width="1.62332" height="1.61294" transform="matrix(0.194976 -0.980808 0.981638 0.190751 6.75705 3.25987)" fill="#181818"/>
<rect width="1.62332" height="1.61294" transform="matrix(0.194976 -0.980808 0.981638 0.190751 5.10257 3.0145)" fill="#444444"/>
<rect width="1.62332" height="1.61294" transform="matrix(0.194976 -0.980808 0.981638 0.190751 4.85727 4.66849)" fill="#444444"/>
<rect width="1.62332" height="1.61294" transform="matrix(0.194976 -0.980808 0.981638 0.190751 4.61197 6.32248)" fill="#444444"/>
<rect width="1.62332" height="1.61294" transform="matrix(0.194976 -0.980808 0.981638 0.190751 6.0209 8.22353)" fill="#444444"/>
<rect width="1.62332" height="1.61294" transform="matrix(0.194976 -0.980808 0.981638 0.190751 7.43005 10.1229)" fill="#444444"/>
<rect width="1.62332" height="1.61294" transform="matrix(0.194976 -0.980808 0.981638 0.190751 8.83923 12.0223)" fill="#444444"/>
<rect width="1.62332" height="1.61294" transform="matrix(0.194976 -0.980808 0.981638 0.190751 10.2481 13.9233)" fill="#444444"/>
<rect width="1.62332" height="1.61294" transform="matrix(0.194976 -0.980808 0.981638 0.190751 11.6573 15.8227)" fill="#444444"/>
<rect width="1.62332" height="1.61294" transform="matrix(0.194976 -0.980808 0.981638 0.190751 13.0664 17.722)" fill="#444444"/>
<rect width="1.62332" height="1.61294" transform="matrix(0.194976 -0.980808 0.981638 0.190751 14.4756 19.6214)" fill="#444444"/>
<rect width="1.62332" height="1.61294" transform="matrix(0.194976 -0.980808 0.981638 0.190751 17.539 21.7678)" fill="#969696"/>
<rect width="1.62332" height="1.61294" transform="matrix(0.194976 -0.980808 0.981638 0.190751 17.2937 23.4218)" fill="#969696"/>
<rect width="1.62332" height="1.61294" transform="matrix(0.194976 -0.980808 0.981638 0.190751 15.6392 23.1765)" fill="#969696"/>
<rect width="1.62332" height="1.61294" transform="matrix(0.194976 -0.980808 0.981638 0.190751 13.9847 22.9311)" fill="#444444"/>
<rect width="1.62332" height="1.61294" transform="matrix(0.194976 -0.980808 0.981638 0.190751 13.7394 24.5851)" fill="#6B6B6B"/>
<rect width="1.62332" height="1.61294" transform="matrix(0.194976 -0.980808 0.981638 0.190751 12.085 24.3397)" fill="#444444"/>
<rect width="1.62332" height="1.61294" transform="matrix(0.194976 -0.980808 0.981638 0.190751 11.8397 25.9937)" fill="#444444"/>
<rect width="1.62332" height="1.61294" transform="matrix(0.194976 -0.980808 0.981638 0.190751 13.4941 26.2391)" fill="#444444"/>
<rect width="1.62332" height="1.61294" transform="matrix(0.194976 -0.980808 0.981638 0.190751 15.3939 24.8304)" fill="#444444"/>
<rect width="1.62332" height="1.61294" transform="matrix(0.194976 -0.980808 0.981638 0.190751 17.0483 25.0758)" fill="#444444"/>
<rect width="1.62332" height="1.61294" transform="matrix(0.194976 -0.980808 0.981638 0.190751 18.0298 18.4582)" fill="#D8D8D8"/>
<rect width="1.62332" height="1.61294" transform="matrix(0.194976 -0.980808 0.981638 0.190751 17.7845 20.1122)" fill="#6B6B6B"/>
<rect width="1.62332" height="1.61294" transform="matrix(0.194976 -0.980808 0.981638 0.190751 16.13 19.8668)" fill="#D9D9D9"/>
<rect width="1.62332" height="1.61294" transform="matrix(0.194976 -0.980808 0.981638 0.190751 16.3753 18.2128)" fill="#969696"/>
<rect width="1.62332" height="1.61294" transform="matrix(0.194976 -0.980808 0.981638 0.190751 16.6207 16.5588)" fill="#D8D8D8"/>
<rect width="1.62332" height="1.61294" transform="matrix(0.194976 -0.980808 0.981638 0.190751 14.9662 16.3134)" fill="#BEBEBE"/>
<rect width="1.62332" height="1.61294" transform="matrix(0.194976 -0.980808 0.981638 0.190751 13.3117 16.0681)" fill="#D9D9D9"/>
<rect width="1.62332" height="1.61294" transform="matrix(0.194976 -0.980808 0.981638 0.190751 14.7209 17.9674)" fill="#D9D9D9"/>
<rect width="1.62332" height="1.61294" transform="matrix(0.194976 -0.980808 0.981638 0.190751 15.2115 14.6594)" fill="#D8D8D8"/>
<rect width="1.62332" height="1.61294" transform="matrix(0.194976 -0.980808 0.981638 0.190751 13.557 14.4141)" fill="#BEBEBE"/>
<rect width="1.62332" height="1.61294" transform="matrix(0.194976 -0.980808 0.981638 0.190751 11.9026 14.1687)" fill="white"/>
<rect width="1.62332" height="1.61294" transform="matrix(0.194976 -0.980808 0.981638 0.190751 10.4936 12.2676)" fill="white"/>
<rect width="1.62332" height="1.61294" transform="matrix(0.194976 -0.980808 0.981638 0.190751 10.739 10.6136)" fill="#BEBEBE"/>
<rect width="1.62332" height="1.61294" transform="matrix(0.194976 -0.980808 0.981638 0.190751 9.08453 10.3683)" fill="white"/>
<rect width="1.62332" height="1.61294" transform="matrix(0.194976 -0.980808 0.981638 0.190751 9.32983 8.71428)" fill="#BEBEBE"/>
<rect width="1.62332" height="1.61294" transform="matrix(0.194976 -0.980808 0.981638 0.190751 7.67535 8.4689)" fill="white"/>
<rect width="1.62332" height="1.61294" transform="matrix(0.194976 -0.980808 0.981638 0.190751 7.9209 6.81323)" fill="#BEBEBE"/>
<rect width="1.62332" height="1.61294" transform="matrix(0.194976 -0.980808 0.981638 0.190751 6.26645 6.56786)" fill="white"/>
<rect width="1.62332" height="1.61294" transform="matrix(0.194976 -0.980808 0.981638 0.190751 6.51175 4.91386)" fill="white"/>
<rect width="1.62332" height="1.61294" transform="matrix(0.194976 -0.980808 0.981638 0.190751 8.16623 5.15924)" fill="white"/>
<rect width="1.62332" height="1.61294" transform="matrix(0.194976 -0.980808 0.981638 0.190751 9.57538 7.05861)" fill="white"/>
<rect width="1.62332" height="1.61294" transform="matrix(0.194976 -0.980808 0.981638 0.190751 10.9843 8.95964)" fill="#D8D8D8"/>
<rect width="1.62332" height="1.61294" transform="matrix(0.194976 -0.980808 0.981638 0.190751 12.3934 10.859)" fill="#D8D8D8"/>
<rect width="1.62332" height="1.61294" transform="matrix(0.194976 -0.980808 0.981638 0.190751 15.8845 21.5225)" fill="#181818"/>
<rect width="1.62332" height="1.61294" transform="matrix(0.194976 -0.980808 0.981638 0.190751 13.8026 12.7584)" fill="#D8D8D8"/>
<rect width="1.62332" height="1.61294" transform="matrix(0.194976 -0.980808 0.981638 0.190751 12.1481 12.513)" fill="#BEBEBE"/>
<rect width="1.62332" height="1.61294" transform="matrix(0.194976 -0.980808 0.981638 0.190751 22.7479 20.8483)" fill="#181818"/>
<rect width="1.62332" height="1.61294" transform="matrix(0.194976 -0.980808 0.981638 0.190751 20.8478 22.2586)" fill="#181818"/>
<rect width="1.62332" height="1.61294" transform="matrix(0.194976 -0.980808 0.981638 0.190751 20.6025 23.9126)" fill="#684E1E"/>
<rect width="1.62332" height="1.61294" transform="matrix(0.194976 -0.980808 0.981638 0.190751 23.6662 26.0573)" fill="#281E0B"/>
<rect width="1.62332" height="1.61294" transform="matrix(0.194976 -0.980808 0.981638 0.190751 21.7664 27.4659)" fill="#493615"/>
<rect width="1.62332" height="1.61294" transform="matrix(0.194976 -0.980808 0.981638 0.190751 23.1753 29.367)" fill="#444444"/>
<rect width="1.62332" height="1.61294" transform="matrix(0.194976 -0.980808 0.981638 0.190751 22.93 31.021)" fill="#444444"/>
</svg>
