<svg width="32" height="32" viewBox="0 0 32 32" fill="none" xmlns="http://www.w3.org/2000/svg">
<g clip-path="url(#clip0_1_3)">
<path d="M29.6392 18.4876L18.4863 29.6405L19.8804 31.0346L31.0333 19.8817L29.6392 18.4876Z" fill="#F7FEFF"/>
<path d="M28.2461 14.3053L26.852 15.6994L29.6402 18.4876L31.0343 17.0935L28.2461 14.3053Z" fill="#F7FEFF"/>
<path d="M26.8513 18.4876L18.4866 26.8522L17.0925 25.4581L15.6984 26.8522L18.4866 29.6405L29.6395 18.4876L26.8513 15.6994L25.4572 17.0935L26.8513 18.4876Z" fill="#231E2B"/>
<path d="M25.4582 17.0935L24.0641 18.4876L25.4582 19.8817L26.8523 18.4876L25.4582 17.0935Z" fill="#F7FEFF"/>
<path d="M18.4865 24.0641L17.0923 25.4582L18.4865 26.8523L19.8806 25.4582L18.4865 24.0641Z" fill="#F7FEFF"/>
<path d="M15.6985 26.8523L14.3044 28.2464L17.0927 31.0346L18.4868 29.6405L15.6985 26.8523Z" fill="#F7FEFF"/>
<path d="M24.0642 15.6994L22.6701 17.0935L24.0642 18.4876L25.4583 17.0935L24.0642 15.6994Z" fill="#231E2B"/>
<path d="M22.6703 17.0935L21.2762 18.4876L22.6703 19.8817L24.0644 18.4876L22.6703 17.0935Z" fill="#F7FEFF"/>
<path d="M18.4865 21.2759L17.0923 22.67L18.4865 24.0641L19.8806 22.67L18.4865 21.2759Z" fill="#F7FEFF"/>
<path d="M17.0925 22.6699L15.6984 24.064L17.0925 25.4581L18.4866 24.064L17.0925 22.6699Z" fill="#231E2B"/>
<path d="M15.6992 24.0641L17.0933 22.67L15.6992 21.2759L8.72864 28.2464L10.1227 29.6405L14.3051 25.4582L15.6992 26.8523L17.0933 25.4582L15.6992 24.0641Z" fill="#F7FEFF"/>
<path d="M21.2762 15.6994L22.6703 17.0935L24.0644 15.6994L25.4585 17.0935L26.8526 15.6994L25.4585 14.3053L29.6408 10.123L28.2467 8.72888L21.2762 15.6994Z" fill="#F7FEFF"/>
<path d="M15.6995 21.2759L17.0936 22.67L18.4877 21.2759L15.6995 18.4877L8.72894 25.4582L7.33484 24.0641L5.94073 25.4582L8.72894 28.2464L15.6995 21.2759Z" fill="#231E2B"/>
<path d="M26.8521 4.54659L25.458 5.94069L28.2462 8.7289L29.6403 7.33479L26.8521 4.54659Z" fill="#F7FEFF"/>
<path d="M25.457 5.9407L24.0629 7.33481L25.457 8.72891L18.4865 15.6994L21.2747 18.4876L22.6688 17.0935L21.2747 15.6994L28.2452 8.72891L25.457 5.9407Z" fill="#231E2B"/>
<path d="M24.0644 7.33484L21.2762 10.123L22.6703 11.5172L25.4585 8.72894L24.0644 7.33484Z" fill="#F7FEFF"/>
<path d="M21.2745 10.123L18.4863 12.9113L19.8804 14.3054L22.6686 11.5172L21.2745 10.123Z" fill="#B6B7B8"/>
<path d="M12.9108 18.4876L10.1226 21.2758L11.5167 22.6699L14.3049 19.8817L12.9108 18.4876Z" fill="#B6B7B8"/>
<path d="M10.1229 21.2758L7.33466 24.064L8.72876 25.4581L11.517 22.6699L10.1229 21.2758Z" fill="#F7FEFF"/>
<path d="M5.94086 25.4581L4.54675 26.8522L7.33496 29.6405L8.72906 28.2464L5.94086 25.4581Z" fill="#F7FEFF"/>
<path d="M24.0642 4.5466L22.6701 5.9407L24.0642 7.33481L25.4583 5.9407L24.0642 4.5466Z" fill="#F7FEFF"/>
<path d="M22.6704 5.9407L19.8822 8.72891L21.2763 10.123L24.0645 7.33481L22.6704 5.9407Z" fill="#231E2B"/>
<path d="M19.8806 8.72891L17.0923 11.5171L18.4865 12.9112L21.2747 10.123L19.8806 8.72891Z" fill="#F7FEFF"/>
<path d="M17.0925 11.5172L15.6984 12.9113L18.4866 15.6995L19.8807 14.3054L17.0925 11.5172Z" fill="#696168"/>
<path d="M10.1232 7.33484L8.72906 8.72894L7.33496 7.33484L5.94086 8.72894L19.8819 22.67L18.4878 24.0641L19.8819 25.4582L25.4583 19.8818L24.0642 18.4877L22.6701 19.8818L10.1232 7.33484Z" fill="#B6B7B8"/>
<path d="M12.9106 15.6994L11.5165 17.0935L14.3047 19.8817L15.6989 18.4876L12.9106 15.6994Z" fill="#696168"/>
<path d="M11.5168 17.0936L8.72864 19.8818L10.1227 21.2759L12.9109 18.4877L11.5168 17.0936Z" fill="#F7FEFF"/>
<path d="M8.72894 19.8818L5.94073 22.67L7.33484 24.0641L10.123 21.2759L8.72894 19.8818Z" fill="#231E2B"/>
<path d="M5.94086 22.6699L4.54675 24.064L5.94086 25.4581L7.33496 24.064L5.94086 22.6699Z" fill="#F7FEFF"/>
<path d="M21.2745 4.54663L18.4863 7.33484L19.8804 8.72894L22.6686 5.94073L21.2745 4.54663Z" fill="#F7FEFF"/>
<path d="M18.4866 7.33484L15.6984 10.123L17.0925 11.5172L19.8807 8.72894L18.4866 7.33484Z" fill="#231E2B"/>
<path d="M15.6985 10.123L14.3044 11.5171L15.6985 12.9112L17.0927 11.5171L15.6985 10.123Z" fill="#998B8C"/>
<path d="M11.5167 14.3053L10.1226 15.6994L11.5167 17.0935L12.9108 15.6994L11.5167 14.3053Z" fill="#998B8C"/>
<path d="M10.1229 15.6994L7.33466 18.4876L8.72876 19.8817L11.517 17.0935L10.1229 15.6994Z" fill="#231E2B"/>
<path d="M7.33496 18.4876L4.54675 21.2758L5.94086 22.6699L8.72906 19.8817L7.33496 18.4876Z" fill="#F7FEFF"/>
<path d="M10.1217 15.6994L3.15118 8.72891L1.75708 10.123L7.3335 15.6994L5.93939 17.0935L7.3335 18.4876L10.1217 15.6994Z" fill="#F7FEFF"/>
<path d="M15.6992 10.123L18.4874 7.33479L17.0933 5.94069L15.6992 7.33479L10.1227 1.75838L8.72864 3.15248L15.6992 10.123Z" fill="#F7FEFF"/>
<path d="M8.72906 8.72894L10.1232 7.33484L7.33496 4.54663L4.54675 7.33484L5.94086 8.72894L7.33496 7.33484L8.72906 8.72894Z" fill="#F7FEFF"/>
<path d="M4.54694 7.33481L3.15283 8.72891L10.1234 15.6994L11.5175 14.3053L4.54694 7.33481Z" fill="#231E2B"/>
<path d="M8.72876 3.15251L7.33466 4.54662L14.3052 11.5171L15.6993 10.123L8.72876 3.15251Z" fill="#231E2B"/>
<path d="M7.33484 1.75838L5.94073 3.15248L7.33484 4.54659L8.72894 3.15248L7.33484 1.75838Z" fill="#F7FEFF"/>
<path d="M5.94104 3.1525L3.15283 5.9407L4.54694 7.33481L7.33514 4.5466L5.94104 3.1525Z" fill="#231E2B"/>
<path d="M3.15295 5.94073L1.75885 7.33484L3.15295 8.72894L4.54706 7.33484L3.15295 5.94073Z" fill="#F7FEFF"/>
<path d="M4.54706 1.75841L1.75885 4.54662L3.15295 5.94072L5.94116 3.15251L4.54706 1.75841Z" fill="#F7FEFF"/>
</g>
<defs>
<clipPath id="clip0_1_3">
<rect width="32" height="32" fill="white"/>
</clipPath>
</defs>
</svg>
