<svg width="32" height="32" viewBox="0 0 32 32" fill="none" xmlns="http://www.w3.org/2000/svg">
<g clip-path="url(#clip0_9_3)">
<path d="M24.9547 24.7744L15.4573 29.2556L16.2252 30.8043L25.7227 26.3231L24.9547 24.7744Z" fill="#F7FEFF"/>
<path d="M27.3794 21.706L24.2413 23.2283L25.0186 24.7743L28.1567 23.2521L27.3794 21.706Z" fill="#F7FEFF"/>
<path d="M24.2141 23.1869L14.7166 27.6681L15.4845 29.2168L24.982 24.7356L24.2141 23.1869Z" fill="#361A2A"/>
<path d="M14.6798 27.6293L11.5417 29.1515L12.319 30.6976L15.4571 29.1754L14.6798 27.6293Z" fill="#F7FEFF"/>
<path d="M28.231 19.3781L26.6755 20.1474L27.448 21.706L29.0034 20.9368L28.231 19.3781Z" fill="#F7FEFF"/>
<path d="M26.6387 20.1185L23.5006 21.6408L24.2779 23.1868L27.416 21.6646L26.6387 20.1185Z" fill="#361A2A"/>
<path d="M23.4734 21.5994L13.9759 26.0806L14.7438 27.6293L24.2413 23.1481L23.4734 21.5994Z" fill="#784028"/>
<path d="M13.9391 26.0418L10.801 27.564L11.5783 29.1101L14.7164 27.5879L13.9391 26.0418Z" fill="#361A2A"/>
<path d="M10.7691 27.5226L9.21359 28.2919L9.98601 29.8505L11.5415 29.0813L10.7691 27.5226Z" fill="#F7FEFF"/>
<path d="M25.898 18.531L22.7599 20.0533L23.5372 21.5993L26.6753 20.0771L25.898 18.531Z" fill="#784028"/>
<path d="M13.1984 24.4543L10.0603 25.9766L10.8376 27.5227L13.9757 26.0004L13.1984 24.4543Z" fill="#784028"/>
<path d="M8.53675 22.7602L6.99149 23.5263L9.25494 28.2631L10.8002 27.497L8.53675 22.7602Z" fill="#361A2A"/>
<path d="M27.5879 13.8753L26.0426 14.6413L28.3061 19.3781L29.8513 18.6121L27.5879 13.8753Z" fill="#F7FEFF"/>
<path d="M20.3938 19.1604L21.1688 20.704L14.8602 23.7183L14.0853 22.1747L10.931 23.6819L10.1561 22.1384L8.57895 22.8919L10.1288 25.9791L13.2831 24.4719L14.0581 26.0155L23.5208 21.4939L22.7459 19.9504L25.9002 18.4432L24.3503 15.3561L22.7731 16.1097L23.5481 17.6532L20.3938 19.1604Z" fill="#A86619"/>
<path d="M20.3993 19.1648L14.082 22.1696L14.8551 23.7139L21.1724 20.7092L20.3993 19.1648Z" fill="#CF8934"/>
<path d="M6.94931 23.5006L5.40405 24.2666L7.66751 29.0034L9.21277 28.2374L6.94931 23.5006Z" fill="#F7FEFF"/>
<path d="M26.0004 14.6156L24.4551 15.3817L26.7186 20.1185L28.2639 19.3524L26.0004 14.6156Z" fill="#361A2A"/>
<path d="M22.8357 16.0965L21.2802 16.8657L22.0527 18.4244L23.6081 17.6552L22.8357 16.0965Z" fill="#892727"/>
<path d="M21.2483 16.8369L19.6928 17.6061L20.4652 19.1648L22.0207 18.3955L21.2483 16.8369Z" fill="#CF8934"/>
<path d="M13.3045 20.5389L10.1664 22.0612L10.9437 23.6072L14.0818 22.085L13.3045 20.5389Z" fill="#CF8934"/>
<path d="M24.5197 11.4407L22.9738 12.2102L24.4961 15.3561L26.0421 14.5866L24.5197 11.4407Z" fill="#F7FEFF"/>
<path d="M18.9838 16.0186L19.7562 17.5773L22.8672 16.0388L21.3224 12.9215L19.7669 13.6907L20.5393 15.2494L18.9838 16.0186Z" fill="#B0392E"/>
<path d="M12.6023 19.0256L14.1551 22.1264L17.2821 20.5961L16.5057 19.0457L18.0692 18.2806L17.2928 16.7302L12.6023 19.0256Z" fill="#B0392E"/>
<path d="M12.5703 18.9514L11.0149 19.7207L11.7873 21.2794L13.3428 20.5101L12.5703 18.9514Z" fill="#892727"/>
<path d="M10.9829 19.6918L9.4274 20.4611L10.1998 22.0197L11.7553 21.2505L10.9829 19.6918Z" fill="#EBB42A"/>
<path d="M8.64526 18.8447L7.09927 19.6142L8.6216 22.7601L10.1676 21.9907L8.64526 18.8447Z" fill="#361A2A"/>
<path d="M7.0578 19.5852L5.51181 20.3546L7.03413 23.5006L8.58012 22.7311L7.0578 19.5852Z" fill="#F7FEFF"/>
<path d="M22.9323 12.181L21.3863 12.9505L22.9086 16.0964L24.4546 15.327L22.9323 12.181Z" fill="#361A2A"/>
<path d="M19.7669 13.6619L18.2114 14.4311L18.9838 15.9898L20.5393 15.2206L19.7669 13.6619Z" fill="#CF8934"/>
<path d="M14.9997 15.8831L11.8616 17.4053L12.6389 18.9514L15.777 17.4292L14.9997 15.8831Z" fill="#892727"/>
<path d="M11.8248 17.364L8.68671 18.8862L9.46401 20.4323L12.6021 18.91L11.8248 17.364Z" fill="#CF8934"/>
<path d="M21.4509 9.0061L19.9049 9.77557L21.4272 12.9215L22.9732 12.152L21.4509 9.0061Z" fill="#F7FEFF"/>
<path d="M14.2802 14.3084L13.5099 12.7463L11.9572 13.5163L10.4168 10.3922L8.86407 11.1623L11.1748 15.8485L9.62207 16.6186L10.3923 18.1806L15.0504 15.8704L15.8206 17.4325L17.3733 16.6624L18.1436 18.2245L16.5909 18.9946L17.3611 20.5567L20.4665 19.0165L18.1558 14.3303L19.7085 13.5602L18.9383 11.9982L14.2802 14.3084Z" fill="#EBB42A"/>
<path d="M8.75131 14.9294L7.20532 15.6988L8.72764 18.8448L10.2736 18.0753L8.75131 14.9294Z" fill="#361A2A"/>
<path d="M7.16388 15.6698L5.61789 16.4393L7.14021 19.5852L8.6862 18.8157L7.16388 15.6698Z" fill="#F7FEFF"/>
<path d="M19.8635 9.74648L18.3175 10.516L19.8398 13.6619L21.3858 12.8924L19.8635 9.74648Z" fill="#361A2A"/>
<path d="M18.2855 10.4869L16.73 11.2561L17.5024 12.8148L19.0579 12.0456L18.2855 10.4869Z" fill="#CF8934"/>
<path d="M10.3483 14.1889L8.79279 14.9582L9.56521 16.5168L11.1207 15.7476L10.3483 14.1889Z" fill="#CF8934"/>
<path d="M18.3838 6.57152L16.8378 7.341L18.3601 10.4869L19.9061 9.71744L18.3838 6.57152Z" fill="#F7FEFF"/>
<path d="M15.9254 9.63985L12.8144 11.1783L14.3593 14.2957L17.4702 12.7572L15.9254 9.63985Z" fill="#B0392E"/>
<path d="M12.7825 11.1206L11.227 11.8899L11.9994 13.4485L13.5549 12.6793L12.7825 11.1206Z" fill="#892727"/>
<path d="M8.85736 11.014L7.31137 11.7835L8.83369 14.9294L10.3797 14.1599L8.85736 11.014Z" fill="#361A2A"/>
<path d="M7.26993 11.7544L5.72394 12.5238L7.24626 15.6698L8.79225 14.9003L7.26993 11.7544Z" fill="#F7FEFF"/>
<path d="M16.7963 7.3119L15.2503 8.08138L16.7727 11.2273L18.3186 10.4578L16.7963 7.3119Z" fill="#361A2A"/>
<path d="M15.2135 8.05234L12.0754 9.57458L12.8527 11.1207L15.9908 9.59841L15.2135 8.05234Z" fill="#892727"/>
<path d="M12.0417 9.53313L10.4863 10.3024L11.2587 11.861L12.8142 11.0918L12.0417 9.53313Z" fill="#CF8934"/>
<path d="M15.3149 4.13694L13.769 4.90642L15.2913 8.05234L16.8373 7.28287L15.3149 4.13694Z" fill="#F7FEFF"/>
<path d="M12.8902 7.20525L11.3347 7.97449L12.1072 9.53316L13.6626 8.76392L12.8902 7.20525Z" fill="#CF8934"/>
<path d="M11.3028 7.94568L9.74728 8.71491L10.5197 10.2736L12.0752 9.50435L11.3028 7.94568Z" fill="#EBB42A"/>
<path d="M8.96515 7.09855L7.41916 7.86803L8.94148 11.0139L10.4875 10.2445L8.96515 7.09855Z" fill="#361A2A"/>
<path d="M7.37769 7.83898L5.8317 8.60845L7.35402 11.7544L8.90001 10.9849L7.37769 7.83898Z" fill="#F7FEFF"/>
<path d="M13.7275 4.87732L12.1815 5.6468L13.7038 8.79272L15.2498 8.02325L13.7275 4.87732Z" fill="#361A2A"/>
<path d="M12.1495 5.61775L10.5941 6.38699L11.3665 7.94566L12.922 7.17642L12.1495 5.61775Z" fill="#EBB42A"/>
<path d="M10.5621 6.35818L9.00659 7.12741L9.77901 8.68608L11.3345 7.91685L10.5621 6.35818Z" fill="#B0392E"/>
<path d="M12.9963 3.28987L11.4408 4.0591L12.2132 5.61777L13.7687 4.84854L12.9963 3.28987Z" fill="#F7FEFF"/>
<path d="M11.404 4.03027L8.2659 5.55251L9.04321 7.09858L12.1813 5.57634L11.404 4.03027Z" fill="#361A2A"/>
<path d="M8.23395 5.5111L6.67847 6.28033L7.45089 7.839L9.00637 7.06977L8.23395 5.5111Z" fill="#F7FEFF"/>
<path d="M10.6633 2.44276L7.52521 3.965L8.30252 5.51107L11.4406 3.98883L10.6633 2.44276Z" fill="#F7FEFF"/>
</g>
<defs>
<clipPath id="clip0_9_3">
<rect width="32" height="32" fill="white"/>
</clipPath>
</defs>
</svg>
