<svg width="32" height="32" viewBox="0 0 32 32" fill="none" xmlns="http://www.w3.org/2000/svg">
<g clip-path="url(#clip0_9_64)">
<path d="M21.0468 28.0188L17.5625 29.0802L18.1273 30.7609L21.6116 29.6994L21.0468 28.0188Z" fill="#F7FEFF"/>
<path d="M22.3615 25.7551L20.6528 26.2994L21.2078 28.0189L22.9165 27.4745L22.3615 25.7551Z" fill="#F7FEFF"/>
<path d="M20.5671 26.2335L17.0828 27.2949L17.6476 28.9756L21.1319 27.9141L20.5671 26.2335Z" fill="#231E2B"/>
<path d="M17.0065 27.1902L15.2978 27.7345L15.8528 29.4539L17.5615 28.9096L17.0065 27.1902Z" fill="#F7FEFF"/>
<path d="M23.6688 23.4914L21.9601 24.0357L22.5151 25.7551L24.2238 25.2108L23.6688 23.4914Z" fill="#F7FEFF"/>
<path d="M21.8839 23.9698L20.1752 24.5141L20.7302 26.2335L22.4389 25.6892L21.8839 23.9698Z" fill="#231E2B"/>
<path d="M16.5289 25.4049L14.8202 25.9492L15.3752 27.6686L17.0839 27.1243L16.5289 25.4049Z" fill="#231E2B"/>
<path d="M14.7439 25.8833L13.0352 26.4276L13.5902 28.147L15.2989 27.6027L14.7439 25.8833Z" fill="#F7FEFF"/>
<path d="M24.9762 21.2277L23.2675 21.772L23.8225 23.4915L25.5312 22.9471L24.9762 21.2277Z" fill="#F7FEFF"/>
<path d="M23.1891 21.7061L21.4804 22.2504L22.0354 23.9698L23.7441 23.4255L23.1891 21.7061Z" fill="#231E2B"/>
<path d="M14.3405 24.3074L14.9052 25.988L16.6474 25.4573L17.2121 27.1379L20.6964 26.0765L20.1317 24.3959L21.8738 23.8651L21.3091 22.1845L14.3405 24.3074Z" fill="#518BCF"/>
<path d="M14.2642 24.0981L12.5555 24.6424L13.1105 26.3618L14.8192 25.8175L14.2642 24.0981Z" fill="#231E2B"/>
<path d="M12.4792 24.5764L10.7705 25.1207L11.3255 26.8401L13.0342 26.2958L12.4792 24.5764Z" fill="#F7FEFF"/>
<path d="M26.2815 18.964L24.5728 19.5083L25.1278 21.2277L26.8365 20.6834L26.2815 18.964Z" fill="#F7FEFF"/>
<path d="M24.4965 19.4424L22.7878 19.9867L23.3428 21.7061L25.0515 21.1618L24.4965 19.4424Z" fill="#231E2B"/>
<path d="M22.7115 19.9207L21.0028 20.465L21.5578 22.1844L23.2665 21.6401L22.7115 19.9207Z" fill="#518BCF"/>
<path d="M19.1415 20.8775L17.4328 21.4218L17.9878 23.1412L19.6965 22.5969L19.1415 20.8775Z" fill="#85C7F2"/>
<path d="M13.7866 22.3127L12.0779 22.857L12.6329 24.5764L14.3416 24.0321L13.7866 22.3127Z" fill="#518BCF"/>
<path d="M12.0015 22.791L10.2928 23.3353L10.8479 25.0547L12.5566 24.5104L12.0015 22.791Z" fill="#231E2B"/>
<path d="M10.2145 23.2694L8.5058 23.8138L9.0608 25.5332L10.7695 24.9888L10.2145 23.2694Z" fill="#F7FEFF"/>
<path d="M27.0783 14.915L25.4025 15.4567L26.4688 18.964L28.1446 18.4223L27.0783 14.915Z" fill="#F7FEFF"/>
<path d="M24.0189 17.6571L22.3102 18.2014L22.8652 19.9208L24.5739 19.3765L24.0189 17.6571Z" fill="#518BCF"/>
<path d="M15.0918 20.049L13.3831 20.5933L13.9381 22.3127L15.6468 21.7684L15.0918 20.049Z" fill="#85C7F2"/>
<path d="M11.5218 21.0057L9.81314 21.55L10.3681 23.2694L12.0768 22.7251L11.5218 21.0057Z" fill="#518BCF"/>
<path d="M9.22425 19.6988L7.54843 20.2405L8.61469 23.7478L10.2905 23.2061L9.22425 19.6988Z" fill="#231E2B"/>
<path d="M25.2913 15.3933L23.6154 15.935L24.6817 19.4423L26.3575 18.9006L25.2913 15.3933Z" fill="#231E2B"/>
<path d="M23.5391 15.8717L21.8304 16.416L22.3854 18.1354L24.0941 17.5911L23.5391 15.8717Z" fill="#85C7F2"/>
<path d="M11.0421 19.2204L9.33344 19.7647L9.88844 21.4841L11.5971 20.9398L11.0421 19.2204Z" fill="#85C7F2"/>
<path d="M7.43928 20.1771L5.76346 20.7188L6.82972 24.2261L8.50554 23.6844L7.43928 20.1771Z" fill="#F7FEFF"/>
<path d="M24.8486 13.608L23.1399 14.1523L23.6949 15.8717L25.4036 15.3274L24.8486 13.608Z" fill="#F7FEFF"/>
<path d="M23.0636 14.0865L21.3549 14.6308L21.9099 16.3502L23.6186 15.8059L23.0636 14.0865Z" fill="#231E2B"/>
<path d="M21.2786 14.5648L19.5699 15.1091L20.1249 16.8285L21.8336 16.2842L21.2786 14.5648Z" fill="#85C7F2"/>
<path d="M12.3741 17.2548L12.9367 18.9507L11.2075 19.4887L12.3327 22.8805L14.0619 22.3425L13.4993 20.6466L15.2285 20.1086L15.7911 21.8045L14.0619 22.3425L14.6245 24.0384L18.0829 22.9624L17.5202 21.2665L19.2494 20.7285L19.812 22.4244L21.5412 21.8864L20.9786 20.1905L22.7078 19.6525L21.5825 16.2607L19.8534 16.7987L19.2907 15.1028L12.3741 17.2548Z" fill="#5EB0DB"/>
<path d="M12.3536 16.9567L10.6449 17.501L11.1999 19.2204L12.9086 18.6761L12.3536 16.9567Z" fill="#85C7F2"/>
<path d="M10.5645 17.4351L8.85577 17.9794L9.41078 19.6988L11.1195 19.1545L10.5645 17.4351Z" fill="#231E2B"/>
<path d="M8.7795 17.9134L7.0708 18.4577L7.6258 20.1771L9.33451 19.6328L8.7795 17.9134Z" fill="#F7FEFF"/>
<path d="M22.5839 12.301L20.8752 12.8453L21.4302 14.5647L23.1389 14.0204L22.5839 12.301Z" fill="#F7FEFF"/>
<path d="M20.7988 12.7795L19.0901 13.3238L19.6452 15.0432L21.3539 14.4989L20.7988 12.7795Z" fill="#231E2B"/>
<path d="M19.5693 14.7952L19.0083 13.0925L17.2849 13.6329L16.1631 10.2275L12.7162 11.3083L13.8381 14.7136L12.1147 15.254L12.6756 16.9567L19.5693 14.7952Z" fill="#F7FEFF"/>
<path d="M11.8739 15.1714L10.1652 15.7157L10.7202 17.4351L12.4289 16.8908L11.8739 15.1714Z" fill="#231E2B"/>
<path d="M10.0848 15.6497L8.3761 16.194L8.9311 17.9134L10.6398 17.3691L10.0848 15.6497Z" fill="#F7FEFF"/>
<path d="M11.6973 7.55161L10.0355 8.07837L12.0725 15.1713L13.7343 14.6445L11.6973 7.55161Z" fill="#231E2B"/>
<path d="M15.7845 8.38026L12.3002 9.44171L12.8649 11.1223L16.3492 10.0609L15.7845 8.38026Z" fill="#B6B7B8"/>
<path d="M9.91233 8.03003L8.25049 8.55679L10.2875 15.6497L11.9493 15.1229L9.91233 8.03003Z" fill="#F7FEFF"/>
<path d="M18.8394 5.6382L17.1775 6.16496L19.2145 13.2579L20.8764 12.7311L18.8394 5.6382Z" fill="#F7FEFF"/>
<path d="M17.0544 6.11649L15.3925 6.64325L17.4295 13.7362L19.0914 13.2094L17.0544 6.11649Z" fill="#231E2B"/>
<path d="M15.3068 6.59488L11.8225 7.65633L12.3873 9.33696L15.8716 8.2755L15.3068 6.59488Z" fill="#47414D"/>
<path d="M19.681 1.58915L18.0052 2.13088L19.0714 5.63818L20.7472 5.09645L19.681 1.58915Z" fill="#F7FEFF"/>
<path d="M16.6169 4.33123L9.55579 6.37005L10.1143 8.03006L17.1755 5.99124L16.6169 4.33123Z" fill="#F7FEFF"/>
<path d="M9.61322 6.32493L16.6418 4.251L17.2047 5.91602L18.9619 5.39754L17.836 2.06751L7.29315 5.1784L8.41901 8.50842L10.1762 7.98994L9.61322 6.32493Z" fill="#231E2B"/>
<path d="M7.18397 4.93775L5.50815 5.47948L6.57441 8.98678L8.25023 8.44505L7.18397 4.93775Z" fill="#F7FEFF"/>
<path d="M17.4548 0.282131L6.81345 3.27524L7.36248 4.93772L18.0038 1.94461L17.4548 0.282131Z" fill="#F7FEFF"/>
</g>
<defs>
<clipPath id="clip0_9_64">
<rect width="32" height="32" fill="white"/>
</clipPath>
</defs>
</svg>
