<svg width="25" height="25" viewBox="0 0 25 25" fill="none" xmlns="http://www.w3.org/2000/svg">
<path fill-rule="evenodd" clip-rule="evenodd" d="M12.25 0C5.48726 0 0 5.48726 0 12.25C0 19.0128 5.48726 24.5 12.25 24.5C18.9994 24.5 24.5 19.0128 24.5 12.25C24.5 5.48726 18.9994 0 12.25 0ZM20.3414 5.64669C21.8029 7.42706 22.6798 9.69901 22.7064 12.157C22.3609 12.0906 18.9064 11.3864 15.4254 11.8248C15.3457 11.6521 15.2793 11.4661 15.1996 11.2801C14.987 10.7753 14.7479 10.2571 14.5087 9.76547C18.3617 8.1977 20.1155 5.93899 20.3414 5.64669ZM12.25 1.80694C14.9073 1.80694 17.3386 2.80342 19.1855 4.43764C18.9994 4.70336 17.4184 6.81589 13.6982 8.21095C11.9843 5.06209 10.0844 2.48454 9.79204 2.08595C10.5759 1.89994 11.3997 1.80694 12.25 1.80694ZM7.79912 2.79013C8.07811 3.16215 9.9382 5.75298 11.6787 8.83539C6.78932 10.1375 2.47126 10.1109 2.00624 10.1109C2.68384 6.86903 4.87608 4.17191 7.79912 2.79013ZM1.78037 12.2633C1.78037 12.157 1.78037 12.0507 1.78037 11.9444C2.2321 11.9577 7.30749 12.0241 12.529 10.4564C12.8346 11.0409 13.1136 11.6388 13.3794 12.2367C13.2465 12.2766 13.1003 12.3165 12.9675 12.3563C7.57321 14.0968 4.70336 18.8533 4.46421 19.2519C2.80341 17.4051 1.78037 14.9471 1.78037 12.2633ZM12.25 22.7196C9.83185 22.7196 7.59978 21.8959 5.8327 20.5141C6.01871 20.1288 8.14449 16.0366 14.0436 13.9773C14.0702 13.9639 14.0835 13.9639 14.1101 13.9507C15.5848 17.7638 16.1828 20.9658 16.3422 21.8826C15.08 22.4273 13.6982 22.7196 12.25 22.7196ZM18.0827 20.926C17.9764 20.2882 17.4184 17.2324 16.0499 13.4723C19.3316 12.9541 22.2014 13.8045 22.5602 13.9241C22.1085 16.8338 20.4344 19.3449 18.0827 20.926Z" fill="currentColor"/>
</svg>
