<svg width="25" height="25" viewBox="0 0 25 25" fill="none" xmlns="http://www.w3.org/2000/svg">
<path d="M17.3524 5.1104L18.3424 4.12041C19.1626 3.30028 20.4923 3.30028 21.3124 4.12041C22.1325 4.94055 22.1325 6.27024 21.3124 7.09038L20.3224 8.08037M17.3524 5.1104L10.6931 11.7697C10.1856 12.2773 9.82553 12.9131 9.65146 13.6094L8.92749 16.5053L11.8234 15.7813C12.5197 15.6073 13.1555 15.2472 13.6631 14.7397L20.3224 8.08037M17.3524 5.1104L20.3224 8.08037" stroke="currentColor" stroke-width="1.5" stroke-linejoin="round"/>
<path d="M19.9274 14.0053C19.9274 17.2928 19.9274 18.9365 19.0195 20.0429C18.8533 20.2454 18.6676 20.4311 18.465 20.5973C17.3587 21.5053 15.7149 21.5053 12.4274 21.5053H11.9275C8.15625 21.5053 6.27065 21.5053 5.09908 20.3337C3.92752 19.1622 3.92749 17.2765 3.92749 13.5053V13.0053C3.92749 9.71783 3.92749 8.0741 4.83543 6.96775C5.00166 6.76521 5.18739 6.57948 5.38993 6.41325C6.49628 5.50531 8.14001 5.50531 11.4275 5.50531" stroke="currentColor" stroke-width="1.5" stroke-linecap="round" stroke-linejoin="round"/>
</svg>
