<svg xmlns="http://www.w3.org/2000/svg" width="20" height="21" viewBox="0 0 20 21" fill="none">
<path d="M1.66669 5.01196L7.42754 8.2761C9.55135 9.47946 10.4487 9.47946 12.5725 8.2761L18.3334 5.01196" stroke="#404040" stroke-width="1.25" stroke-linejoin="round"/>
<path d="M1.67983 11.2417C1.7343 13.7964 1.76155 15.0736 2.70415 16.0199C3.64675 16.966 4.95863 16.999 7.58238 17.0649C9.19944 17.1055 10.8006 17.1055 12.4177 17.0649C15.0414 16.999 16.3533 16.966 17.2959 16.0199C18.2385 15.0736 18.2658 13.7964 18.3202 11.2417C18.3378 10.4203 18.3378 9.60379 18.3202 8.78238C18.2658 6.22776 18.2385 4.95045 17.2959 4.00426C16.3533 3.05807 15.0414 3.02511 12.4177 2.95919C10.8006 2.91855 9.19944 2.91855 7.58237 2.95918C4.95863 3.0251 3.64675 3.05805 2.70415 4.00425C1.76154 4.95045 1.7343 6.22775 1.67982 8.78238C1.6623 9.60379 1.66231 10.4203 1.67983 11.2417Z" stroke="#404040" stroke-width="1.25" stroke-linejoin="round"/>
</svg>