<svg width="236" height="235" viewBox="0 0 236 235" fill="none" xmlns="http://www.w3.org/2000/svg">
<g filter="url(#filter0_f_429_6356)">
<circle cx="117.75" cy="117.592" r="66.0925" fill="#C1CBFF"/>
</g>
<circle cx="117.75" cy="117.594" r="73.6069" fill="#EFF2FF" stroke="white" stroke-width="4.09876"/>
<mask id="mask0_429_6356" style="mask-type:alpha" maskUnits="userSpaceOnUse" x="46" y="46" width="143" height="143">
<circle cx="117.75" cy="117.591" r="71.2159" fill="white"/>
</mask>
<g mask="url(#mask0_429_6356)">
<path fill-rule="evenodd" clip-rule="evenodd" d="M119.047 84.8953C117.271 83.6339 114.891 83.6339 113.115 84.8953L60.9964 121.905C59.288 123.118 58.657 124.951 58.8692 126.671V187.136C58.8692 191.852 62.6923 195.676 67.4083 195.676H164.754C169.47 195.676 173.293 191.852 173.293 187.136V126.671C173.505 124.951 172.874 123.118 171.166 121.905L119.047 84.8953Z" fill="#4D64DE"/>
<mask id="mask1_429_6356" style="mask-type:alpha" maskUnits="userSpaceOnUse" x="58" y="84" width="116" height="112">
<path fill-rule="evenodd" clip-rule="evenodd" d="M117.881 84.7349C116.806 83.9582 115.355 83.9582 114.28 84.7349L60.332 123.723C59.8615 124.063 59.5295 124.481 59.3218 124.935C59.0367 125.329 58.8687 125.813 58.8687 126.336V187.134C58.8687 191.85 62.6917 195.673 67.4077 195.673H164.753C169.469 195.673 173.292 191.85 173.292 187.134V126.336C173.292 125.813 173.124 125.329 172.839 124.935C172.631 124.481 172.299 124.063 171.829 123.723L117.881 84.7349Z" fill="#4D64DE"/>
</mask>
<g mask="url(#mask1_429_6356)">
<rect x="74.9226" y="131.973" width="83.3414" height="36.8888" fill="white"/>
<path d="M58.8691 196.153V131.598L173.976 196.153H58.8691Z" fill="url(#paint0_linear_429_6356)"/>
<path d="M173.976 196.153V131.598L58.869 196.153H173.976Z" fill="url(#paint1_linear_429_6356)"/>
<path d="M111.356 151.934C114.158 149.56 118.266 149.56 121.069 151.934L168.015 191.698C173.355 196.222 170.156 204.947 163.158 204.947H69.267C62.2688 204.947 59.0702 196.222 64.4102 191.698L111.356 151.934Z" fill="#B5C0FF"/>
</g>
<path d="M74.9229 101.914H141.869C150.924 101.914 158.264 109.254 158.264 118.309V132.996H74.9229V101.914Z" fill="white"/>
<path d="M74.9229 101.914H141.869C150.924 101.914 158.264 109.254 158.264 118.309V132.996H74.9229V101.914Z" fill="white"/>
<path fill-rule="evenodd" clip-rule="evenodd" d="M140.844 101.916H75.4116C75.0553 101.891 74.6958 101.879 74.3333 101.879C65.9368 101.879 59.1026 108.568 58.8687 116.908H73.5561V116.945H126.84C127.068 108.847 133.518 102.306 141.579 101.934C141.336 101.922 141.091 101.916 140.844 101.916Z" fill="url(#paint2_linear_429_6356)"/>
<path fill-rule="evenodd" clip-rule="evenodd" d="M94.7336 125.105H137.429V127.155H94.7336V125.105ZM94.7336 131.937H137.429V133.986H94.7336V131.937ZM137.429 138.768H94.7336V140.817H137.429V138.768Z" fill="url(#paint3_linear_429_6356)"/>
</g>
<g filter="url(#filter1_f_429_6356)">
<circle cx="161.47" cy="104.956" r="16.5658" fill="#FF7070" fill-opacity="0.7"/>
</g>
<circle cx="157.713" cy="101.199" r="16.5658" fill="url(#paint4_linear_429_6356)"/>
<path fill-rule="evenodd" clip-rule="evenodd" d="M155.197 105.343L160.626 95.9385C159.827 95.4769 158.674 96.3077 156.368 97.9693L152.715 100.601C151.315 101.61 150.615 102.115 150.414 102.571C150.124 103.229 150.254 103.972 150.737 104.409C151.072 104.712 151.873 104.786 153.477 104.934C154.07 104.989 154.367 105.017 154.639 105.1C154.834 105.16 155.021 105.242 155.197 105.343Z" fill="white"/>
<path opacity="0.5" d="M160.544 105.12L160.997 100.641L160.997 100.641C161.283 97.813 161.426 96.3992 160.626 95.9375L155.197 105.342C155.372 105.443 155.536 105.564 155.686 105.704C155.894 105.897 156.066 106.141 156.41 106.627C157.34 107.942 157.806 108.599 158.235 108.737C158.855 108.937 159.563 108.678 159.989 108.098C160.283 107.695 160.37 106.837 160.544 105.12Z" fill="#FFE8E8"/>
<defs>
<filter id="filter0_f_429_6356" x="0.422993" y="0.265522" width="234.654" height="234.653" filterUnits="userSpaceOnUse" color-interpolation-filters="sRGB">
<feFlood flood-opacity="0" result="BackgroundImageFix"/>
<feBlend mode="normal" in="SourceGraphic" in2="BackgroundImageFix" result="shape"/>
<feGaussianBlur stdDeviation="25.6172" result="effect1_foregroundBlur_429_6356"/>
</filter>
<filter id="filter1_f_429_6356" x="131.242" y="74.7281" width="60.4566" height="60.4579" filterUnits="userSpaceOnUse" color-interpolation-filters="sRGB">
<feFlood flood-opacity="0" result="BackgroundImageFix"/>
<feBlend mode="normal" in="SourceGraphic" in2="BackgroundImageFix" result="shape"/>
<feGaussianBlur stdDeviation="6.83126" result="effect1_foregroundBlur_429_6356"/>
</filter>
<linearGradient id="paint0_linear_429_6356" x1="58.8691" y1="160.394" x2="105.322" y2="160.394" gradientUnits="userSpaceOnUse">
<stop stop-color="#A2B1FF"/>
<stop offset="1" stop-color="#4D64DE"/>
</linearGradient>
<linearGradient id="paint1_linear_429_6356" x1="173.976" y1="160.394" x2="125.132" y2="160.394" gradientUnits="userSpaceOnUse">
<stop stop-color="#A2B1FF"/>
<stop offset="1" stop-color="#4D64DE"/>
</linearGradient>
<linearGradient id="paint2_linear_429_6356" x1="101.251" y1="101.879" x2="101.251" y2="116.909" gradientUnits="userSpaceOnUse">
<stop stop-color="#899BFF"/>
<stop offset="1" stop-color="#DEE3FF"/>
</linearGradient>
<linearGradient id="paint3_linear_429_6356" x1="94.7336" y1="140.817" x2="137.429" y2="140.817" gradientUnits="userSpaceOnUse">
<stop stop-color="#B5C0FF"/>
<stop offset="1" stop-color="#B5C0FF" stop-opacity="0"/>
</linearGradient>
<linearGradient id="paint4_linear_429_6356" x1="157.713" y1="84.6328" x2="157.713" y2="117.764" gradientUnits="userSpaceOnUse">
<stop stop-color="#FF9898"/>
<stop offset="1" stop-color="#FF4F4F"/>
</linearGradient>
</defs>
</svg>
