<svg width="21" height="20" viewBox="0 0 21 20" fill="none" xmlns="http://www.w3.org/2000/svg">
<path d="M10.3689 18.3333C14.9713 18.3333 18.7022 14.6024 18.7022 10C18.7022 5.39763 14.9713 1.66667 10.3689 1.66667C5.76654 1.66667 2.03558 5.39763 2.03558 10C2.03558 14.6024 5.76654 18.3333 10.3689 18.3333Z" stroke="#FF3B30" stroke-width="1.25" stroke-linecap="round" stroke-linejoin="round"/>
<path d="M8.70225 15C9.62272 15 10.3689 14.2538 10.3689 13.3333C10.3689 12.4129 9.62272 11.6667 8.70225 11.6667C7.78178 11.6667 7.03558 12.4129 7.03558 13.3333C7.03558 14.2538 7.78178 15 8.70225 15Z" stroke="#FF3B30" stroke-width="1.25" stroke-linecap="round" stroke-linejoin="round"/>
<path d="M7.04306 7.5H7.03558M13.7023 7.5H13.6948" stroke="#FF3B30" stroke-width="1.66667" stroke-linecap="round" stroke-linejoin="round"/>
</svg>
