<svg width="21" height="20" viewBox="0 0 21 20" fill="none" xmlns="http://www.w3.org/2000/svg">
<path d="M16.6992 12.8658C17.4697 12.101 18.0646 11.3409 18.4534 10.7958C18.7067 10.4406 18.8334 10.2629 18.8334 9.99999C18.8334 9.73707 18.7067 9.55941 18.4534 9.20416C17.3149 7.60786 14.4077 4.16666 10.5 4.16666C9.74352 4.16666 9.02452 4.29562 8.34858 4.51521M6.12287 5.62284C4.44267 6.75599 3.20181 8.28554 2.54672 9.20416C2.29336 9.55941 2.16669 9.73707 2.16669 9.99999C2.16669 10.2629 2.29336 10.4406 2.54672 10.7958C3.6851 12.3922 6.59234 15.8333 10.5 15.8333C12.159 15.8333 13.6376 15.2131 14.8772 14.3772" stroke="currentColor" stroke-width="1.25" stroke-linecap="round" stroke-linejoin="round"/>
<path d="M8.71488 8.33334C8.27319 8.77501 8 9.38526 8 10.0593C8 11.4073 9.09275 12.5 10.4407 12.5C11.1147 12.5 11.725 12.2268 12.1667 11.7851" stroke="currentColor" stroke-width="1.25" stroke-linecap="round"/>
<path d="M3 2.5L18 17.5" stroke="currentColor" stroke-width="1.25" stroke-linecap="round" stroke-linejoin="round"/>
</svg>
