<svg width="125" height="125" viewBox="0 0 125 125" fill="none" xmlns="http://www.w3.org/2000/svg">
<path d="M2 62.4998C2 78.5454 8.37407 93.9337 19.72 105.28C31.0659 116.626 46.4543 123 62.4998 123C78.5454 123 93.9337 116.626 105.28 105.28C116.626 93.9337 123 78.5454 123 62.4998C123 46.4543 116.626 31.0659 105.28 19.72C93.9337 8.37407 78.5454 2 62.4998 2C46.4543 2 31.0659 8.37407 19.72 19.72C8.37407 31.0659 2 46.4543 2 62.4998Z" fill="#FFE500"/>
<path d="M62.4999 2C50.5341 2 38.8371 5.54825 28.888 12.1961C18.9388 18.8439 11.1844 28.2927 6.6053 39.3475C2.02621 50.4024 0.828115 62.5669 3.16251 74.3028C5.49691 86.0386 11.259 96.8186 19.72 105.28C28.1811 113.741 38.9611 119.503 50.6969 121.837C62.4327 124.172 74.5972 122.973 85.6521 118.394C96.707 113.815 106.156 106.061 112.804 96.1117C119.451 86.1626 123 74.4656 123 62.4998C123 46.4543 116.626 31.0659 105.28 19.72C93.9338 8.37407 78.5454 2 62.4999 2ZM62.4999 113.925C51.5811 113.925 40.9076 110.687 31.829 104.621C22.7504 98.5547 15.6745 89.9326 11.4961 79.845C7.31766 69.7575 6.22439 58.6573 8.35453 47.9484C10.4847 37.2395 15.7425 27.4027 23.4633 19.682C31.184 11.9613 41.0208 6.7034 51.7297 4.57327C62.4386 2.44313 73.5387 3.53639 83.6263 7.71481C93.7139 11.8932 102.336 18.9691 108.402 28.0477C114.468 37.1263 117.706 47.7999 117.706 58.7186C117.706 73.3602 111.89 87.402 101.536 97.7552C91.1833 108.108 77.1414 113.925 62.4999 113.925Z" fill="#EBCB00"/>
<path d="M44.3489 14.101C44.3489 14.6968 44.8183 15.2869 45.7305 15.8374C46.6426 16.3879 47.9795 16.8881 49.6649 17.3095C51.3502 17.7308 53.3511 18.065 55.5531 18.2931C57.7552 18.5211 60.1153 18.6385 62.4988 18.6385C64.8823 18.6385 67.2425 18.5211 69.4445 18.2931C71.6466 18.065 73.6474 17.7308 75.3328 17.3095C77.0182 16.8881 78.3551 16.3879 79.2672 15.8374C80.1793 15.2869 80.6488 14.6968 80.6488 14.101C80.6488 13.5051 80.1793 12.9151 79.2672 12.3645C78.3551 11.814 77.0182 11.3138 75.3328 10.8925C73.6474 10.4711 71.6466 10.1369 69.4445 9.90887C67.2425 9.68084 64.8823 9.56348 62.4988 9.56348C60.1153 9.56348 57.7552 9.68084 55.5531 9.90887C53.3511 10.1369 51.3502 10.4711 49.6649 10.8925C47.9795 11.3138 46.6426 11.814 45.7305 12.3645C44.8183 12.9151 44.3489 13.5051 44.3489 14.101Z" fill="#FFF48C"/>
<path d="M2 62.4998C2 78.5454 8.37407 93.9337 19.72 105.28C31.0659 116.626 46.4543 123 62.4998 123C78.5454 123 93.9337 116.626 105.28 105.28C116.626 93.9337 123 78.5454 123 62.4998C123 46.4543 116.626 31.0659 105.28 19.72C93.9337 8.37407 78.5454 2 62.4998 2C46.4543 2 31.0659 8.37407 19.72 19.72C8.37407 31.0659 2 46.4543 2 62.4998V62.4998Z" stroke="#45413C" stroke-width="3.02499" stroke-linecap="round" stroke-linejoin="round"/>
<path d="M106.362 77.6244C106.362 80.1351 102.974 82.1619 98.7993 82.1619C94.6248 82.1619 91.2368 80.1351 91.2368 77.6244C91.2368 75.1137 94.6248 73.0869 98.7993 73.0869C102.974 73.0869 106.362 75.1137 106.362 77.6244Z" fill="#FFAA54"/>
<path d="M18.6367 77.6244C18.6367 80.1351 22.0247 82.1619 26.1992 82.1619C30.3737 82.1619 33.7617 80.1351 33.7617 77.6244C33.7617 75.1137 30.3737 73.0869 26.1992 73.0869C22.0247 73.0869 18.6367 75.1137 18.6367 77.6244Z" fill="#FFAA54"/>
<path d="M20.1501 66.281C20.1501 64.8771 20.7079 63.5306 21.7006 62.5378C22.6934 61.545 24.0399 60.9873 25.4439 60.9873C26.8479 60.9873 28.1944 61.545 29.1871 62.5378C30.1799 63.5306 30.7376 64.8771 30.7376 66.281" stroke="#45413C" stroke-width="3.02499" stroke-linecap="round" stroke-linejoin="round"/>
<path d="M94.2627 66.281C94.2627 64.8771 94.8204 63.5306 95.8132 62.5378C96.806 61.545 98.1524 60.9873 99.5564 60.9873C100.96 60.9873 102.307 61.545 103.3 62.5378C104.292 63.5306 104.85 64.8771 104.85 66.281" stroke="#45413C" stroke-width="3.02499" stroke-linecap="round" stroke-linejoin="round"/>
<path d="M62.5009 108.026C90.3308 108.026 94.0516 96.4102 92.4181 86.8512C92.0672 85.4226 91.4149 84.0856 90.5049 82.9299C89.5949 81.7741 88.4482 80.8264 87.1417 80.1503C85.8353 79.4742 84.3994 79.0853 82.9303 79.0097C81.4612 78.9342 79.993 79.1737 78.6241 79.7122C73.4266 81.4425 67.9787 82.3011 62.5009 82.2532C57.0232 82.3011 51.5752 81.4425 46.3777 79.7122C45.0088 79.1737 43.5406 78.9342 42.0715 79.0097C40.6024 79.0853 39.1665 79.4742 37.8601 80.1503C36.5536 80.8264 35.407 81.7741 34.4969 82.9299C33.5869 84.0856 32.9346 85.4226 32.5837 86.8512C30.9502 96.4102 34.671 108.026 62.5009 108.026Z" fill="white" stroke="#45413C" stroke-width="3.02499" stroke-linecap="round" stroke-linejoin="round"/>
<path d="M92.6872 89.0586C88.2655 91.0777 83.581 92.4626 78.7722 93.1726C73.3915 94.0392 67.9477 94.454 62.4978 94.4128C57.0478 94.454 51.604 94.0392 46.2233 93.1726C41.4146 92.4626 36.7301 91.0777 32.3083 89.0586" stroke="#45413C" stroke-width="3.02499" stroke-linecap="round" stroke-linejoin="round"/>
<path d="M48.2223 80.3174L46.2258 93.1736L44.3201 105.546" stroke="#45413C" stroke-width="3.02499" stroke-linecap="round" stroke-linejoin="round"/>
<path d="M62.499 108.029V82.3164" stroke="#45413C" stroke-width="3.02499" stroke-linecap="round" stroke-linejoin="round"/>
<path d="M76.8091 80.3174L78.7753 93.1736L80.6811 105.546" stroke="#45413C" stroke-width="3.02499" stroke-linecap="round" stroke-linejoin="round"/>
<path d="M103.335 37.1173L117.068 32.5193C117.321 32.4291 117.54 32.263 117.694 32.0436C117.849 31.8243 117.932 31.5625 117.932 31.2942C117.932 31.0258 117.849 30.764 117.694 30.5447C117.54 30.3253 117.321 30.1592 117.068 30.069L105.785 26.318C105.018 26.0579 104.323 25.6213 103.755 25.0433C103.188 24.4654 102.764 23.7622 102.518 22.9905L98.7669 11.7073C98.6744 11.4521 98.5059 11.2312 98.2842 11.0744C98.0625 10.9176 97.7982 10.8323 97.5267 10.8301C97.2582 10.8297 96.9964 10.9144 96.779 11.072C96.5617 11.2296 96.3998 11.452 96.3167 11.7073L92.5354 22.9905C92.2834 23.7688 91.8504 24.4762 91.272 25.0546C90.6935 25.633 89.9862 26.066 89.2079 26.318L77.9247 30.069C77.672 30.1592 77.4533 30.3253 77.2987 30.5447C77.144 30.764 77.061 31.0258 77.061 31.2942C77.061 31.5625 77.144 31.8243 77.2987 32.0436C77.4533 32.263 77.672 32.4291 77.9247 32.5193L89.2079 36.3005C89.9685 36.5546 90.6595 36.982 91.2265 37.549C91.7934 38.116 92.2209 38.807 92.4749 39.5675L96.2562 50.8507C96.3393 51.106 96.5012 51.3285 96.7185 51.4861C96.9359 51.6437 97.1977 51.7284 97.4662 51.728C97.7377 51.7257 98.0021 51.6405 98.2237 51.4837C98.4454 51.3269 98.6139 51.106 98.7064 50.8507L103.335 37.1173Z" fill="white" stroke="#45413C" stroke-width="3.02499" stroke-linecap="round" stroke-linejoin="round"/>
</svg>
