<svg xmlns="http://www.w3.org/2000/svg" width="131" height="42" viewBox="0 0 131 42" fill="none">
  <g clip-path="url(#clip0_1482_1312)">
    <path d="M16.3451 14.7063V19.0797H26.8994C26.6192 21.499 25.7786 23.3601 24.471 24.5697C22.9766 26.0585 20.5481 27.7335 16.3451 27.7335C9.90047 27.7335 4.85683 22.5226 4.85683 16.1021C4.85683 9.68155 9.80707 4.47069 16.3451 4.47069C19.8009 4.47069 22.4162 5.86646 24.2842 7.63443L27.3664 4.56374C24.7512 2.05136 21.2019 0.09729 16.3451 0.09729C7.47205 0.09729 0 7.26222 0 16.1021C0 24.9419 7.47205 32.1069 16.3451 32.1069C21.1085 32.1069 24.7512 30.525 27.5532 27.6404C30.4486 24.7558 31.3826 20.6616 31.3826 17.4048C31.3826 16.3812 31.2892 15.4507 31.1958 14.7063H16.3451Z" fill="#474747"/>
    <path d="M44.4587 11.0773C38.7613 11.0773 33.9978 15.4507 33.9978 21.406C33.9978 27.3613 38.6679 31.7347 44.4587 31.7347C50.2495 31.7347 54.9196 27.4543 54.9196 21.4991C54.9196 15.4507 50.2495 11.0773 44.4587 11.0773ZM44.4587 27.7335C41.2831 27.7335 38.5745 25.128 38.5745 21.4991C38.5745 17.777 41.2831 15.2646 44.4587 15.2646C47.6343 15.2646 50.3429 17.777 50.3429 21.4991C50.3429 25.128 47.6343 27.7335 44.4587 27.7335Z" fill="#474747"/>
    <path d="M95.5488 13.4036H95.362C94.3346 12.1939 92.3732 11.0773 89.8514 11.0773C84.621 11.0773 80.1377 15.5438 80.1377 21.406C80.1377 27.1752 84.621 31.7347 89.8514 31.7347C92.3732 31.7347 94.3346 30.6181 95.362 29.4084H95.5488V30.8972C95.5488 34.8054 93.4006 36.9455 90.0382 36.9455C87.2362 36.9455 85.555 34.9915 84.8078 33.2235L80.8849 34.8984C82.0057 37.5969 85.088 41.0398 90.1316 41.0398C95.4554 41.0398 100.032 37.876 100.032 30.2459V11.6356H95.7356V13.4036H95.5488ZM90.3184 27.7335C87.1428 27.7335 84.8078 25.035 84.8078 21.4991C84.8078 17.8701 87.2362 15.2646 90.3184 15.2646C93.4006 15.2646 95.829 17.9631 95.829 21.5921C95.9224 25.128 93.494 27.7335 90.3184 27.7335Z" fill="#474747"/>
    <path d="M67.7154 11.0773C62.018 11.0773 57.2546 15.4507 57.2546 21.406C57.2546 27.3613 61.9246 31.7347 67.7154 31.7347C73.5063 31.7347 78.1763 27.4543 78.1763 21.4991C78.1763 15.4507 73.5063 11.0773 67.7154 11.0773ZM67.7154 27.7335C64.5398 27.7335 61.8312 25.128 61.8312 21.4991C61.8312 17.777 64.5398 15.2646 67.7154 15.2646C70.8911 15.2646 73.5997 17.777 73.5997 21.4991C73.5997 25.128 70.8911 27.7335 67.7154 27.7335Z" fill="#474747"/>
    <path d="M103.488 0.562561H107.971V31.8277H103.488V0.562561Z" fill="#474747"/>
    <path d="M121.794 27.7335C119.459 27.7335 117.872 26.7099 116.751 24.5697L130.667 18.8936L130.2 17.684C129.36 15.3577 126.651 11.0773 121.327 11.0773C116.004 11.0773 111.52 15.2646 111.52 21.406C111.52 27.1752 115.91 31.7347 121.794 31.7347C126.558 31.7347 129.266 28.8501 130.481 27.1752L126.931 24.8489C125.717 26.6169 124.129 27.7335 121.794 27.7335ZM121.514 14.9855C123.382 14.9855 124.97 15.916 125.437 17.2187L116.097 21.1268C116.004 16.8465 119.179 14.9855 121.514 14.9855Z" fill="#474747"/>
  </g>
  <defs>
    <clipPath id="clip0_1482_1312">
      <rect width="130.667" height="40.9425" fill="white" transform="translate(0 0.09729)"/>
    </clipPath>
  </defs>
</svg>