<svg xmlns="http://www.w3.org/2000/svg" width="31" height="30" viewBox="0 0 31 30" fill="none">
<g clip-path="url(#clip0_1140_458)">
<path d="M30.4576 15.3448C30.4576 14.3252 30.3749 13.3 30.1985 12.2969H16.05V18.0731H24.1522C23.816 19.936 22.7357 21.584 21.1539 22.6312V26.3792H25.9876C28.8261 23.7667 30.4576 19.9085 30.4576 15.3448Z" fill="#4285F4"/>
<path d="M16.0499 30.0007C20.0954 30.0007 23.5072 28.6724 25.9929 26.3795L21.1592 22.6316C19.8144 23.5465 18.0782 24.0646 16.0554 24.0646C12.1421 24.0646 8.82409 21.4245 7.63357 17.875H2.64551V21.7387C5.1919 26.8039 10.3784 30.0007 16.0499 30.0007Z" fill="#34A853"/>
<path d="M7.62822 17.8764C6.99989 16.0134 6.99989 13.9962 7.62822 12.1332V8.26953H2.64568C0.518173 12.508 0.518173 17.5016 2.64568 21.74L7.62822 17.8764Z" fill="#FBBC04"/>
<path d="M16.0499 5.93708C18.1884 5.90401 20.2553 6.70871 21.8041 8.18583L26.0866 3.90327C23.3749 1.35688 19.7758 -0.0430825 16.0499 0.00101083C10.3784 0.00101083 5.1919 3.19778 2.64551 8.26851L7.62805 12.1322C8.81306 8.57716 12.1366 5.93708 16.0499 5.93708Z" fill="#EA4335"/>
</g>
<defs>
<clipPath id="clip0_1140_458">
<rect width="30" height="30" fill="white" transform="translate(0.75)"/>
</clipPath>
</defs>
</svg>