<svg width="28" height="28" viewBox="0 0 28 28" fill="none" xmlns="http://www.w3.org/2000/svg">
<path d="M10.6417 24.021V20.5172C10.6417 19.626 11.3683 18.9018 12.2685 18.8958H15.5659C16.4704 18.8958 17.2037 19.6218 17.2037 20.5172V20.5172V24.0319C17.2034 24.7886 17.8135 25.407 18.5776 25.4248H20.7759C22.9673 25.4248 24.7438 23.666 24.7438 21.4965V21.4965V11.5291C24.7321 10.6756 24.3273 9.87412 23.6447 9.35276L16.1265 3.35705C14.8094 2.31307 12.9371 2.31307 11.62 3.35705L4.13479 9.36364C3.44954 9.88289 3.04408 10.6857 3.03564 11.5399V21.4965C3.03564 23.666 4.81214 25.4248 7.00357 25.4248H9.20186C9.98495 25.4248 10.6198 24.7963 10.6198 24.021V24.021" stroke="currentColor" stroke-width="2" stroke-linecap="round" stroke-linejoin="round"/>
</svg>
