<svg width="25" height="25" viewBox="0 0 25 25" fill="none" xmlns="http://www.w3.org/2000/svg">
<g clip-path="url(#clip0_430_9187)">
<path d="M12.25 2.20596C15.523 2.20596 15.9106 2.22031 17.1979 2.27773C18.3941 2.33037 19.0401 2.53135 19.4708 2.69883C20.0402 2.91895 20.4518 3.18691 20.8776 3.61279C21.3083 4.04346 21.5715 4.4502 21.7916 5.01963C21.9591 5.45029 22.1601 6.10107 22.2127 7.29258C22.2701 8.58457 22.2845 8.97217 22.2845 12.2404C22.2845 15.5135 22.2701 15.9011 22.2127 17.1883C22.1601 18.3846 21.9591 19.0306 21.7916 19.4612C21.5715 20.0307 21.3035 20.4422 20.8776 20.8681C20.447 21.2987 20.0402 21.5619 19.4708 21.782C19.0401 21.9495 18.3894 22.1505 17.1979 22.2031C15.9059 22.2605 15.5183 22.2749 12.25 22.2749C8.97695 22.2749 8.58936 22.2605 7.30215 22.2031C6.10586 22.1505 5.45986 21.9495 5.0292 21.782C4.45977 21.5619 4.04824 21.2939 3.62236 20.8681C3.1917 20.4374 2.92852 20.0307 2.7084 19.4612C2.54092 19.0306 2.33994 18.3798 2.2873 17.1883C2.22988 15.8963 2.21553 15.5087 2.21553 12.2404C2.21553 8.96738 2.22988 8.57979 2.2873 7.29258C2.33994 6.09629 2.54092 5.45029 2.7084 5.01963C2.92852 4.4502 3.19648 4.03867 3.62236 3.61279C4.05303 3.18213 4.45977 2.91895 5.0292 2.69883C5.45986 2.53135 6.11064 2.33037 7.30215 2.27773C8.58936 2.22031 8.97695 2.20596 12.25 2.20596ZM12.25 0C8.92432 0 8.50801 0.0143555 7.20166 0.0717773C5.9001 0.129199 5.00527 0.339746 4.23008 0.641211C3.42139 0.957031 2.73711 1.37334 2.05762 2.05762C1.37334 2.73711 0.957031 3.42139 0.641211 4.22529C0.339746 5.00527 0.129199 5.89531 0.0717773 7.19688C0.0143555 8.50801 0 8.92432 0 12.25C0 15.5757 0.0143555 15.992 0.0717773 17.2983C0.129199 18.5999 0.339746 19.4947 0.641211 20.2699C0.957031 21.0786 1.37334 21.7629 2.05762 22.4424C2.73711 23.1219 3.42139 23.543 4.22529 23.854C5.00527 24.1555 5.89531 24.366 7.19687 24.4234C8.50322 24.4809 8.91953 24.4952 12.2452 24.4952C15.5709 24.4952 15.9872 24.4809 17.2936 24.4234C18.5951 24.366 19.4899 24.1555 20.2651 23.854C21.069 23.543 21.7533 23.1219 22.4328 22.4424C23.1123 21.7629 23.5334 21.0786 23.8444 20.2747C24.1459 19.4947 24.3564 18.6047 24.4139 17.3031C24.4713 15.9968 24.4856 15.5805 24.4856 12.2548C24.4856 8.9291 24.4713 8.51279 24.4139 7.20645C24.3564 5.90488 24.1459 5.01006 23.8444 4.23486C23.543 3.42139 23.1267 2.73711 22.4424 2.05762C21.7629 1.37813 21.0786 0.957031 20.2747 0.645996C19.4947 0.344531 18.6047 0.133984 17.3031 0.0765625C15.992 0.0143555 15.5757 0 12.25 0Z" fill="currentColor"/>
<path d="M12.2495 5.95703C8.77549 5.95703 5.95703 8.77549 5.95703 12.2495C5.95703 15.7235 8.77549 18.542 12.2495 18.542C15.7235 18.542 18.542 15.7235 18.542 12.2495C18.542 8.77549 15.7235 5.95703 12.2495 5.95703ZM12.2495 16.3313C9.9957 16.3313 8.16777 14.5033 8.16777 12.2495C8.16777 9.9957 9.9957 8.16777 12.2495 8.16777C14.5033 8.16777 16.3313 9.9957 16.3313 12.2495C16.3313 14.5033 14.5033 16.3313 12.2495 16.3313Z" fill="currentColor"/>
<path d="M20.2584 5.70733C20.2584 6.5208 19.598 7.17637 18.7894 7.17637C17.9759 7.17637 17.3203 6.51602 17.3203 5.70733C17.3203 4.89385 17.9807 4.23828 18.7894 4.23828C19.598 4.23828 20.2584 4.89863 20.2584 5.70733Z" fill="currentColor"/>
</g>
<defs>
<clipPath id="clip0_430_9187">
<rect width="24.5" height="24.5" fill="white"/>
</clipPath>
</defs>
</svg>
