<svg width="23" height="23" viewBox="0 0 23 23" fill="none" xmlns="http://www.w3.org/2000/svg">
<g clip-path="url(#clip0_1942_2801)">
<path d="M20.8715 0.918213H2.12422C1.22617 0.918213 0.5 1.6272 0.5 2.50376V21.3284C0.5 22.2049 1.22617 22.9182 2.12422 22.9182H20.8715C21.7695 22.9182 22.5 22.2049 22.5 21.3327V2.50376C22.5 1.6272 21.7695 0.918213 20.8715 0.918213ZM7.02695 19.6655H3.76133V9.16392H7.02695V19.6655ZM5.39414 7.73306C4.3457 7.73306 3.49922 6.88657 3.49922 5.84243C3.49922 4.79829 4.3457 3.95181 5.39414 3.95181C6.43828 3.95181 7.28477 4.79829 7.28477 5.84243C7.28477 6.88228 6.43828 7.73306 5.39414 7.73306ZM19.2473 19.6655H15.9859V14.5608C15.9859 13.3448 15.9645 11.7764 14.2887 11.7764C12.5914 11.7764 12.3336 13.1042 12.3336 14.4749V19.6655H9.07656V9.16392H12.2047V10.5991H12.2477C12.6816 9.77407 13.7473 8.90181 15.3328 8.90181C18.6371 8.90181 19.2473 11.076 19.2473 13.9034V19.6655Z" fill="currentColor"/>
</g>
<defs>
<clipPath id="clip0_1942_2801">
<rect width="22" height="22" fill="white" transform="translate(0.5 0.918213)"/>
</clipPath>
</defs>
</svg>
