<svg width="16" height="17" viewBox="0 0 16 17" fill="none" xmlns="http://www.w3.org/2000/svg">
<path d="M5.6 8.5L5.1 8.5L5.6 8.5ZM10.4 8.5H10.9H10.4ZM8 10.9V11.4V10.9ZM8 7.3L8 7.8L8 7.3ZM9.24165 14.3714L9.3446 14.8607L9.24165 14.3714ZM6.75836 14.3714L6.6554 14.8607L6.75836 14.3714ZM2.44317 6.23272L1.98029 6.04366H1.98029L2.44317 6.23272ZM2.12863 9.74164L1.63934 9.8446L2.12863 9.74164ZM6.75836 2.62863L6.6554 2.13934L6.75836 2.62863ZM9.24165 2.62863L9.3446 2.13934L9.24165 2.62863ZM13.5085 6.25437L13.3634 5.77589L13.5085 6.25437ZM2.49078 6.25415L2.34565 6.73262L2.49078 6.25415ZM13.5575 6.23436L13.0946 6.42328C13.3558 7.06339 13.5 7.76423 13.5 8.5H14H14.5C14.5 7.63247 14.3298 6.80345 14.0204 6.04544L13.5575 6.23436ZM14 8.5H13.5C13.5 8.89089 13.4593 9.27172 13.3821 9.63869L13.8714 9.74164L14.3607 9.8446C14.452 9.41033 14.5 8.96049 14.5 8.5H14ZM13.8714 9.74164L13.3821 9.63869C12.9353 11.762 11.262 13.4353 9.13869 13.8821L9.24165 14.3714L9.3446 14.8607C11.8559 14.3322 13.8322 12.3559 14.3607 9.8446L13.8714 9.74164ZM9.24165 14.3714L9.13869 13.8821C8.77172 13.9593 8.39089 14 8 14V14.5V15C8.4605 15 8.91033 14.952 9.3446 14.8607L9.24165 14.3714ZM8 14.5V14C7.60911 14 7.22828 13.9593 6.86131 13.8821L6.75836 14.3714L6.6554 14.8607C7.08967 14.952 7.53951 15 8 15V14.5ZM2 8.5H2.5C2.5 7.76366 2.64443 7.0623 2.90604 6.42177L2.44317 6.23272L1.98029 6.04366C1.67049 6.80215 1.5 7.63179 1.5 8.5H2ZM6.75836 14.3714L6.86131 13.8821C4.73799 13.4353 3.06471 11.762 2.61791 9.63869L2.12863 9.74164L1.63934 9.8446C2.16777 12.3559 4.14413 14.3322 6.6554 14.8607L6.75836 14.3714ZM2.12863 9.74164L2.61791 9.63869C2.5407 9.27172 2.5 8.89089 2.5 8.5H2H1.5C1.5 8.96049 1.54796 9.41033 1.63934 9.8446L2.12863 9.74164ZM2.44317 6.23272L2.90604 6.42177C3.58706 4.75441 5.0633 3.49625 6.86131 3.11791L6.75836 2.62863L6.6554 2.13934C4.52763 2.58707 2.7848 4.07391 1.98029 6.04366L2.44317 6.23272ZM6.75836 2.62863L6.86131 3.11791C7.22828 3.0407 7.60911 3 8 3V2.5V2C7.53951 2 7.08967 2.04796 6.6554 2.13934L6.75836 2.62863ZM8 2.5V3C8.39089 3 8.77172 3.0407 9.13869 3.11792L9.24165 2.62863L9.3446 2.13934C8.91033 2.04797 8.46049 2 8 2V2.5ZM9.24165 2.62863L9.13869 3.11792C10.9372 3.49637 12.4138 4.75517 13.0946 6.42328L13.5575 6.23436L14.0204 6.04544C13.2162 4.07481 11.473 2.58721 9.3446 2.13934L9.24165 2.62863ZM9.24165 2.62863L8.76531 2.78062C8.93072 3.29904 9.54241 5.29115 9.79297 7.1201L10.2883 7.05223L10.7837 6.98437C10.5207 5.06477 9.88615 3.00368 9.71798 2.47664L9.24165 2.62863ZM10.2883 7.05223L9.79297 7.1201C9.86008 7.61002 9.9 8.07954 9.9 8.5L10.4 8.5H10.9C10.9 8.02038 10.8548 7.50321 10.7837 6.98437L10.2883 7.05223ZM13.5085 6.25437L13.3634 5.77589C12.7057 5.97537 11.4709 6.32554 10.1976 6.56054L10.2883 7.05223L10.3791 7.54393C11.7051 7.29921 12.9801 6.93712 13.6536 6.73284L13.5085 6.25437ZM10.2883 7.05223L10.1976 6.56054C9.42499 6.70313 8.65547 6.8 8 6.8V7.3L8 7.8C8.74185 7.8 9.5784 7.6917 10.3791 7.54393L10.2883 7.05223ZM10.4 8.5L9.9 8.5C9.9 9.12315 9.81243 9.84991 9.68097 10.5852L10.1732 10.6732L10.6654 10.7612C10.8019 9.99735 10.9 9.20604 10.9 8.5H10.4ZM10.1732 10.6732L9.68097 10.5852C9.39284 12.1966 8.90861 13.7703 8.76531 14.2194L9.24165 14.3714L9.71799 14.5234C9.86547 14.0611 10.3656 12.438 10.6654 10.7612L10.1732 10.6732ZM13.8714 9.74164L13.7194 9.2653C13.2703 9.4086 11.6966 9.89284 10.0852 10.181L10.1732 10.6732L10.2612 11.1654C11.938 10.8655 13.5611 10.3655 14.0234 10.218L13.8714 9.74164ZM10.1732 10.6732L10.0852 10.181C9.34991 10.3124 8.62315 10.4 8 10.4L8 10.9V11.4C8.70604 11.4 9.49735 11.3019 10.2612 11.1654L10.1732 10.6732ZM8 10.9L8 10.4C7.37685 10.4 6.65009 10.3124 5.91484 10.181L5.82684 10.6732L5.73884 11.1654C6.50265 11.3019 7.29396 11.4 8 11.4V10.9ZM5.82684 10.6732L5.91484 10.181C4.30339 9.89284 2.72972 9.4086 2.28062 9.2653L2.12863 9.74164L1.97664 10.218C2.43887 10.3655 4.06204 10.8655 5.73884 11.1654L5.82684 10.6732ZM5.6 8.5L5.1 8.5C5.1 9.20604 5.19808 9.99735 5.33464 10.7612L5.82684 10.6732L6.31903 10.5852C6.18757 9.84991 6.1 9.12315 6.1 8.5H5.6ZM5.82684 10.6732L5.33464 10.7612C5.63445 12.438 6.13453 14.0611 6.28202 14.5234L6.75836 14.3714L7.2347 14.2194C7.0914 13.7703 6.60716 12.1966 6.31903 10.5852L5.82684 10.6732ZM6.75836 2.62863L6.28202 2.47664C6.11385 3.00368 5.47926 5.06477 5.21629 6.98437L5.71166 7.05224L6.20704 7.1201C6.45759 5.29115 7.06928 3.29904 7.2347 2.78062L6.75836 2.62863ZM5.71166 7.05224L5.21629 6.98437C5.14521 7.50321 5.1 8.02038 5.1 8.5L5.6 8.5H6.1C6.1 8.07954 6.13992 7.61002 6.20704 7.1201L5.71166 7.05224ZM8 7.3V6.8C7.34453 6.8 6.57502 6.70313 5.80241 6.56054L5.71166 7.05224L5.62092 7.54393C6.4216 7.6917 7.25815 7.8 8 7.8L8 7.3ZM5.71166 7.05224L5.80241 6.56054C4.52865 6.32546 3.29344 5.97512 2.63591 5.77568L2.49078 6.25415L2.34565 6.73262C3.01896 6.93686 4.29445 7.29912 5.62092 7.54393L5.71166 7.05224ZM13.5575 6.23436L13.3271 5.79061C13.3377 5.78511 13.3501 5.77993 13.3634 5.77589L13.5085 6.25437L13.6536 6.73284C13.7011 6.71846 13.7457 6.70004 13.7879 6.6781L13.5575 6.23436ZM2.44317 6.23272L2.1823 6.65927C2.23245 6.68994 2.28694 6.71481 2.34565 6.73262L2.49078 6.25415L2.63591 5.77568C2.6609 5.78326 2.68395 5.79388 2.70403 5.80616L2.44317 6.23272Z" fill="currentColor"/>
</svg>
