<svg width="41" height="41" viewBox="0 0 41 41" fill="none" xmlns="http://www.w3.org/2000/svg">
<path d="M33.7871 4.05225H8.14058C5.92856 4.05225 4.1333 5.84751 4.1333 8.05952V33.7061C4.1333 35.9181 5.92856 37.7134 8.14058 37.7134H33.7871C35.9992 37.7134 37.7944 35.9181 37.7944 33.7061V8.05952C37.7944 5.84751 35.9992 4.05225 33.7871 4.05225ZM14.5522 16.8755V32.1032H9.74349V16.8755H14.5522ZM9.74349 12.4435C9.74349 11.3214 10.7052 10.4639 12.1479 10.4639C13.5905 10.4639 14.4961 11.3214 14.5522 12.4435C14.5522 13.5655 13.6546 14.4712 12.1479 14.4712C10.7052 14.4712 9.74349 13.5655 9.74349 12.4435ZM32.1842 32.1032H27.3755C27.3755 32.1032 27.3755 24.6817 27.3755 24.0886C27.3755 22.4857 26.574 20.8828 24.5704 20.8507H24.5063C22.5668 20.8507 21.7653 22.5017 21.7653 24.0886C21.7653 24.8179 21.7653 32.1032 21.7653 32.1032H16.9566V16.8755H21.7653V18.9273C21.7653 18.9273 23.3121 16.8755 26.4218 16.8755C29.6035 16.8755 32.1842 19.0635 32.1842 23.4955V32.1032Z" fill="currentColor"/>
</svg>
