<svg xmlns="http://www.w3.org/2000/svg" width="20" height="21" viewBox="0 0 20 21" fill="none">
<path d="M5.83331 8.34534V14.1787" stroke="#595959" stroke-width="1.25" stroke-linecap="round" stroke-linejoin="round"/>
<path d="M9.16669 10.8453V14.1787M9.16669 10.8453C9.16669 9.46459 10.2859 8.34534 11.6667 8.34534C13.0474 8.34534 14.1667 9.46459 14.1667 10.8453V14.1787M9.16669 10.8453V8.34534" stroke="#595959" stroke-width="1.25" stroke-linecap="round" stroke-linejoin="round"/>
<path d="M5.84001 5.84534H5.83252" stroke="black" stroke-width="1.66667" stroke-linecap="round" stroke-linejoin="round"/>
<path d="M2.08331 10.012C2.08331 6.28005 2.08331 4.41408 3.24268 3.2547C4.40205 2.09534 6.26803 2.09534 9.99998 2.09534C13.7319 2.09534 15.5979 2.09534 16.7573 3.2547C17.9166 4.41408 17.9166 6.28005 17.9166 10.012C17.9166 13.7439 17.9166 15.6099 16.7573 16.7693C15.5979 17.9287 13.7319 17.9287 9.99998 17.9287C6.26803 17.9287 4.40205 17.9287 3.24268 16.7693C2.08331 15.6099 2.08331 13.7439 2.08331 10.012Z" stroke="black" stroke-width="1.25" stroke-linejoin="round"/>
</svg>