<svg width="171" height="40"  viewBox="0 0 171 40" fill="none" xmlns="http://www.w3.org/2000/svg">
<path d="M18.9414 4.40137C19.1762 3.36181 20.6574 3.36182 20.8923 4.40137L22.5161 11.5902C22.6683 12.264 23.4415 12.5842 24.0255 12.2154L30.257 8.28036C31.1581 7.71133 32.2055 8.75871 31.6364 9.65982L27.7014 15.8913C27.3326 16.4754 27.6529 17.2485 28.3266 17.4007L35.5154 19.0245C36.555 19.2594 36.555 20.7406 35.5154 20.9754L28.3266 22.5992C27.6529 22.7514 27.3326 23.5246 27.7014 24.1086L31.6364 30.3401C32.2055 31.2412 31.1581 32.2886 30.257 31.7196L24.0255 27.7845C23.4415 27.4157 22.6683 27.736 22.5161 28.4097L20.8923 35.5986C20.6574 36.6381 19.1762 36.6381 18.9414 35.5986L17.3176 28.4097C17.1654 27.736 16.3922 27.4157 15.8082 27.7845L9.57669 31.7196C8.67557 32.2886 7.6282 31.2412 8.19724 30.3401L12.1323 24.1086C12.5011 23.5246 12.1808 22.7514 11.5071 22.5992L4.31824 20.9754C3.27868 20.7406 3.27869 19.2594 4.31824 19.0245L11.5071 17.4007C12.1808 17.2485 12.5011 16.4754 12.1323 15.8913L8.19723 9.65982C7.6282 8.7587 8.67558 7.71133 9.57669 8.28037L15.8082 12.2154C16.3922 12.5842 17.1654 12.264 17.3176 11.5902L18.9414 4.40137Z" fill="#FF553E"/>
<path d="M50.5926 30.325C47.0176 30.325 44.7926 27.7 44.7926 23.875C44.7926 20.025 47.0426 17.275 50.7676 17.275C52.4926 17.275 54.0176 18 54.7926 19.225V11.4H57.8176V30H55.0176L54.8176 28.075C54.0676 29.5 52.4676 30.325 50.5926 30.325ZM51.2676 27.525C53.3926 27.525 54.7676 26 54.7676 23.775C54.7676 21.55 53.3926 20 51.2676 20C49.1426 20 47.8426 21.575 47.8426 23.775C47.8426 25.975 49.1426 27.525 51.2676 27.525ZM66.5211 30.325C62.8461 30.325 60.2711 27.65 60.2711 23.825C60.2711 19.95 62.7961 17.275 66.4211 17.275C70.1211 17.275 72.4711 19.75 72.4711 23.6V24.525L63.1711 24.55C63.3961 26.725 64.5461 27.825 66.5711 27.825C68.2461 27.825 69.3461 27.175 69.6961 26H72.5211C71.9961 28.7 69.7461 30.325 66.5211 30.325ZM66.4461 19.775C64.6461 19.775 63.5461 20.75 63.2461 22.6H69.4461C69.4461 20.9 68.2711 19.775 66.4461 19.775ZM73.9621 26.25H76.8621C76.8871 27.325 77.6871 28 79.0871 28C80.5121 28 81.2871 27.425 81.2871 26.525C81.2871 25.9 80.9621 25.45 79.8621 25.2L77.6371 24.675C75.4121 24.175 74.3371 23.125 74.3371 21.15C74.3371 18.725 76.3871 17.275 79.2371 17.275C82.0121 17.275 83.8871 18.875 83.9121 21.275H81.0121C80.9871 20.225 80.2871 19.55 79.1121 19.55C77.9121 19.55 77.2121 20.1 77.2121 21.025C77.2121 21.725 77.7621 22.175 78.8121 22.425L81.0371 22.95C83.1121 23.425 84.1621 24.375 84.1621 26.275C84.1621 28.775 82.0371 30.325 78.9871 30.325C75.9121 30.325 73.9621 28.675 73.9621 26.25ZM88.0094 15.175C86.9594 15.175 86.1344 14.35 86.1344 13.325C86.1344 12.3 86.9594 11.5 88.0094 11.5C89.0094 11.5 89.8344 12.3 89.8344 13.325C89.8344 14.35 89.0094 15.175 88.0094 15.175ZM86.4844 30V17.65H89.5344V30H86.4844ZM91.9855 23.55C91.9855 19.95 94.3355 17.25 97.8605 17.25C99.7105 17.25 101.161 18.025 101.886 19.35L102.061 17.65H104.886V29.375C104.886 33.5 102.411 36.075 98.4105 36.075C94.8605 36.075 92.4355 34.05 92.0605 30.75H95.1105C95.3105 32.35 96.5355 33.3 98.4105 33.3C100.511 33.3 101.861 31.975 101.861 29.925V27.875C101.086 29.025 99.5605 29.75 97.7855 29.75C94.2855 29.75 91.9855 27.125 91.9855 23.55ZM95.0605 23.475C95.0605 25.55 96.3855 27.1 98.3855 27.1C100.486 27.1 101.786 25.625 101.786 23.475C101.786 21.375 100.511 19.925 98.3855 19.925C96.3605 19.925 95.0605 21.45 95.0605 23.475ZM111.092 30H108.042V17.65H110.867L111.117 19.25C111.892 18 113.392 17.275 115.067 17.275C118.167 17.275 119.767 19.2 119.767 22.4V30H116.717V23.125C116.717 21.05 115.692 20.05 114.117 20.05C112.242 20.05 111.092 21.35 111.092 23.35V30ZM122.514 17.65H124.264L124.514 16.1C125.014 13 126.739 11.4 129.564 11.4C130.064 11.4 130.614 11.425 131.064 11.525L130.664 14.05C130.314 14.05 129.989 14.025 129.639 14.025C128.314 14.025 127.639 14.65 127.414 16.1L127.164 17.65H130.064L129.664 20.1H126.789L125.214 30H122.314L123.889 20.1H122.114L122.514 17.65ZM129.922 24.7C129.922 20.575 133.147 17.325 137.172 17.325C140.697 17.325 143.072 19.575 143.072 22.925C143.072 27.05 139.872 30.3 135.822 30.3C132.297 30.3 129.922 28.05 129.922 24.7ZM132.922 24.475C132.922 26.425 134.097 27.7 135.997 27.7C138.247 27.7 140.072 25.675 140.072 23.15C140.072 21.175 138.897 19.9 137.022 19.9C134.772 19.9 132.922 21.925 132.922 24.475ZM147.395 30H144.47L147.395 11.4H150.345L147.395 30ZM154.397 15.15C153.497 15.15 152.872 14.475 152.872 13.625C152.872 12.525 153.847 11.525 154.972 11.525C155.847 11.525 156.497 12.175 156.497 13.05C156.497 14.125 155.497 15.15 154.397 15.15ZM150.597 30L152.547 17.65H155.472L153.522 30H150.597ZM156.826 24.7C156.826 20.575 160.051 17.325 164.076 17.325C167.601 17.325 169.976 19.575 169.976 22.925C169.976 27.05 166.776 30.3 162.726 30.3C159.201 30.3 156.826 28.05 156.826 24.7ZM159.826 24.475C159.826 26.425 161.001 27.7 162.901 27.7C165.151 27.7 166.976 25.675 166.976 23.15C166.976 21.175 165.801 19.9 163.926 19.9C161.676 19.9 159.826 21.925 159.826 24.475Z" fill="currentColor"/>
</svg>
