<svg width="155" height="32" viewBox="0 0 155 32" fill="none" xmlns="http://www.w3.org/2000/svg">
<path d="M8.53573 7.36213L14.3705 11.8723L15.7448 4.62683L17.3154 11.8323L23.0255 7.16537L19.597 13.6947L26.9711 13.7899L20.1478 16.5879L25.7354 21.4008L18.7099 19.1582L19.8966 26.4368L15.9563 20.203L12.1868 26.5415L13.1753 19.2334L6.21338 21.6659L11.6683 16.703L4.77148 14.0914L12.1403 13.7959L8.53573 7.36213Z" fill="#FF553E"/>
<path d="M34.7476 20.8979H33.2632V12.1469H34.7476L37.5729 19.1142L40.3981 12.1469H41.9065V20.8979H40.422V18.2043C40.422 16.4446 40.422 15.9298 40.5058 15.3073L38.2792 20.8979H36.8665L34.6518 15.3193C34.7356 15.846 34.7476 16.672 34.7476 17.7614V20.8979ZM45.3876 21.0535C44.1306 21.0535 43.3644 20.3233 43.3644 19.2099C43.3644 18.1205 44.1545 17.4382 45.5552 17.3304L47.3269 17.1988V17.0671C47.3269 16.265 46.8481 15.9418 46.1059 15.9418C45.2439 15.9418 44.7651 16.3009 44.7651 16.9234H43.5201C43.5201 15.6425 44.5735 14.8045 46.1777 14.8045C47.7699 14.8045 48.7515 15.6664 48.7515 17.3065V20.8979H47.4706L47.3629 20.024C47.1115 20.6345 46.3094 21.0535 45.3876 21.0535ZM45.8664 19.9522C46.7643 19.9522 47.3389 19.4134 47.3389 18.5036V18.1924L46.1059 18.2881C45.1961 18.3719 44.8489 18.6712 44.8489 19.1501C44.8489 19.6888 45.208 19.9522 45.8664 19.9522ZM52.6165 21.0535C50.9046 21.0535 49.8391 19.7965 49.8391 17.9649C49.8391 16.1213 50.9166 14.8045 52.7003 14.8045C53.5263 14.8045 54.2566 15.1517 54.6277 15.7383V11.9912H56.0762V20.8979H54.7354L54.6396 19.9761C54.2805 20.6585 53.5143 21.0535 52.6165 21.0535ZM52.9397 19.7127C53.9573 19.7127 54.6157 18.9825 54.6157 17.917C54.6157 16.8516 53.9573 16.1094 52.9397 16.1094C51.9222 16.1094 51.2996 16.8636 51.2996 17.917C51.2996 18.9705 51.9222 19.7127 52.9397 19.7127ZM60.2439 21.0535C58.4841 21.0535 57.2511 19.7726 57.2511 17.941C57.2511 16.0854 58.4602 14.8045 60.196 14.8045C61.9678 14.8045 63.0931 15.9896 63.0931 17.8332V18.2762L58.6397 18.2881C58.7475 19.3296 59.2982 19.8564 60.2678 19.8564C61.0699 19.8564 61.5967 19.5451 61.7643 18.9825H63.117C62.8656 20.2754 61.7882 21.0535 60.2439 21.0535ZM60.208 16.0016C59.3461 16.0016 58.8193 16.4685 58.6757 17.3544H61.6445C61.6445 16.5403 61.0819 16.0016 60.208 16.0016ZM68.7935 20.8979L66.8781 14.9841H68.3984L69.1766 17.522C69.3083 17.9889 69.428 18.5036 69.5357 19.0543C69.6434 18.4797 69.7512 18.1086 69.9427 17.522L70.7568 14.9841H72.2412L73.0313 17.522C73.1032 17.7614 73.3426 18.6473 73.4144 19.0423C73.5102 18.5994 73.7017 17.8931 73.8095 17.522L74.5996 14.9841H76.1439L74.0968 20.8979H72.732L71.918 18.336C71.6786 17.5579 71.5469 16.9952 71.499 16.696C71.4391 16.9713 71.3314 17.3903 71.0321 18.36L70.2181 20.8979H68.7935ZM77.7585 13.7989C77.2557 13.7989 76.8607 13.4038 76.8607 12.913C76.8607 12.4222 77.2557 12.0391 77.7585 12.0391C78.2374 12.0391 78.6324 12.4222 78.6324 12.913C78.6324 13.4038 78.2374 13.7989 77.7585 13.7989ZM77.0283 20.8979V14.9841H78.4888V20.8979H77.0283ZM82.0089 20.8979H80.5484V16.2051H79.4111V14.9841H80.5484V13.1405H82.0089V14.9841H83.1581V16.2051H82.0089V20.8979ZM85.5266 20.8979H84.0661V11.9912H85.5386V15.7502C85.9097 15.1756 86.604 14.8045 87.454 14.8045C88.9145 14.8045 89.6806 15.7263 89.6806 17.2586V20.8979H88.2201V17.6058C88.2201 16.6122 87.7293 16.1333 86.9871 16.1333C86.0653 16.1333 85.5266 16.7798 85.5266 17.6656V20.8979ZM96.7724 21.0535C95.0605 21.0535 93.9951 19.7965 93.9951 17.9649C93.9951 16.1213 95.0725 14.8045 96.8562 14.8045C97.6822 14.8045 98.4125 15.1517 98.7836 15.7383V11.9912H100.232V20.8979H98.8913L98.7956 19.9761C98.4364 20.6585 97.6703 21.0535 96.7724 21.0535ZM97.0956 19.7127C98.1132 19.7127 98.7716 18.9825 98.7716 17.917C98.7716 16.8516 98.1132 16.1094 97.0956 16.1094C96.0781 16.1094 95.4556 16.8636 95.4556 17.917C95.4556 18.9705 96.0781 19.7127 97.0956 19.7127ZM104.4 21.0535C102.64 21.0535 101.407 19.7726 101.407 17.941C101.407 16.0854 102.616 14.8045 104.352 14.8045C106.124 14.8045 107.249 15.9896 107.249 17.8332V18.2762L102.796 18.2881C102.903 19.3296 103.454 19.8564 104.424 19.8564C105.226 19.8564 105.753 19.5451 105.92 18.9825H107.273C107.022 20.2754 105.944 21.0535 104.4 21.0535ZM104.364 16.0016C103.502 16.0016 102.975 16.4685 102.832 17.3544H105.8C105.8 16.5403 105.238 16.0016 104.364 16.0016ZM107.963 19.1022H109.352C109.364 19.617 109.747 19.9402 110.417 19.9402C111.099 19.9402 111.471 19.6648 111.471 19.2339C111.471 18.9346 111.315 18.7191 110.788 18.5994L109.723 18.348C108.657 18.1086 108.143 17.6058 108.143 16.66C108.143 15.4988 109.124 14.8045 110.489 14.8045C111.818 14.8045 112.716 15.5707 112.728 16.7199H111.339C111.327 16.2171 110.992 15.8939 110.429 15.8939C109.854 15.8939 109.519 16.1572 109.519 16.6002C109.519 16.9354 109.783 17.1509 110.285 17.2706L111.351 17.522C112.344 17.7494 112.847 18.2043 112.847 19.1142C112.847 20.3113 111.83 21.0535 110.369 21.0535C108.897 21.0535 107.963 20.2634 107.963 19.1022ZM114.69 13.7989C114.187 13.7989 113.792 13.4038 113.792 12.913C113.792 12.4222 114.187 12.0391 114.69 12.0391C115.168 12.0391 115.563 12.4222 115.563 12.913C115.563 13.4038 115.168 13.7989 114.69 13.7989ZM113.959 20.8979V14.9841H115.42V20.8979H113.959ZM116.594 17.8093C116.594 16.0854 117.719 14.7925 119.407 14.7925C120.293 14.7925 120.987 15.1636 121.334 15.7981L121.418 14.9841H122.771V20.5986C122.771 22.5739 121.586 23.8069 119.67 23.8069C117.97 23.8069 116.809 22.8372 116.629 21.257H118.09C118.186 22.0232 118.772 22.4781 119.67 22.4781C120.676 22.4781 121.322 21.8436 121.322 20.862V19.8803C120.951 20.431 120.221 20.7782 119.371 20.7782C117.695 20.7782 116.594 19.5212 116.594 17.8093ZM118.066 17.7734C118.066 18.767 118.701 19.5092 119.658 19.5092C120.664 19.5092 121.286 18.8029 121.286 17.7734C121.286 16.7678 120.676 16.0734 119.658 16.0734C118.689 16.0734 118.066 16.8037 118.066 17.7734ZM125.743 20.8979H124.282V14.9841H125.635L125.755 15.7502C126.126 15.1517 126.844 14.8045 127.646 14.8045C129.131 14.8045 129.897 15.7263 129.897 17.2586V20.8979H128.436V17.6058C128.436 16.6122 127.945 16.1333 127.191 16.1333C126.293 16.1333 125.743 16.7558 125.743 17.7135V20.8979ZM131.212 14.9841H132.05L132.17 14.2418C132.409 12.7574 133.235 11.9912 134.588 11.9912C134.827 11.9912 135.091 12.0032 135.306 12.0511L135.115 13.2602C134.947 13.2602 134.791 13.2482 134.624 13.2482C133.989 13.2482 133.666 13.5475 133.558 14.2418L133.439 14.9841H134.827L134.636 16.1572H133.259L132.505 20.8979H131.116L131.87 16.1572H131.02L131.212 14.9841ZM134.76 18.36C134.76 16.3847 136.304 14.8284 138.231 14.8284C139.919 14.8284 141.056 15.9058 141.056 17.51C141.056 19.4853 139.524 21.0415 137.585 21.0415C135.897 21.0415 134.76 19.9641 134.76 18.36ZM136.196 18.2522C136.196 19.186 136.759 19.7965 137.669 19.7965C138.746 19.7965 139.62 18.8269 139.62 17.6177C139.62 16.672 139.057 16.0615 138.159 16.0615C137.082 16.0615 136.196 17.0312 136.196 18.2522ZM143.127 20.8979H141.726L143.127 11.9912H144.539L143.127 20.8979ZM146.48 13.7869C146.049 13.7869 145.749 13.4637 145.749 13.0567C145.749 12.5299 146.216 12.0511 146.755 12.0511C147.174 12.0511 147.485 12.3623 147.485 12.7813C147.485 13.2961 147.006 13.7869 146.48 13.7869ZM144.66 20.8979L145.594 14.9841H146.994L146.061 20.8979H144.66ZM147.643 18.36C147.643 16.3847 149.187 14.8284 151.114 14.8284C152.802 14.8284 153.94 15.9058 153.94 17.51C153.94 19.4853 152.407 21.0415 150.468 21.0415C148.78 21.0415 147.643 19.9641 147.643 18.36ZM149.079 18.2522C149.079 19.186 149.642 19.7965 150.552 19.7965C151.629 19.7965 152.503 18.8269 152.503 17.6177C152.503 16.672 151.94 16.0615 151.043 16.0615C149.965 16.0615 149.079 17.0312 149.079 18.2522Z" fill="currentColor"/>
</svg>
