<svg width="25" height="25" viewBox="0 0 25 25" fill="none" xmlns="http://www.w3.org/2000/svg">
<g clip-path="url(#clip0_2119_1642)">
<path d="M14.0695 12.0754C14.0695 15.9247 10.9758 19.0451 7.15985 19.0451C3.34387 19.0451 0.25 15.924 0.25 12.0754C0.25 8.22684 3.34363 5.10547 7.15985 5.10547C10.9761 5.10547 14.0695 8.22614 14.0695 12.0754Z" fill="currentColor"/>
<path d="M21.6481 12.0734C21.6481 15.6966 20.1013 18.635 18.1932 18.635C16.2851 18.635 14.7383 15.6966 14.7383 12.0734C14.7383 8.45012 16.2849 5.51172 18.193 5.51172C20.1011 5.51172 21.6479 8.44918 21.6479 12.0734" fill="currentColor"/>
<path d="M24.7503 12.0735C24.7503 15.3191 24.2064 17.9517 23.5352 17.9517C22.864 17.9517 22.3203 15.3198 22.3203 12.0735C22.3203 8.82727 22.8642 6.19531 23.5352 6.19531C24.2061 6.19531 24.7503 8.82703 24.7503 12.0735Z" fill="currentColor"/>
</g>
<defs>
<clipPath id="clip0_2119_1642">
<rect width="24.5" height="24.5" fill="white" transform="translate(0.25)"/>
</clipPath>
</defs>
</svg>
