<svg xmlns="http://www.w3.org/2000/svg" width="20" height="21" viewBox="0 0 20 21" fill="none">
<path d="M3.33331 13.3453C3.33331 9.66334 6.31808 6.67859 9.99998 6.67859C13.6819 6.67859 16.6666 9.66334 16.6666 13.3453V15.1634C16.6666 15.7972 16.6666 16.114 16.6095 16.3767C16.4015 17.3331 15.6545 18.0801 14.6981 18.2881C14.4354 18.3453 14.1186 18.3453 13.4848 18.3453H6.51513C5.8814 18.3453 5.56454 18.3453 5.3019 18.2881C4.34551 18.0801 3.5985 17.3331 3.39045 16.3767C3.33331 16.114 3.33331 15.7972 3.33331 15.1634V13.3453Z" stroke="#595959" stroke-width="1.25" stroke-linecap="round" stroke-linejoin="round"/>
<path d="M10 6.67859V4.17859" stroke="#595959" stroke-width="1.25" stroke-linecap="round" stroke-linejoin="round"/>
<path d="M10 4.17859C10.6904 4.17859 11.25 3.61894 11.25 2.92859C11.25 2.23823 10.6904 1.67859 10 1.67859C9.30964 1.67859 8.75 2.23823 8.75 2.92859C8.75 3.61894 9.30964 4.17859 10 4.17859Z" stroke="black" stroke-width="1.25" stroke-linecap="round" stroke-linejoin="round"/>
<path d="M7.5 10.8453V11.6787M12.5 10.8453V11.6787" stroke="black" stroke-width="1.25" stroke-linecap="round" stroke-linejoin="round"/>
<path d="M3.33331 15.4286H6.74882C7.2181 15.4286 7.65634 15.1941 7.91665 14.8036C8.17695 14.4131 8.61523 14.1786 9.08448 14.1786H10.9155C11.3847 14.1786 11.823 14.4131 12.0833 14.8036C12.3436 15.1941 12.7819 15.4286 13.2511 15.4286H16.6666" stroke="black" stroke-width="1.25" stroke-linecap="round" stroke-linejoin="round"/>
</svg>