<svg width="25" height="24" viewBox="0 0 25 24" fill="none" xmlns="http://www.w3.org/2000/svg">
<path d="M21.7499 12.79C21.5926 14.4922 20.9538 16.1144 19.9081 17.4668C18.8625 18.8192 17.4534 19.8458 15.8456 20.4265C14.2378 21.0073 12.4979 21.1181 10.8294 20.7461C9.16092 20.3741 7.6329 19.5345 6.42413 18.3258C5.21536 17.117 4.37584 15.589 4.00381 13.9205C3.63178 12.252 3.74262 10.5121 4.32336 8.9043C4.90411 7.29651 5.93073 5.88737 7.28311 4.84175C8.6355 3.79614 10.2577 3.15731 11.9599 3C10.9633 4.34827 10.4838 6.00945 10.6084 7.68141C10.7331 9.35338 11.4538 10.9251 12.6393 12.1106C13.8248 13.2961 15.3965 14.0168 17.0685 14.1415C18.7405 14.2662 20.4016 13.7866 21.7499 12.79Z" stroke="currentColor" stroke-width="2" stroke-linecap="round" stroke-linejoin="round"/>
</svg>
