<svg width="32" height="32" viewBox="0 0 32 32" fill="none" xmlns="http://www.w3.org/2000/svg">
<path d="M30 30H4V32H30V30Z" fill="#F7FEFF"/>
<path d="M30 4H28V20H4V30H30V4ZM6 28V22H28V28H6Z" fill="#231E2B"/>
<path d="M4 20H2V30H4V20Z" fill="#F7FEFF"/>
<path d="M28 24H24V26H22V24H6V28H28V24Z" fill="#4FAB59"/>
<path d="M24 24H22V26H24V24Z" fill="#356E69"/>
<path d="M28 22H6V24H28V22Z" fill="#ACC756"/>
<path d="M28 18H4V20H28V18Z" fill="#C7936B"/>
<path d="M4 14H2V20H4V14Z" fill="#231E2B"/>
<path d="M2 14H0V20H2V14Z" fill="#F7FEFF"/>
<path d="M4 4H2V14H4V4Z" fill="#F7FEFF"/>
<path d="M24 10H22V12H24V10Z" fill="#C7936B"/>
<path d="M18 10H16V12H18V10Z" fill="#C7936B"/>
<path d="M12 10H10V12H12V10Z" fill="#C7936B"/>
<path d="M8 14H6V16H8V14Z" fill="#C7936B"/>
<path d="M24 4H22V10H24V4Z" fill="#231E2B"/>
<path d="M18 4H16V10H18V4Z" fill="#231E2B"/>
<path d="M12 4H10V10H12V4Z" fill="#231E2B"/>
<path d="M6 4H4V14H6V4Z" fill="#231E2B"/>
<path d="M32 4H30V30H32V4Z" fill="#F7FEFF"/>
<path d="M24 4V12H22V4H18V12H16V4H12V12H10V4H6V14H4V18H28V4H24Z" fill="#E8BE9B"/>
<path d="M30 2H28V4H30V2Z" fill="#F7FEFF"/>
<path d="M28 2H24V4H28V2Z" fill="#231E2B"/>
<path d="M24 2H22V4H24V2Z" fill="#F7FEFF"/>
<path d="M22 2H18V4H22V2Z" fill="#231E2B"/>
<path d="M18 2H16V4H18V2Z" fill="#F7FEFF"/>
<path d="M16 2H12V4H16V2Z" fill="#231E2B"/>
<path d="M12 2H10V4H12V2Z" fill="#F7FEFF"/>
<path d="M10 2H6V4H10V2Z" fill="#231E2B"/>
<path d="M6 2H4V4H6V2Z" fill="#F7FEFF"/>
<path d="M28 0H24V2H28V0Z" fill="#F7FEFF"/>
<path d="M22 0H18V2H22V0Z" fill="#F7FEFF"/>
<path d="M16 0H12V2H16V0Z" fill="#F7FEFF"/>
<path d="M10 0H6V2H10V0Z" fill="#F7FEFF"/>
</svg>
