<svg width="21" height="20" viewBox="0 0 21 20" fill="none" xmlns="http://www.w3.org/2000/svg">
<path d="M10.5 18.3333C15.1024 18.3333 18.8334 14.6024 18.8334 10C18.8334 5.39764 15.1024 1.66668 10.5 1.66668C5.89765 1.66668 2.16669 5.39764 2.16669 10C2.16669 14.6024 5.89765 18.3333 10.5 18.3333Z" stroke="#475569" stroke-width="1.25" stroke-linecap="round" stroke-linejoin="round"/>
<path d="M12.1667 4.7816C12.1667 4.7816 11.2374 5.19841 10.5848 4.88044C9.78868 4.49266 8.99926 2.87184 10.5762 1.66668" stroke="#475569" stroke-width="1.25" stroke-linecap="round" stroke-linejoin="round"/>
<path d="M7.17416 7.50002H7.16669M13.8334 7.50002H13.8259" stroke="#475569" stroke-width="1.66667" stroke-linecap="round" stroke-linejoin="round"/>
<path d="M7.16669 12.5C7.92679 13.512 9.13694 14.1667 10.5 14.1667C11.8631 14.1667 13.0733 13.512 13.8334 12.5" stroke="#475569" stroke-width="1.25" stroke-linecap="round" stroke-linejoin="round"/>
</svg>
