<svg width="124" height="124" viewBox="0 0 124 124" fill="none" xmlns="http://www.w3.org/2000/svg">
<path d="M2 62.25C2 78.163 8.32141 93.4242 19.5736 104.676C30.8258 115.929 46.087 122.25 62 122.25C77.913 122.25 93.1742 115.929 104.426 104.676C115.679 93.4242 122 78.163 122 62.25C122 46.337 115.679 31.0758 104.426 19.8236C93.1742 8.57141 77.913 2.25 62 2.25C46.087 2.25 30.8258 8.57141 19.5736 19.8236C8.32141 31.0758 2 46.337 2 62.25Z" fill="#FFE500"/>
<path d="M62 2.25C50.1331 2.25 38.5328 5.76894 28.6658 12.3618C18.7989 18.9547 11.1085 28.3254 6.56725 39.289C2.026 50.2525 0.837797 62.3165 3.15291 73.9554C5.46802 85.5943 11.1825 96.2852 19.5736 104.676C27.9648 113.068 38.6557 118.782 50.2946 121.097C61.9335 123.412 73.9975 122.224 84.961 117.683C95.9246 113.141 105.295 105.451 111.888 95.5842C118.481 85.7172 122 74.1169 122 62.25C122 46.337 115.679 31.0758 104.426 19.8236C93.1742 8.57141 77.913 2.25 62 2.25ZM62 113.25C51.1715 113.25 40.5861 110.039 31.5826 104.023C22.579 98.0069 15.5615 89.4561 11.4176 79.4519C7.27372 69.4476 6.18949 58.4392 8.30203 47.8188C10.4146 37.1983 15.629 27.4428 23.2859 19.7859C30.9429 12.129 40.6984 6.91455 51.3188 4.80201C61.9393 2.68946 72.9477 3.7737 82.9519 7.91759C92.9562 12.0615 101.507 19.0789 107.523 28.0825C113.539 37.0861 116.75 47.6715 116.75 58.5C116.75 73.0206 110.982 86.9464 100.714 97.2141C90.4465 107.482 76.5206 113.25 62 113.25Z" fill="#EBCB00"/>
<path d="M44 14.25C44 15.4435 45.8964 16.5881 49.2721 17.432C52.6477 18.2759 57.2261 18.75 62 18.75C66.7739 18.75 71.3523 18.2759 74.7279 17.432C78.1036 16.5881 80 15.4435 80 14.25C80 13.0565 78.1036 11.9119 74.7279 11.068C71.3523 10.2241 66.7739 9.75 62 9.75C57.2261 9.75 52.6477 10.2241 49.2721 11.068C45.8964 11.9119 44 13.0565 44 14.25Z" fill="#FFF48C"/>
<path d="M2 62.25C2 78.163 8.32141 93.4242 19.5736 104.676C30.8258 115.929 46.087 122.25 62 122.25C77.913 122.25 93.1742 115.929 104.426 104.676C115.679 93.4242 122 78.163 122 62.25C122 46.337 115.679 31.0758 104.426 19.8236C93.1742 8.57141 77.913 2.25 62 2.25C46.087 2.25 30.8258 8.57141 19.5736 19.8236C8.32141 31.0758 2 46.337 2 62.25V62.25Z" stroke="#45413C" stroke-width="3" stroke-linecap="round" stroke-linejoin="round"/>
<path d="M105.5 77.25C105.5 79.74 102.14 81.75 98 81.75C93.86 81.75 90.5 79.74 90.5 77.25C90.5 74.76 93.86 72.75 98 72.75C102.14 72.75 105.5 74.76 105.5 77.25Z" fill="#FFAA54"/>
<path d="M18.5 77.25C18.5 79.74 21.86 81.75 26 81.75C30.14 81.75 33.5 79.74 33.5 77.25C33.5 74.76 30.14 72.75 26 72.75C21.86 72.75 18.5 74.76 18.5 77.25Z" fill="#FFAA54"/>
<path d="M62.001 107.4C89.601 107.4 93.291 95.8796 91.671 86.3996C91.3231 84.9828 90.6762 83.6569 89.7737 82.5107C88.8712 81.3645 87.7339 80.4246 86.4383 79.754C85.1427 79.0835 83.7186 78.6978 82.2617 78.6229C80.8047 78.5479 79.3486 78.7855 77.991 79.3196C72.8365 81.0356 67.4335 81.8871 62.001 81.8396C56.5686 81.8871 51.1656 81.0356 46.0111 79.3196C44.6535 78.7855 43.1974 78.5479 41.7404 78.6229C40.2835 78.6978 38.8594 79.0835 37.5638 79.754C36.2682 80.4246 35.1309 81.3645 34.2284 82.5107C33.3259 83.6569 32.679 84.9828 32.3311 86.3996C30.7111 95.8796 34.4011 107.4 62.001 107.4Z" fill="white" stroke="#45413C" stroke-width="3" stroke-linecap="round" stroke-linejoin="round"/>
<path d="M92 88.5859C87.6148 90.5883 82.969 91.9619 78.2 92.6659C72.8637 93.5254 67.4649 93.9368 62.06 93.8959C56.6551 93.9368 51.2563 93.5254 45.92 92.6659C41.11 91.9729 36.423 90.5992 32 88.5859" stroke="#45413C" stroke-width="3" stroke-linecap="round" stroke-linejoin="round"/>
<path d="M47.8107 79.9219L45.8607 92.6719L43.9707 104.942" stroke="#45413C" stroke-width="3" stroke-linecap="round" stroke-linejoin="round"/>
<path d="M62 107.402V81.9023" stroke="#45413C" stroke-width="3" stroke-linecap="round" stroke-linejoin="round"/>
<path d="M76.1914 79.9219L78.1414 92.6719L80.0314 104.942" stroke="#45413C" stroke-width="3" stroke-linecap="round" stroke-linejoin="round"/>
<path d="M33.5 59.25C33.5 59.8433 33.3241 60.4234 32.9944 60.9167C32.6648 61.4101 32.1962 61.7946 31.6481 62.0216C31.0999 62.2487 30.4967 62.3081 29.9147 62.1924C29.3328 62.0766 28.7982 61.7909 28.3787 61.3713C27.9591 60.9518 27.6734 60.4172 27.5576 59.8353C27.4419 59.2533 27.5013 58.6501 27.7284 58.102C27.9554 57.5538 28.3399 57.0852 28.8333 56.7556C29.3266 56.4259 29.9067 56.25 30.5 56.25C31.2957 56.25 32.0587 56.5661 32.6213 57.1287C33.1839 57.6913 33.5 58.4544 33.5 59.25Z" fill="#45413C" stroke="#45413C" stroke-width="3" stroke-linecap="round" stroke-linejoin="round"/>
<path d="M90.5 59.25C90.5 59.8433 90.6759 60.4234 91.0056 60.9167C91.3352 61.4101 91.8038 61.7946 92.352 62.0216C92.9001 62.2487 93.5033 62.3081 94.0853 62.1924C94.6672 62.0766 95.2018 61.7909 95.6213 61.3713C96.0409 60.9518 96.3266 60.4172 96.4424 59.8353C96.5581 59.2533 96.4987 58.6501 96.2716 58.102C96.0446 57.5538 95.6601 57.0852 95.1667 56.7556C94.6734 56.4259 94.0933 56.25 93.5 56.25C92.7043 56.25 91.9413 56.5661 91.3787 57.1287C90.8161 57.6913 90.5 58.4544 90.5 59.25Z" fill="#45413C" stroke="#45413C" stroke-width="3" stroke-linecap="round" stroke-linejoin="round"/>
</svg>
