<svg xmlns="http://www.w3.org/2000/svg" width="24" height="25" viewBox="0 0 24 25" fill="none">
  <path d="M7.99805 16.9169H11.998M7.99805 11.9169H15.998" stroke="black" stroke-width="1.5" stroke-linecap="round"/>
  <path d="M7.5 4.41687C5.9442 4.46354 5.01661 4.63671 4.37477 5.27914C3.49609 6.15864 3.49609 7.57417 3.49609 10.4052V16.9113C3.49609 19.7424 3.49609 21.1579 4.37477 22.0374C5.25345 22.9169 6.66767 22.9169 9.49609 22.9169H14.4961C17.3245 22.9169 18.7387 22.9169 19.6174 22.0374C20.4961 21.1579 20.4961 19.7424 20.4961 16.9113V10.4052C20.4961 7.57417 20.4961 6.15864 19.6174 5.27915C18.9756 4.63671 18.048 4.46354 16.4922 4.41687" stroke="black" stroke-width="1.5"/>
  <path d="M7.49609 4.66687C7.49609 3.70037 8.2796 2.91687 9.24609 2.91687H14.7461C15.7126 2.91687 16.4961 3.70037 16.4961 4.66687C16.4961 5.63337 15.7126 6.41687 14.7461 6.41687H9.24609C8.2796 6.41687 7.49609 5.63337 7.49609 4.66687Z" stroke="black" stroke-width="1.5" stroke-linejoin="round"/>
</svg>