<svg width="25" height="26" viewBox="0 0 25 26" fill="none" xmlns="http://www.w3.org/2000/svg">
<path fill-rule="evenodd" clip-rule="evenodd" d="M16.204 0.0583781L2.04011 1.10382C0.898013 1.20296 0.5 1.94976 0.5 2.84507V18.3727C0.5 19.0703 0.748095 19.6666 1.34471 20.4636L4.67425 24.7934C5.22115 25.4906 5.71817 25.6398 6.76249 25.5899L23.2109 24.5943C24.6021 24.4953 25 23.8478 25 22.753V5.28396C25 4.71802 24.7766 4.55454 24.118 4.07261C24.0818 4.0461 24.0442 4.01862 24.0053 3.99005L19.484 0.804977C18.3908 0.00901277 17.9433 -0.0911458 16.204 0.0583781ZM7.13527 4.99803C5.79236 5.08892 5.48721 5.10957 4.7246 4.48861L2.78526 2.94583C2.58746 2.74633 2.68667 2.49747 3.18326 2.44811L16.8002 1.45264C17.9429 1.35289 18.5391 1.75169 18.9867 2.0999L21.3222 3.79219C21.4216 3.84175 21.6697 4.13999 21.3714 4.13999L7.30863 4.98635L7.13527 4.99803ZM5.56974 22.6033V7.77269C5.56974 7.12584 5.76853 6.827 6.36454 6.77681L22.5151 5.83153C23.0629 5.78176 23.311 6.13038 23.311 6.77681V21.5078C23.311 22.1553 23.2113 22.7035 22.3165 22.7528L6.86154 23.6492C5.96713 23.6985 5.56974 23.4003 5.56974 22.6033ZM20.8259 8.56812C20.925 9.01651 20.8259 9.46446 20.3778 9.51484L19.6331 9.66355V20.6124C18.9866 20.9607 18.3904 21.1598 17.8936 21.1598C17.0981 21.1598 16.8989 20.9108 16.3031 20.1647L11.4323 12.5004V19.9158L12.9736 20.2644C12.9736 20.2644 12.9736 21.1598 11.7301 21.1598L8.30193 21.3592C8.20233 21.1598 8.30193 20.6626 8.64964 20.5629L9.54424 20.3144V10.5099L8.30213 10.4101C8.20254 9.96179 8.45062 9.31534 9.14685 9.26516L12.8245 9.01669L17.8936 16.7807V9.91241L16.6011 9.76372C16.5019 9.2156 16.8989 8.8176 17.3959 8.76824L20.8259 8.56812Z" fill="black"/>
</svg>
