<svg xmlns="http://www.w3.org/2000/svg" width="131" height="42" viewBox="0 0 91 34" fill="none">
  <g clip-path="url(#clip0_1482_1321)">
    <path d="M73.4477 16.6837L82.0647 32.4079H90.5297L73.4477 1.26392L56.4164 32.4586H64.8813L73.4477 16.6837Z" fill="#474747"/>
    <path d="M45.4676 25.1545V1.2132H38.0164V32.4586H52.412L56.4164 25.1545H45.4676Z" fill="#474747"/>
    <path d="M17.082 0.09729C13.6858 0.09729 10.3911 1.06103 7.60323 2.88706C4.76467 4.76381 2.58506 7.35069 1.31785 10.3941C-5.19734e-05 13.4882 -0.354872 16.8359 0.304079 20.0822C0.96303 23.3285 2.58506 26.3211 4.96742 28.6544C7.34978 30.9876 10.3911 32.6108 13.6858 33.2195C16.9806 33.8789 20.4274 33.5238 23.5194 32.2557C26.6114 30.9876 29.2979 28.8573 31.1734 26.0675C33.0489 23.3285 34.0626 20.0822 34.0626 16.7852C34.0626 12.3723 32.2885 8.11154 29.0952 4.96671C25.9018 1.8726 21.5933 0.09729 17.082 0.09729ZM17.082 25.8646C15.2572 25.8646 13.4831 25.3574 11.9624 24.3429C10.4418 23.3792 9.27595 21.9589 8.56631 20.2851C7.85667 18.6619 7.7046 16.8359 8.00873 15.0606C8.36355 13.2853 9.22526 11.7129 10.4925 10.4448C11.7597 9.17672 13.4324 8.31443 15.2065 7.95937C16.9806 7.60431 18.8561 7.8072 20.5288 8.4666C22.2015 9.126 23.6208 10.2926 24.6346 11.7636C25.6483 13.2346 26.2059 15.0099 26.2059 16.7852C26.2059 19.1692 25.2428 21.4517 23.5194 23.1763C21.796 24.9009 19.4643 25.8646 17.082 25.8646Z" fill="#474747"/>
  </g>
  <defs>
    <clipPath id="clip0_1482_1321">
      <rect width="90.479" height="33.4772" fill="white" transform="translate(0 0.09729)"/>
    </clipPath>
  </defs>
</svg>