<svg width="20" height="21" viewBox="0 0 20 21" fill="none" xmlns="http://www.w3.org/2000/svg">
<path d="M15.8333 9.18089V8.34489C15.8333 5.20219 15.8333 3.63085 14.857 2.65453C13.8807 1.67822 12.3093 1.67822 9.16667 1.67822H8.34017L2.5 7.50029V11.6834C2.5 14.8211 2.5 16.3899 3.47342 17.3657L3.4792 17.3715C4.45502 18.3449 6.02383 18.3449 9.1615 18.3449" stroke="#404040" stroke-width="1.25" stroke-linecap="round" stroke-linejoin="round"/>
<path d="M2.5 7.51351H3.33333C5.69036 7.51351 6.86887 7.51351 7.6011 6.78128C8.33333 6.04904 8.33333 4.87053 8.33333 2.51351V1.68018" stroke="#404040" stroke-width="1.25" stroke-linecap="round" stroke-linejoin="round"/>
<path d="M13.6724 18.0105C13.8494 18.459 14.484 18.459 14.6609 18.0105L14.6915 17.9328C15.1235 16.8374 15.9906 15.9704 17.0859 15.5384L17.1637 15.5077C17.6121 15.3309 17.6121 14.6961 17.1637 14.5193L17.0859 14.4886C15.9906 14.0566 15.1235 13.1896 14.6915 12.0943L14.6609 12.0166C14.484 11.5681 13.8494 11.5681 13.6724 12.0166L13.6419 12.0943C13.2099 13.1896 12.3428 14.0566 11.2474 14.4886L11.1697 14.5193C10.7213 14.6961 10.7213 15.3309 11.1697 15.5077L11.2474 15.5384C12.3428 15.9704 13.2099 16.8374 13.6419 17.9328L13.6724 18.0105Z" stroke="black" stroke-width="1.25" stroke-linecap="round" stroke-linejoin="round"/>
</svg>
