<svg width="25" height="24" viewBox="0 0 25 24" fill="none" xmlns="http://www.w3.org/2000/svg">
<path d="M18.6481 22.3129V14.3802" stroke="#020202" stroke-width="1.5" stroke-linecap="round" stroke-linejoin="round"/>
<path d="M14.6817 18.3469H22.6144" stroke="#020202" stroke-width="1.5" stroke-linecap="round" stroke-linejoin="round"/>
<path d="M2.51923 7.72822C2.61705 8.64248 3.35238 9.37781 4.26619 9.47967C4.94495 9.55533 5.64186 9.62031 6.35239 9.62031C7.06293 9.62031 7.75984 9.55533 8.43859 9.47967C9.35241 9.37781 10.0877 8.64248 10.1856 7.72822C10.2578 7.0533 10.3187 6.36039 10.3187 5.65396C10.3187 4.94753 10.2578 4.25462 10.1856 3.5797C10.0877 2.66544 9.35241 1.93011 8.43859 1.82825C7.75984 1.75259 7.06293 1.68761 6.35239 1.68761C5.64186 1.68761 4.94495 1.75259 4.26619 1.82825C3.35238 1.93011 2.61705 2.66544 2.51923 3.5797C2.44702 4.25462 2.38605 4.94753 2.38605 5.65396C2.38605 6.36039 2.44702 7.0533 2.51923 7.72822Z" fill="#FF553E" stroke="#020202" stroke-width="1.5" stroke-linecap="round" stroke-linejoin="round"/>
<path d="M2.51923 20.4207C2.61705 21.335 3.35238 22.0703 4.26619 22.1722C4.94495 22.2479 5.64186 22.3128 6.35239 22.3128C7.06293 22.3128 7.75984 22.2479 8.43859 22.1722C9.35241 22.0703 10.0877 21.335 10.1856 20.4207C10.2578 19.7458 10.3187 19.0529 10.3187 18.3465C10.3187 17.6401 10.2578 16.9471 10.1856 16.2722C10.0877 15.358 9.35241 14.6226 8.43859 14.5208C7.75984 14.4451 7.06293 14.3801 6.35239 14.3801C5.64186 14.3801 4.94495 14.4451 4.26619 14.5208C3.35238 14.6226 2.61705 15.358 2.51923 16.2722C2.44702 16.9471 2.38605 17.6401 2.38605 18.3465C2.38605 19.0529 2.44702 19.7458 2.51923 20.4207Z" fill="#FF553E" stroke="#020202" stroke-width="1.5" stroke-linecap="round" stroke-linejoin="round"/>
<path d="M14.8149 7.72821C14.9127 8.64247 15.648 9.37781 16.5618 9.47966C17.2406 9.55532 17.9375 9.6203 18.648 9.6203C19.3586 9.6203 20.0555 9.55532 20.7342 9.47966C21.6481 9.37781 22.3834 8.64247 22.4812 7.72821C22.5534 7.05329 22.6144 6.36038 22.6144 5.65395C22.6144 4.94753 22.5534 4.25461 22.4812 3.57969C22.3834 2.66544 21.648 1.9301 20.7342 1.82824C20.0555 1.75259 19.3586 1.68761 18.648 1.68761C17.9375 1.68761 17.2406 1.75259 16.5618 1.82824C15.648 1.9301 14.9127 2.66544 14.8149 3.57969C14.7427 4.25461 14.6817 4.94753 14.6817 5.65395C14.6817 6.36038 14.7427 7.05329 14.8149 7.72821Z" fill="#FF553E" stroke="#020202" stroke-width="1.5" stroke-linecap="round" stroke-linejoin="round"/>
</svg>
