<svg width="51" height="52" viewBox="0 0 51 52" fill="none" xmlns="http://www.w3.org/2000/svg">
<path d="M34.023 6.56315L15.2067 29.5529L21.925 36.2712L44.9147 17.4549C48.4579 14.555 48.723 9.22998 45.4855 5.99244C42.2479 2.75491 36.9229 3.02003 34.023 6.56315Z" fill="#FF553E"/>
<path d="M34.023 6.56315L15.2067 29.5529L21.925 36.2712L44.9147 17.4549C48.4579 14.555 48.723 9.22998 45.4855 5.99244C42.2479 2.75491 36.9229 3.02003 34.023 6.56315Z" stroke="#202937" stroke-width="3" stroke-linecap="round" stroke-linejoin="round"/>
<path d="M21.1429 44.7463C22.1309 43.8356 22.9194 42.7301 23.4587 41.4995C23.9981 40.2689 24.2765 38.9399 24.2765 37.5963C24.2765 36.2526 23.9981 34.9236 23.4587 33.693C22.9194 32.4624 22.1309 31.3569 21.1429 30.4463C20.2323 29.4583 19.1268 28.6698 17.8962 28.1305C16.6656 27.5911 15.3366 27.3127 13.9929 27.3127C12.6493 27.3127 11.3203 27.5911 10.0897 28.1305C8.85907 28.6698 7.75358 29.4583 6.84294 30.4463C3.26794 34.0213 3.26794 48.3213 3.26794 48.3213C3.26794 48.3213 17.5679 48.3213 21.1429 44.7463Z" fill="white" stroke="#202937" stroke-width="3" stroke-linecap="round" stroke-linejoin="round"/>
<path d="M3.26794 48.3212L11.6915 39.8978" stroke="#202937" stroke-width="3" stroke-linecap="round" stroke-linejoin="round"/>
</svg>
