<svg xmlns="http://www.w3.org/2000/svg" width="20" height="21" viewBox="0 0 20 21" fill="none">
<path d="M3.33331 4.17859C3.33331 3.55841 3.33331 3.24833 3.40758 2.99541C3.58335 2.39678 4.0515 1.92863 4.65014 1.75286C4.90305 1.67859 5.21314 1.67859 5.83331 1.67859H11.6666C12.2868 1.67859 12.5969 1.67859 12.8498 1.75286C13.4485 1.92863 13.9166 2.39678 14.0924 2.99541C14.1666 3.24833 14.1666 3.55841 14.1666 4.17859C14.1666 4.79876 14.1666 5.10885 14.0924 5.36176C13.9166 5.9604 13.4485 6.42855 12.8498 6.60432C12.5969 6.67859 12.2868 6.67859 11.6666 6.67859H5.83331C5.21314 6.67859 4.90305 6.67859 4.65014 6.60432C4.0515 6.42855 3.58335 5.9604 3.40758 5.36176C3.33331 5.10885 3.33331 4.79876 3.33331 4.17859Z" stroke="#595959" stroke-width="1.25" stroke-linecap="round"/>
<path d="M10 14.5953C10 14.2071 10 14.0129 10.0634 13.8598C10.148 13.6556 10.3103 13.4933 10.5144 13.4088C10.6676 13.3453 10.8617 13.3453 11.25 13.3453C11.6382 13.3453 11.8324 13.3453 11.9856 13.4088C12.1897 13.4933 12.352 13.6556 12.4366 13.8598C12.5 14.0129 12.5 14.2071 12.5 14.5953V17.0953C12.5 17.4836 12.5 17.6778 12.4366 17.8309C12.352 18.0351 12.1897 18.1973 11.9856 18.2819C11.8324 18.3453 11.6382 18.3453 11.25 18.3453C10.8617 18.3453 10.6676 18.3453 10.5144 18.2819C10.3103 18.1973 10.148 18.0351 10.0634 17.8309C10 17.6778 10 17.4836 10 17.0953V14.5953Z" stroke="#595959" stroke-width="1.25" stroke-linecap="round"/>
<path d="M14.3742 4.17859C15.0864 4.17859 15.4425 4.17859 15.7234 4.30546C16.6648 4.73059 16.6671 5.73091 16.6671 6.68211C16.6671 7.47913 16.6671 7.87764 16.5584 8.21375C16.2094 9.29342 14.7822 9.81859 13.403 10.2097C12.4172 10.4892 11.9242 10.6289 11.5871 11.0749C11.25 11.5208 11.25 12.0443 11.25 13.0913V13.3453" stroke="black" stroke-width="1.25" stroke-linecap="round" stroke-linejoin="round"/>
</svg>