<svg xmlns="http://www.w3.org/2000/svg" width="131" height="42" viewBox="0 0 159 54" fill="none">
  <path d="M26.1271 46.4903C37.1013 46.4903 45.9976 37.6481 45.9976 26.7407C45.9976 15.8332 37.1013 6.99103 26.1271 6.99103C15.1529 6.99103 6.25655 15.8332 6.25655 26.7407C6.25655 37.6481 15.1529 46.4903 26.1271 46.4903Z" fill="#474747"/>
  <path d="M106.771 38.0402V30.8674C106.771 29.0988 106.103 28.2145 104.448 28.2145C103.78 28.2145 103.014 28.3127 102.569 28.4356V38.9245C102.569 39.2438 102.248 39.5877 101.902 39.5877H99.3564C99.0351 39.5877 98.6891 39.2684 98.6891 38.9245V26.6669C98.6891 26.2248 99.0104 25.9054 99.3564 25.7826C101.012 25.2422 102.693 24.8983 104.472 24.8983C108.476 24.8983 110.7 26.9863 110.7 30.8674V39.0227C110.7 39.3421 110.379 39.686 110.033 39.686H108.476C107.438 39.686 106.771 38.9245 106.771 38.0402ZM116.755 33.7414L116.657 34.724C116.657 36.0505 117.546 36.812 118.98 36.812C120.092 36.812 121.081 36.4926 122.193 35.9276C122.292 35.9276 122.415 35.8294 122.514 35.8294C122.736 35.8294 122.835 35.9276 122.959 36.0505C123.058 36.1487 123.28 36.4926 123.28 36.4926C123.503 36.812 123.725 37.2541 123.725 37.598C123.725 38.1384 123.404 38.7034 122.959 38.9245C121.748 39.5877 120.29 39.907 118.733 39.907C116.953 39.907 115.52 39.4649 114.408 38.5806C113.295 37.598 112.628 36.2715 112.628 34.6012V30.3024C112.628 26.888 114.852 24.7755 118.634 24.7755C122.292 24.7755 124.417 26.7652 124.417 30.3024V32.9554C124.417 33.2747 124.096 33.6186 123.75 33.6186H116.755V33.7414ZM116.657 31.3096H120.883V30.2042C120.883 28.8777 120.117 27.9934 118.782 27.9934C117.447 27.9934 116.681 28.7549 116.681 30.2042C116.657 30.2042 116.657 31.3096 116.657 31.3096ZM144.955 33.7414L144.856 34.724C144.856 36.0505 145.746 36.812 147.179 36.812C148.291 36.812 149.28 36.4926 150.392 35.9276C150.491 35.9276 150.614 35.8294 150.713 35.8294C150.936 35.8294 151.035 35.9276 151.158 36.0505C151.257 36.1487 151.479 36.4926 151.479 36.4926C151.702 36.812 151.924 37.2541 151.924 37.598C151.924 38.1384 151.603 38.7034 151.158 38.9245C149.947 39.5877 148.489 39.907 146.932 39.907C145.153 39.907 143.719 39.4649 142.607 38.5806C141.495 37.598 140.827 36.2715 140.827 34.6012V30.3024C140.827 26.888 143.052 24.7755 146.833 24.7755C150.491 24.7755 152.616 26.7652 152.616 30.3024V32.9554C152.616 33.2747 152.295 33.6186 151.949 33.6186H144.955V33.7414ZM144.856 31.3096H149.082V30.2042C149.082 28.8777 148.316 27.9934 146.981 27.9934C145.647 27.9934 144.881 28.7549 144.881 30.2042V31.3096H144.856ZM79.56 39.686H81.117C81.4383 39.686 81.7843 39.3666 81.7843 39.0227V30.8674C81.7843 27.1091 79.7824 24.8983 76.446 24.8983C75.4574 24.8983 74.3452 25.1194 73.6779 25.3405V21.2628C73.6779 20.3785 72.9118 19.617 72.0221 19.617H70.465C70.1437 19.617 69.7977 19.9363 69.7977 20.2802V39.0473C69.7977 39.3666 70.119 39.7105 70.465 39.7105H73.0106C73.3319 39.7105 73.6779 39.3912 73.6779 39.0473V28.6566C74.2217 28.4356 75.0125 28.3373 75.5562 28.3373C77.2121 28.3373 77.8794 29.0988 77.8794 30.9902V38.163C78.003 38.9245 78.6703 39.686 79.56 39.686ZM96.3165 30.4253V34.5029C96.3165 37.9173 93.9933 40.0299 90.0884 40.0299C86.3071 40.0299 83.8603 37.9419 83.8603 34.5029V30.4253C83.8603 27.0108 86.1835 24.8983 90.0884 24.8983C93.9933 24.8983 96.3165 27.0108 96.3165 30.4253ZM92.4363 30.4253C92.4363 29.0988 91.6702 28.2145 90.212 28.2145C88.7538 28.2145 87.9877 28.976 87.9877 30.4253V34.5029C87.9877 35.8294 88.7538 36.5909 90.212 36.5909C91.6702 36.5909 92.4363 35.8294 92.4363 34.5029V30.4253ZM67.6723 28.5584C67.6723 32.0711 65.0031 34.5029 61.4689 34.5029C60.5792 34.5029 59.813 34.4047 59.0222 34.0608V39.0227C59.0222 39.3421 58.7009 39.686 58.3549 39.686H55.8093C55.488 39.686 55.142 39.3666 55.142 39.0227V21.4839C55.142 21.0417 55.4633 20.7224 55.8093 20.5996C57.4652 20.0592 59.1458 19.7153 60.9252 19.7153C64.929 19.7153 67.697 22.1471 67.697 25.9054C67.6723 25.9054 67.6723 28.5584 67.6723 28.5584ZM63.6932 25.6844C63.6932 23.9157 62.4822 23.0314 60.8016 23.0314C59.813 23.0314 59.1458 23.3508 59.1458 23.3508V30.6463C59.813 30.9657 60.1343 31.0885 60.9252 31.0885C62.5811 31.0885 63.8168 30.1059 63.8168 28.4356V25.6844H63.6932ZM139.419 28.5584C139.419 32.0956 136.75 34.5275 133.191 34.5275C132.301 34.5275 131.535 34.4292 130.744 34.0853V39.0473C130.744 39.3666 130.423 39.7105 130.077 39.7105H127.531C127.21 39.7105 126.864 39.3912 126.864 39.0473V21.4839C126.864 21.0417 127.185 20.7224 127.531 20.5996C129.187 20.0592 130.867 19.7153 132.647 19.7153C136.651 19.7153 139.419 22.1471 139.419 25.9054V28.5584ZM135.415 25.6844C135.415 23.9157 134.204 23.0314 132.523 23.0314C131.535 23.0314 130.867 23.3508 130.867 23.3508V30.6463C131.535 30.9657 131.856 31.0885 132.647 31.0885C134.303 31.0885 135.539 30.1059 135.539 28.4356V25.6844H135.415Z" fill="#474747"/>
  <path d="M35.1479 21.5821C35.1479 20.8206 34.4806 20.1574 33.7144 20.1574H31.0453L24.9408 13.2057C24.397 12.5425 23.5073 12.3214 22.6176 12.5425L20.5169 13.2057C20.1956 13.304 20.072 13.7461 20.2944 13.9672L26.9674 20.2557H16.8591C16.5378 20.2557 16.3154 20.4767 16.3154 20.7961V21.9015C16.3154 22.663 16.9827 23.3262 17.7488 23.3262H19.3058V28.6566C19.3058 32.636 21.4066 34.9451 24.9655 34.9451C26.0776 34.9451 26.9674 34.8468 28.0795 34.4046V37.9419C28.0795 38.9245 28.8457 39.7105 29.859 39.7105H31.416C31.7373 39.7105 32.0833 39.3912 32.0833 39.0473V23.2771H34.6289C34.9502 23.2771 35.1726 23.056 35.1726 22.7366C35.1479 22.6875 35.1479 21.5821 35.1479 21.5821ZM28.0301 31.0885C27.3628 31.4078 26.4731 31.5306 25.8058 31.5306C24.0263 31.5306 23.1366 30.6463 23.1366 28.6566V23.3508H28.0301V31.0885Z" fill="#FAFAF7"/>
</svg>