<svg width="32" height="32" viewBox="0 0 32 32" fill="none" xmlns="http://www.w3.org/2000/svg">
<path d="M30 8L30 30L32 30L32 8L30 8Z" fill="#F7FEFF"/>
<path d="M28 6L28 8L30 8L30 6L28 6Z" fill="#F7FEFF"/>
<path d="M28 20L6 20L6 30L30 30L30 8L28 8L28 20ZM28 28L8 28L8 22L28 22L28 28Z" fill="#231E2B"/>
<path d="M26 4L26 6L28 6L28 4L26 4Z" fill="#F7FEFF"/>
<path d="M26 6L26 8L28 8L28 6L26 6Z" fill="#231E2B"/>
<path d="M26 8L26 20L28 20L28 8L26 8Z" fill="#C7936B"/>
<path d="M26 22L26 28L28 28L28 22L26 22Z" fill="#356E69"/>
<path d="M6 30L6 32L30 32L30 30L6 30Z" fill="#F7FEFF"/>
<path d="M24 6L24 8L26 8L26 6L24 6Z" fill="#F7FEFF"/>
<path d="M24 8L24 10L26 10L26 8L24 8Z" fill="#231E2B"/>
<path d="M26 22L8 22L8 24L10 24L10 28L26 28L26 22ZM22 26L22 24L24 24L24 26L22 26Z" fill="#4FAB59"/>
<path d="M20 4L20 6L24 6L24 4L20 4Z" fill="#F7FEFF"/>
<path d="M22 24L22 26L24 26L24 24L22 24Z" fill="#356E69"/>
<path d="M20 6L20 8L24 8L24 6L20 6Z" fill="#231E2B"/>
<path d="M18 6L18 8L20 8L20 6L18 6Z" fill="#F7FEFF"/>
<path d="M18 8L18 10L20 10L20 8L18 8Z" fill="#231E2B"/>
<path d="M14 4L14 6L18 6L18 4L14 4Z" fill="#F7FEFF"/>
<path d="M12 2L12 4L14 4L14 2L12 2Z" fill="#F7FEFF"/>
<path d="M12 10L14 10L14 8L18 8L18 6L14 6L14 4L12 4L12 10Z" fill="#231E2B"/>
<path d="M8 0L8 2L12 2L12 -1.74846e-07L8 0Z" fill="#F7FEFF"/>
<path d="M8 2L8 4L12 4L12 2L8 2Z" fill="#231E2B"/>
<path d="M8 14L4 14L4 18L6 18L6 20L26 20L26 10L24 10L24 8L20 8L20 10L18 10L18 8L14 8L14 10L12 10L12 4L8 4L8 14Z" fill="#E8BE9B"/>
<path d="M8 24L8 28L10 28L10 24L8 24Z" fill="#ACC756"/>
<path d="M6 2L6 4L8 4L8 2L6 2Z" fill="#F7FEFF"/>
<path d="M4 4L4 12L6 12L6 4L4 4Z" fill="#F7FEFF"/>
<path d="M8 14L8 4L6 4L6 12L4 12L4 14L8 14Z" fill="#231E2B"/>
<path d="M4 18L4 20L6 20L6 18L4 18Z" fill="#231E2B"/>
<path d="M4 20L4 30L6 30L6 20L4 20Z" fill="#F7FEFF"/>
<path d="M2 12L2 14L4 14L4 12L2 12Z" fill="#F7FEFF"/>
<path d="M2 14L2 18L4 18L4 14L2 14Z" fill="#231E2B"/>
<path d="M2 18L2 20L4 20L4 18L2 18Z" fill="#F7FEFF"/>
<path d="M-1.74846e-07 14L0 18L2 18L2 14L-1.74846e-07 14Z" fill="#F7FEFF"/>
</svg>
