<svg xmlns="http://www.w3.org/2000/svg" width="51" height="52" fill="none">
  <path
    fill="#fff"
    stroke="currentColor"
    stroke-width="3"
    d="M6.786 40.649c.34 3.433 3.038 6.204 6.458 6.654 3.965.522 8.063 1.04 12.256 1.04 4.194 0 8.292-.518 12.256-1.04 3.42-.45 6.12-3.221 6.458-6.654.467-4.728.949-9.628.949-14.649 0-2.952-.167-5.863-.399-8.72-.558-6.877-6.053-12.622-12.92-13.287-2.086-.201-4.203-.337-6.344-.337-4.194 0-8.291.52-12.256 1.04-3.42.45-6.119 3.222-6.458 6.655-.467 4.728-.948 9.628-.948 14.649 0 5.021.48 9.92.948 14.649Z"
  />
  <path
    fill="#FF553E"
    stroke="currentColor"
    stroke-linejoin="round"
    stroke-width="3"
    d="M29.24 10.806v7.809h8.773a7.15 7.15 0 0 1 7.149 7.01c-.014-2.824-.175-5.609-.398-8.346-.558-6.876-6.053-12.621-12.92-13.286-2.086-.201-4.203-.337-6.344-.337-.836 0-1.669.02-2.497.058a7.151 7.151 0 0 1 6.237 7.092Z"
  />
</svg>
