<svg width="25" height="24" viewBox="0 0 25 24" fill="none" xmlns="http://www.w3.org/2000/svg">
<path d="M8.84846 4.91847L11.7411 2.0416C11.8405 1.93022 11.9623 1.8411 12.0985 1.78007C12.2347 1.71905 12.3822 1.6875 12.5315 1.6875C12.6807 1.6875 12.8283 1.71905 12.9645 1.78007C13.7975 2.15327 14.6128 2.68781 15.4202 3.19354C15.8164 3.44172 15.801 4.06991 15.4661 4.39613C14.3123 5.66498 14.36 7.67663 15.5727 8.88932C16.7854 10.102 18.797 10.1498 20.0659 8.99596C20.3911 8.6621 21.0179 8.64862 21.2629 9.04517C21.7819 9.88547 22.3321 10.7333 22.7198 11.5986C22.7808 11.7348 22.8124 11.8824 22.8124 12.0316C22.8124 12.1809 22.7808 12.3284 22.7198 12.4646C22.6588 12.6008 22.5697 12.7226 22.4583 12.822L19.5814 15.6514C22.3131 15.8166 23.6123 19.2421 21.6771 21.1773C19.7892 23.0652 16.3175 21.8295 16.1513 19.0815L13.2586 21.9584C13.1593 22.0698 13.0375 22.1589 12.9013 22.2199C12.7651 22.281 12.6175 22.3125 12.4683 22.3125C12.319 22.3125 12.1714 22.281 12.0352 22.2199C11.2279 21.8582 10.442 21.3118 9.66829 20.795C9.27335 20.5311 9.29865 19.8974 9.63886 19.566C10.8915 18.3047 10.8843 16.2031 9.62305 14.9504C8.36175 13.6977 6.2601 13.7049 5.00742 14.9662C4.67735 15.305 4.04558 15.3274 3.78633 14.9318C3.24361 14.1035 2.66616 13.2634 2.27995 12.4014C2.21892 12.2652 2.18738 12.1176 2.18738 11.9684C2.18738 11.8191 2.21892 11.6716 2.27995 11.5354C2.34098 11.3992 2.4301 11.2774 2.54148 11.178L5.41835 8.34859C2.65745 8.2093 1.41809 4.71408 3.31602 2.81615C5.24373 0.888442 8.71024 2.17862 8.84846 4.91847Z" fill="#FF553E" stroke="currentColor" stroke-width="1.5" stroke-linecap="round" stroke-linejoin="round"/>
</svg>
