<svg width="25" height="25" viewBox="0 0 25 25" fill="none" xmlns="http://www.w3.org/2000/svg">
<path d="M14.9275 16.8828C14.9275 14.9972 14.9275 14.0544 15.5133 13.4686C16.0991 12.8828 17.0419 12.8828 18.9275 12.8828C20.8131 12.8828 21.7559 12.8828 22.3417 13.4686C22.9275 14.0544 22.9275 14.9972 22.9275 16.8828C22.9275 18.7684 22.9275 19.7112 22.3417 20.297C21.7559 20.8828 20.8131 20.8828 18.9275 20.8828C17.0419 20.8828 16.0991 20.8828 15.5133 20.297C14.9275 19.7112 14.9275 18.7684 14.9275 16.8828Z" stroke="currentColor" stroke-width="1.5"/>
<path d="M14.9275 16.8828V12.7454C14.9275 9.0785 17.4432 5.96865 20.9275 4.88281" stroke="currentColor" stroke-width="1.5" stroke-linecap="round"/>
<path d="M2.92749 16.8828C2.92749 14.9972 2.92749 14.0544 3.51328 13.4686C4.09906 12.8828 5.04187 12.8828 6.92749 12.8828C8.81311 12.8828 9.75592 12.8828 10.3417 13.4686C10.9275 14.0544 10.9275 14.9972 10.9275 16.8828C10.9275 18.7684 10.9275 19.7112 10.3417 20.297C9.75592 20.8828 8.81311 20.8828 6.92749 20.8828C5.04187 20.8828 4.09906 20.8828 3.51328 20.297C2.92749 19.7112 2.92749 18.7684 2.92749 16.8828Z" stroke="currentColor" stroke-width="1.5"/>
<path d="M2.92749 16.8828V12.7454C2.92749 9.0785 5.4432 5.96865 8.92749 4.88281" stroke="currentColor" stroke-width="1.5" stroke-linecap="round"/>
</svg>
