<svg width="12" height="12" viewBox="0 0 16 17" fill="none" xmlns="http://www.w3.org/2000/svg">
<g clip-path="url(#clip0_4099_1463)">
<path fill-rule="evenodd" clip-rule="evenodd" d="M2.67529 1.16825C2.67652 0.892107 2.45366 0.667253 2.17752 0.666021C1.90138 0.664789 1.67653 0.887645 1.6753 1.16378L1.66926 2.51647C1.667 3.01973 1.66512 3.43945 1.70197 3.77691C1.74063 4.13087 1.82702 4.45709 2.04633 4.74048C2.09381 4.80183 2.14512 4.86002 2.19991 4.91473C2.254 4.96873 2.3115 5.01933 2.37207 5.06621C2.65546 5.28552 2.98168 5.37192 3.33563 5.41057C3.67309 5.44742 4.09281 5.44554 4.59605 5.44328L5.94876 5.43725C6.2249 5.43601 6.44776 5.21116 6.44652 4.93502C6.44529 4.65888 6.22044 4.43602 5.9443 4.43726L4.62049 4.44316C4.08088 4.44557 3.71842 4.44643 3.44419 4.41648C3.42357 4.41423 3.40383 4.41184 3.38494 4.40931C4.51534 3.13475 6.16383 2.33268 8.00016 2.33268C11.4059 2.33268 14.1668 5.09359 14.1668 8.49935C14.1668 8.77549 14.3907 8.99935 14.6668 8.99935C14.943 8.99935 15.1668 8.77549 15.1668 8.49935C15.1668 4.54131 11.9582 1.33268 8.00016 1.33268C5.89832 1.33268 4.00745 2.23806 2.69719 3.67853L2.69606 3.66835C2.66611 3.39413 2.66697 3.03167 2.66938 2.49205L2.67529 1.16825Z" fill="currentColor"/>
<path d="M1.8335 8.49935C1.8335 8.22321 1.60964 7.99935 1.3335 7.99935C1.05735 7.99935 0.833496 8.22321 0.833496 8.49935C0.833496 12.4574 4.04212 15.666 8.00016 15.666C10.0786 15.666 11.9508 14.7806 13.2592 13.368C13.2804 13.6306 13.2795 13.9712 13.2773 14.453L13.2714 15.7768C13.2702 16.053 13.493 16.2778 13.7692 16.2791C14.0453 16.2803 14.2702 16.0574 14.2714 15.7813L14.2774 14.4286C14.2797 13.9254 14.2816 13.5056 14.2447 13.1682C14.2061 12.8142 14.1197 12.488 13.9004 12.2046C13.8592 12.1514 13.8152 12.1006 13.7685 12.0524C13.7081 11.9901 13.6434 11.9321 13.5746 11.8789C13.2912 11.6596 12.965 11.5732 12.6111 11.5345C12.2736 11.4977 11.8539 11.4995 11.3507 11.5018L9.99794 11.5078C9.7218 11.5091 9.49894 11.7339 9.50017 12.0101C9.5014 12.2862 9.72626 12.5091 10.0024 12.5078L11.3262 12.5019C11.8658 12.4995 12.2283 12.4987 12.5025 12.5286C12.5579 12.5347 12.6068 12.5417 12.6503 12.5497C11.5191 13.8473 9.8555 14.666 8.00016 14.666C4.59441 14.666 1.8335 11.9051 1.8335 8.49935Z" fill="currentColor"/>
</g>
<defs>
<clipPath id="clip0_4099_1463">
<rect width="16" height="16" fill="white" transform="translate(0 0.5)"/>
</clipPath>
</defs>
</svg>
