<svg xmlns="http://www.w3.org/2000/svg" width="25" height="24" viewBox="0 0 25 24" fill="none">
  <path
    fill="#FF553E"
    d="M21.366 18.738a107.759 107.759 0 0 0 .174-9.515 3.152 3.152 0 0 0-.606-1.787c-1.45-1.977-2.607-3.206-4.512-4.676a3.099 3.099 0 0 0-1.827-.638A95.64 95.64 0 0 0 12.5 2.1c-2.24 0-4.045.067-5.914.196a3.172 3.172 0 0 0-2.953 2.966A107.753 107.753 0 0 0 3.425 12c0 2.31.072 4.563.208 6.738a3.172 3.172 0 0 0 2.953 2.966c1.869.128 3.675.196 5.914.196s4.045-.067 5.914-.196a3.172 3.172 0 0 0 2.952-2.966Z"
  />
  <path
    stroke="currentColor"
    strokeWidth="1.5"
    d="M21.366 18.738a107.759 107.759 0 0 0 .174-9.515 3.152 3.152 0 0 0-.606-1.787c-1.45-1.977-2.607-3.206-4.512-4.676a3.099 3.099 0 0 0-1.827-.638A95.64 95.64 0 0 0 12.5 2.1c-2.24 0-4.045.067-5.914.196a3.172 3.172 0 0 0-2.953 2.966A107.753 107.753 0 0 0 3.425 12c0 2.31.072 4.563.208 6.738a3.172 3.172 0 0 0 2.953 2.966c1.869.128 3.675.196 5.914.196s4.045-.067 5.914-.196a3.172 3.172 0 0 0 2.952-2.966Z"
  />
  <path
    stroke="currentColor"
    strokeLinecap="round"
    strokeWidth="1.5"
    d="M9.354 12.026h6.291"
  />
  <path
    stroke="currentColor"
    strokeLinecap="round"
    strokeLinejoin="round"
    strokeWidth="1.5"
    d="M9.354 16.821h6.272M9.354 7.05h3.797"
  />
</svg>
