<svg xmlns="http://www.w3.org/2000/svg" width="20" height="21" viewBox="0 0 20 21" fill="none">
<path d="M11.6271 4.04599C12.6498 3.0233 13.1611 2.51196 13.7965 2.51196C14.4319 2.51196 14.9433 3.0233 15.966 4.04599C16.9887 5.06868 17.5 5.58002 17.5 6.21544C17.5 6.85085 16.9887 7.3622 15.966 8.38488M8.37292 15.978C7.35023 17.0006 6.83889 17.512 6.20347 17.512C5.56806 17.512 5.05672 17.0006 4.03403 15.978C3.01134 14.9552 2.5 14.4439 2.5 13.8085C2.5 13.173 3.01134 12.6617 4.03403 11.639" stroke="#595959" stroke-width="1.25" stroke-linecap="round" stroke-linejoin="round"/>
<path d="M5.66111 10.012L4.03403 8.38488C3.01134 7.3622 2.5 6.85085 2.5 6.21544C2.5 5.58002 3.01134 5.06868 4.03403 4.04599C5.05672 3.0233 5.56806 2.51196 6.20347 2.51196C6.83889 2.51196 7.35023 3.0233 8.37292 4.04599L10 5.67307M5.66111 10.012L10 5.67307M5.66111 10.012L10 14.3509M10 5.67307L14.3389 10.012M10 14.3509L11.6271 15.978C12.6498 17.0006 13.1611 17.512 13.7965 17.512C14.4319 17.512 14.9433 17.0006 15.966 15.978C16.9887 14.9552 17.5 14.4439 17.5 13.8085C17.5 13.173 16.9887 12.6617 15.966 11.639L14.3389 10.012M10 14.3509L14.3389 10.012" stroke="#595959" stroke-width="1.25" stroke-linecap="round" stroke-linejoin="round"/>
</svg>