<svg xmlns="http://www.w3.org/2000/svg" width="20" height="21" viewBox="0 0 20 21" fill="none">
<path d="M11.4397 2.88207L12.9062 5.83932C13.1062 6.25098 13.6394 6.64584 14.0894 6.72144L16.7474 7.16671C18.4473 7.45236 18.8473 8.69575 17.6224 9.92234L15.5559 12.0058C15.2059 12.3587 15.0144 13.0392 15.1226 13.5265L15.7143 16.1057C16.1809 18.1472 15.1059 18.9369 13.3145 17.8699L10.8231 16.3829C10.3732 16.1141 9.6316 16.1141 9.17327 16.3829L6.68191 17.8699C4.89877 18.9369 3.81556 18.1388 4.28218 16.1057L4.87378 13.5265C4.98209 13.0392 4.79045 12.3587 4.44049 12.0058L2.37405 9.92234C1.15752 8.69575 1.54914 7.45236 3.24895 7.16671L5.90699 6.72144C6.34861 6.64584 6.88189 6.25098 7.08186 5.83932L8.54835 2.88207C9.34827 1.27743 10.6481 1.27743 11.4397 2.88207Z" stroke="#404040" stroke-width="1.25" stroke-linecap="round" stroke-linejoin="round"/>
</svg>