<svg width="32" height="32" viewBox="0 0 32 32" fill="none" xmlns="http://www.w3.org/2000/svg">
<path d="M20 30H12V32H20V30Z" fill="#F7FEFF"/>
<path d="M24 28H20V30H24V28Z" fill="#F7FEFF"/>
<path d="M20 28H12V30H20V28Z" fill="#231E2B"/>
<path d="M12 28H8V30H12V28Z" fill="#F7FEFF"/>
<path d="M26 26H24V28H26V26Z" fill="#F7FEFF"/>
<path d="M24 26H20V28H24V26Z" fill="#231E2B"/>
<path d="M20 26H12V28H20V26Z" fill="#892727"/>
<path d="M12 26H8V28H12V26Z" fill="#231E2B"/>
<path d="M8 26H6V28H8V26Z" fill="#F7FEFF"/>
<path d="M28 24H26V26H28V24Z" fill="#F7FEFF"/>
<path d="M26 24H24V26H26V24Z" fill="#231E2B"/>
<path d="M24 24H22V26H24V24Z" fill="#892727"/>
<path d="M22 24H20V26H22V24Z" fill="#B0392E"/>
<path d="M20 24H12V26H20V24Z" fill="#231E2B"/>
<path d="M12 24H8V26H12V24Z" fill="#892727"/>
<path d="M8 24H6V26H8V24Z" fill="#231E2B"/>
<path d="M6 24H4V26H6V24Z" fill="#F7FEFF"/>
<path d="M22 22H20V24H22V22Z" fill="#231E2B"/>
<path d="M14 22H12V24H14V22Z" fill="#B6B7B8"/>
<path d="M12 22H10V24H12V22Z" fill="#231E2B"/>
<path d="M10 22H12V20H6V22H8V24H10V22Z" fill="#B0392E"/>
<path d="M8 22H6V24H8V22Z" fill="#892727"/>
<path d="M6 20H4V24H6V20Z" fill="#231E2B"/>
<path d="M30 20H28V24H30V20Z" fill="#F7FEFF"/>
<path d="M28 20H26V24H28V20Z" fill="#231E2B"/>
<path d="M24 22H22V24H26V20H24V22Z" fill="#B0392E"/>
<path d="M24 20H22V22H24V20Z" fill="#231E2B"/>
<path d="M16 20H14V22H16V20Z" fill="#B6B7B8"/>
<path d="M14 20H12V22H14V20Z" fill="#231E2B"/>
<path d="M4 20H2V24H4V20Z" fill="#F7FEFF"/>
<path d="M18 18H16V20H18V18Z" fill="#B6B7B8"/>
<path d="M16 18H14V20H16V18Z" fill="#231E2B"/>
<path d="M14 18H12V20H14V18Z" fill="#B0392E"/>
<path d="M12 18H10V20H12V18Z" fill="#CF6B55"/>
<path d="M10 20V18H8V12H6V20H10Z" fill="#231E2B"/>
<path d="M4 12H2V20H4V12Z" fill="#231E2B"/>
<path d="M30 12H28V20H30V12Z" fill="#231E2B"/>
<path d="M26 12H24V20H26V12Z" fill="#231E2B"/>
<path d="M20 16H18V18H20V16Z" fill="#B6B7B8"/>
<path d="M18 16H16V18H18V16Z" fill="#231E2B"/>
<path d="M16 16H14V18H16V16Z" fill="#B0392E"/>
<path d="M14 16H12V18H14V16Z" fill="#CF6B55"/>
<path d="M12 16H10V18H12V16Z" fill="#231E2B"/>
<path d="M6 12H4V20H6V12Z" fill="#B0392E"/>
<path d="M2 12H0V20H2V12Z" fill="#F7FEFF"/>
<path d="M22 16H20V18H18V20H16V22H14V24H20V22H22V20H24V14H22V16Z" fill="#F7FEFF"/>
<path d="M22 14H20V16H22V14Z" fill="#B6B7B8"/>
<path d="M20 14H18V16H20V14Z" fill="#231E2B"/>
<path d="M18 14H16V16H18V14Z" fill="#B0392E"/>
<path d="M16 14H14V16H16V14Z" fill="#CF6B55"/>
<path d="M14 14H12V16H14V14Z" fill="#231E2B"/>
<path d="M12 16V14H14V12H16V10H18V8H12V10H10V12H8V18H10V16H12Z" fill="#F7FEFF"/>
<path d="M32 12H30V20H32V12Z" fill="#F7FEFF"/>
<path d="M28 12H26V20H28V12Z" fill="#B0392E"/>
<path d="M24 12H22V14H24V12Z" fill="#B6B7B8"/>
<path d="M22 12H20V14H22V12Z" fill="#231E2B"/>
<path d="M20 12H18V14H20V12Z" fill="#B0392E"/>
<path d="M18 12H16V14H18V12Z" fill="#CF6B55"/>
<path d="M16 12H14V14H16V12Z" fill="#231E2B"/>
<path d="M30 8H28V12H30V8Z" fill="#F7FEFF"/>
<path d="M26 10H24V12H26V10Z" fill="#B0392E"/>
<path d="M24 10H22V12H24V10Z" fill="#231E2B"/>
<path d="M20 10H18V12H20V10Z" fill="#CF6B55"/>
<path d="M18 10H16V12H18V10Z" fill="#231E2B"/>
<path d="M10 10H8V12H10V10Z" fill="#231E2B"/>
<path d="M8 10H10V8H6V12H8V10Z" fill="#B0392E"/>
<path d="M6 8H4V12H6V8Z" fill="#231E2B"/>
<path d="M4 8H2V12H4V8Z" fill="#F7FEFF"/>
<path d="M28 8H26V12H28V8Z" fill="#231E2B"/>
<path d="M26 8H24V10H26V8Z" fill="#CF6B55"/>
<path d="M20 8V12H22V10H24V8H20Z" fill="#B0392E"/>
<path d="M12 8H10V10H12V8Z" fill="#231E2B"/>
<path d="M28 6H26V8H28V6Z" fill="#F7FEFF"/>
<path d="M26 6H24V8H26V6Z" fill="#231E2B"/>
<path d="M24 6H20V8H24V6Z" fill="#CF6B55"/>
<path d="M18 8V10H20V6H12V8H18Z" fill="#231E2B"/>
<path d="M12 6H10V8H12V6Z" fill="#B0392E"/>
<path d="M10 6H8V8H10V6Z" fill="#CF6B55"/>
<path d="M8 6H6V8H8V6Z" fill="#231E2B"/>
<path d="M6 6H4V8H6V6Z" fill="#F7FEFF"/>
<path d="M26 4H24V6H26V4Z" fill="#F7FEFF"/>
<path d="M24 4H20V6H24V4Z" fill="#231E2B"/>
<path d="M20 4H12V6H20V4Z" fill="#CF6B55"/>
<path d="M12 4H8V6H12V4Z" fill="#231E2B"/>
<path d="M8 4H6V6H8V4Z" fill="#F7FEFF"/>
<path d="M24 2H20V4H24V2Z" fill="#F7FEFF"/>
<path d="M20 2H12V4H20V2Z" fill="#231E2B"/>
<path d="M12 2H8V4H12V2Z" fill="#F7FEFF"/>
<path d="M20 0H12V2H20V0Z" fill="#F7FEFF"/>
</svg>
