<svg width="21" height="20" viewBox="0 0 21 20" fill="none" xmlns="http://www.w3.org/2000/svg">
<path d="M2.93407 6.25C2.35946 7.3799 2.03558 8.65833 2.03558 10.0123C2.03558 14.6079 5.76654 18.3333 10.3689 18.3333C14.9712 18.3333 18.7022 14.6079 18.7022 10.0123C18.7022 8.65833 18.3784 7.3799 17.8038 6.25" stroke="#34C759" stroke-width="1.25" stroke-linecap="round" stroke-linejoin="round"/>
<path d="M7.03558 12.5C7.79568 13.512 9.00583 14.1667 10.3689 14.1667C11.732 14.1667 12.9422 13.512 13.7023 12.5" stroke="#34C759" stroke-width="1.25" stroke-linecap="round" stroke-linejoin="round"/>
<path d="M10.3689 4.99999C14.9713 4.99999 18.7022 4.2538 18.7022 3.33332C18.7022 2.41285 14.9713 1.66666 10.3689 1.66666C5.76654 1.66666 2.03558 2.41285 2.03558 3.33332C2.03558 4.2538 5.76654 4.99999 10.3689 4.99999Z" stroke="#34C759" stroke-width="1.25" stroke-linecap="round" stroke-linejoin="round"/>
<path d="M6.20221 8.74999C6.20221 8.05961 6.76185 7.49996 7.45221 7.49996C8.14257 7.49996 8.70221 8.05961 8.70221 8.74999M12.0355 8.74991C12.0355 8.05958 12.5952 7.49994 13.2855 7.49994C13.9759 7.49994 14.5355 8.05958 14.5355 8.74991" stroke="#34C759" stroke-width="1.25" stroke-linecap="round" stroke-linejoin="round"/>
</svg>
