<svg xmlns="http://www.w3.org/2000/svg" width="148" height="44" viewBox="0 0 148 44" fill="none">
  <g clip-path="url(#clip0_1507_6370)">
    <path d="M15.0434 43.1381C15.0163 43.1112 14.9893 43.0843 14.9623 43.0574C14.4488 42.4112 11.2597 38.4263 7.98949 33.3375C7.01654 31.722 6.36791 30.4296 6.50304 30.1065C6.82736 29.2449 12.5029 28.7872 14.2326 29.568C14.7731 29.8103 14.7461 30.1065 14.7461 30.295C14.7461 31.0758 14.719 33.1759 14.719 33.1759C14.719 33.6067 15.0704 33.9568 15.5028 33.9568C15.9352 33.9568 16.2866 33.6067 16.2866 33.1759V27.9525C16.2866 27.4948 15.8001 27.3871 15.692 27.3602C14.7731 27.3602 12.9353 27.3602 10.9354 27.3602C6.55709 27.3602 5.55712 27.5486 4.82741 27.064C3.20583 26.0139 0.584274 18.9327 0.503195 14.9478C0.422116 9.3205 3.77338 4.4471 8.47596 2.05079C10.4489 1.05457 12.665 0.516071 15.0163 0.516071C22.5026 0.462221 28.6376 6.06259 29.4484 13.2785C29.4484 13.2785 29.4484 13.2785 29.4484 13.3054C29.6105 15.0555 19.9621 15.4324 18.0433 14.9209C17.746 14.8401 17.6649 14.5439 17.6649 14.4093C17.6649 13.09 17.6649 9.34743 17.6649 9.34743C17.6649 8.91663 17.3136 8.56661 16.8811 8.56661C16.4487 8.56661 16.0974 8.91663 16.0974 9.34743L16.1244 16.2133C16.1244 16.6441 16.5028 16.7518 16.6109 16.7787C17.6919 16.7787 20.2324 16.7787 22.6107 16.7787C25.7998 16.7787 27.1511 17.1556 28.043 17.8288C28.6376 18.2865 28.8538 19.1481 28.6646 20.252C26.8268 30.268 15.4758 42.6266 15.0434 43.1381ZM45.8263 19.8481C48.6911 21.0597 50.4749 22.4329 50.4749 25.3946C50.4749 28.4372 48.1506 30.4027 44.5831 30.4027C41.6913 30.4027 39.367 29.0834 38.2049 26.8217L38.0157 26.4447L41.421 24.4792L41.6373 24.8561C42.394 26.0947 43.2588 26.6332 44.502 26.6332C45.5831 26.6332 46.2858 26.1485 46.2858 25.4485C46.2858 24.6677 45.7723 24.3715 44.1507 23.6715L43.3399 23.3214C41.1508 22.3791 39.1238 21.1136 39.1238 17.9634C39.1238 15.1632 41.2859 13.1977 44.3939 13.1977C46.7452 13.1977 48.3398 14.1131 49.4479 16.0517L49.6641 16.4017L46.3669 18.5288L46.1507 18.1249C45.6101 17.1287 45.0696 16.9402 44.421 16.9402C43.7183 16.9402 43.2859 17.3172 43.2859 17.9095C43.2859 18.5827 43.6102 18.8788 45.0426 19.4981L45.8263 19.8481ZM69.9608 20.4135L72.3662 13.7362H76.5012L70.3662 30.6988H69.4473L65.7447 22.7291C65.5826 22.3521 65.3934 21.9213 65.2312 21.4905C65.0691 21.8944 64.8799 22.3521 64.7177 22.7291L60.88 30.6719H59.9611L53.745 13.7093H58.1503L60.5827 20.3866C60.7449 20.8174 60.907 21.329 61.0422 21.8136C61.2043 21.329 61.3935 20.7905 61.6097 20.3328L64.7988 13.5477H65.6907L68.9338 20.3328C69.1501 20.7636 69.3392 21.3021 69.5014 21.8136C69.6636 21.3559 69.8257 20.8443 69.9608 20.4135ZM81.3389 30.1873V13.3862H85.501V30.1873H81.3389ZM99.1763 24.5331V20.7636H106.906V28.3025L106.744 28.4372C105.852 29.1641 103.501 30.3757 100.338 30.3757C94.9602 30.3757 91.2306 26.8217 91.2306 21.7598C91.2306 16.7787 94.8521 13.1708 99.8249 13.1708C102.555 13.1708 104.582 13.9516 105.96 15.5132L106.23 15.8094L103.392 18.6096L103.095 18.2865C102.311 17.4787 101.474 16.9672 99.8249 16.9672C97.2845 16.9672 95.5007 18.9327 95.5007 21.7329C95.5007 24.6677 97.3926 26.5524 100.338 26.5524C101.311 26.5524 102.338 26.3909 103.014 26.1216V24.5061H99.1763V24.5331ZM120.311 24.5331V20.7636H128.04V28.3025L127.878 28.4372C126.986 29.1641 124.635 30.3757 121.473 30.3757C116.095 30.3757 112.365 26.8217 112.365 21.7598C112.365 16.7787 115.987 13.1708 120.96 13.1708C123.689 13.1708 125.716 13.9516 127.094 15.5132L127.365 15.8094L124.527 18.6096L124.23 18.2865C123.446 17.4787 122.608 16.9672 120.96 16.9672C118.419 16.9672 116.635 18.9327 116.635 21.7329C116.635 24.6677 118.527 26.5524 121.5 26.5524C122.473 26.5524 123.5 26.3909 124.176 26.1216V24.5061H120.311V24.5331ZM143.337 13.3862H147.689L141.689 24.56V30.1873H137.5V24.8023L131.148 13.3862H135.797L138.743 18.7442C139.067 19.3366 139.391 20.0904 139.635 20.7366C139.878 20.1174 140.202 19.3635 140.5 18.7711L143.337 13.3862Z" fill="#43433C"/>
  </g>
  <defs>
    <clipPath id="clip0_1507_6370">
      <rect width="147.158" height="42.6759" fill="white" transform="translate(0.530298 0.462097)"/>
    </clipPath>
  </defs>
</svg>