<svg xmlns="http://www.w3.org/2000/svg" width="15" height="15" viewBox="0 0 15 15" fill="none">
<mask id="mask0_1170_1020" style="mask-type:luminance" maskUnits="userSpaceOnUse" x="0" y="5" width="15" height="10">
<path fill-rule="evenodd" clip-rule="evenodd" d="M0.543945 5.19531H14.2044V14.583H0.543945V5.19531Z" fill="white"/>
</mask>
<g mask="url(#mask0_1170_1020)">
<path fill-rule="evenodd" clip-rule="evenodd" d="M11.1754 14.583H3.57321C1.90319 14.583 0.543945 13.2244 0.543945 11.5537V8.22389C0.543945 6.55387 1.90319 5.19531 3.57321 5.19531H4.21048C4.49326 5.19531 4.72276 5.42481 4.72276 5.70759C4.72276 5.99037 4.49326 6.21987 4.21048 6.21987H3.57321C2.46737 6.21987 1.5685 7.11874 1.5685 8.22389V11.5537C1.5685 12.6595 2.46737 13.5584 3.57321 13.5584H11.1754C12.2805 13.5584 13.1801 12.6595 13.1801 11.5537V8.21775C13.1801 7.11601 12.284 6.21987 11.1829 6.21987H10.5388C10.256 6.21987 10.0265 5.99037 10.0265 5.70759C10.0265 5.42481 10.256 5.19531 10.5388 5.19531H11.1829C12.8488 5.19531 14.2047 6.55114 14.2047 8.21775V11.5537C14.2047 13.2244 12.8454 14.583 11.1754 14.583Z" fill="#7E839A"/>
</g>
<mask id="mask1_1170_1020" style="mask-type:luminance" maskUnits="userSpaceOnUse" x="6" y="0" width="2" height="10">
<path fill-rule="evenodd" clip-rule="evenodd" d="M6.86133 0.554688H7.88588V9.80361H6.86133V0.554688Z" fill="white"/>
</mask>
<g mask="url(#mask1_1170_1020)">
<path fill-rule="evenodd" clip-rule="evenodd" d="M7.3736 9.80367C7.09083 9.80367 6.86133 9.57417 6.86133 9.2914V1.06696C6.86133 0.784187 7.09083 0.554688 7.3736 0.554688C7.65638 0.554688 7.88588 0.784187 7.88588 1.06696V9.2914C7.88588 9.57417 7.65638 9.80367 7.3736 9.80367Z" fill="#7E839A"/>
</g>
<path fill-rule="evenodd" clip-rule="evenodd" d="M5.3832 3.58101C5.25274 3.58101 5.1216 3.53114 5.02188 3.43142C4.82175 3.23197 4.82038 2.90822 5.02051 2.7074L7.01156 0.707474C7.20349 0.514175 7.54501 0.514175 7.73694 0.707474L9.72867 2.7074C9.92812 2.90822 9.92744 3.23197 9.72731 3.43142C9.5265 3.63087 9.20274 3.63087 9.00329 3.43005L7.37425 1.79487L5.74589 3.43005C5.64617 3.53114 5.51434 3.58101 5.3832 3.58101Z" fill="#7E839A"/>
</svg>