<svg xmlns="http://www.w3.org/2000/svg" width="20" height="21" viewBox="0 0 20 21" fill="none">
<path d="M12.5 12.512C12.5 13.2023 13.0597 13.762 13.75 13.762C14.4403 13.762 15 13.2023 15 12.512C15 11.8216 14.4403 11.262 13.75 11.262C13.0597 11.262 12.5 11.8216 12.5 12.512Z" stroke="#595959" stroke-width="1.25"/>
<path d="M12.5032 6.51412C7.98016 6.2007 4.25392 5.52955 2.5 5.01178V12.563C2.5 14.225 2.5 15.056 3.01632 15.7337C3.53263 16.4115 4.24103 16.6029 5.65781 16.9857C7.94686 17.6042 10.3529 17.9726 12.5088 18.1832C14.7432 18.4016 15.8604 18.5107 16.6802 17.7616C17.5 17.0124 17.5 15.809 17.5 13.402V11.724C17.5 9.38656 17.5 8.21786 16.8274 7.49251C16.1549 6.76716 14.9377 6.68281 12.5032 6.51412Z" stroke="#595959" stroke-width="1.25" stroke-linecap="round" stroke-linejoin="round"/>
<path d="M14.6882 6.67865C15.0029 5.49259 15.2877 3.3355 14.4392 2.26441C13.9013 1.58554 13.1019 1.65076 12.3182 1.7197C8.19826 2.08203 5.28787 2.81807 3.66084 3.31812C2.96123 3.53315 2.5 4.21633 2.5 4.97901" stroke="black" stroke-width="1.25" stroke-linejoin="round"/>
</svg>